<svg width="30" height="29" viewBox="0 0 30 29" fill="none" xmlns="http://www.w3.org/2000/svg">
<g clip-path="url(#clip0)">
<path d="M5.72727 0.72876L2.44389 1.45741L1.34943 3.64335V23.6812L1.71425 26.2314L3.90317 27.3244H10.4699H13.3885L13.7533 22.5882L12.6589 20.0379V19.3093L10.4699 18.945L10.1051 18.5806L9.7403 16.0304V13.8444L13.3885 14.2087V12.7515V10.5655L13.7533 8.37956L15.2126 6.92227L17.4015 5.8293L23.6035 6.19362V10.5655H22.509L18.1312 11.2942L18.496 13.8444L23.2387 14.2087L22.509 18.945L18.496 19.3093L18.1312 23.6812L18.496 27.3244L21.7794 28.0531H24.3331L26.1572 27.3244L27.2517 26.2314L28.3462 24.7741V4.00768L27.6165 2.18606L25.0628 0.72876H5.72727Z" fill="white"/>
<path d="M4.81832 28.4173H14.0999V18.3158H10.7652V14.9857H14.0999V10.823C14.0999 8.52518 15.9673 6.6603 18.2682 6.6603H22.4366V9.99045H19.1019C18.1849 9.99045 17.4346 10.7397 17.4346 11.6555V14.9857H22.2865L21.7308 18.3158H17.4346V28.4173H24.9376C27.2386 28.4173 29.106 26.5524 29.106 24.2546V4.16269C29.106 1.86488 27.2386 0 24.9376 0H4.81832C2.51739 0 0.649963 1.86488 0.649963 4.16269V24.2546C0.649963 26.5524 2.51739 28.4173 4.81832 28.4173ZM2.31731 4.16269C2.31731 2.78622 3.43999 1.66507 4.81832 1.66507H24.9376C26.316 1.66507 27.4386 2.78622 27.4386 4.16269V24.2546C27.4386 25.631 26.316 26.7522 24.9376 26.7522H19.1019V19.9809H23.1424L24.254 13.3206H19.1019V11.6555H24.1039V4.99522H18.2682C15.0503 4.99522 12.4325 7.60939 12.4325 10.823V13.3206H9.09784V19.9809H12.4325V26.7522H4.81832C3.43999 26.7522 2.31731 25.631 2.31731 24.2546V4.16269Z" fill="white"/>
</g>
<defs>
<clipPath id="clip0">
<rect width="28.456" height="28.4173" fill="white" transform="translate(0.649963)"/>
</clipPath>
</defs>
</svg>
