<svg width="35" height="29" viewBox="0 0 35 29" fill="none" xmlns="http://www.w3.org/2000/svg">
<g clip-path="url(#clip0)">
<path d="M33.8686 3.281C33.3351 3.52504 32.7815 3.72841 32.2146 3.89111C32.8816 3.12509 33.3884 2.22349 33.7019 1.23377C33.7686 1.01006 33.7019 0.772798 33.5218 0.623661C33.3418 0.481304 33.095 0.460967 32.8949 0.582988C31.7011 1.30155 30.4072 1.82353 29.0533 2.12858C27.6928 0.772798 25.8387 0 23.9246 0C19.8829 0 16.5949 3.34201 16.5949 7.45004C16.5949 7.77543 16.615 8.09404 16.655 8.41265C11.6396 7.96524 6.97771 5.45704 3.7764 1.46425C3.66302 1.32189 3.48962 1.24732 3.30955 1.26088C3.12947 1.27444 2.96941 1.37612 2.87604 1.53882C2.22244 2.6709 1.87563 3.96567 1.87563 5.28756C1.87563 7.08398 2.50922 8.78549 3.62301 10.1142C3.28287 9.99214 2.95607 9.84301 2.64261 9.66675C2.47588 9.57185 2.26912 9.57185 2.10239 9.67353C1.93566 9.76844 1.82895 9.95147 1.82228 10.1481C1.82228 10.182 1.82228 10.2158 1.82228 10.2497C1.82228 12.9274 3.24285 15.3407 5.4104 16.6558C5.22366 16.6355 5.03692 16.6084 4.85017 16.5745C4.65676 16.5406 4.46335 16.6084 4.33663 16.7507C4.20991 16.8999 4.16323 17.1032 4.22325 17.293C5.02358 19.8419 7.09108 21.7129 9.5921 22.2891C7.51792 23.611 5.1503 24.3025 2.66262 24.3025C2.14241 24.3025 1.6222 24.2686 1.10865 24.2076C0.855217 24.1737 0.615119 24.3296 0.528417 24.5736C0.441715 24.8177 0.535087 25.0956 0.748507 25.2312C3.94314 27.3123 7.64464 28.4173 11.4395 28.4173C18.9026 28.4173 23.5711 24.838 26.1722 21.8417C29.4202 18.0997 31.2809 13.1443 31.2809 8.24996C31.2809 8.04659 31.2809 7.83644 31.2742 7.63307C32.5548 6.65013 33.6552 5.46382 34.5556 4.10125C34.689 3.8911 34.6756 3.61995 34.5222 3.43014C34.3555 3.24033 34.0954 3.17932 33.8686 3.281Z" fill="white"/>
</g>
<defs>
<clipPath id="clip0">
<rect width="34.1472" height="28.4173" fill="white" transform="translate(0.493774)"/>
</clipPath>
</defs>
</svg>
