<svg width="51" height="51" viewBox="0 0 51 51" fill="none" xmlns="http://www.w3.org/2000/svg">
<g clip-path="url(#clip0)">
<path d="M49.9269 11.8681C50.0013 11.8894 50.0756 11.9 50.15 11.9C50.6175 11.9 51 11.5175 51 11.05V7.65C51 7.2675 50.745 6.9275 50.3731 6.83188L25.7231 0.031875C25.5744 -0.010625 25.415 -0.010625 25.2663 0.031875L0.61625 6.83188C0.255 6.9275 0 7.2675 0 7.65V11.05C0 11.3156 0.1275 11.5706 0.34 11.73C0.5525 11.8894 0.82875 11.9425 1.08375 11.8681L2.56063 11.4644V49.3H0.85C0.3825 49.3 0 49.6825 0 50.15C0 50.6175 0.3825 51 0.85 51H50.15C50.6175 51 51 50.6175 51 50.15C51 49.6825 50.6175 49.3 50.15 49.3H48.45V11.4644L49.9269 11.8681ZM1.7 8.29813L25.5 1.73187L49.3 8.29813V9.93437L25.7231 3.43187C25.5744 3.38937 25.415 3.38937 25.2663 3.43187L1.7 9.93437V8.29813ZM7.65 27.2H43.35V37.4H7.65V27.2ZM43.35 25.5H7.65V16.15C7.65 15.6825 8.0325 15.3 8.5 15.3H42.5C42.9675 15.3 43.35 15.6825 43.35 16.15V25.5ZM7.65 49.3V39.1H43.35V49.3H7.65ZM46.75 49.3H45.05V16.15C45.05 14.7369 43.9131 13.6 42.5 13.6H8.5C7.08687 13.6 5.95 14.7369 5.95 16.15V49.3H4.25V10.9969L25.5 5.13188L46.75 10.9969V49.3Z" fill="#3FADC2"/>
<path d="M28.05 46.75H22.95C22.4825 46.75 22.1 47.1325 22.1 47.6C22.1 48.0675 22.4825 48.45 22.95 48.45H28.05C28.5175 48.45 28.9 48.0675 28.9 47.6C28.9 47.1325 28.5175 46.75 28.05 46.75Z" fill="#3FADC2"/>
</g>
<defs>
<clipPath id="clip0">
<rect width="51" height="51" fill="white" transform="matrix(-1 0 0 1 51 0)"/>
</clipPath>
</defs>
</svg>
