<svg width="1440" height="250" viewBox="0 0 1440 250" fill="none" xmlns="http://www.w3.org/2000/svg">
<g clip-path="url(#clip0)">
<path d="M1430.84 249.45C1250.25 126.465 1013.85 55.0454 719.6 55.0454C425.345 55.0454 188.906 126.475 8.32068 249.45H1430.84Z" fill="#52B8CB" fill-opacity="0.2"/>
<path d="M1439.9 188.663C1439.9 188.307 1439.93 187.952 1440 187.603C1439.96 187.351 1439.94 187.097 1439.94 186.842V69.1794C1362.2 53.094 1283.02 45.0062 1203.64 45.0426C959.55 45.0426 733.101 120.544 546.345 249.45H1439.93L1439.9 188.663Z" fill="#52B8CB" fill-opacity="0.2"/>
<path d="M0 250C0.723731 249.629 1.52701 249.44 2.34019 249.45H891.514C705.039 121.154 479.13 46.0429 235.68 46.0429C156.524 46.0076 77.5723 54.0515 0.0500042 70.0496V82.7732C0.0656099 83.0097 0.0656099 83.2469 0.0500042 83.4834V250H0Z" fill="#52B8CB" fill-opacity="0.2"/>
<path d="M0 250C0.723731 249.629 1.52701 249.44 2.34019 249.45H645.664C457.988 112.902 232.929 23.2065 0.0100008 0V82.7732C0.0256066 83.0097 0.0256066 83.2469 0.0100008 83.4834V250H0Z" fill="#52B8CB" fill-opacity="0.2"/>
<path d="M1439.9 188.663C1439.9 188.307 1439.93 187.952 1440 187.603C1439.96 187.351 1439.94 187.097 1439.94 186.842V0.930267C1207.3 23.9367 982.472 113.312 794.886 249.45H1439.94L1439.9 188.663Z" fill="#52B8CB" fill-opacity="0.2"/>
<path d="M1439.9 188.663C1439.9 188.307 1439.93 187.952 1440 187.603C1439.96 187.351 1439.94 187.097 1439.94 186.842V80.1324C1204.42 129.386 990.623 237.957 720.04 237.957C450.578 237.957 212.938 131.517 0.0501099 80.1124V82.7732C0.0653704 82.9663 0.0653704 83.1603 0.0501099 83.3533V250C0.77384 249.629 1.57712 249.44 2.39031 249.45H1439.9V188.663Z" fill="white"/>
</g>
<defs>
<clipPath id="clip0">
<rect width="1440" height="250" fill="white"/>
</clipPath>
</defs>
</svg>
