<svg width="70" height="70" viewBox="0 0 70 70" fill="none" xmlns="http://www.w3.org/2000/svg">
<path d="M5.6665 67.8333V14.9656L34.9998 6.87069L64.3332 14.9656V67.8333H61.6665V22.1666C61.6665 20.331 60.1688 18.8333 58.3332 18.8333H11.6665C9.83089 18.8333 8.33317 20.331 8.33317 22.1666V67.8333H5.6665Z" stroke="white" stroke-width="2"/>
<path d="M68.8018 15.3281L68.8018 15.328L68.7908 15.325L66.7637 14.7708L65.5 14.4253V15.7354V67.6667V68.6667H66.5H68.8333C68.9227 68.6667 69 68.744 69 68.8333C69 68.9227 68.9227 69 68.8333 69H1.16667C1.07729 69 1 68.9227 1 68.8333C1 68.7439 1.07728 68.6667 1.16667 68.6667H3.51458H4.51458V67.6667V15.7354V14.4253L3.25088 14.7708L1.2238 15.325L1.21563 15.3272L1.2075 15.3296C1.16749 15.3413 1.11311 15.3348 1.06667 15.3C1.02681 15.2701 1 15.2165 1 15.1667V10.5C1 10.4605 1.01325 10.4224 1.0361 10.3921C1.05875 10.3619 1.08345 10.3486 1.10172 10.3438L1.10174 10.3438L1.11176 10.3411L34.9451 1.00774L34.9451 1.00778L34.9539 1.00527C34.9785 0.998243 35.0069 0.998241 35.0315 1.00528L35.0315 1.00532L35.0403 1.00774L68.8736 10.3411L68.8821 10.3434L68.8905 10.3456C68.9447 10.3595 69 10.4165 69 10.5V15.1667C69 15.256 68.9227 15.3333 68.8333 15.3333C68.8278 15.3333 68.8181 15.3327 68.8018 15.3281ZM2.06738 10.4256L1.33333 10.6281V11.3896V13.6354V14.9487L2.59932 14.5994L34.9451 5.67439L34.9452 5.67443L34.9539 5.67194C34.9785 5.66491 35.0069 5.66491 35.0315 5.67194L35.0315 5.67198L35.0404 5.67442L67.4008 14.5994L68.6667 14.9486V13.6354V11.3896V10.6281L67.9326 10.4256L35.266 1.4131L35 1.33972L34.734 1.4131L2.06738 10.4256ZM10.5 36.3333H9.5V37.3333V51.3333V52.3333H10.5H59.5H60.5V51.3333V37.3333V36.3333H59.5H10.5ZM59.5 36H60.5V35V22.1667C60.5 20.9727 59.5273 20 58.3333 20H11.6667C10.4727 20 9.5 20.9727 9.5 22.1667V35V36H10.5H59.5ZM9.5 67.6667V68.6667H10.5H59.5H60.5V67.6667V53.6667V52.6667H59.5H10.5H9.5V53.6667V67.6667ZM64.1667 68.6667H65.1667V67.6667V15.0937V14.3324L64.4327 14.1298L35.2661 6.07979L35 6.00636L34.7339 6.07979L5.56728 14.1298L4.83333 14.3324V15.0937V67.6667V68.6667H5.83333H8.16667H9.16667V67.6667V22.1667C9.16667 20.7794 10.2794 19.6667 11.6667 19.6667H58.3333C59.7206 19.6667 60.8333 20.7794 60.8333 22.1667V67.6667V68.6667H61.8333H64.1667Z" stroke="white" stroke-width="2"/>
<path d="M31.5002 65.1667H38.5002C38.5895 65.1667 38.6668 65.244 38.6668 65.3334C38.6668 65.4227 38.5895 65.5 38.5002 65.5H31.5002C31.4108 65.5 31.3335 65.4227 31.3335 65.3334C31.3335 65.244 31.4108 65.1667 31.5002 65.1667Z" stroke="white" stroke-width="2"/>
</svg>
