<svg width="65" height="64" viewBox="0 0 65 64" fill="none" xmlns="http://www.w3.org/2000/svg">
<path d="M49.4499 10.9277C49.4499 9.42625 48.8548 8.01275 47.7762 6.95075L42.3906 1.648C41.3269 0.600625 39.8171 0 38.3145 0H37.9872V11.25H49.45L49.4499 10.9277Z" fill="white"/>
<path d="M48.5007 46.7286V58.375C48.5007 60.8985 46.3612 63 43.737 63H5.71289C3.10029 63 1 60.9099 1 58.375V5.625C1 3.0901 3.10029 1 5.71289 1H33.2773V13.125C33.2773 14.6848 34.4865 16 36.1198 16H48.5007V22.7021L35.9069 35.0521L35.9031 35.0559C34.966 35.9847 34.2451 37.1319 33.8296 38.3725C33.8294 38.3733 33.8291 38.3741 33.8288 38.3749L32.0114 43.7323L32.0113 43.7325C31.4234 45.4672 31.7173 47.3853 32.798 48.8655L32.799 48.867C33.8845 50.3483 35.6277 51.2296 37.47 51.2296H37.4968L37.5235 51.2282L38.446 51.1787L38.5786 51.1716L38.7047 51.1301L44.7597 49.1397L44.7598 49.1397C46.0232 48.7243 47.1473 48.0426 48.1035 47.1101C48.1045 47.1092 48.1055 47.1082 48.1065 47.1072L48.5007 46.7286ZM28.5026 32.75H9.52148C7.93131 32.75 6.61719 34.0218 6.61719 35.625C6.61719 37.2282 7.93131 38.5 9.52148 38.5H28.5026C30.0928 38.5 31.4069 37.2282 31.4069 35.625C31.4069 34.0218 30.0928 32.75 28.5026 32.75ZM9.52148 25.25C7.9313 25.25 6.61719 26.5218 6.61719 28.125C6.61719 29.7282 7.9313 31 9.52148 31H28.5026C30.0928 31 31.4069 29.7282 31.4069 28.125C31.4069 26.5218 30.0928 25.25 28.5026 25.25H9.52148ZM9.52148 40.25C7.93131 40.25 6.61719 41.5218 6.61719 43.125C6.61719 44.7282 7.93131 46 9.52148 46H28.5026C30.0928 46 31.4069 44.7282 31.4069 43.125C31.4069 41.5218 30.0928 40.25 28.5026 40.25H9.52148ZM39.0241 54.375C39.0241 52.7718 37.71 51.5 36.1198 51.5H24.694C23.1039 51.5 21.7897 52.7718 21.7897 54.375C21.7897 55.9782 23.1039 57.25 24.694 57.25H36.1198C37.7102 57.25 39.0241 55.9782 39.0241 54.375ZM6.61719 20.625C6.61719 22.2282 7.9313 23.5 9.52148 23.5H36.1198C37.71 23.5 39.0241 22.2282 39.0241 20.625C39.0241 19.0218 37.71 17.75 36.1198 17.75H9.52148C7.9313 17.75 6.61719 19.0218 6.61719 20.625Z" stroke="white" stroke-width="2"/>
<path d="M38.227 40.3511L36.5702 45.245C36.3219 45.9781 37.0304 46.6754 37.775 46.4306L42.7424 44.7971L38.227 40.3511Z" fill="white"/>
<path d="M53.0168 24.9136L40.4752 37.2622L45.8841 42.5878C48.7187 39.7963 54.2341 34.3649 58.425 30.2386L53.0168 24.9136Z" fill="white"/>
<path d="M63.8809 19.5355C63.2115 18.8727 62.2259 18.4937 61.1806 18.4937C60.1354 18.4937 59.1499 18.8727 58.4767 19.5374L55.7095 22.262L61.1174 27.5868C62.6324 26.095 63.6795 25.064 63.8849 24.8619C65.3724 23.395 65.3723 21.0058 63.8809 19.5355Z" fill="white"/>
<path d="M63.8848 24.8681C63.8849 24.8681 63.8849 24.8679 63.8851 24.8678C63.8915 24.8615 63.8944 24.8587 63.8996 24.8535C63.8944 24.8588 63.8915 24.8616 63.8848 24.8681Z" fill="white"/>
<path d="M63.8992 24.856C63.9061 24.8491 63.9143 24.8411 63.9185 24.8369C63.9141 24.8412 63.9061 24.8491 63.8992 24.856Z" fill="white"/>
<path d="M63.9164 24.8365C63.9314 24.8216 63.9317 24.8213 63.9164 24.8365V24.8365Z" fill="white"/>
</svg>
