<svg width="65" height="80" viewBox="0 0 65 80" fill="none" xmlns="http://www.w3.org/2000/svg">
<path d="M51.5469 26.7812C51.5938 26.8437 51.6406 26.9219 51.6094 27.0469L49.5469 37.0313C49.5156 37.1719 49.3906 37.2813 49.2344 37.2813H35.1406C34.9844 37.2813 34.8594 37.1719 34.8281 37.0313L32.7656 27.0469C32.7344 26.9219 32.7812 26.8281 32.8281 26.7812C32.875 26.7344 32.9531 26.6562 33.0781 26.6562H35.5469L34.6562 28.1875C34.2187 28.9375 34.4844 29.8906 35.2344 30.3281C35.4844 30.4688 35.75 30.5313 36.0156 30.5313C36.5625 30.5313 37.0781 30.25 37.375 29.75L39.1562 26.6562H45.2187L47 29.75C47.2969 30.25 47.8125 30.5313 48.3594 30.5313C48.625 30.5313 48.8906 30.4688 49.1406 30.3281C49.8906 29.8906 50.1406 28.9375 49.7188 28.1875L48.8281 26.6562H51.2969C51.4219 26.6719 51.5 26.7344 51.5469 26.7812Z" fill="white"/>
<path d="M59.0312 1.36719H26.2812C23 1.36719 20.3125 4.00781 20.3125 7.22656V52.6797C21.25 54.0391 22.8281 54.9141 24.5937 54.9141C25.7031 54.9141 26.8125 54.5391 27.7187 53.8828L37.5938 46.5391C38 46.2422 38.4844 46.0703 38.9844 46.0703C39.875 46.0703 40.6406 46.5391 41.0469 47.3359C41.4531 48.1172 41.3906 49.0234 40.875 49.7578L34.2812 59.0547C32 62.2734 28.2656 64.1953 24.3281 64.1953H20.3125V65.5234C20.3125 66.1484 20.4219 66.7578 20.5938 67.3203C21.375 69.6641 23.625 71.3828 26.2656 71.3828H59.0312C62.3125 71.3828 65 68.7422 65 65.5234V7.24219C65 4.00781 62.3125 1.36719 59.0312 1.36719ZM55.2812 27.9609L53.1875 37.9453C52.8437 39.5391 51.4062 40.6953 49.75 40.6953H35.4062C33.75 40.6953 32.3125 39.5391 31.9688 37.9453L29.875 27.9609C29.6562 26.9453 29.9219 25.8984 30.5938 25.0859C31.2656 24.2734 32.25 23.8203 33.3125 23.8203H37.6562L39 21.5234C39.4375 20.7734 40.4062 20.5234 41.1719 20.9453C41.9375 21.3828 42.1875 22.3359 41.75 23.0859L41.3281 23.8203H43.8281L43.4062 23.0859C42.9687 22.3359 43.2344 21.3828 43.9844 20.9453C44.75 20.5078 45.7188 20.7734 46.1562 21.5234L47.5 23.8203H51.8437C52.9062 23.8203 53.8906 24.2891 54.5625 25.0859C55.2344 25.8984 55.5 26.9453 55.2812 27.9609ZM37.2812 4.63281H47.0937C47.9531 4.63281 48.6562 5.33594 48.6562 6.19531C48.6562 7.05469 47.9531 7.75781 47.0937 7.75781H37.2812C36.4219 7.75781 35.7188 7.05469 35.7188 6.19531C35.7188 5.33594 36.4219 4.63281 37.2812 4.63281ZM43.2969 66.1641C43 66.4609 42.6094 66.6172 42.1875 66.6172C41.7656 66.6172 41.375 66.4453 41.0781 66.1641C40.7812 65.8672 40.625 65.4766 40.625 65.0547C40.625 64.6484 40.7969 64.2422 41.0781 63.9453C41.375 63.6484 41.7656 63.4922 42.1875 63.4922C42.6094 63.4922 43 63.6641 43.2969 63.9453C43.5938 64.2422 43.75 64.6328 43.75 65.0547C43.75 65.4766 43.5781 65.8828 43.2969 66.1641Z" fill="white"/>
<path d="M59.3437 0H25.0312C21.9062 0 19.375 2.53125 19.375 5.65625V16.4375C14.8594 20.0938 11.1406 24.7656 8.59375 29.9688C5.9375 35.4219 4.53125 41.5 4.53125 47.5625V63.9062H3.125C1.40625 63.9062 0 65.3125 0 67.0312V78.4375C0 79.2969 0.703125 80 1.5625 80C2.42188 80 3.125 79.2969 3.125 78.4375V67.0312H30.8437V78.4375C30.8437 79.2969 31.5469 80 32.4062 80C33.2656 80 33.9688 79.2969 33.9688 78.4375V71.5625H59.3437C62.4531 71.5625 65 69.0312 65 65.9062V46.7344C65 45.875 64.2969 45.1719 63.4375 45.1719C62.5781 45.1719 61.875 45.875 61.875 46.7344V58.2812H38.4531L43.4219 51.2813C44.6094 49.6094 44.7656 47.4375 43.8125 45.625C42.875 43.8125 41.0156 42.6719 38.9687 42.6719C37.7969 42.6719 36.6406 43.0625 35.7188 43.75L25.8438 51.0938C25.4844 51.3594 25.0469 51.5156 24.5937 51.5156C23.4375 51.5156 22.5 50.5781 22.5 49.4219V11.875H61.875V33.75C61.875 34.6094 62.5781 35.3125 63.4375 35.3125C64.2969 35.3125 65 34.6094 65 33.75V5.65625C65 2.53125 62.4687 0 59.3437 0ZM61.875 61.4062V65.9062C61.875 67.2969 60.7344 68.4375 59.3437 68.4375H33.9688V67.0312C33.9688 66 33.4688 65.0938 32.7031 64.5312C34 63.6875 35.1719 62.625 36.1875 61.4062C36.2031 61.4062 36.2344 61.4062 36.25 61.4062H61.875ZM24.5937 54.6406C25.7031 54.6406 26.8125 54.2656 27.7187 53.6094L37.5938 46.2656C38 45.9688 38.4844 45.7969 38.9844 45.7969C39.875 45.7969 40.6406 46.2656 41.0469 47.0625C41.4531 47.8438 41.3906 48.75 40.875 49.4844L34.2812 58.7813C32 62 28.2656 63.9219 24.3281 63.9219H7.65625V47.5625C7.65625 37.2031 11.8906 27.5313 19.375 20.5625V49.4219C19.375 50.5312 19.7188 51.5625 20.3125 52.4063C21.25 53.75 22.8281 54.6406 24.5937 54.6406ZM61.875 8.75H22.5V5.65625C22.5 4.26562 23.6406 3.125 25.0312 3.125H59.3594C60.75 3.125 61.8906 4.26562 61.8906 5.65625V8.75H61.875Z" fill="white"/>
</svg>
