<svg width="69" height="69" viewBox="0 0 69 69" fill="none" xmlns="http://www.w3.org/2000/svg">
<g clip-path="url(#clip0)">
<path d="M1.64825 41.7383H10.5517C10.9841 41.7383 11.3347 42.0888 11.3347 42.5213V67.9891H0.865234V42.5213C0.865234 42.0886 1.21558 41.7383 1.64825 41.7383Z" stroke="white" stroke-width="2"/>
<path d="M5.81335 40.7383H1.64825C0.6633 40.7383 -0.134766 41.5363 -0.134766 42.5213V68.9885H4.03033V42.5213C4.03033 41.5363 4.8284 40.7383 5.81335 40.7383Z" fill="white"/>
<path d="M20.4918 34.7559H29.3952C29.8276 34.7559 30.1783 35.1064 30.1783 35.5389V67.9892H19.7087V35.5389C19.7087 35.1062 20.0591 34.7559 20.4918 34.7559Z" fill="white" stroke="white" stroke-width="2"/>
<path d="M24.6568 33.7559H20.4918C19.5068 33.7559 18.7087 34.5539 18.7087 35.5389V68.9892H22.8738V35.5389C22.8738 34.5539 23.6719 33.7559 24.6568 33.7559Z" fill="white"/>
<path d="M39.3353 27.7734H48.2387C48.6714 27.7734 49.0217 28.1238 49.0217 28.5564V67.9888H38.5522V28.5564C38.5522 28.124 38.9029 27.7734 39.3353 27.7734Z" stroke="white" stroke-width="2"/>
<path d="M43.5004 26.7734H39.3353C38.3508 26.7734 37.5522 27.572 37.5522 28.5564V68.9893H41.7173V28.5564C41.7173 27.5715 42.5159 26.7734 43.5004 26.7734Z" fill="white"/>
<path d="M58.1787 20.791H67.0822C67.5149 20.791 67.8652 21.1414 67.8652 21.574V67.9889H57.3962V21.574C57.3962 21.1412 57.7468 20.791 58.1787 20.791Z" fill="white" stroke="white" stroke-width="2"/>
<path d="M62.3439 19.791H58.1788C57.1943 19.791 56.3958 20.5891 56.3958 21.574V68.9894H60.5609V21.574C60.5609 20.5891 61.3594 19.791 62.3439 19.791Z" fill="white"/>
<path d="M65.6588 0.669311L54.3938 0.270278C53.4625 0.23764 52.8924 1.28155 53.4241 2.0475L55.2413 4.6628C49.1232 8.32831 29.5453 18.6331 2.87488 18.6331V26.1147C20.9482 26.1147 35.8788 21.6385 45.2213 17.8835C52.0564 15.1361 56.9569 12.3871 59.5191 10.822L61.1305 13.142C61.6622 13.9074 62.8398 13.7379 63.1341 12.8535L66.6927 2.15805C66.9312 1.44105 66.4137 0.696159 65.6588 0.669311Z" fill="white"/>
</g>
<defs>
<clipPath id="clip0">
<rect width="69" height="69" fill="white"/>
</clipPath>
</defs>
</svg>
