<svg width="59" height="62" viewBox="0 0 59 62" fill="none" xmlns="http://www.w3.org/2000/svg">
<path d="M55.6149 51.2223L55.6149 51.2176L55.482 23.0168C55.482 23.016 55.482 23.0152 55.482 23.0144C55.4808 20.627 53.5978 18.5576 51.0271 18.5576H7.8401C5.4516 18.5576 3.38514 20.445 3.38514 23.0168V51.2223C3.38514 54.5673 6.2236 57.411 9.56758 57.411H49.4325C52.9259 57.411 55.6149 54.5506 55.6149 51.2223ZM53.7546 6.78533V5.24432C56.267 6.60319 58.0001 9.22771 58.0001 12.3732V52.1536C58.0001 56.5251 54.4601 60.0676 50.0969 60.0676H8.90316C4.53992 60.0676 1 56.5251 1 52.1536V12.3732C1 9.33395 2.64074 6.7347 5.11262 5.38119V6.78533C5.11262 10.3965 8.08396 13.3732 11.6937 13.3732H11.8266C15.4363 13.3732 18.4077 10.3965 18.4077 6.78533V4.32617H22.6532V6.78533C22.6532 10.3965 25.6245 13.3732 29.2343 13.3732H29.6329C33.2426 13.3732 36.214 10.3965 36.214 6.78533V4.32617H40.3266V6.78533C40.3266 10.3965 43.298 13.3732 46.9077 13.3732H47.1735C50.7832 13.3732 53.7546 10.3965 53.7546 6.78533Z" stroke="white" stroke-width="2"/>
<path d="M11.9595 8.71227H11.6937C11.0826 8.71227 10.5543 8.46127 10.1924 8.12285C9.92246 7.7407 9.77026 7.30574 9.77026 6.91832V2.92698C9.77026 2.32685 9.97332 1.80709 10.2751 1.50495C10.5767 1.20296 11.0952 1 11.6937 1H11.9595C12.4738 1 12.8884 1.14779 13.378 1.63799C13.7099 1.97029 13.8829 2.3757 13.8829 2.92698V6.91832C13.8829 7.30573 13.7307 7.7407 13.4607 8.12285C13.0989 8.46127 12.5705 8.71227 11.9595 8.71227Z" stroke="white" stroke-width="2"/>
<path d="M30.5199 1.23886L30.5899 1.30893L30.6723 1.36392C31.1783 1.70167 31.4234 2.1804 31.4234 2.79394V6.78528C31.4234 7.66227 31.0633 8.16528 30.6002 8.37953C30.2269 8.50359 29.9724 8.57922 29.6329 8.57922H29.3671C28.8571 8.57922 28.479 8.48197 28.0873 8.28588C27.6547 8.06933 27.3646 7.54335 27.4337 7.05958L27.4437 6.98931V6.91832V2.92698C27.4437 2.44046 27.7013 1.88551 28.0814 1.50495C28.4132 1.17272 28.8176 1 29.3671 1H29.6329C30.1753 1 30.3904 1.10916 30.5199 1.23886Z" stroke="white" stroke-width="2"/>
<path d="M47.1735 1C47.1898 1 47.2051 1.00001 47.2196 1.00003L47.3524 1.26609H47.9626C48.0092 1.29078 48.0599 1.31352 48.1148 1.33297C48.7403 1.73175 49.0969 2.33285 49.0969 2.92698V6.91832C49.0969 7.30573 48.9448 7.7407 48.6748 8.12285C48.313 8.46127 47.7846 8.71227 47.1735 8.71227H46.9078C45.8111 8.71227 45.0412 7.80054 45.1131 7.00875L45.1172 6.96363V6.91832V2.92698C45.1172 1.94492 45.6969 1.20113 46.6079 1H46.608H46.6088H46.6095H46.6103H46.6111H46.6119H46.6127H46.6134H46.6142H46.615H46.6158H46.6166H46.6173H46.6181H46.6189H46.6197H46.6204H46.6212H46.622H46.6228H46.6236H46.6243H46.6251H46.6259H46.6267H46.6275H46.6282H46.629H46.6298H46.6306H46.6313H46.6321H46.6329H46.6337H46.6345H46.6352H46.636H46.6368H46.6376H46.6384H46.6391H46.6399H46.6407H46.6415H46.6422H46.643H46.6438H46.6446H46.6454H46.6461H46.6469H46.6477H46.6485H46.6493H46.65H46.6508H46.6516H46.6524H46.6531H46.6539H46.6547H46.6555H46.6563H46.657H46.6578H46.6586H46.6594H46.6602H46.6609H46.6617H46.6625H46.6633H46.664H46.6648H46.6656H46.6664H46.6672H46.6679H46.6687H46.6695H46.6703H46.6711H46.6718H46.6726H46.6734H46.6742H46.6749H46.6757H46.6765H46.6773H46.6781H46.6788H46.6796H46.6804H46.6812H46.682H46.6827H46.6835H46.6843H46.6851H46.6858H46.6866H46.6874H46.6882H46.689H46.6897H46.6905H46.6913H46.6921H46.6929H46.6936H46.6944H46.6952H46.696H46.6967H46.6975H46.6983H46.6991H46.6999H46.7006H46.7014H46.7022H46.703H46.7038H46.7045H46.7053H46.7061H46.7069H46.7076H46.7084H46.7092H46.71H46.7108H46.7115H46.7123H46.7131H46.7139H46.7147H46.7154H46.7162H46.717H46.7178H46.7185H46.7193H46.7201H46.7209H46.7217H46.7224H46.7232H46.724H46.7248H46.7256H46.7263H46.7271H46.7279H46.7287H46.7294H46.7302H46.731H46.7318H46.7326H46.7333H46.7341H46.7349H46.7357H46.7365H46.7372H46.738H46.7388H46.7396H46.7403H46.7411H46.7419H46.7427H46.7435H46.7442H46.745H46.7458H46.7466H46.7474H46.7481H46.7489H46.7497H46.7505H46.7512H46.752H46.7528H46.7536H46.7544H46.7551H46.7559H46.7567H46.7575H46.7583H46.759H46.7598H46.7606H46.7614H46.7622H46.7629H46.7637H46.7645H46.7653H46.766H46.7668H46.7676H46.7684H46.7692H46.7699H46.7707H46.7715H46.7723H46.7731H46.7738H46.7746H46.7754H46.7762H46.7769H46.7777H46.7785H46.7793H46.7801H46.7808H46.7816H46.7824H46.7832H46.784H46.7847H46.7855H46.7863H46.7871H46.7878H46.7886H46.7894H46.7902H46.791H46.7917H46.7925H46.7933H46.7941H46.7949H46.7956H46.7964H46.7972H46.798H46.7987H46.7995H46.8003H46.8011H46.8019H46.8026H46.8034H46.8042H46.805H46.8058H46.8065H46.8073H46.8081H46.8089H46.8096H46.8104H46.8112H46.812H46.8128H46.8135H46.8143H46.8151H46.8159H46.8167H46.8174H46.8182H46.819H46.8198H46.8205H46.8213H46.8221H46.8229H46.8237H46.8244H46.8252H46.826H46.8268H46.8276H46.8283H46.8291H46.8299H46.8307H46.8314H46.8322H46.833H46.8338H46.8346H46.8353H46.8361H46.8369H46.8377H46.8385H46.8392H46.84H46.8408H46.8416H46.8423H46.8431H46.8439H46.8447H46.8455H46.8462H46.847H46.8478H46.8486H46.8494H46.8501H46.8509H46.8517H46.8525H46.8532H46.854H46.8548H46.8556H46.8564H46.8571H46.8579H46.8587H46.8595H46.8603H46.861H46.8618H46.8626H46.8634H46.8641H46.8649H46.8657H46.8665H46.8673H46.868H46.8688H46.8696H46.8704H46.8712H46.8719H46.8727H46.8735H46.8743H46.875H46.8758H46.8766H46.8774H46.8782H46.8789H46.8797H46.8805H46.8813H46.8821H46.8828H46.8836H46.8844H46.8852H46.8859H46.8867H46.8875H46.8883H46.8891H46.8898H46.8906H46.8914H46.8922H46.893H46.8937H46.8945H46.8953H46.8961H46.8968H46.8976H46.8984H46.8992H46.9H46.9007H46.9015H46.9023H46.9031H46.9039H46.9046H46.9054H46.9062H46.907H46.9078H47.1735Z" stroke="white" stroke-width="2"/>
<path d="M17.1419 29.4671H11.4279C10.5196 29.4671 9.77026 28.7186 9.77026 27.8062V25.9436C9.77026 25.0313 10.5196 24.2827 11.4279 24.2827H17.1419C18.0502 24.2827 18.7996 25.0313 18.7996 25.9436V27.8062C18.7996 28.7186 18.0502 29.4671 17.1419 29.4671Z" stroke="white" stroke-width="2"/>
<path d="M32.2906 29.4671H26.5766C25.6683 29.4671 24.9189 28.7186 24.9189 27.8062V25.9436C24.9189 25.0313 25.6683 24.2827 26.5766 24.2827H32.2906C33.1989 24.2827 33.9482 25.0313 33.9482 25.9436V27.8062C33.9482 28.7186 33.1989 29.4671 32.2906 29.4671Z" stroke="white" stroke-width="2"/>
<path d="M47.5721 29.4671H41.8581C40.9498 29.4671 40.2004 28.7186 40.2004 27.8062V25.9436C40.2004 25.0313 40.9498 24.2827 41.8581 24.2827H47.5721C48.4803 24.2827 49.2297 25.0313 49.2297 25.9436V27.8062C49.2297 28.7186 48.4803 29.4671 47.5721 29.4671Z" stroke="white" stroke-width="2"/>
<path d="M18.6667 37.9178V37.9631L18.6708 38.0082C18.7458 38.8334 18.07 39.5787 17.142 39.5787H11.2951C10.3868 39.5787 9.63745 38.8302 9.63745 37.9178V36.0552C9.63745 35.1428 10.3868 34.3943 11.2951 34.3943H17.0091C17.9174 34.3943 18.6667 35.1428 18.6667 36.0552V37.9178Z" stroke="white" stroke-width="2"/>
<path d="M32.2906 39.5787H26.5766C25.6683 39.5787 24.9189 38.8302 24.9189 37.9178V36.0552C24.9189 35.1428 25.6683 34.3943 26.5766 34.3943H32.2906C33.1989 34.3943 33.9482 35.1428 33.9482 36.0552V37.9178C33.9482 38.8302 33.1989 39.5787 32.2906 39.5787Z" stroke="white" stroke-width="2"/>
<path d="M47.4393 39.5787H41.7253C40.817 39.5787 40.0676 38.8302 40.0676 37.9178V36.0552C40.0676 35.1428 40.817 34.3943 41.7253 34.3943H47.4393C48.3475 34.3943 49.0969 35.1428 49.0969 36.0552V37.9178C49.0969 38.8302 48.3475 39.5787 47.4393 39.5787Z" stroke="white" stroke-width="2"/>
<path d="M18.6667 47.8961V47.9414L18.6708 47.9865C18.7458 48.8117 18.07 49.557 17.142 49.557H11.2951C10.3868 49.557 9.63745 48.8084 9.63745 47.8961V46.0335C9.63745 45.1211 10.3868 44.3726 11.2951 44.3726H17.0091C17.9174 44.3726 18.6667 45.1211 18.6667 46.0335V47.8961Z" stroke="white" stroke-width="2"/>
<path d="M32.2906 49.557H26.5766C25.6683 49.557 24.9189 48.8084 24.9189 47.8961V46.0335C24.9189 45.1211 25.6683 44.3726 26.5766 44.3726H32.2906C33.1989 44.3726 33.9482 45.1211 33.9482 46.0335V47.8961C33.9482 48.8084 33.1989 49.557 32.2906 49.557Z" stroke="white" stroke-width="2"/>
<path d="M47.4393 49.557H41.7253C40.817 49.557 40.0676 48.8084 40.0676 47.8961V46.0335C40.0676 45.1211 40.817 44.3726 41.7253 44.3726H47.4393C48.3475 44.3726 49.0969 45.1211 49.0969 46.0335V47.8961C49.0969 48.8084 48.3475 49.557 47.4393 49.557Z" stroke="white" stroke-width="2"/>
<path d="M56.4999 22.3113V52.3113L54.9999 56.8113L52.9999 57.8113L50.4999 58.3113H8.99988L6.49988 57.8113L4.49988 56.8113L2.49988 52.3113V22.3113" stroke="white" stroke-width="2"/>
<path d="M20.5579 5.56164C20.2282 6.82584 20.0543 8.03547 20.0543 9.33869C20.0543 9.97544 20.0553 10.7265 19.9657 11.3531C19.8759 11.982 19.8865 12.6275 19.8865 13.2743C19.8865 13.674 19.9664 13.9681 20.0543 14.3561C20.1503 14.7793 20.0808 15.1963 20.1569 15.6151C20.2554 16.1568 20.1801 16.2809 19.5601 16.212C19.0465 16.1549 18.5329 15.9008 18.0213 15.8016C15.6899 15.3496 13.2441 15.3309 10.8729 15.5079C9.88122 15.5819 8.90551 15.6203 7.91185 15.6338C6.95264 15.6467 6.01277 15.8016 5.04876 15.8016C4.54375 15.8016 4.30446 15.8545 3.85969 16.0954C3.39738 16.3458 3.41255 16.3892 2.83383 16.3892C2.42535 16.3892 1.51749 16.6345 1.60746 16.0348C1.71802 15.2977 1.95422 14.5729 2.08775 13.8385C2.33217 12.4941 2.24033 10.9379 3.26749 9.8796C3.52201 9.61736 3.56577 9.18076 3.65452 8.82575C3.72727 8.53475 3.86928 8.26504 3.9343 7.97242C4.00747 7.64316 3.93896 8.647 3.93896 8.9843C3.93896 10.3284 4.02878 11.7094 3.92031 13.0504C3.84944 13.9268 3.45374 14.7702 3.43536 15.6524C3.42358 16.2176 3.18355 16.6971 3.18355 17.2751C3.18355 17.5324 3.1984 17.8008 3.11827 18.0492C3.05873 18.2338 2.90439 18.3444 2.86647 18.5435C2.77446 19.0266 2.79726 19.6781 2.59135 20.1242C2.37706 20.5885 2.51835 21.0334 2.38618 21.5092C2.38047 21.5297 2.33355 21.8326 2.38152 21.7703C2.78356 21.2476 2.82695 20.4022 2.96906 19.7838C3.12674 19.0977 3.35325 18.4248 3.45401 17.7321C3.52085 17.2726 3.5055 16.781 3.94829 16.5104C4.5827 16.1227 5.63106 15.4031 5.69692 14.5799C5.72196 14.2669 5.50489 12.4141 6.09794 12.9852C7.009 13.8625 6.88398 15.4931 6.87666 16.641C6.87517 16.8758 7.01042 18.1274 6.39171 17.7974C5.79997 17.4818 5.83545 15.8715 6.05597 15.3446C6.32877 14.693 6.96002 14.3874 7.63207 14.3747C8.13062 14.3653 8.5693 14.4216 9.04963 14.5846C9.78277 14.8333 10.5287 14.9698 11.2506 15.2561C12.017 15.56 12.8283 15.7494 13.5448 16.156C14.387 16.634 15.6251 16.6967 16.5757 16.7995C17.4801 16.8973 18.647 16.9395 19.5321 16.7249C20.5269 16.4837 21.6786 16.641 22.6936 16.641C26.3764 16.641 30.0447 16.4731 33.7263 16.4731C37.8768 16.4731 42.0287 16.4544 46.1766 16.4731C48.1314 16.4819 49.9567 16.3778 51.8001 17.0793C52.387 17.3026 52.9977 17.4584 53.5907 17.6482C53.9994 17.779 54.3557 18.2024 54.7192 18.4409C55.634 19.0412 56.3443 19.9913 56.631 21.0522C56.7049 21.3256 56.8176 21.4737 56.8176 21.7703C56.8176 22.9191 56.8176 20.9291 56.8176 20.7071C56.8176 19.1695 57.0074 17.3969 56.7756 15.8669C56.5819 14.5888 56.3979 13.3227 56.3979 12.0246C56.3979 11.4807 56.4351 10.9224 56.3512 10.3832C56.3015 10.0632 56.2701 9.39919 56.0621 9.12885C55.9728 9.01273 55.4201 8.33828 55.4093 8.35013C55.3649 8.39899 55.3762 8.71796 55.372 8.74648C55.3176 9.12031 55.185 9.47389 55.0736 9.83297C54.8768 10.4674 54.5505 11.1469 54.4394 11.8008C54.3239 12.4806 54.542 13.2655 54.3695 13.9271C54.2013 14.5719 53.4507 16.4177 53.5814 15.7643C53.6723 15.3099 53.9212 14.898 53.9871 14.4167C54.0979 13.6067 54.0946 12.7189 54.0384 11.9033C53.9974 11.3096 53.7119 11.2478 53.5395 11.7868C53.2006 12.8458 52.5638 13.9254 52.5369 15.0462C52.5232 15.6189 52.3732 16.3019 53.0452 16.4311C53.7867 16.5737 53.8238 15.8459 53.9824 15.2607C54.1015 14.8215 54.3254 14.4353 54.5047 14.0204C54.6849 13.6033 54.722 13.2029 54.8031 12.7613C54.8629 12.4357 54.9656 12.1256 55.0456 11.8054C55.1622 11.339 55.1541 12.7611 55.2228 13.237C55.504 15.1851 55.7264 17.1236 55.7264 19.0937C55.7264 19.1038 55.7669 19.5845 55.7078 19.6066C55.3984 19.7227 54.9717 18.5821 54.8871 18.4176C54.4013 17.4729 53.8269 16.5275 53.1291 15.7224C52.8434 15.3927 52.5344 15.2883 52.0986 15.298C51.6283 15.3085 51.4545 15.585 51.1753 15.9322C51.116 16.0059 50.7154 16.5229 50.5411 16.4358C50.3379 16.3342 50.1515 15.6624 50.0608 15.4752C49.9311 15.2074 49.685 14.5981 49.3381 14.5193C48.9885 14.4398 48.6479 14.9765 48.4195 15.1628C48.3041 15.2569 47.8753 15.6505 47.706 15.6198C47.2509 15.537 47.0791 15.059 46.5403 15.1488C46.1175 15.2193 45.7742 15.6319 45.3419 15.5358C44.5423 15.3581 44.1387 14.1321 43.5373 13.6193C43.2498 13.3743 42.9998 13.3195 42.6886 13.5727C42.5839 13.6579 42.4378 13.9802 42.2783 13.8152C41.6414 13.1563 41.2485 12.2334 40.6322 11.535C40.221 11.0689 39.8675 10.5137 39.5224 9.99617C39.2845 9.63933 39.1381 9.22415 38.9209 8.85373C38.6425 8.37909 38.2371 7.89399 38.0536 7.37089C37.9351 7.03316 38.0308 6.5696 38.0816 6.23312C38.1222 5.96419 38.1276 5.62885 38.0955 5.35647C38.0582 5.03895 37.3571 5.26099 37.2515 5.44973C36.7936 6.26844 37.6208 6.82066 38.3147 6.82066C38.7419 6.82066 38.7653 6.18011 38.7717 5.85075C38.7728 5.7917 38.7717 5.61449 38.7717 5.67356C38.7717 6.03071 38.7617 6.39003 38.7344 6.74605C38.652 7.82085 38.3918 8.86324 38.2308 9.92623C38.0991 10.7952 38.0143 11.7225 37.7598 12.5655C37.73 12.6644 37.4645 13.543 37.3122 13.5261C37.1935 13.5129 37.2609 12.187 37.2609 12.0479C37.2609 12.0416 37.2721 10.8598 37.0091 11.2412C36.5544 11.9005 36.3167 12.7044 35.8713 13.3815C35.6112 13.7768 35.2164 14.7148 34.6589 14.7944C33.9618 14.894 33.2549 15.1359 32.5605 15.2794C31.8283 15.4307 31.0384 15.4071 30.2943 15.3773C29.5641 15.3481 28.9119 15.0552 28.1773 15.0462C27.2353 15.0347 26.5399 14.5336 25.6406 14.3794C25.3195 14.3244 24.9567 14.3109 24.6661 14.1463C24.2771 13.9258 23.9809 13.4848 23.6262 13.2043C23.016 12.7218 22.5187 12.512 22.1247 11.8101C21.7388 11.1224 21.3134 10.7991 21.3134 10.0102C21.3134 9.34312 21.1805 8.78721 21.0802 8.13563C21.0364 7.85104 21.1048 6.55102 20.7538 7.1937C20.0374 8.50534 19.1382 9.93766 18.8466 11.4277C18.7925 11.7042 18.8205 12.6224 18.4876 12.7334C17.8278 12.9533 17.0774 12.9022 16.3985 13.0878C15.7791 13.257 15.2225 13.5608 14.6173 13.7499C14.4711 13.7956 14.1938 13.7845 14.095 13.9271C13.9187 14.1818 13.9378 14.5789 13.624 14.7478C13.305 14.9196 12.6984 14.9623 12.3324 14.9623C11.0405 14.9623 14.8819 14.5198 16.1701 14.4214C17.162 14.3456 18.1501 14.2908 19.1451 14.2908C19.6201 14.2908 20.1269 14.3375 20.5953 14.2395C20.8997 14.1758 21.1798 14.0315 21.4812 13.9551C21.9821 13.8281 22.3972 13.956 22.8895 14.095C23.6047 14.2968 24.304 14.5323 25.0531 14.5426C25.0946 14.5432 25.7115 14.5426 25.3702 14.5426C23.2211 14.5426 21.1355 14.7183 19.0005 14.9623C18.6249 15.0052 17.6784 14.9644 17.928 15.5545C18.0574 15.8603 18.3362 15.8879 18.6368 15.8856C19.91 15.8755 21.1186 15.5067 22.3579 15.27C24.0078 14.955 25.708 15.0462 27.3799 15.0462C27.817 15.0462 28.1827 14.9112 28.6063 14.8597C29.7129 14.7251 30.8419 14.8071 31.9544 14.7944C33.2737 14.7794 34.5914 14.7105 35.9133 14.7105C37.2772 14.7105 38.7323 14.8778 40.0773 14.6638C40.4044 14.6118 40.6921 14.4273 40.7022 14.0763C40.7077 13.8823 40.6882 13.7852 40.497 13.7033C40.0995 13.5329 40.0185 13.1766 39.9001 12.78C39.6285 11.8698 39.3497 10.8332 38.6971 10.1081C38.5709 9.96791 38.4042 9.86859 38.2867 9.72105C38.0616 9.4383 38.0139 9.03276 37.7645 8.7698C37.5105 8.50209 36.7891 10.2324 36.6687 10.5184C36.3158 11.3565 36.0876 12.1641 35.6195 12.9525C34.8831 14.1928 33.6233 14.7492 32.3321 15.2514C32.1914 15.3061 32.9642 15.0806 33.0268 15.0555C34.1746 14.5965 35.2233 14.4774 36.4495 14.3561C37.2842 14.2735 38.0888 14.1288 38.9302 14.1229C39.2965 14.1204 39.6653 14.1375 40.0307 14.1043C41.1817 13.9996 42.3401 14.039 43.4953 14.039C43.7524 14.039 44.1371 14.0579 43.7052 14.3095C43.0146 14.7117 42.1849 14.9538 41.411 15.1302C40.2046 15.405 38.9312 15.4398 37.6992 15.4612C36.7238 15.4782 35.7403 15.4195 34.7662 15.4752C34.3451 15.4993 33.9487 15.6338 33.5258 15.6338C33.2382 15.6338 32.9507 15.6338 32.6631 15.6338C32.5993 15.6338 31.8927 15.6338 32.2714 15.6338C34.5105 15.6338 36.7311 15.5596 38.9675 15.4845C40.5631 15.431 42.1443 15.4166 43.7238 15.1628C44.9316 14.9687 46.1652 14.9117 47.3703 14.7012C48.0505 14.5823 48.7186 14.3944 49.4127 14.3747C49.8267 14.363 50.2025 14.3783 50.5971 14.2255C51.1373 14.0164 51.5569 13.5392 52.0286 13.209C52.2759 13.0359 52.7321 12.8369 52.9099 12.5935C53.3323 12.0155 53.7937 11.4781 54.2342 10.9148C54.6379 10.3986 54.8932 9.91292 54.9663 9.25475C55.0088 8.87237 55.3067 8.73469 55.3067 8.37811C55.3067 8.20179 55.2267 7.67957 55.2228 7.85585C55.2058 8.61876 55.2095 9.38709 55.2228 10.1501C55.2297 10.5444 55.4299 10.8173 55.5399 11.1852C55.9512 12.5617 55.5688 14.4195 55.2881 15.783C55.1744 16.3354 55.0371 16.8997 54.8544 17.4337C54.6703 17.9719 54.3851 16.9195 54.3462 16.7948C54.1499 16.1668 53.9935 15.3265 53.3762 14.953C53.0357 14.7469 52.4238 14.7519 52.0426 14.7151C50.5588 14.5721 49.6257 15.5893 48.2656 15.8856C47.3126 16.0931 46.3379 16.0251 45.3838 16.2399C44.2271 16.5005 43.0101 16.3892 41.8306 16.3892C41.1104 16.3892 40.2234 16.5247 39.5271 16.3332C38.4911 16.0483 37.6693 15.8016 36.5707 15.8016C35.1744 15.8016 33.6174 15.6039 32.2341 15.8529C31.097 16.0576 30.0171 16.3892 28.8581 16.3892C27.9157 16.3892 26.9077 16.6619 25.9764 16.543C25.4601 16.4771 24.9681 16.1641 24.4749 16.0068C24.0031 15.8563 23.5132 15.7561 23.0293 15.6524C22.3068 15.4976 21.4961 15.5498 20.7631 15.5498C18.5218 15.5498 16.2804 15.5498 14.0391 15.5498C13.3517 15.5498 12.6731 15.5094 11.9967 15.6338C11.5314 15.7193 11.0614 15.7144 10.5931 15.7736C9.83818 15.8691 9.15536 16.1568 8.42478 16.3425C7.99201 16.4526 7.54828 16.5487 7.10049 16.557C7.0487 16.558 6.09873 16.6012 6.11193 16.6223C6.20505 16.7713 6.46319 16.6402 6.63885 16.6363C7.31824 16.6212 7.99722 16.5919 8.67659 16.5757C9.9601 16.5451 11.2445 16.557 12.5282 16.557C13.4142 16.557 14.2933 16.641 15.1768 16.641C15.4183 16.641 16.5328 16.641 15.7364 16.641C14.404 16.641 13.0766 16.6001 11.7542 16.7902C11.1586 16.8758 10.5648 16.9105 9.96358 16.8928C8.93553 16.8625 7.94979 16.3892 6.92796 16.3892C6.55957 16.3892 6.42092 15.9443 6.29845 15.6431C5.9245 14.7234 5.74399 13.7561 5.40781 12.8266C5.2017 12.2568 4.92757 11.7216 4.73634 11.1479C4.63683 10.8494 4.54123 10.4997 4.2747 10.3272C4.19283 10.2743 4.18455 10.0372 4.22807 10.1221C4.51769 10.6868 4.73874 11.227 5.16067 11.7168C5.66206 12.2989 6.16906 13.0153 6.72744 13.5307C6.78814 13.5868 7.48574 13.953 7.46887 13.9924C7.41143 14.1264 6.58848 14.0408 6.45233 14.0343C6.05433 14.0154 5.71667 13.8877 5.44046 13.5914C5.19738 13.3306 5.27224 13.219 5.14202 13.6193C4.86272 14.4779 4.39542 15.2989 4.20476 16.1887C4.02105 17.046 4.25042 14.4149 4.04155 13.5634C3.95941 13.2285 3.50565 12.6849 3.18356 12.5282C2.93768 12.4086 2.71397 12.4668 2.61467 12.7427C2.36711 13.4304 2.38106 14.3404 2.2696 15.0649C2.07268 16.3449 1.8732 17.6992 2.09707 18.9865C2.25257 19.8806 2.99897 19.4368 3.4167 18.8885C3.97325 18.1581 4.12557 17.2098 4.7783 16.557C5.03758 16.2978 5.32974 16.0534 5.70625 16.0534C6.47777 16.0534 5.6018 17.334 5.39383 17.6482C5.0778 18.1256 4.65345 18.9911 3.97627 18.9911C3.85923 18.9911 3.52026 19.0525 3.44469 18.9445C3.0473 18.3768 3.67218 16.9756 3.94829 16.4731C4.73596 15.0395 6.58275 14.5649 8.07972 14.2628C9.31355 14.0139 10.5944 14.039 11.8474 14.039C12.9975 14.039 14.1401 13.8711 15.2981 13.8711C16.5778 13.8711 17.7626 13.7395 19.0285 13.5727C19.7707 13.4749 21.3624 13.224 21.3973 12.2298C21.425 11.4408 21.3973 10.6458 21.3973 9.85628C21.3973 9.82953 21.3916 9.32831 21.3553 9.35734C21.0894 9.57004 21.3134 11.2002 21.3134 11.4977C21.3134 12.1473 21.2828 12.8071 21.4439 13.4421C21.4724 13.5544 21.5588 13.6727 21.5652 13.7872C21.574 13.9459 21.491 14.0126 21.3227 14.0204C20.7911 14.0449 20.6507 13.2712 20.53 12.8826C20.4066 12.4853 20.4407 12.0604 20.3061 11.6702C20.2575 11.5292 20.2246 11.4811 20.3901 11.6609C20.7437 12.0451 21.0788 12.4429 21.4486 12.8126C22.1371 13.5011 22.9208 14.2574 23.9107 14.4447C24.5688 14.5692 25.233 14.6265 25.9018 14.6265C27.0613 14.6265 28.2208 14.6265 29.3804 14.6265C29.6671 14.6265 28.8086 14.6919 28.5317 14.7664C27.7571 14.975 27.0001 15.2402 26.2188 15.4286C24.8812 15.7511 23.8034 14.5542 22.7962 13.8245C22.6237 13.6995 22.3214 13.5654 22.2366 13.3535C22.0444 12.873 22.0893 12.3455 22.0175 11.8427C21.9975 11.7027 21.6667 10.9956 22.0175 11.2225C22.5123 11.5428 22.804 12.0472 23.1972 12.4676C23.6407 12.9416 24.2684 13.5172 24.8199 13.8525C25.303 14.1461 25.9024 14.2021 26.424 14.4027C27.0221 14.6328 27.8145 14.6037 28.4478 14.6312C29.2395 14.6656 30.0292 14.8537 30.8166 14.8783C31.6982 14.9059 32.5087 14.8437 33.3346 14.5006C34.0053 14.2221 34.5359 13.6918 35.1159 13.2743C35.5156 12.9865 35.7507 12.4431 35.9832 12.0246C36.242 11.5587 36.7272 11.3126 37.1769 11.064C37.4593 10.908 37.9837 10.5545 38.1841 10.3039C38.2318 10.2444 38.245 10.447 38.2494 10.5231C38.2745 10.9564 38.2496 11.3914 38.2261 11.8241C38.2006 12.2943 38.1841 12.7615 38.1841 13.2323C38.1841 14.4122 38.7716 13.0506 38.9769 12.5841C39.4173 11.5832 39.9374 14.3529 40.8048 13.8525C41.2952 13.5696 40.5309 12.4981 40.497 12.5562C40.2329 13.0089 40.7342 13.6683 41.0099 13.9924C41.7677 14.8831 42.5102 15.0628 43.5466 15.4659C44.2234 15.7291 44.7655 16.1673 45.4025 16.4918C45.8521 16.7208 46.3255 16.6005 46.8107 16.6876C48.4053 16.9738 50.002 17.222 51.5297 16.6037C52.6301 16.1583 53.5985 15.4287 54.6492 14.8783C54.7629 14.8188 56.0375 14.1165 56.0621 14.1696C56.3137 14.7104 56.4225 15.5019 55.7451 15.6524C53.345 16.1857 50.9577 16.1021 48.5267 16.1374C47.4661 16.1527 46.4458 16.5776 45.3838 16.641C44.5175 16.6927 43.6198 16.6729 42.7632 16.8088C42.0305 16.9251 41.3068 16.8484 40.5716 16.9114C39.6707 16.9886 38.8336 17.1446 37.923 17.1446C36.117 17.1446 34.3217 17.1583 32.5186 17.2238C28.8506 17.3572 25.1469 17.2065 21.5279 16.5943C19.9187 16.3221 18.3997 16.2213 16.7716 16.2213C14.9819 16.2213 13.1995 16.3052 11.4091 16.3052" stroke="white" stroke-width="3" stroke-linecap="round" stroke-linejoin="round"/>
</svg>
