<svg width="681" height="455" viewBox="0 0 681 455" fill="none" xmlns="http://www.w3.org/2000/svg">
<path d="M152.7 292.034C163.104 292.034 171.539 286.857 171.539 280.471C171.539 274.085 163.104 268.908 152.7 268.908C142.295 268.908 133.86 274.085 133.86 280.471C133.86 286.857 142.295 292.034 152.7 292.034Z" fill="#FFEECC"/>
<path d="M167.673 278.297L166.582 273.949H164.103C161.327 272.17 157.361 271.083 152.899 271.083C148.437 271.083 144.471 272.17 141.694 273.949H139.215L138.025 278.297C137.926 278.791 137.827 279.186 137.827 279.68C137.827 284.424 144.57 288.278 152.8 288.278C161.129 288.278 167.772 284.424 167.772 279.68C167.772 279.186 167.772 278.692 167.673 278.297Z" fill="black"/>
<path d="M137.827 279.582L138.918 282.843L143.38 286.302L148.139 287.685L148.833 282.052L145.165 281.262L140.306 278.198L139.017 275.431L139.116 273.85L137.827 279.582Z" fill="#8BC34A"/>
<path d="M152.799 288.674C144.271 288.674 137.331 284.622 137.331 279.582C137.331 279.285 137.331 278.989 137.43 278.692L137.529 278.099L138.818 273.454H141.495C144.47 271.577 148.535 270.588 152.898 270.588C157.162 270.588 161.326 271.676 164.301 273.454H167.077L168.267 278.198C168.366 278.692 168.465 279.186 168.465 279.68C168.267 284.622 161.326 288.674 152.799 288.674ZM138.62 277.704L138.421 278.297C138.322 278.791 138.223 279.186 138.223 279.582C138.223 284.029 144.767 287.685 152.7 287.685C160.731 287.685 167.176 284.029 167.176 279.582C167.176 279.186 167.077 278.791 166.978 278.396L165.987 274.344H163.706L163.607 274.245C160.83 272.466 156.864 271.379 152.7 271.379C148.535 271.379 144.569 272.367 141.793 274.245L141.693 274.344H139.512L138.62 277.704Z" fill="black"/>
<path d="M152.899 282.843C160.511 282.843 166.681 279.303 166.681 274.936C166.681 270.57 160.511 267.03 152.899 267.03C145.287 267.03 139.116 270.57 139.116 274.936C139.116 279.303 145.287 282.843 152.899 282.843Z" fill="#8BC34A"/>
<path d="M152.7 285.017C160.312 285.017 166.482 281.477 166.482 277.111C166.482 272.744 160.312 269.205 152.7 269.205C145.088 269.205 138.917 272.744 138.917 277.111C138.917 281.477 145.088 285.017 152.7 285.017Z" fill="#FFEECC"/>
<path d="M152.898 266.438C144.966 266.438 138.62 270.193 138.62 274.838C138.62 279.483 145.065 283.238 152.898 283.238C160.731 283.238 167.176 279.483 167.176 274.838C167.176 270.292 160.731 266.438 152.898 266.438ZM152.898 282.349C145.561 282.349 139.611 278.989 139.611 274.937C139.611 270.885 145.561 267.525 152.898 267.525C160.236 267.525 166.185 270.885 166.185 274.937C166.185 278.989 160.236 282.349 152.898 282.349Z" fill="black"/>
<path d="M152.799 278.198C156.687 278.198 159.839 276.517 159.839 274.443C159.839 272.369 156.687 270.687 152.799 270.687C148.911 270.687 145.759 272.369 145.759 274.443C145.759 276.517 148.911 278.198 152.799 278.198Z" fill="black"/>
<path d="M150.32 171.662C138.223 177.197 127.415 193.997 126.324 209.612C125.927 215.838 127.117 220.878 129.596 224.337L147.048 257.247L155.377 261.299C156.17 259.619 168.267 201.805 168.862 200.026C170.151 195.974 179.075 193.404 179.174 189.451C179.471 174.924 162.119 166.227 150.32 171.662ZM148.832 208.723C144.073 211.094 140.404 208.228 140.702 202.299C140.999 196.468 145.064 189.945 149.725 187.771C154.286 185.597 157.856 188.364 157.657 193.997C157.459 199.828 153.493 206.351 148.832 208.723Z" fill="#8BC34A"/>
<path d="M151.51 175.715C139.413 181.249 128.605 198.049 127.514 213.664C127.117 219.89 128.307 224.93 130.786 228.389L146.651 258.334L155.575 260.805C156.368 259.125 169.457 205.956 170.052 204.177C171.341 200.125 180.265 197.555 180.364 193.602C180.562 178.976 163.309 170.279 151.51 175.715ZM150.022 212.775C145.263 215.147 141.594 212.281 141.892 206.351C142.189 200.52 146.254 193.998 150.915 191.823C155.476 189.649 159.045 192.416 158.847 198.049C158.649 203.88 154.683 210.502 150.022 212.775Z" fill="#FFEECC"/>
<path d="M154.98 262.386L146.254 258.037L128.704 224.831C126.027 221.076 124.837 215.739 125.233 209.513C126.225 193.8 137.33 176.406 149.824 170.674C156.17 167.808 164.499 168.599 170.944 172.848C176.993 176.801 180.364 182.83 180.265 189.451C180.265 192.12 177.389 193.997 174.712 195.875C172.63 197.357 170.448 198.84 169.953 200.322C169.754 201.113 167.474 211.589 164.995 222.855C159.343 248.945 156.765 260.804 156.368 261.694L154.98 262.386ZM147.94 256.258L154.683 259.52C155.873 254.578 159.839 236.197 162.813 222.262C165.788 208.228 167.573 200.322 167.771 199.532C168.465 197.259 171.043 195.48 173.423 193.898C175.604 192.416 177.984 190.835 177.984 189.352C178.083 183.522 175.01 178.185 169.655 174.627C163.805 170.872 156.368 170.081 150.716 172.651C138.818 178.086 128.406 194.689 127.415 209.612C127.018 215.344 128.109 220.187 130.489 223.547L130.588 223.645L147.94 256.258ZM145.66 210.699C144.569 210.699 143.478 210.403 142.586 209.81C140.503 208.426 139.413 205.659 139.611 202.2C139.909 195.974 144.172 189.155 149.229 186.684C151.708 185.498 153.989 185.498 155.773 186.684C157.757 187.969 158.946 190.637 158.847 193.997C158.649 200.223 154.484 207.141 149.328 209.711C148.039 210.403 146.849 210.699 145.66 210.699ZM152.7 188.167C151.906 188.167 151.113 188.364 150.221 188.759C145.858 190.835 142.189 196.863 141.892 202.299C141.792 204.967 142.487 206.944 143.875 207.833C145.065 208.624 146.651 208.525 148.337 207.635C152.7 205.461 156.368 199.334 156.567 193.898C156.666 191.428 155.873 189.451 154.584 188.562C153.989 188.364 153.394 188.167 152.7 188.167Z" fill="black"/>
<path d="M173.423 174.825C169.259 172.157 163.904 172.058 158.252 174.726C145.66 180.458 134.653 197.951 133.662 213.565C133.265 219.89 134.455 225.128 137.132 228.884L154.584 261.892C154.98 262.682 156.269 262.682 156.567 261.793L176.497 209.711C177.29 207.932 177.984 206.153 178.48 204.473C179.868 200.224 180.562 195.974 180.661 192.021C180.661 183.917 178.183 177.889 173.423 174.825Z" fill="black"/>
<path d="M168.961 202.595C168.961 205.165 168.069 207.734 166.383 210.205C164.697 212.676 162.318 214.85 159.244 216.629L146.75 224.238V195.48L158.252 188.562C161.326 186.684 163.607 185.894 165.193 186.19C166.78 186.487 167.573 187.771 167.573 190.143C167.573 191.823 167.176 193.404 166.383 194.986C165.59 196.567 164.4 198.049 162.813 199.433C164.797 198.445 166.383 198.247 167.474 198.84C168.366 199.334 168.961 200.619 168.961 202.595ZM162.219 194.096C162.219 192.811 161.822 192.12 161.128 192.021C160.434 191.922 159.343 192.317 157.955 193.108L152.005 196.765V203.88L158.054 200.223C159.541 199.334 160.632 198.346 161.326 197.357C161.921 196.369 162.219 195.282 162.219 194.096ZM163.706 205.264C163.706 202.595 162.02 202.2 158.649 204.275L152.005 208.327V216.53L158.847 212.379C160.533 211.391 161.723 210.304 162.516 209.118C163.309 208.031 163.706 206.746 163.706 205.264Z" fill="#FFEECC"/>
<path d="M380.658 107.919C391.063 107.919 399.498 102.742 399.498 96.3565C399.498 89.9705 391.063 84.7937 380.658 84.7937C370.253 84.7937 361.818 89.9705 361.818 96.3565C361.818 102.742 370.253 107.919 380.658 107.919Z" fill="#FFEECC"/>
<path d="M395.037 93.7891L393.946 89.4407H391.468C388.691 87.6618 384.725 86.5747 380.263 86.5747C375.801 86.5747 371.835 87.6618 369.058 89.4407H366.58L365.39 93.7891C365.291 94.2832 365.191 94.6785 365.191 95.1727C365.191 99.9164 371.934 103.771 380.164 103.771C388.394 103.771 395.136 99.9164 395.136 95.1727C395.235 94.6785 395.136 94.2832 395.037 93.7891Z" fill="black"/>
<path d="M365.19 95.1709L366.281 98.3334L370.842 101.792L375.602 103.275L376.296 97.6416L372.627 96.851L367.669 93.6885L366.479 90.9214L366.579 89.439L365.19 95.1709Z" fill="#8BC34A"/>
<path d="M380.261 104.263C371.734 104.263 364.793 100.211 364.793 95.1708C364.793 94.8743 364.793 94.5778 364.892 94.2813L364.992 93.6884L366.281 89.0435H368.958C371.932 87.1658 375.998 86.1775 380.361 86.1775C384.624 86.1775 388.789 87.2646 391.763 89.0435H394.54L395.73 93.7872C395.829 94.2813 395.928 94.7754 395.928 95.2696C395.73 100.211 388.789 104.263 380.261 104.263ZM366.082 93.293L365.884 93.886C365.785 94.3801 365.686 94.7754 365.686 95.1708C365.686 99.618 372.23 103.275 380.162 103.275C388.194 103.275 394.639 99.618 394.639 95.1708C394.639 94.7754 394.54 94.3801 394.441 93.9848L393.449 89.9329H391.169L391.069 89.8341C388.293 88.0552 384.327 86.9681 380.162 86.9681C375.998 86.9681 372.032 87.9564 369.255 89.8341L369.156 89.9329H366.975L366.082 93.293Z" fill="black"/>
<path d="M380.261 98.3329C387.873 98.3329 394.043 94.7932 394.043 90.4267C394.043 86.0602 387.873 82.5205 380.261 82.5205C372.649 82.5205 366.478 86.0602 366.478 90.4267C366.478 94.7932 372.649 98.3329 380.261 98.3329Z" fill="#8BC34A"/>
<path d="M380.162 100.606C387.774 100.606 393.945 97.0661 393.945 92.6996C393.945 88.3332 387.774 84.7935 380.162 84.7935C372.55 84.7935 366.38 88.3332 366.38 92.6996C366.38 97.0661 372.55 100.606 380.162 100.606Z" fill="#FFEECC"/>
<path d="M380.262 82.0266C372.329 82.0266 365.983 85.782 365.983 90.4269C365.983 95.0718 372.428 98.8272 380.262 98.8272C388.194 98.8272 394.54 95.0718 394.54 90.4269C394.639 85.782 388.194 82.0266 380.262 82.0266ZM380.262 97.839C372.924 97.839 366.975 94.4788 366.975 90.4269C366.975 86.2762 372.924 83.0149 380.262 83.0149C387.599 83.0149 393.548 86.375 393.548 90.4269C393.648 94.5777 387.599 97.839 380.262 97.839Z" fill="black"/>
<path d="M380.262 93.6883C384.15 93.6883 387.302 92.007 387.302 89.9329C387.302 87.8589 384.15 86.1775 380.262 86.1775C376.373 86.1775 373.222 87.8589 373.222 89.9329C373.222 92.007 376.373 93.6883 380.262 93.6883Z" fill="black"/>
<path d="M375.006 2.37171C364.595 7.11541 355.274 21.643 354.382 35.0835C353.985 40.4201 355.076 44.7685 357.158 47.7334L372.23 76.0967L379.468 79.5557C380.162 78.0733 390.574 28.2644 391.069 26.782C392.16 23.3231 399.894 21.05 399.894 17.6899C400.093 5.13887 385.219 -2.27316 375.006 2.37171ZM373.717 34.3917C369.652 36.4671 366.479 33.8976 366.677 28.8574C366.975 23.8172 370.445 18.2829 374.411 16.3063C378.377 14.4286 381.451 16.8005 381.253 21.7418C381.154 26.6832 377.783 32.3163 373.717 34.3917Z" fill="#8BC34A"/>
<path d="M375.998 5.63313C365.586 10.3768 356.266 24.9044 355.373 38.3449C354.977 43.6816 356.067 48.03 358.15 50.9948L371.932 77.0851L379.369 78.1722C380.063 76.6898 391.565 31.5258 391.962 30.0434C393.052 26.5845 400.787 24.3115 400.787 20.9513C400.985 8.49912 386.112 0.988259 375.998 5.63313ZM374.61 37.6531C370.544 39.7285 367.371 37.159 367.57 32.1188C367.867 27.0786 371.337 21.5443 375.304 19.5678C379.27 17.69 382.344 20.0619 382.145 25.0032C382.046 29.9446 378.675 35.5777 374.61 37.6531Z" fill="#FFEECC"/>
<path d="M378.972 80.4452L371.437 76.7886L356.266 48.2276C353.985 44.9663 352.994 40.4202 353.291 34.9848C354.184 21.4454 363.702 6.42372 374.51 1.48237C379.964 -0.988307 387.103 -0.296518 392.755 3.36008C398.01 6.7202 400.886 11.958 400.787 17.69C400.787 19.963 398.308 21.6431 396.027 23.2243C394.242 24.5091 392.358 25.695 391.863 27.0786C391.664 27.6715 389.681 36.8625 387.599 46.4487C382.74 68.9813 380.559 79.1605 380.162 79.9511L378.972 80.4452ZM372.924 75.3062L378.774 78.1722C379.766 73.9226 383.236 58.0115 385.814 46.0534C388.392 33.9965 389.879 27.0786 390.078 26.4856C390.673 24.5091 392.854 23.0267 394.936 21.6431C396.82 20.3583 398.803 18.9748 398.903 17.69C399.002 12.6498 396.424 8.00496 391.763 5.04014C386.707 1.77885 380.361 1.08706 375.403 3.36008L375.006 2.47064L375.403 3.36008C365.19 8.00496 356.167 22.3349 355.373 35.1824C355.076 40.1238 355.968 44.2745 358.051 47.2393L358.15 47.3381L372.924 75.3062ZM370.941 36.0718C369.949 36.0718 369.057 35.7754 368.264 35.2812C366.479 34.0953 365.487 31.7235 365.686 28.7586C365.983 23.3232 369.652 17.4924 374.015 15.417C376.097 14.4287 378.179 14.4287 379.666 15.417C381.451 16.6029 382.344 18.8759 382.245 21.7419C382.046 27.0786 378.477 33.107 374.114 35.2812L373.717 34.3918L374.114 35.2812C373.023 35.7754 371.932 36.0718 370.941 36.0718ZM376.989 16.6029C376.295 16.6029 375.601 16.8006 374.808 17.1959C371.04 18.9748 367.867 24.2126 367.669 28.8575C367.569 31.1305 368.164 32.8106 369.354 33.6012C370.346 34.293 371.734 34.1941 373.221 33.4035C376.989 31.5258 380.162 26.288 380.261 21.6431C380.361 19.4689 379.666 17.7888 378.576 17.097C378.179 16.8006 377.584 16.6029 376.989 16.6029Z" fill="black"/>
<path d="M394.837 5.13912C391.268 2.76727 386.706 2.76727 381.749 4.94146C370.941 9.88282 361.422 24.9045 360.529 38.4439C360.133 43.8793 361.223 48.4254 363.504 51.6867L378.576 80.0501C378.972 80.7419 380.063 80.7419 380.361 79.9512L397.514 35.0837C398.209 33.6013 398.803 32.0201 399.299 30.5377C400.489 26.8811 401.084 23.2245 401.183 19.7655C401.183 12.9465 399.002 7.70862 394.837 5.13912Z" fill="black"/>
<path d="M387.103 37.2578L385.219 32.1188L376.989 37.0602L375.105 44.571L370.544 47.3382L378.378 17.7889L383.732 14.5276L391.664 34.5895L387.103 37.2578ZM381.154 19.9631L381.055 20.3584C380.956 20.8525 380.856 21.4455 380.658 22.0384C380.559 22.6314 379.667 26.1892 377.981 32.5141L384.228 28.7587L382.145 22.9279L381.451 20.9513L381.154 19.9631Z" fill="#FFEECC"/>
</svg>
