<svg width="59" height="59" viewBox="0 0 59 59" fill="none" xmlns="http://www.w3.org/2000/svg">
<g clip-path="url(#clip0)">
<path d="M46.7852 1.3418C49.1083 1.3418 50.9707 3.19699 50.9707 5.43945V12.9355H8.0293V5.43945C8.0293 3.19699 9.89169 1.3418 12.2148 1.3418H46.7852ZM15.6719 11.5371H19.1289C20.6202 11.5371 21.8574 10.3452 21.8574 8.83789C21.8574 7.33056 20.6202 6.13867 19.1289 6.13867H15.6719C14.1806 6.13867 12.9434 7.33056 12.9434 8.83789C12.9434 10.3452 14.1806 11.5371 15.6719 11.5371Z" stroke="white" stroke-width="2"/>
<path d="M26.7715 38.8379V57.3418H12.2148C9.89169 57.3418 8.0293 55.4866 8.0293 53.2441V38.8379H26.7715ZM13.033 43.8292C11.9592 44.8848 11.9592 46.6026 13.033 47.6582L13.5297 48.1465L13.033 48.6348C11.9592 49.6904 11.9592 51.4082 13.033 52.4638C14.0973 53.5101 15.815 53.5101 16.8793 52.4638L17.4004 51.9516L17.9215 52.4638C18.9858 53.5101 20.7035 53.5101 21.7678 52.4638C22.8416 51.4082 22.8416 49.6904 21.7678 48.6348L21.2711 48.1465L21.7678 47.6582C22.8416 46.6026 22.8416 44.8848 21.7678 43.8292C20.7035 42.7829 18.9858 42.7829 17.9215 43.8292L17.4004 44.3414L16.8793 43.8292C15.815 42.7829 14.0973 42.7829 13.033 43.8292Z" stroke="white" stroke-width="2"/>
<path d="M8.0293 18.334H26.7715V33.4395H8.0293V18.334ZM20.1289 29.3418V28.6426H20.8574C22.3487 28.6426 23.5859 27.4507 23.5859 25.9434C23.5859 24.436 22.3487 23.2441 20.8574 23.2441H20.1289V22.5449C20.1289 21.0376 18.8917 19.8457 17.4004 19.8457C15.9091 19.8457 14.6719 21.0376 14.6719 22.5449V23.2441H13.9434C12.4521 23.2441 11.2148 24.436 11.2148 25.9434C11.2148 27.4507 12.4521 28.6426 13.9434 28.6426H14.6719V29.3418C14.6719 30.8491 15.9091 32.041 17.4004 32.041C18.8917 32.041 20.1289 30.8491 20.1289 29.3418Z" stroke="white" stroke-width="2"/>
<path d="M32.2285 33.4395V18.334H50.9707V33.4395H32.2285ZM38.1426 28.6426H45.0566C46.5479 28.6426 47.7852 27.4507 47.7852 25.9434C47.7852 24.436 46.5479 23.2441 45.0566 23.2441H38.1426C36.6513 23.2441 35.4141 24.436 35.4141 25.9434C35.4141 27.4507 36.6513 28.6426 38.1426 28.6426Z" stroke="white" stroke-width="2"/>
<path d="M32.2285 38.8379H50.9707V53.2441C50.9707 55.4866 49.1083 57.3418 46.7852 57.3418H32.2285V38.8379ZM38.1426 54.2441H45.0566C46.5479 54.2441 47.7852 53.0522 47.7852 51.5449C47.7852 50.0376 46.5479 48.8457 45.0566 48.8457H38.1426C36.6513 48.8457 35.4141 50.0376 35.4141 51.5449C35.4141 53.0522 36.6513 54.2441 38.1426 54.2441ZM38.1426 47.4473H45.0566C46.5479 47.4473 47.7852 46.2554 47.7852 44.748C47.7852 43.2407 46.5479 42.0488 45.0566 42.0488H38.1426C36.6513 42.0488 35.4141 43.2407 35.4141 44.748C35.4141 46.2554 36.6513 47.4473 38.1426 47.4473Z" stroke="white" stroke-width="2"/>
</g>
<defs>
<clipPath id="clip0">
<rect width="59" height="58" fill="white" transform="translate(0 0.341797)"/>
</clipPath>
</defs>
</svg>
