<svg width="62" height="60" viewBox="0 0 62 60" fill="none" xmlns="http://www.w3.org/2000/svg">
<path d="M52.2243 41.269H51.5255L51.2852 41.9251C49.3925 47.0936 46.024 51.2421 42.2343 54.0965C38.4315 56.9607 34.2719 58.4736 30.8328 58.4736C27.3936 58.4736 23.2341 56.9607 19.4313 54.0965C15.6415 51.2421 12.2731 47.0936 10.3803 41.9251L10.14 41.269H9.44128H5.47131C2.98399 41.269 1 39.2946 1 36.8938V30.9841C1 29.3347 1.93659 27.882 3.34112 27.1353L3.86736 26.8555L3.87165 26.2595C3.93069 18.0626 6.35422 11.802 10.9693 7.50265L10.9699 7.5021C15.5456 3.23244 22.1818 1 30.8328 1C39.4833 1 46.1201 3.23224 50.7063 7.50265C55.3214 11.802 57.7449 18.0626 57.804 26.2595L57.8082 26.8538L58.3323 27.1341C59.7291 27.8811 60.6655 29.3251 60.6655 30.9841V36.8938C60.6655 39.2946 58.6816 41.269 56.1942 41.269H52.2243ZM50.9029 28.7086L50.8682 28.3154L50.5744 28.0519C47.9248 25.6756 43.2823 23.9723 37.6229 23.3478L35.0038 23.0588L36.7717 25.0127C36.8669 25.1179 36.9606 25.2289 37.0524 25.3459C36.8647 25.2764 36.6756 25.2097 36.4857 25.1449C35.8738 24.9364 35.2323 24.7421 34.5879 24.5472L34.5589 24.5384C33.9188 24.3448 33.2723 24.1493 32.6152 23.9302C29.9634 23.0457 27.2216 21.8015 24.8611 19.0483L24.8543 19.0403L24.8473 19.0324C24.5787 18.7321 24.3465 18.4403 24.1512 18.1753L24.1039 18.1112L24.0919 18.0993C23.8996 17.8402 23.7356 17.6053 23.5913 17.3985L23.5888 17.395L23.5707 17.369C23.4321 17.1704 23.2863 16.9614 23.1612 16.8118C23.1017 16.7407 22.9914 16.6139 22.8435 16.5105C22.7385 16.4372 22.2442 16.1237 21.6854 16.4465C21.4501 16.5824 21.3255 16.7738 21.2641 16.8951C21.2019 17.018 21.1722 17.1323 21.1565 17.2075C21.1259 17.3545 21.1188 17.504 21.1171 17.6223C20.9739 23.953 16.4133 28.7896 11.5009 29.4688L10.6727 29.5834L10.6387 30.4187C10.6085 31.1591 10.5774 31.9309 10.5774 32.7461C10.5774 35.7285 11.0697 38.4529 11.9227 40.9048L11.9836 41.08L12.1033 41.2217C15.4415 45.1723 20.8585 46.2147 25.3622 46.4844L25.9492 46.5196L26.2653 46.0235C26.855 45.098 28.3421 44.2886 30.2685 44.2886C31.5547 44.2886 32.6769 44.655 33.4508 45.1951C34.2287 45.738 34.5786 46.3895 34.5786 46.9909C34.5786 47.598 34.2279 48.2491 33.4515 48.7899C32.6782 49.3285 31.556 49.6931 30.2685 49.6931C28.2436 49.6931 26.7305 48.8101 26.1964 47.8436L25.9294 47.3604L25.3783 47.3289C22.3214 47.1539 19.0285 46.6412 16.1393 45.3016L12.8117 43.7588L14.8958 46.777C17.1308 50.0139 19.9802 52.4892 22.8178 54.1585C25.6392 55.8183 28.52 56.7218 30.8328 56.7218H30.8343C34.4355 56.7164 39.4858 54.5286 43.6099 50.5178C47.7716 46.4705 51.0881 40.4776 51.0881 32.7362C51.0881 31.3158 51.0158 29.9892 50.9029 28.7086ZM21.6114 18.0772C21.6114 18.0771 21.6132 18.0789 21.6168 18.0829C21.6132 18.0793 21.6114 18.0772 21.6114 18.0772ZM55.5091 26.6089H56.5334L56.5088 25.5848C56.3279 18.0702 54.0481 12.1814 49.643 8.1835C45.25 4.19661 38.8931 2.22709 30.8328 2.22709C22.7724 2.22709 16.4156 4.19661 12.0225 8.1835C7.6174 12.1814 5.33766 18.0702 5.15677 25.5848L5.13212 26.6089H6.15648H8.26238H9.11929L9.25057 25.7621C9.99648 20.9506 11.5758 17.0655 13.9132 14.1131L13.9133 14.1129C17.62 9.42826 23.2519 6.98893 30.8328 6.98893C38.4136 6.98893 44.0455 9.42826 47.7522 14.1129L47.7524 14.1131C50.089 17.0646 51.6591 20.9495 52.4153 25.764L52.548 26.6089H53.4032H55.5091ZM24.9862 32.7164C24.9862 33.8679 24.032 34.8247 22.8223 34.8247C21.6067 34.8247 20.6584 33.8621 20.6584 32.7164C20.6584 31.5649 21.6125 30.6081 22.8223 30.6081C24.04 30.6081 24.9862 31.5629 24.9862 32.7164ZM36.6794 32.7164C36.6794 31.5707 37.6276 30.6081 38.8432 30.6081C40.053 30.6081 41.0071 31.5649 41.0071 32.7164C41.0071 33.86 40.0509 34.8247 38.8432 34.8247C37.6335 34.8247 36.6794 33.8679 36.6794 32.7164Z" stroke="white" stroke-width="2"/>
</svg>
