<svg width="56" height="55" viewBox="0 0 56 55" fill="none" xmlns="http://www.w3.org/2000/svg">
<path d="M30.7683 9.72754H11.9311C10.5437 9.72754 9.41858 10.8328 9.41858 12.1944C9.41858 13.5561 10.5437 14.6613 11.9311 14.6613H30.7683C32.158 14.6613 33.2808 13.5561 33.2808 12.1944C33.2796 10.8328 32.1568 9.72754 30.7683 9.72754Z" fill="white"/>
<path d="M33.2796 21.4464C33.2796 20.0836 32.1568 18.9795 30.7671 18.9795H11.9311C10.5437 18.9795 9.41858 20.0847 9.41858 21.4464C9.41858 22.8092 10.5437 23.9144 11.9311 23.9144H30.7683C32.1568 23.9144 33.2796 22.8092 33.2796 21.4464Z" fill="white"/>
<path d="M21.3509 33.1674C22.7382 33.1674 23.8622 32.0621 23.8622 30.7005C23.8622 29.3377 22.7382 28.2324 21.3509 28.2324H11.9311C10.5437 28.2324 9.41858 29.3377 9.41858 30.7005C9.41858 32.0633 10.5437 33.1674 11.9311 33.1674H21.3509Z" fill="white"/>
<path d="M40.3104 41.5596L37.6756 43.2677V49.4095H5.02381V4.99843H37.6756V14.7482L42.6994 6.2007V2.53038C42.6994 1.16758 41.5743 0.0634766 40.187 0.0634766H2.51132C1.12398 0.0634766 0 1.16873 0 2.53038V51.8787C0 53.2416 1.12398 54.3456 2.51132 54.3456H40.187C41.5755 54.3456 42.7006 53.2404 42.7006 51.8787V38.2796L41.5002 40.3192C41.2075 40.817 40.796 41.2454 40.3104 41.5596Z" fill="white"/>
<path d="M55.1631 11.4883C55.1114 11.2666 54.5812 9.2732 51.3856 7.45998C48.19 5.64792 46.1678 6.19304 45.9444 6.26118C45.6446 6.35473 45.3918 6.55338 45.2343 6.82132L29.5362 33.5299C29.4386 33.6973 29.381 33.8833 29.3693 34.075L28.7814 43.7127C28.7532 44.1793 28.9954 44.6205 29.4057 44.8549C29.8195 45.0882 30.3286 45.0721 30.726 44.8168L38.9289 39.4973C39.0924 39.3934 39.2276 39.2513 39.3252 39.0861L55.0244 12.373C55.1819 12.105 55.2302 11.7909 55.1631 11.4883ZM33.891 40.5471C33.4737 40.2157 32.9998 39.9027 32.4908 39.6128C31.9793 39.3229 31.4667 39.0792 30.9659 38.8875L31.141 35.9979C31.7959 36.0822 32.7671 36.3432 34.0004 37.0408C35.2325 37.7395 35.9462 38.4371 36.3506 38.951L33.891 40.5471Z" fill="white"/>
<path d="M17.5109 44.5666C17.5932 45.062 18.1751 45.2156 18.5643 45.375C18.9405 45.5309 19.3897 45.2353 19.7024 45.0863C21.6188 44.1704 24.2148 45.2468 26.2676 45.2468C27.4821 45.2468 27.4821 43.3966 26.2676 43.3966C23.8738 43.3966 21.8822 42.8019 19.5096 43.1864C19.5096 43.0513 19.459 42.8688 19.3109 42.6205C18.8676 41.8756 18.3033 41.6643 17.7378 41.7543C17.7002 41.6666 17.6637 41.5788 17.6108 41.4899C17.4627 41.252 17.2557 41.133 17.023 41.0833C17.6849 39.9469 18.1117 38.7446 17.6778 37.7722C17.545 37.4765 17.1676 37.3253 16.8642 37.3137C15.6062 37.2675 14.5269 38.5645 13.718 39.3429C11.6946 41.2912 9.91227 43.5029 8.18751 45.7042C7.44681 46.65 9.08457 47.5693 9.81351 46.6396C11.3419 44.6901 12.9609 42.7972 14.7033 41.0268C14.2836 41.7035 13.838 42.3676 13.3689 43.0074C12.6987 44.0249 14.2988 44.8911 14.9949 43.9418C15.1606 43.6934 15.3711 43.5144 15.6015 43.3608C15.5557 43.4752 15.5086 43.5872 15.4616 43.7027C15.464 43.7027 15.4663 43.7038 15.4687 43.705C15.4322 43.7789 15.3958 43.8528 15.3664 43.9233C14.9455 44.9592 16.5174 45.4339 17.0888 44.6347C17.2334 44.4337 17.3674 44.2189 17.4885 43.9937C17.4803 44.1485 17.4768 44.3564 17.5109 44.5666Z" fill="white"/>
</svg>
