<svg width="532" height="202" viewBox="0 0 532 202" fill="none" xmlns="http://www.w3.org/2000/svg">
<rect y="1" width="470" height="200" fill="#3EAAC0"/>
<rect x="1" y="26" width="324" height="175" fill="#277996"/>
<rect y="51" width="133" height="150" fill="#0E4166"/>
<path d="M528.759 89.3998C532.078 96.428 532.078 104.572 528.759 111.6L494.011 185.2C484.632 205.067 456.368 205.067 446.989 185.2L412.241 111.6C408.922 104.572 408.922 96.428 412.241 89.3998L446.989 15.7997C456.368 -4.06669 484.632 -4.06669 494.011 15.7997L528.759 89.3998Z" fill="#3EAAC0"/>
<path d="M384.113 100.974C388.402 108.774 388.402 118.226 384.113 126.026L350.284 187.559C340.407 205.524 314.593 205.524 304.716 187.559L270.887 126.026C266.598 118.226 266.598 108.774 270.887 100.974L304.716 39.4412C314.593 21.476 340.407 21.476 350.284 39.4412L384.113 100.974Z" fill="#277996"/>
<path d="M190.512 111.656C196.265 120.353 196.265 131.647 190.512 140.344L158.185 189.216C147.905 204.757 125.095 204.757 114.815 189.216L82.4879 140.344C76.735 131.647 76.735 120.353 82.4879 111.656L114.815 62.7841C125.095 47.2426 147.905 47.2426 158.185 62.7841L190.512 111.656Z" fill="#0E4166"/>
<path d="M392.79 16.89C393.359 17.086 393.803 17.394 394.12 17.814C394.447 18.2247 394.61 18.7053 394.61 19.256C394.61 19.8533 394.414 20.3713 394.022 20.81C393.63 21.2487 393.098 21.5847 392.426 21.818C391.763 22.0513 391.035 22.168 390.242 22.168C389.57 22.168 388.898 22.084 388.226 21.916C387.563 21.748 386.933 21.4913 386.336 21.146L387.036 19.522C387.465 19.7833 387.937 19.984 388.45 20.124C388.973 20.2547 389.481 20.32 389.976 20.32C390.648 20.32 391.203 20.1987 391.642 19.956C392.09 19.7133 392.314 19.3727 392.314 18.934C392.314 18.57 392.16 18.2947 391.852 18.108C391.553 17.9213 391.143 17.828 390.62 17.828H388.226V16.12H390.452C390.909 16.12 391.264 16.0267 391.516 15.84C391.777 15.6533 391.908 15.3967 391.908 15.07C391.908 14.6873 391.721 14.3887 391.348 14.174C390.984 13.9593 390.513 13.852 389.934 13.852C389.505 13.852 389.061 13.9127 388.604 14.034C388.147 14.146 387.713 14.3187 387.302 14.552L386.616 12.788C387.652 12.256 388.772 11.99 389.976 11.99C390.741 11.99 391.446 12.102 392.09 12.326C392.734 12.55 393.247 12.8767 393.63 13.306C394.013 13.7353 394.204 14.2347 394.204 14.804C394.204 15.2707 394.078 15.686 393.826 16.05C393.574 16.414 393.229 16.694 392.79 16.89ZM399.164 14.356C400.33 14.356 401.226 14.636 401.852 15.196C402.477 15.7467 402.79 16.582 402.79 17.702V22H400.746V21.062C400.335 21.762 399.57 22.112 398.45 22.112C397.871 22.112 397.367 22.014 396.938 21.818C396.518 21.622 396.196 21.3513 395.972 21.006C395.748 20.6607 395.636 20.2687 395.636 19.83C395.636 19.13 395.897 18.5793 396.42 18.178C396.952 17.7767 397.768 17.576 398.87 17.576H400.606C400.606 17.1 400.461 16.736 400.172 16.484C399.882 16.2227 399.448 16.092 398.87 16.092C398.468 16.092 398.072 16.1573 397.68 16.288C397.297 16.4093 396.97 16.5773 396.7 16.792L395.916 15.266C396.326 14.9767 396.816 14.7527 397.386 14.594C397.964 14.4353 398.557 14.356 399.164 14.356ZM398.996 20.642C399.369 20.642 399.7 20.558 399.99 20.39C400.279 20.2127 400.484 19.956 400.606 19.62V18.85H399.108C398.212 18.85 397.764 19.144 397.764 19.732C397.764 20.012 397.871 20.236 398.086 20.404C398.31 20.5627 398.613 20.642 398.996 20.642ZM411.015 16.26H408.467V22H406.297V16.26H403.749V14.468H411.015V16.26ZM416.617 14.356C417.317 14.356 417.952 14.5193 418.521 14.846C419.1 15.1633 419.552 15.616 419.879 16.204C420.206 16.7827 420.369 17.4593 420.369 18.234C420.369 19.0087 420.206 19.69 419.879 20.278C419.552 20.8567 419.1 21.3093 418.521 21.636C417.952 21.9533 417.317 22.112 416.617 22.112C415.656 22.112 414.9 21.8087 414.349 21.202V24.716H412.165V14.468H414.251V15.336C414.792 14.6827 415.581 14.356 416.617 14.356ZM416.239 20.32C416.799 20.32 417.256 20.1333 417.611 19.76C417.975 19.3773 418.157 18.8687 418.157 18.234C418.157 17.5993 417.975 17.0953 417.611 16.722C417.256 16.3393 416.799 16.148 416.239 16.148C415.679 16.148 415.217 16.3393 414.853 16.722C414.498 17.0953 414.321 17.5993 414.321 18.234C414.321 18.8687 414.498 19.3773 414.853 19.76C415.217 20.1333 415.679 20.32 416.239 20.32ZM424.703 14.356C425.869 14.356 426.765 14.636 427.391 15.196C428.016 15.7467 428.329 16.582 428.329 17.702V22H426.285V21.062C425.874 21.762 425.109 22.112 423.989 22.112C423.41 22.112 422.906 22.014 422.477 21.818C422.057 21.622 421.735 21.3513 421.511 21.006C421.287 20.6607 421.175 20.2687 421.175 19.83C421.175 19.13 421.436 18.5793 421.959 18.178C422.491 17.7767 423.307 17.576 424.409 17.576H426.145C426.145 17.1 426 16.736 425.711 16.484C425.421 16.2227 424.987 16.092 424.409 16.092C424.007 16.092 423.611 16.1573 423.219 16.288C422.836 16.4093 422.509 16.5773 422.239 16.792L421.455 15.266C421.865 14.9767 422.355 14.7527 422.925 14.594C423.503 14.4353 424.096 14.356 424.703 14.356ZM424.535 20.642C424.908 20.642 425.239 20.558 425.529 20.39C425.818 20.2127 426.023 19.956 426.145 19.62V18.85H424.647C423.751 18.85 423.303 19.144 423.303 19.732C423.303 20.012 423.41 20.236 423.625 20.404C423.849 20.5627 424.152 20.642 424.535 20.642ZM436.554 16.26H434.006V22H431.836V16.26H429.288V14.468H436.554V16.26ZM441.68 16.876C442.66 16.8853 443.402 17.1047 443.906 17.534C444.41 17.9633 444.662 18.5793 444.662 19.382C444.662 20.222 444.377 20.8707 443.808 21.328C443.239 21.7853 442.431 22.014 441.386 22.014L437.718 22V14.468H439.888V16.876H441.68ZM445.474 14.468H447.644V22H445.474V14.468ZM441.19 20.46C441.61 20.4693 441.932 20.3807 442.156 20.194C442.38 20.0073 442.492 19.7273 442.492 19.354C442.492 18.99 442.38 18.724 442.156 18.556C441.941 18.388 441.619 18.2993 441.19 18.29L439.888 18.276V20.46H441.19ZM387.05 31.468H389.22V34.408H392.496V31.468H394.68V39H392.496V36.186H389.22V39H387.05V31.468ZM399.697 31.356C400.863 31.356 401.759 31.636 402.385 32.196C403.01 32.7467 403.323 33.582 403.323 34.702V39H401.279V38.062C400.868 38.762 400.103 39.112 398.983 39.112C398.404 39.112 397.9 39.014 397.471 38.818C397.051 38.622 396.729 38.3513 396.505 38.006C396.281 37.6607 396.169 37.2687 396.169 36.83C396.169 36.13 396.43 35.5793 396.953 35.178C397.485 34.7767 398.301 34.576 399.403 34.576H401.139C401.139 34.1 400.994 33.736 400.705 33.484C400.415 33.2227 399.981 33.092 399.403 33.092C399.001 33.092 398.605 33.1573 398.213 33.288C397.83 33.4093 397.503 33.5773 397.233 33.792L396.449 32.266C396.859 31.9767 397.349 31.7527 397.919 31.594C398.497 31.4353 399.09 31.356 399.697 31.356ZM399.529 37.642C399.902 37.642 400.233 37.558 400.523 37.39C400.812 37.2127 401.017 36.956 401.139 36.62V35.85H399.641C398.745 35.85 398.297 36.144 398.297 36.732C398.297 37.012 398.404 37.236 398.619 37.404C398.843 37.5627 399.146 37.642 399.529 37.642ZM412.111 31.356C413.277 31.356 414.173 31.636 414.799 32.196C415.424 32.7467 415.737 33.582 415.737 34.702V39H413.693V38.062C413.282 38.762 412.517 39.112 411.397 39.112C410.818 39.112 410.314 39.014 409.885 38.818C409.465 38.622 409.143 38.3513 408.919 38.006C408.695 37.6607 408.583 37.2687 408.583 36.83C408.583 36.13 408.844 35.5793 409.367 35.178C409.899 34.7767 410.715 34.576 411.817 34.576H413.553C413.553 34.1 413.408 33.736 413.119 33.484C412.829 33.2227 412.395 33.092 411.817 33.092C411.415 33.092 411.019 33.1573 410.627 33.288C410.244 33.4093 409.917 33.5773 409.647 33.792L408.863 32.266C409.273 31.9767 409.763 31.7527 410.333 31.594C410.911 31.4353 411.504 31.356 412.111 31.356ZM411.943 37.642C412.316 37.642 412.647 37.558 412.937 37.39C413.226 37.2127 413.431 36.956 413.553 36.62V35.85H412.055C411.159 35.85 410.711 36.144 410.711 36.732C410.711 37.012 410.818 37.236 411.033 37.404C411.257 37.5627 411.56 37.642 411.943 37.642ZM422.072 31.356C422.772 31.356 423.407 31.5193 423.976 31.846C424.555 32.1633 425.007 32.616 425.334 33.204C425.661 33.7827 425.824 34.4593 425.824 35.234C425.824 36.0087 425.661 36.69 425.334 37.278C425.007 37.8567 424.555 38.3093 423.976 38.636C423.407 38.9533 422.772 39.112 422.072 39.112C421.111 39.112 420.355 38.8087 419.804 38.202V41.716H417.62V31.468H419.706V32.336C420.247 31.6827 421.036 31.356 422.072 31.356ZM421.694 37.32C422.254 37.32 422.711 37.1333 423.066 36.76C423.43 36.3773 423.612 35.8687 423.612 35.234C423.612 34.5993 423.43 34.0953 423.066 33.722C422.711 33.3393 422.254 33.148 421.694 33.148C421.134 33.148 420.672 33.3393 420.308 33.722C419.953 34.0953 419.776 34.5993 419.776 35.234C419.776 35.8687 419.953 36.3773 420.308 36.76C420.672 37.1333 421.134 37.32 421.694 37.32ZM434.677 35.262C434.677 35.29 434.663 35.486 434.635 35.85H428.937C429.039 36.3167 429.282 36.6853 429.665 36.956C430.047 37.2267 430.523 37.362 431.093 37.362C431.485 37.362 431.83 37.306 432.129 37.194C432.437 37.0727 432.721 36.886 432.983 36.634L434.145 37.894C433.435 38.706 432.399 39.112 431.037 39.112C430.187 39.112 429.436 38.9487 428.783 38.622C428.129 38.286 427.625 37.824 427.271 37.236C426.916 36.648 426.739 35.9807 426.739 35.234C426.739 34.4967 426.911 33.834 427.257 33.246C427.611 32.6487 428.092 32.1867 428.699 31.86C429.315 31.524 430.001 31.356 430.757 31.356C431.494 31.356 432.161 31.5147 432.759 31.832C433.356 32.1493 433.823 32.6067 434.159 33.204C434.504 33.792 434.677 34.478 434.677 35.262ZM430.771 33.008C430.276 33.008 429.861 33.148 429.525 33.428C429.189 33.708 428.983 34.0907 428.909 34.576H432.619C432.544 34.1 432.339 33.722 432.003 33.442C431.667 33.1527 431.256 33.008 430.771 33.008ZM436.351 31.468H438.521V34.408H441.797V31.468H443.981V39H441.797V36.186H438.521V39H436.351V31.468ZM454.513 37.208V40.624H452.483V39H447.191V40.624H445.161V37.208H445.469C445.936 37.1987 446.258 36.9233 446.435 36.382C446.613 35.8407 446.725 35.0707 446.771 34.072L446.869 31.468H453.435V37.208H454.513ZM448.745 34.226C448.717 34.9913 448.657 35.6167 448.563 36.102C448.479 36.5873 448.316 36.956 448.073 37.208H451.251V33.26H448.787L448.745 34.226ZM463.434 31.468L460.032 39.462C459.687 40.33 459.257 40.9413 458.744 41.296C458.24 41.6507 457.629 41.828 456.91 41.828C456.518 41.828 456.131 41.7673 455.748 41.646C455.365 41.5247 455.053 41.3567 454.81 41.142L455.608 39.588C455.776 39.7373 455.967 39.854 456.182 39.938C456.406 40.022 456.625 40.064 456.84 40.064C457.139 40.064 457.381 39.9893 457.568 39.84C457.755 39.7 457.923 39.462 458.072 39.126L458.1 39.056L454.838 31.468H457.092L459.206 36.578L461.334 31.468H463.434ZM390.634 56.112C389.831 56.112 389.108 55.9487 388.464 55.622C387.829 55.286 387.33 54.824 386.966 54.236C386.611 53.648 386.434 52.9807 386.434 52.234C386.434 51.4873 386.611 50.82 386.966 50.232C387.33 49.644 387.829 49.1867 388.464 48.86C389.108 48.524 389.831 48.356 390.634 48.356C391.427 48.356 392.118 48.524 392.706 48.86C393.303 49.1867 393.737 49.658 394.008 50.274L392.314 51.184C391.922 50.4933 391.357 50.148 390.62 50.148C390.051 50.148 389.579 50.3347 389.206 50.708C388.833 51.0813 388.646 51.59 388.646 52.234C388.646 52.878 388.833 53.3867 389.206 53.76C389.579 54.1333 390.051 54.32 390.62 54.32C391.367 54.32 391.931 53.9747 392.314 53.284L394.008 54.208C393.737 54.8053 393.303 55.272 392.706 55.608C392.118 55.944 391.427 56.112 390.634 56.112ZM398.767 56.112C397.974 56.112 397.26 55.9487 396.625 55.622C396 55.286 395.51 54.824 395.155 54.236C394.801 53.648 394.623 52.9807 394.623 52.234C394.623 51.4873 394.801 50.82 395.155 50.232C395.51 49.644 396 49.1867 396.625 48.86C397.26 48.524 397.974 48.356 398.767 48.356C399.561 48.356 400.27 48.524 400.895 48.86C401.521 49.1867 402.011 49.644 402.365 50.232C402.72 50.82 402.897 51.4873 402.897 52.234C402.897 52.9807 402.72 53.648 402.365 54.236C402.011 54.824 401.521 55.286 400.895 55.622C400.27 55.9487 399.561 56.112 398.767 56.112ZM398.767 54.32C399.327 54.32 399.785 54.1333 400.139 53.76C400.503 53.3773 400.685 52.8687 400.685 52.234C400.685 51.5993 400.503 51.0953 400.139 50.722C399.785 50.3393 399.327 50.148 398.767 50.148C398.207 50.148 397.745 50.3393 397.381 50.722C397.017 51.0953 396.835 51.5993 396.835 52.234C396.835 52.8687 397.017 53.3773 397.381 53.76C397.745 54.1333 398.207 54.32 398.767 54.32ZM408.754 48.986C409.472 48.986 410.102 49.1353 410.644 49.434C411.185 49.7233 411.6 50.134 411.89 50.666C412.188 51.198 412.338 51.814 412.338 52.514C412.338 53.2327 412.16 53.872 411.806 54.432C411.46 54.9827 410.975 55.412 410.35 55.72C409.724 56.0187 409.015 56.168 408.222 56.168C406.906 56.168 405.87 55.748 405.114 54.908C404.367 54.0587 403.994 52.8173 403.994 51.184C403.994 49.672 404.32 48.468 404.974 47.572C405.636 46.6667 406.649 46.074 408.012 45.794L411.596 45.08L411.89 46.956L408.726 47.586C407.867 47.754 407.228 48.034 406.808 48.426C406.397 48.818 406.154 49.3733 406.08 50.092C406.406 49.7373 406.798 49.4667 407.256 49.28C407.713 49.084 408.212 48.986 408.754 48.986ZM408.236 54.474C408.796 54.474 409.244 54.292 409.58 53.928C409.925 53.564 410.098 53.102 410.098 52.542C410.098 51.9727 409.925 51.52 409.58 51.184C409.244 50.848 408.796 50.68 408.236 50.68C407.666 50.68 407.209 50.848 406.864 51.184C406.518 51.52 406.346 51.9727 406.346 52.542C406.346 53.1113 406.523 53.578 406.878 53.942C407.232 54.2967 407.685 54.474 408.236 54.474ZM417.404 56.112C416.601 56.112 415.878 55.9487 415.234 55.622C414.599 55.286 414.1 54.824 413.736 54.236C413.381 53.648 413.204 52.9807 413.204 52.234C413.204 51.4873 413.381 50.82 413.736 50.232C414.1 49.644 414.599 49.1867 415.234 48.86C415.878 48.524 416.601 48.356 417.404 48.356C418.197 48.356 418.888 48.524 419.476 48.86C420.073 49.1867 420.507 49.658 420.778 50.274L419.084 51.184C418.692 50.4933 418.127 50.148 417.39 50.148C416.82 50.148 416.349 50.3347 415.976 50.708C415.602 51.0813 415.416 51.59 415.416 52.234C415.416 52.878 415.602 53.3867 415.976 53.76C416.349 54.1333 416.82 54.32 417.39 54.32C418.136 54.32 418.701 53.9747 419.084 53.284L420.778 54.208C420.507 54.8053 420.073 55.272 419.476 55.608C418.888 55.944 418.197 56.112 417.404 56.112ZM428.405 50.26H425.857V56H423.687V50.26H421.139V48.468H428.405V50.26ZM435.324 52.066C436.21 52.3647 436.654 52.962 436.654 53.858C436.654 54.5393 436.397 55.0667 435.884 55.44C435.37 55.8133 434.605 56 433.588 56H429.57V48.468H433.42C434.362 48.468 435.1 48.6407 435.632 48.986C436.164 49.322 436.43 49.798 436.43 50.414C436.43 50.7873 436.332 51.1187 436.136 51.408C435.949 51.688 435.678 51.9073 435.324 52.066ZM431.572 51.562H433.224C433.989 51.562 434.372 51.2913 434.372 50.75C434.372 50.218 433.989 49.952 433.224 49.952H431.572V51.562ZM433.406 54.516C434.208 54.516 434.61 54.2407 434.61 53.69C434.61 53.4007 434.516 53.1907 434.33 53.06C434.143 52.92 433.849 52.85 433.448 52.85H431.572V54.516H433.406ZM445.601 52.262C445.601 52.29 445.587 52.486 445.559 52.85H439.861C439.963 53.3167 440.206 53.6853 440.589 53.956C440.971 54.2267 441.447 54.362 442.017 54.362C442.409 54.362 442.754 54.306 443.053 54.194C443.361 54.0727 443.645 53.886 443.907 53.634L445.069 54.894C444.359 55.706 443.323 56.112 441.961 56.112C441.111 56.112 440.36 55.9487 439.707 55.622C439.053 55.286 438.549 54.824 438.195 54.236C437.84 53.648 437.663 52.9807 437.663 52.234C437.663 51.4967 437.835 50.834 438.181 50.246C438.535 49.6487 439.016 49.1867 439.623 48.86C440.239 48.524 440.925 48.356 441.681 48.356C442.418 48.356 443.085 48.5147 443.683 48.832C444.28 49.1493 444.747 49.6067 445.083 50.204C445.428 50.792 445.601 51.478 445.601 52.262ZM441.695 50.008C441.2 50.008 440.785 50.148 440.449 50.428C440.113 50.708 439.907 51.0907 439.833 51.576H443.543C443.468 51.1 443.263 50.722 442.927 50.442C442.591 50.1527 442.18 50.008 441.695 50.008ZM447.275 48.468H449.445V51.408H452.721V48.468H454.905V56H452.721V53.186H449.445V56H447.275V48.468ZM456.995 48.468H459.165V51.408H462.441V48.468H464.625V56H462.441V53.186H459.165V56H456.995V48.468ZM470.244 56.112C469.451 56.112 468.737 55.9487 468.102 55.622C467.477 55.286 466.987 54.824 466.632 54.236C466.277 53.648 466.1 52.9807 466.1 52.234C466.1 51.4873 466.277 50.82 466.632 50.232C466.987 49.644 467.477 49.1867 468.102 48.86C468.737 48.524 469.451 48.356 470.244 48.356C471.037 48.356 471.747 48.524 472.372 48.86C472.997 49.1867 473.487 49.644 473.842 50.232C474.197 50.82 474.374 51.4873 474.374 52.234C474.374 52.9807 474.197 53.648 473.842 54.236C473.487 54.824 472.997 55.286 472.372 55.622C471.747 55.9487 471.037 56.112 470.244 56.112ZM470.244 54.32C470.804 54.32 471.261 54.1333 471.616 53.76C471.98 53.3773 472.162 52.8687 472.162 52.234C472.162 51.5993 471.98 51.0953 471.616 50.722C471.261 50.3393 470.804 50.148 470.244 50.148C469.684 50.148 469.222 50.3393 468.858 50.722C468.494 51.0953 468.312 51.5993 468.312 52.234C468.312 52.8687 468.494 53.3773 468.858 53.76C469.222 54.1333 469.684 54.32 470.244 54.32ZM481.91 50.26H478.046V56H475.876V48.468H481.91V50.26ZM486.281 56.112C485.488 56.112 484.774 55.9487 484.139 55.622C483.514 55.286 483.024 54.824 482.669 54.236C482.314 53.648 482.137 52.9807 482.137 52.234C482.137 51.4873 482.314 50.82 482.669 50.232C483.024 49.644 483.514 49.1867 484.139 48.86C484.774 48.524 485.488 48.356 486.281 48.356C487.074 48.356 487.784 48.524 488.409 48.86C489.034 49.1867 489.524 49.644 489.879 50.232C490.234 50.82 490.411 51.4873 490.411 52.234C490.411 52.9807 490.234 53.648 489.879 54.236C489.524 54.824 489.034 55.286 488.409 55.622C487.784 55.9487 487.074 56.112 486.281 56.112ZM486.281 54.32C486.841 54.32 487.298 54.1333 487.653 53.76C488.017 53.3773 488.199 52.8687 488.199 52.234C488.199 51.5993 488.017 51.0953 487.653 50.722C487.298 50.3393 486.841 50.148 486.281 50.148C485.721 50.148 485.259 50.3393 484.895 50.722C484.531 51.0953 484.349 51.5993 484.349 52.234C484.349 52.8687 484.531 53.3773 484.895 53.76C485.259 54.1333 485.721 54.32 486.281 54.32ZM390.634 73.112C389.831 73.112 389.108 72.9487 388.464 72.622C387.829 72.286 387.33 71.824 386.966 71.236C386.611 70.648 386.434 69.9807 386.434 69.234C386.434 68.4873 386.611 67.82 386.966 67.232C387.33 66.644 387.829 66.1867 388.464 65.86C389.108 65.524 389.831 65.356 390.634 65.356C391.427 65.356 392.118 65.524 392.706 65.86C393.303 66.1867 393.737 66.658 394.008 67.274L392.314 68.184C391.922 67.4933 391.357 67.148 390.62 67.148C390.051 67.148 389.579 67.3347 389.206 67.708C388.833 68.0813 388.646 68.59 388.646 69.234C388.646 69.878 388.833 70.3867 389.206 70.76C389.579 71.1333 390.051 71.32 390.62 71.32C391.367 71.32 391.931 70.9747 392.314 70.284L394.008 71.208C393.737 71.8053 393.303 72.272 392.706 72.608C392.118 72.944 391.427 73.112 390.634 73.112ZM398.653 70.144H397.519V73H395.335V65.468H397.519V68.394H398.695L400.739 65.468H403.063L400.431 69.08L403.245 73H400.669L398.653 70.144ZM411.542 65.468V73H409.358V67.26H406.978L406.908 68.59C406.87 69.5793 406.777 70.4007 406.628 71.054C406.478 71.7073 406.236 72.2207 405.9 72.594C405.564 72.9673 405.097 73.154 404.5 73.154C404.182 73.154 403.804 73.098 403.366 72.986L403.478 71.194C403.627 71.2127 403.734 71.222 403.8 71.222C404.126 71.222 404.369 71.1053 404.528 70.872C404.696 70.6293 404.808 70.326 404.864 69.962C404.92 69.5887 404.962 69.0987 404.99 68.492L405.102 65.468H411.542ZM416.568 65.356C417.734 65.356 418.63 65.636 419.256 66.196C419.881 66.7467 420.194 67.582 420.194 68.702V73H418.15V72.062C417.739 72.762 416.974 73.112 415.854 73.112C415.275 73.112 414.771 73.014 414.342 72.818C413.922 72.622 413.6 72.3513 413.376 72.006C413.152 71.6607 413.04 71.2687 413.04 70.83C413.04 70.13 413.301 69.5793 413.824 69.178C414.356 68.7767 415.172 68.576 416.274 68.576H418.01C418.01 68.1 417.865 67.736 417.576 67.484C417.286 67.2227 416.852 67.092 416.274 67.092C415.872 67.092 415.476 67.1573 415.084 67.288C414.701 67.4093 414.374 67.5773 414.104 67.792L413.32 66.266C413.73 65.9767 414.22 65.7527 414.79 65.594C415.368 65.4353 415.961 65.356 416.568 65.356ZM416.4 71.642C416.773 71.642 417.104 71.558 417.394 71.39C417.683 71.2127 417.888 70.956 418.01 70.62V69.85H416.512C415.616 69.85 415.168 70.144 415.168 70.732C415.168 71.012 415.275 71.236 415.49 71.404C415.714 71.5627 416.017 71.642 416.4 71.642ZM430.533 71.208V74.624H428.503V73H423.211V74.624H421.181V71.208H421.489C421.956 71.1987 422.278 70.9233 422.455 70.382C422.632 69.8407 422.744 69.0707 422.791 68.072L422.889 65.468H429.455V71.208H430.533ZM424.765 68.226C424.737 68.9913 424.676 69.6167 424.583 70.102C424.499 70.5873 424.336 70.956 424.093 71.208H427.271V67.26H424.807L424.765 68.226ZM434.833 65.356C436 65.356 436.896 65.636 437.521 66.196C438.147 66.7467 438.459 67.582 438.459 68.702V73H436.415V72.062C436.005 72.762 435.239 73.112 434.119 73.112C433.541 73.112 433.037 73.014 432.607 72.818C432.187 72.622 431.865 72.3513 431.641 72.006C431.417 71.6607 431.305 71.2687 431.305 70.83C431.305 70.13 431.567 69.5793 432.089 69.178C432.621 68.7767 433.438 68.576 434.539 68.576H436.275C436.275 68.1 436.131 67.736 435.841 67.484C435.552 67.2227 435.118 67.092 434.539 67.092C434.138 67.092 433.741 67.1573 433.349 67.288C432.967 67.4093 432.64 67.5773 432.369 67.792L431.585 66.266C431.996 65.9767 432.486 65.7527 433.055 65.594C433.634 65.4353 434.227 65.356 434.833 65.356ZM434.665 71.642C435.039 71.642 435.37 71.558 435.659 71.39C435.949 71.2127 436.154 70.956 436.275 70.62V69.85H434.777C433.881 69.85 433.433 70.144 433.433 70.732C433.433 71.012 433.541 71.236 433.755 71.404C433.979 71.5627 434.283 71.642 434.665 71.642Z" fill="white"/>
<path d="M30.15 65.2V75H27.896V67.048H23.472V75H21.218V65.2H30.15ZM35.9393 75.112C35.146 75.112 34.432 74.9487 33.7973 74.622C33.172 74.286 32.682 73.824 32.3273 73.236C31.9727 72.648 31.7953 71.9807 31.7953 71.234C31.7953 70.4873 31.9727 69.82 32.3273 69.232C32.682 68.644 33.172 68.1867 33.7973 67.86C34.432 67.524 35.146 67.356 35.9393 67.356C36.7327 67.356 37.442 67.524 38.0673 67.86C38.6927 68.1867 39.1827 68.644 39.5373 69.232C39.892 69.82 40.0693 70.4873 40.0693 71.234C40.0693 71.9807 39.892 72.648 39.5373 73.236C39.1827 73.824 38.6927 74.286 38.0673 74.622C37.442 74.9487 36.7327 75.112 35.9393 75.112ZM35.9393 73.32C36.4993 73.32 36.9567 73.1333 37.3113 72.76C37.6753 72.3773 37.8573 71.8687 37.8573 71.234C37.8573 70.5993 37.6753 70.0953 37.3113 69.722C36.9567 69.3393 36.4993 69.148 35.9393 69.148C35.3793 69.148 34.9173 69.3393 34.5533 69.722C34.1893 70.0953 34.0073 70.5993 34.0073 71.234C34.0073 71.8687 34.1893 72.3773 34.5533 72.76C34.9173 73.1333 35.3793 73.32 35.9393 73.32ZM49.9041 73.208V76.624H47.8741V75H42.5821V76.624H40.5521V73.208H40.8601C41.3268 73.1987 41.6488 72.9233 41.8261 72.382C42.0034 71.8407 42.1154 71.0707 42.1621 70.072L42.2601 67.468H48.8261V73.208H49.9041ZM44.1361 70.226C44.1081 70.9913 44.0474 71.6167 43.9541 72.102C43.8701 72.5873 43.7068 72.956 43.4641 73.208H46.6421V69.26H44.1781L44.1361 70.226ZM54.5965 72.144H53.4625V75H51.2785V67.468H53.4625V70.394H54.6385L56.6825 67.468H59.0065L56.3745 71.08L59.1885 75H56.6125L54.5965 72.144ZM67.4849 67.468V75H65.3009V69.26H62.9209L62.8509 70.59C62.8136 71.5793 62.7203 72.4007 62.5709 73.054C62.4216 73.7073 62.1789 74.2207 61.8429 74.594C61.5069 74.9673 61.0403 75.154 60.4429 75.154C60.1256 75.154 59.7476 75.098 59.3089 74.986L59.4209 73.194C59.5703 73.2127 59.6776 73.222 59.7429 73.222C60.0696 73.222 60.3123 73.1053 60.4709 72.872C60.6389 72.6293 60.7509 72.326 60.8069 71.962C60.8629 71.5887 60.9049 71.0987 60.9329 70.492L61.0449 67.468H67.4849ZM76.7112 67.356C77.4765 67.356 78.1625 67.524 78.7692 67.86C79.3758 68.1867 79.8518 68.644 80.1972 69.232C80.5425 69.82 80.7152 70.4873 80.7152 71.234C80.7152 71.9807 80.5425 72.648 80.1972 73.236C79.8518 73.824 79.3758 74.286 78.7692 74.622C78.1625 74.9487 77.4765 75.112 76.7112 75.112C76.0485 75.112 75.4418 74.9907 74.8912 74.748C74.3405 74.496 73.8832 74.146 73.5192 73.698C73.1552 73.2407 72.9125 72.718 72.7912 72.13H71.7552V75H69.5852V67.468H71.7552V70.24H72.8052C73.0198 69.3627 73.4772 68.6627 74.1772 68.14C74.8772 67.6173 75.7218 67.356 76.7112 67.356ZM76.7112 73.32C77.2432 73.32 77.6818 73.1333 78.0272 72.76C78.3818 72.3773 78.5592 71.8687 78.5592 71.234C78.5592 70.59 78.3818 70.0813 78.0272 69.708C77.6818 69.3347 77.2432 69.148 76.7112 69.148C76.1698 69.148 75.7218 69.3347 75.3672 69.708C75.0218 70.0813 74.8492 70.59 74.8492 71.234C74.8492 71.8687 75.0218 72.3773 75.3672 72.76C75.7218 73.1333 76.1698 73.32 76.7112 73.32ZM89.0076 67.468V75H86.8236V72.2C86.189 72.5173 85.489 72.676 84.7236 72.676C83.7063 72.676 82.9363 72.4473 82.4136 71.99C81.9003 71.5233 81.6436 70.8047 81.6436 69.834V67.468H83.8276V69.694C83.8276 70.1513 83.9443 70.4827 84.1776 70.688C84.4203 70.8933 84.7656 70.996 85.2136 70.996C85.783 70.996 86.3196 70.8747 86.8236 70.632V67.468H89.0076ZM91.1047 67.468H93.2747V71.948L96.9427 67.468H98.9447V75H96.7747V70.52L93.1207 75H91.1047V67.468ZM107.372 69.26H104.824V75H102.654V69.26H100.106V67.468H107.372V69.26ZM112.61 69.876C113.59 69.8853 114.342 70.1093 114.864 70.548C115.387 70.9773 115.648 71.5887 115.648 72.382C115.648 73.2127 115.354 73.8613 114.766 74.328C114.188 74.7853 113.371 75.014 112.316 75.014L108.536 75V67.468H110.706V69.876H112.61ZM112.12 73.46C112.54 73.4693 112.862 73.3807 113.086 73.194C113.31 73.0073 113.422 72.7273 113.422 72.354C113.422 71.99 113.31 71.724 113.086 71.556C112.872 71.388 112.55 71.2993 112.12 71.29L110.706 71.276V73.46H112.12ZM120.597 75.112C119.794 75.112 119.071 74.9487 118.427 74.622C117.792 74.286 117.293 73.824 116.929 73.236C116.574 72.648 116.397 71.9807 116.397 71.234C116.397 70.4873 116.574 69.82 116.929 69.232C117.293 68.644 117.792 68.1867 118.427 67.86C119.071 67.524 119.794 67.356 120.597 67.356C121.39 67.356 122.081 67.524 122.669 67.86C123.266 68.1867 123.7 68.658 123.971 69.274L122.277 70.184C121.885 69.4933 121.32 69.148 120.583 69.148C120.014 69.148 119.542 69.3347 119.169 69.708C118.796 70.0813 118.609 70.59 118.609 71.234C118.609 71.878 118.796 72.3867 119.169 72.76C119.542 73.1333 120.014 73.32 120.583 73.32C121.33 73.32 121.894 72.9747 122.277 72.284L123.971 73.208C123.7 73.8053 123.266 74.272 122.669 74.608C122.081 74.944 121.39 75.112 120.597 75.112ZM131.799 67.468V75H129.853V72.844H128.243L126.815 75H124.491L126.213 72.536C125.69 72.3307 125.289 72.0367 125.009 71.654C124.738 71.262 124.603 70.7907 124.603 70.24C124.603 69.3533 124.92 68.672 125.555 68.196C126.199 67.7107 127.081 67.468 128.201 67.468H131.799ZM128.243 69.246C127.776 69.246 127.421 69.33 127.179 69.498C126.945 69.666 126.829 69.9367 126.829 70.31C126.829 70.6833 126.941 70.9587 127.165 71.136C127.398 71.304 127.748 71.388 128.215 71.388H129.853V69.246H128.243ZM24.368 89.144H23.234V92H21.05V84.468H23.234V87.394H24.41L26.454 84.468H28.778L26.146 88.08L28.96 92H26.384L24.368 89.144ZM36.3773 84.02V86.61H40.9133V88.43H36.3773V92H34.1093V82.2H41.5153V84.02H36.3773ZM42.8967 81.612H45.0807V92H42.8967V81.612ZM54.5836 84.468L51.1816 92.462C50.8363 93.33 50.4069 93.9413 49.8936 94.296C49.3896 94.6507 48.7783 94.828 48.0596 94.828C47.6676 94.828 47.2803 94.7673 46.8976 94.646C46.5149 94.5247 46.2023 94.3567 45.9596 94.142L46.7576 92.588C46.9256 92.7373 47.1169 92.854 47.3316 92.938C47.5556 93.022 47.7749 93.064 47.9896 93.064C48.2883 93.064 48.5309 92.9893 48.7176 92.84C48.9043 92.7 49.0723 92.462 49.2216 92.126L49.2496 92.056L45.9876 84.468H48.2416L50.3556 89.578L52.4836 84.468H54.5836ZM59.9268 84.356C60.6268 84.356 61.2615 84.5193 61.8308 84.846C62.4095 85.1633 62.8621 85.616 63.1888 86.204C63.5155 86.7827 63.6788 87.4593 63.6788 88.234C63.6788 89.0087 63.5155 89.69 63.1888 90.278C62.8621 90.8567 62.4095 91.3093 61.8308 91.636C61.2615 91.9533 60.6268 92.112 59.9268 92.112C58.9655 92.112 58.2095 91.8087 57.6588 91.202V94.716H55.4748V84.468H57.5608V85.336C58.1021 84.6827 58.8908 84.356 59.9268 84.356ZM59.5488 90.32C60.1088 90.32 60.5661 90.1333 60.9208 89.76C61.2848 89.3773 61.4668 88.8687 61.4668 88.234C61.4668 87.5993 61.2848 87.0953 60.9208 86.722C60.5661 86.3393 60.1088 86.148 59.5488 86.148C58.9888 86.148 58.5268 86.3393 58.1628 86.722C57.8081 87.0953 57.6308 87.5993 57.6308 88.234C57.6308 88.8687 57.8081 89.3773 58.1628 89.76C58.5268 90.1333 58.9888 90.32 59.5488 90.32ZM68.7248 92.112C67.9315 92.112 67.2175 91.9487 66.5828 91.622C65.9575 91.286 65.4675 90.824 65.1128 90.236C64.7581 89.648 64.5808 88.9807 64.5808 88.234C64.5808 87.4873 64.7581 86.82 65.1128 86.232C65.4675 85.644 65.9575 85.1867 66.5828 84.86C67.2175 84.524 67.9315 84.356 68.7248 84.356C69.5181 84.356 70.2275 84.524 70.8528 84.86C71.4781 85.1867 71.9681 85.644 72.3228 86.232C72.6775 86.82 72.8548 87.4873 72.8548 88.234C72.8548 88.9807 72.6775 89.648 72.3228 90.236C71.9681 90.824 71.4781 91.286 70.8528 91.622C70.2275 91.9487 69.5181 92.112 68.7248 92.112ZM68.7248 90.32C69.2848 90.32 69.7421 90.1333 70.0968 89.76C70.4608 89.3773 70.6428 88.8687 70.6428 88.234C70.6428 87.5993 70.4608 87.0953 70.0968 86.722C69.7421 86.3393 69.2848 86.148 68.7248 86.148C68.1648 86.148 67.7028 86.3393 67.3388 86.722C66.9748 87.0953 66.7928 87.5993 66.7928 88.234C66.7928 88.8687 66.9748 89.3773 67.3388 89.76C67.7028 90.1333 68.1648 90.32 68.7248 90.32ZM76.8486 92.112C76.2233 92.112 75.612 92.0373 75.0146 91.888C74.4173 91.7293 73.9413 91.5333 73.5866 91.3L74.3146 89.732C74.6506 89.9467 75.0566 90.124 75.5326 90.264C76.0086 90.3947 76.4753 90.46 76.9326 90.46C77.8566 90.46 78.3186 90.2313 78.3186 89.774C78.3186 89.5593 78.1926 89.4053 77.9406 89.312C77.6886 89.2187 77.3013 89.1393 76.7786 89.074C76.1626 88.9807 75.654 88.8733 75.2526 88.752C74.8513 88.6307 74.5013 88.416 74.2026 88.108C73.9133 87.8 73.7686 87.3613 73.7686 86.792C73.7686 86.316 73.904 85.896 74.1746 85.532C74.4546 85.1587 74.856 84.8693 75.3786 84.664C75.9106 84.4587 76.536 84.356 77.2546 84.356C77.7866 84.356 78.314 84.4167 78.8366 84.538C79.3686 84.65 79.8073 84.8087 80.1526 85.014L79.4246 86.568C78.762 86.1947 78.0386 86.008 77.2546 86.008C76.788 86.008 76.438 86.0733 76.2046 86.204C75.9713 86.3347 75.8546 86.5027 75.8546 86.708C75.8546 86.9413 75.9806 87.1047 76.2326 87.198C76.4846 87.2913 76.886 87.38 77.4366 87.464C78.0526 87.5667 78.5566 87.6787 78.9486 87.8C79.3406 87.912 79.6813 88.122 79.9706 88.43C80.26 88.738 80.4046 89.1673 80.4046 89.718C80.4046 90.1847 80.2646 90.6 79.9846 90.964C79.7046 91.328 79.294 91.6127 78.7526 91.818C78.2206 92.014 77.586 92.112 76.8486 92.112ZM86.6101 91.636C86.3955 91.7947 86.1295 91.916 85.8121 92C85.5041 92.0747 85.1775 92.112 84.8321 92.112C83.9361 92.112 83.2408 91.8833 82.7461 91.426C82.2608 90.9687 82.0181 90.2967 82.0181 89.41V86.316H80.8561V84.636H82.0181V82.802H84.2021V84.636H86.0781V86.316H84.2021V89.382C84.2021 89.6993 84.2815 89.9467 84.4401 90.124C84.6081 90.292 84.8415 90.376 85.1401 90.376C85.4855 90.376 85.7795 90.2827 86.0221 90.096L86.6101 91.636ZM23.416 152.58C24.1533 152.58 24.816 152.743 25.404 153.07C26.0013 153.387 26.468 153.831 26.804 154.4C27.1493 154.969 27.322 155.609 27.322 156.318C27.322 157.027 27.1493 157.671 26.804 158.25C26.468 158.819 26.0013 159.267 25.404 159.594C24.816 159.921 24.1533 160.084 23.416 160.084C22.8 160.084 22.2353 159.991 21.722 159.804C21.2087 159.608 20.7747 159.328 20.42 158.964L21.008 158.376C21.6333 158.964 22.422 159.258 23.374 159.258C23.906 159.258 24.3867 159.146 24.816 158.922C25.2547 158.698 25.6093 158.385 25.88 157.984C26.16 157.583 26.3233 157.135 26.37 156.64H22.436V155.884H26.356C26.2533 155.147 25.9267 154.549 25.376 154.092C24.8253 153.625 24.158 153.392 23.374 153.392C22.422 153.392 21.6333 153.686 21.008 154.274L20.42 153.7C20.7747 153.336 21.2087 153.061 21.722 152.874C22.2353 152.678 22.8 152.58 23.416 152.58ZM32.086 156.724H30.406V160H29.412V152.636H30.406V155.87H32.1L34.69 152.636H35.768L32.87 156.206L35.978 160H34.802L32.086 156.724ZM40.325 160.07C39.6157 160.07 38.9764 159.911 38.407 159.594C37.8377 159.267 37.3897 158.819 37.063 158.25C36.7364 157.681 36.573 157.037 36.573 156.318C36.573 155.599 36.7364 154.955 37.063 154.386C37.3897 153.817 37.8377 153.373 38.407 153.056C38.9764 152.739 39.6157 152.58 40.325 152.58C41.0344 152.58 41.6737 152.739 42.243 153.056C42.8124 153.373 43.2557 153.817 43.573 154.386C43.8997 154.955 44.063 155.599 44.063 156.318C44.063 157.037 43.8997 157.681 43.573 158.25C43.2557 158.819 42.8124 159.267 42.243 159.594C41.6737 159.911 41.0344 160.07 40.325 160.07ZM40.325 159.188C40.8477 159.188 41.3144 159.071 41.725 158.838C42.145 158.595 42.4717 158.255 42.705 157.816C42.9384 157.377 43.055 156.878 43.055 156.318C43.055 155.758 42.9384 155.259 42.705 154.82C42.4717 154.381 42.145 154.045 41.725 153.812C41.3144 153.569 40.8477 153.448 40.325 153.448C39.8024 153.448 39.331 153.569 38.911 153.812C38.5004 154.045 38.1737 154.381 37.931 154.82C37.6977 155.259 37.581 155.758 37.581 156.318C37.581 156.878 37.6977 157.377 37.931 157.816C38.1737 158.255 38.5004 158.595 38.911 158.838C39.331 159.071 39.8024 159.188 40.325 159.188ZM46.1874 152.636H47.1814V155.898H51.8154V152.636H52.8094V160H51.8154V156.752H47.1814V160H46.1874V152.636ZM58.6727 160.07C57.9634 160.07 57.324 159.911 56.7547 159.594C56.1854 159.267 55.7374 158.819 55.4107 158.25C55.084 157.681 54.9207 157.037 54.9207 156.318C54.9207 155.599 55.084 154.955 55.4107 154.386C55.7374 153.817 56.1854 153.373 56.7547 153.056C57.324 152.739 57.9634 152.58 58.6727 152.58C59.382 152.58 60.0214 152.739 60.5907 153.056C61.16 153.373 61.6034 153.817 61.9207 154.386C62.2474 154.955 62.4107 155.599 62.4107 156.318C62.4107 157.037 62.2474 157.681 61.9207 158.25C61.6034 158.819 61.16 159.267 60.5907 159.594C60.0214 159.911 59.382 160.07 58.6727 160.07ZM58.6727 159.188C59.1954 159.188 59.662 159.071 60.0727 158.838C60.4927 158.595 60.8194 158.255 61.0527 157.816C61.286 157.377 61.4027 156.878 61.4027 156.318C61.4027 155.758 61.286 155.259 61.0527 154.82C60.8194 154.381 60.4927 154.045 60.0727 153.812C59.662 153.569 59.1954 153.448 58.6727 153.448C58.15 153.448 57.6787 153.569 57.2587 153.812C56.848 154.045 56.5214 154.381 56.2787 154.82C56.0454 155.259 55.9287 155.758 55.9287 156.318C55.9287 156.878 56.0454 157.377 56.2787 157.816C56.5214 158.255 56.848 158.595 57.2587 158.838C57.6787 159.071 58.15 159.188 58.6727 159.188ZM72.7671 152.636V160H71.8571V154.176L68.8751 159.104H68.4271L65.4451 154.162V160H64.5351V152.636H65.5431L68.6651 157.942L71.8431 152.636H72.7671ZM75.5956 152.636H76.5896V158.488L81.5036 152.636H82.3856V160H81.3916V154.148L76.4916 160H75.5956V152.636ZM90.8903 152.636V160H89.9803V157.564H87.6703H87.3903L85.6823 160H84.6043L86.4383 157.424C85.869 157.265 85.4303 156.995 85.1223 156.612C84.8143 156.229 84.6603 155.744 84.6603 155.156C84.6603 154.335 84.9403 153.709 85.5003 153.28C86.0603 152.851 86.8256 152.636 87.7963 152.636H90.8903ZM85.6683 155.184C85.6683 156.276 86.3636 156.822 87.7543 156.822H89.9803V153.518H87.8243C86.387 153.518 85.6683 154.073 85.6683 155.184ZM36.32 183.472H33.584V187H29.792V183.472H20.744V180.856L28.664 170.2H32.744L25.4 180.304H29.912V177.16H33.584V180.304H36.32V183.472ZM43.3535 170.2V187H39.4655V173.32H36.1055V170.2H43.3535ZM50.1599 179.272C48.9279 179.272 47.9199 178.856 47.1359 178.024C46.3679 177.176 45.9839 176.048 45.9839 174.64C45.9839 173.232 46.3679 172.112 47.1359 171.28C47.9199 170.432 48.9279 170.008 50.1599 170.008C51.3919 170.008 52.3919 170.432 53.1599 171.28C53.9279 172.112 54.3119 173.232 54.3119 174.64C54.3119 176.048 53.9279 177.176 53.1599 178.024C52.3919 178.856 51.3919 179.272 50.1599 179.272ZM60.1679 170.2H63.0239L51.5519 187H48.6959L60.1679 170.2ZM50.1599 177.304C50.7039 177.304 51.1279 177.08 51.4319 176.632C51.7519 176.184 51.9119 175.52 51.9119 174.64C51.9119 173.76 51.7519 173.096 51.4319 172.648C51.1279 172.2 50.7039 171.976 50.1599 171.976C49.6319 171.976 49.2079 172.208 48.8879 172.672C48.5679 173.12 48.4079 173.776 48.4079 174.64C48.4079 175.504 48.5679 176.168 48.8879 176.632C49.2079 177.08 49.6319 177.304 50.1599 177.304ZM61.5599 187.192C60.7599 187.192 60.0399 187.008 59.3999 186.64C58.7759 186.256 58.2879 185.712 57.9359 185.008C57.5839 184.304 57.4079 183.488 57.4079 182.56C57.4079 181.632 57.5839 180.816 57.9359 180.112C58.2879 179.408 58.7759 178.872 59.3999 178.504C60.0399 178.12 60.7599 177.928 61.5599 177.928C62.7919 177.928 63.7919 178.352 64.5599 179.2C65.3439 180.032 65.7359 181.152 65.7359 182.56C65.7359 183.968 65.3439 185.096 64.5599 185.944C63.7919 186.776 62.7919 187.192 61.5599 187.192ZM61.5599 185.224C62.1039 185.224 62.5279 185 62.8319 184.552C63.1519 184.088 63.3119 183.424 63.3119 182.56C63.3119 181.696 63.1519 181.04 62.8319 180.592C62.5279 180.128 62.1039 179.896 61.5599 179.896C61.0319 179.896 60.6079 180.12 60.2879 180.568C59.9679 181.016 59.8079 181.68 59.8079 182.56C59.8079 183.44 59.9679 184.104 60.2879 184.552C60.6079 185 61.0319 185.224 61.5599 185.224Z" fill="white"/>
<path d="M208.008 45.89C208.605 46.0673 209.063 46.3567 209.38 46.758C209.697 47.1593 209.856 47.654 209.856 48.242C209.856 49.11 209.525 49.7867 208.862 50.272C208.209 50.7573 207.271 51 206.048 51H201.218V41.2H205.782C206.921 41.2 207.807 41.4193 208.442 41.858C209.077 42.2967 209.394 42.922 209.394 43.734C209.394 44.2193 209.273 44.6487 209.03 45.022C208.787 45.386 208.447 45.6753 208.008 45.89ZM203.472 45.26H205.586C206.081 45.26 206.454 45.162 206.706 44.966C206.958 44.7607 207.084 44.462 207.084 44.07C207.084 43.6873 206.953 43.3933 206.692 43.188C206.44 42.9827 206.071 42.88 205.586 42.88H203.472V45.26ZM205.964 49.32C207.028 49.32 207.56 48.9 207.56 48.06C207.56 47.248 207.028 46.842 205.964 46.842H203.472V49.32H205.964ZM215.01 51.112C214.216 51.112 213.502 50.9487 212.868 50.622C212.242 50.286 211.752 49.824 211.398 49.236C211.043 48.648 210.866 47.9807 210.866 47.234C210.866 46.4873 211.043 45.82 211.398 45.232C211.752 44.644 212.242 44.1867 212.868 43.86C213.502 43.524 214.216 43.356 215.01 43.356C215.803 43.356 216.512 43.524 217.138 43.86C217.763 44.1867 218.253 44.644 218.608 45.232C218.962 45.82 219.14 46.4873 219.14 47.234C219.14 47.9807 218.962 48.648 218.608 49.236C218.253 49.824 217.763 50.286 217.138 50.622C216.512 50.9487 215.803 51.112 215.01 51.112ZM215.01 49.32C215.57 49.32 216.027 49.1333 216.382 48.76C216.746 48.3773 216.928 47.8687 216.928 47.234C216.928 46.5993 216.746 46.0953 216.382 45.722C216.027 45.3393 215.57 45.148 215.01 45.148C214.45 45.148 213.988 45.3393 213.624 45.722C213.26 46.0953 213.078 46.5993 213.078 47.234C213.078 47.8687 213.26 48.3773 213.624 48.76C213.988 49.1333 214.45 49.32 215.01 49.32ZM224.226 51.112C223.423 51.112 222.7 50.9487 222.056 50.622C221.421 50.286 220.922 49.824 220.558 49.236C220.203 48.648 220.026 47.9807 220.026 47.234C220.026 46.4873 220.203 45.82 220.558 45.232C220.922 44.644 221.421 44.1867 222.056 43.86C222.7 43.524 223.423 43.356 224.226 43.356C225.019 43.356 225.71 43.524 226.298 43.86C226.895 44.1867 227.329 44.658 227.6 45.274L225.906 46.184C225.514 45.4933 224.949 45.148 224.212 45.148C223.642 45.148 223.171 45.3347 222.798 45.708C222.424 46.0813 222.238 46.59 222.238 47.234C222.238 47.878 222.424 48.3867 222.798 48.76C223.171 49.1333 223.642 49.32 224.212 49.32C224.958 49.32 225.523 48.9747 225.906 48.284L227.6 49.208C227.329 49.8053 226.895 50.272 226.298 50.608C225.71 50.944 225.019 51.112 224.226 51.112ZM236.417 43.468V51H234.233V45.26H231.097V51H228.927V43.468H236.417ZM242.039 51.112C241.246 51.112 240.532 50.9487 239.897 50.622C239.272 50.286 238.782 49.824 238.427 49.236C238.072 48.648 237.895 47.9807 237.895 47.234C237.895 46.4873 238.072 45.82 238.427 45.232C238.782 44.644 239.272 44.1867 239.897 43.86C240.532 43.524 241.246 43.356 242.039 43.356C242.832 43.356 243.542 43.524 244.167 43.86C244.792 44.1867 245.282 44.644 245.637 45.232C245.992 45.82 246.169 46.4873 246.169 47.234C246.169 47.9807 245.992 48.648 245.637 49.236C245.282 49.824 244.792 50.286 244.167 50.622C243.542 50.9487 242.832 51.112 242.039 51.112ZM242.039 49.32C242.599 49.32 243.056 49.1333 243.411 48.76C243.775 48.3773 243.957 47.8687 243.957 47.234C243.957 46.5993 243.775 46.0953 243.411 45.722C243.056 45.3393 242.599 45.148 242.039 45.148C241.479 45.148 241.017 45.3393 240.653 45.722C240.289 46.0953 240.107 46.5993 240.107 47.234C240.107 47.8687 240.289 48.3773 240.653 48.76C241.017 49.1333 241.479 49.32 242.039 49.32ZM254.786 43.468V51H252.602V45.26H250.222L250.152 46.59C250.114 47.5793 250.021 48.4007 249.872 49.054C249.722 49.7073 249.48 50.2207 249.144 50.594C248.808 50.9673 248.341 51.154 247.744 51.154C247.426 51.154 247.048 51.098 246.61 50.986L246.722 49.194C246.871 49.2127 246.978 49.222 247.044 49.222C247.37 49.222 247.613 49.1053 247.772 48.872C247.94 48.6293 248.052 48.326 248.108 47.962C248.164 47.5887 248.206 47.0987 248.234 46.492L248.346 43.468H254.786ZM260.96 45.876C261.94 45.8853 262.691 46.1093 263.214 46.548C263.737 46.9773 263.998 47.5887 263.998 48.382C263.998 49.2127 263.704 49.8613 263.116 50.328C262.537 50.7853 261.721 51.014 260.666 51.014L256.886 51V43.468H259.056V45.876H260.96ZM260.47 49.46C260.89 49.4693 261.212 49.3807 261.436 49.194C261.66 49.0073 261.772 48.7273 261.772 48.354C261.772 47.99 261.66 47.724 261.436 47.556C261.221 47.388 260.899 47.2993 260.47 47.29L259.056 47.276V49.46H260.47ZM270.071 47.08C270.519 47.22 270.864 47.4347 271.107 47.724C271.359 48.0133 271.485 48.3587 271.485 48.76C271.485 49.236 271.321 49.656 270.995 50.02C270.668 50.3747 270.22 50.65 269.651 50.846C269.081 51.042 268.437 51.14 267.719 51.14C267.131 51.14 266.552 51.0793 265.983 50.958C265.413 50.8367 264.886 50.6547 264.401 50.412L264.989 48.886C265.782 49.2687 266.659 49.46 267.621 49.46C268.134 49.46 268.535 49.3853 268.825 49.236C269.123 49.0773 269.273 48.858 269.273 48.578C269.273 48.3353 269.17 48.1533 268.965 48.032C268.759 47.9013 268.461 47.836 268.069 47.836H266.529V46.478H267.873C268.255 46.478 268.549 46.4173 268.755 46.296C268.96 46.1747 269.063 45.9973 269.063 45.764C269.063 45.5213 268.932 45.3347 268.671 45.204C268.419 45.0733 268.055 45.008 267.579 45.008C266.851 45.008 266.057 45.1807 265.199 45.526L264.667 44.014C265.712 43.5567 266.729 43.328 267.719 43.328C268.4 43.328 269.007 43.412 269.539 43.58C270.08 43.748 270.505 43.9953 270.813 44.322C271.121 44.6393 271.275 45.0127 271.275 45.442C271.275 45.7967 271.167 46.1187 270.953 46.408C270.738 46.688 270.444 46.912 270.071 47.08ZM276.601 51.112C275.808 51.112 275.094 50.9487 274.459 50.622C273.834 50.286 273.344 49.824 272.989 49.236C272.635 48.648 272.457 47.9807 272.457 47.234C272.457 46.4873 272.635 45.82 272.989 45.232C273.344 44.644 273.834 44.1867 274.459 43.86C275.094 43.524 275.808 43.356 276.601 43.356C277.395 43.356 278.104 43.524 278.729 43.86C279.355 44.1867 279.845 44.644 280.199 45.232C280.554 45.82 280.731 46.4873 280.731 47.234C280.731 47.9807 280.554 48.648 280.199 49.236C279.845 49.824 279.355 50.286 278.729 50.622C278.104 50.9487 277.395 51.112 276.601 51.112ZM276.601 49.32C277.161 49.32 277.619 49.1333 277.973 48.76C278.337 48.3773 278.519 47.8687 278.519 47.234C278.519 46.5993 278.337 46.0953 277.973 45.722C277.619 45.3393 277.161 45.148 276.601 45.148C276.041 45.148 275.579 45.3393 275.215 45.722C274.851 46.0953 274.669 46.5993 274.669 47.234C274.669 47.8687 274.851 48.3773 275.215 48.76C275.579 49.1333 276.041 49.32 276.601 49.32ZM287.988 47.066C288.874 47.3647 289.318 47.962 289.318 48.858C289.318 49.5393 289.061 50.0667 288.548 50.44C288.034 50.8133 287.269 51 286.252 51H282.234V43.468H286.084C287.026 43.468 287.764 43.6407 288.296 43.986C288.828 44.322 289.094 44.798 289.094 45.414C289.094 45.7873 288.996 46.1187 288.8 46.408C288.613 46.688 288.342 46.9073 287.988 47.066ZM284.236 46.562H285.888C286.653 46.562 287.036 46.2913 287.036 45.75C287.036 45.218 286.653 44.952 285.888 44.952H284.236V46.562ZM286.07 49.516C286.872 49.516 287.274 49.2407 287.274 48.69C287.274 48.4007 287.18 48.1907 286.994 48.06C286.807 47.92 286.513 47.85 286.112 47.85H284.236V49.516H286.07ZM293.869 43.356C295.035 43.356 295.931 43.636 296.557 44.196C297.182 44.7467 297.495 45.582 297.495 46.702V51H295.451V50.062C295.04 50.762 294.275 51.112 293.155 51.112C292.576 51.112 292.072 51.014 291.643 50.818C291.223 50.622 290.901 50.3513 290.677 50.006C290.453 49.6607 290.341 49.2687 290.341 48.83C290.341 48.13 290.602 47.5793 291.125 47.178C291.657 46.7767 292.473 46.576 293.575 46.576H295.311C295.311 46.1 295.166 45.736 294.877 45.484C294.587 45.2227 294.153 45.092 293.575 45.092C293.173 45.092 292.777 45.1573 292.385 45.288C292.002 45.4093 291.675 45.5773 291.405 45.792L290.621 44.266C291.031 43.9767 291.521 43.7527 292.091 43.594C292.669 43.4353 293.262 43.356 293.869 43.356ZM293.701 49.642C294.074 49.642 294.405 49.558 294.695 49.39C294.984 49.2127 295.189 48.956 295.311 48.62V47.85H293.813C292.917 47.85 292.469 48.144 292.469 48.732C292.469 49.012 292.576 49.236 292.791 49.404C293.015 49.5627 293.318 49.642 293.701 49.642ZM305.72 45.26H303.172V51H301.002V45.26H298.454V43.468H305.72V45.26ZM310.958 45.876C311.938 45.8853 312.689 46.1093 313.212 46.548C313.735 46.9773 313.996 47.5887 313.996 48.382C313.996 49.2127 313.702 49.8613 313.114 50.328C312.535 50.7853 311.719 51.014 310.664 51.014L306.884 51V43.468H309.054V45.876H310.958ZM310.468 49.46C310.888 49.4693 311.21 49.3807 311.434 49.194C311.658 49.0073 311.77 48.7273 311.77 48.354C311.77 47.99 311.658 47.724 311.434 47.556C311.219 47.388 310.897 47.2993 310.468 47.29L309.054 47.276V49.46H310.468ZM318.945 51.112C318.142 51.112 317.419 50.9487 316.775 50.622C316.14 50.286 315.641 49.824 315.277 49.236C314.922 48.648 314.745 47.9807 314.745 47.234C314.745 46.4873 314.922 45.82 315.277 45.232C315.641 44.644 316.14 44.1867 316.775 43.86C317.419 43.524 318.142 43.356 318.945 43.356C319.738 43.356 320.429 43.524 321.017 43.86C321.614 44.1867 322.048 44.658 322.319 45.274L320.625 46.184C320.233 45.4933 319.668 45.148 318.931 45.148C318.361 45.148 317.89 45.3347 317.517 45.708C317.143 46.0813 316.957 46.59 316.957 47.234C316.957 47.878 317.143 48.3867 317.517 48.76C317.89 49.1333 318.361 49.32 318.931 49.32C319.677 49.32 320.242 48.9747 320.625 48.284L322.319 49.208C322.048 49.8053 321.614 50.272 321.017 50.608C320.429 50.944 319.738 51.112 318.945 51.112ZM330.146 43.468V51H328.2V48.844H326.59L325.162 51H322.838L324.56 48.536C324.038 48.3307 323.636 48.0367 323.356 47.654C323.086 47.262 322.95 46.7907 322.95 46.24C322.95 45.3533 323.268 44.672 323.902 44.196C324.546 43.7107 325.428 43.468 326.548 43.468H330.146ZM326.59 45.246C326.124 45.246 325.769 45.33 325.526 45.498C325.293 45.666 325.176 45.9367 325.176 46.31C325.176 46.6833 325.288 46.9587 325.512 47.136C325.746 47.304 326.096 47.388 326.562 47.388H328.2V45.246H326.59ZM208.596 60.468L205.194 68.462C204.849 69.33 204.419 69.9413 203.906 70.296C203.402 70.6507 202.791 70.828 202.072 70.828C201.68 70.828 201.293 70.7673 200.91 70.646C200.527 70.5247 200.215 70.3567 199.972 70.142L200.77 68.588C200.938 68.7373 201.129 68.854 201.344 68.938C201.568 69.022 201.787 69.064 202.002 69.064C202.301 69.064 202.543 68.9893 202.73 68.84C202.917 68.7 203.085 68.462 203.234 68.126L203.262 68.056L200 60.468H202.254L204.368 65.578L206.496 60.468H208.596ZM213.029 68.112C212.226 68.112 211.503 67.9487 210.859 67.622C210.224 67.286 209.725 66.824 209.361 66.236C209.006 65.648 208.829 64.9807 208.829 64.234C208.829 63.4873 209.006 62.82 209.361 62.232C209.725 61.644 210.224 61.1867 210.859 60.86C211.503 60.524 212.226 60.356 213.029 60.356C213.822 60.356 214.513 60.524 215.101 60.86C215.698 61.1867 216.132 61.658 216.403 62.274L214.709 63.184C214.317 62.4933 213.752 62.148 213.015 62.148C212.445 62.148 211.974 62.3347 211.601 62.708C211.227 63.0813 211.041 63.59 211.041 64.234C211.041 64.878 211.227 65.3867 211.601 65.76C211.974 66.1333 212.445 66.32 213.015 66.32C213.761 66.32 214.326 65.9747 214.709 65.284L216.403 66.208C216.132 66.8053 215.698 67.272 215.101 67.608C214.513 67.944 213.822 68.112 213.029 68.112ZM224.844 60.468V68H222.66V62.26H220.28L220.21 63.59C220.173 64.5793 220.08 65.4007 219.93 66.054C219.781 66.7073 219.538 67.2207 219.202 67.594C218.866 67.9673 218.4 68.154 217.802 68.154C217.485 68.154 217.107 68.098 216.668 67.986L216.78 66.194C216.93 66.2127 217.037 66.222 217.102 66.222C217.429 66.222 217.672 66.1053 217.83 65.872C217.998 65.6293 218.11 65.326 218.166 64.962C218.222 64.5887 218.264 64.0987 218.292 63.492L218.404 60.468H224.844ZM234.491 60.468L231.089 68.462C230.743 69.33 230.314 69.9413 229.801 70.296C229.297 70.6507 228.685 70.828 227.967 70.828C227.575 70.828 227.187 70.7673 226.805 70.646C226.422 70.5247 226.109 70.3567 225.867 70.142L226.665 68.588C226.833 68.7373 227.024 68.854 227.239 68.938C227.463 69.022 227.682 69.064 227.897 69.064C228.195 69.064 228.438 68.9893 228.625 68.84C228.811 68.7 228.979 68.462 229.129 68.126L229.157 68.056L225.895 60.468H228.149L230.263 65.578L232.391 60.468H234.491ZM241.578 62.26H237.714V68H235.544V60.468H241.578V62.26ZM245.662 60.356C246.828 60.356 247.724 60.636 248.35 61.196C248.975 61.7467 249.288 62.582 249.288 63.702V68H247.244V67.062C246.833 67.762 246.068 68.112 244.948 68.112C244.369 68.112 243.865 68.014 243.436 67.818C243.016 67.622 242.694 67.3513 242.47 67.006C242.246 66.6607 242.134 66.2687 242.134 65.83C242.134 65.13 242.395 64.5793 242.918 64.178C243.45 63.7767 244.266 63.576 245.368 63.576H247.104C247.104 63.1 246.959 62.736 246.67 62.484C246.38 62.2227 245.946 62.092 245.368 62.092C244.966 62.092 244.57 62.1573 244.178 62.288C243.795 62.4093 243.468 62.5773 243.198 62.792L242.414 61.266C242.824 60.9767 243.314 60.7527 243.884 60.594C244.462 60.4353 245.055 60.356 245.662 60.356ZM245.494 66.642C245.867 66.642 246.198 66.558 246.488 66.39C246.777 66.2127 246.982 65.956 247.104 65.62V64.85H245.606C244.71 64.85 244.262 65.144 244.262 65.732C244.262 66.012 244.369 66.236 244.584 66.404C244.808 66.5627 245.111 66.642 245.494 66.642ZM258.535 68V63.492L256.281 67.272H255.357L253.159 63.478V68H251.185V60.468H253.467L255.875 64.822L258.437 60.468H260.481L260.509 68H258.535ZM262.601 60.468H264.771V64.948L268.439 60.468H270.441V68H268.271V63.52L264.617 68H262.601V60.468ZM284.947 66.208V69.624H282.917V68H277.625V69.624H275.595V66.208H275.903C276.37 66.1987 276.692 65.9233 276.869 65.382C277.046 64.8407 277.158 64.0707 277.205 63.072L277.303 60.468H283.869V66.208H284.947ZM279.179 63.226C279.151 63.9913 279.09 64.6167 278.997 65.102C278.913 65.5873 278.75 65.956 278.507 66.208H281.685V62.26H279.221L279.179 63.226ZM290.759 60.356C291.459 60.356 292.094 60.5193 292.663 60.846C293.242 61.1633 293.695 61.616 294.021 62.204C294.348 62.7827 294.511 63.4593 294.511 64.234C294.511 65.0087 294.348 65.69 294.021 66.278C293.695 66.8567 293.242 67.3093 292.663 67.636C292.094 67.9533 291.459 68.112 290.759 68.112C289.798 68.112 289.042 67.8087 288.491 67.202V70.716H286.307V60.468H288.393V61.336C288.935 60.6827 289.723 60.356 290.759 60.356ZM290.381 66.32C290.941 66.32 291.399 66.1333 291.753 65.76C292.117 65.3773 292.299 64.8687 292.299 64.234C292.299 63.5993 292.117 63.0953 291.753 62.722C291.399 62.3393 290.941 62.148 290.381 62.148C289.821 62.148 289.359 62.3393 288.995 62.722C288.641 63.0953 288.463 63.5993 288.463 64.234C288.463 64.8687 288.641 65.3773 288.995 65.76C289.359 66.1333 289.821 66.32 290.381 66.32ZM303.383 60.468L299.981 68.462C299.636 69.33 299.206 69.9413 298.693 70.296C298.189 70.6507 297.578 70.828 296.859 70.828C296.467 70.828 296.08 70.7673 295.697 70.646C295.314 70.5247 295.002 70.3567 294.759 70.142L295.557 68.588C295.725 68.7373 295.916 68.854 296.131 68.938C296.355 69.022 296.574 69.064 296.789 69.064C297.088 69.064 297.33 68.9893 297.517 68.84C297.704 68.7 297.872 68.462 298.021 68.126L298.049 68.056L294.787 60.468H297.041L299.155 65.578L301.283 60.468H303.383ZM310.471 62.26H306.607V68H304.437V60.468H310.471V62.26ZM311.628 60.468H313.798V64.948L317.466 60.468H319.468V68H317.298V63.52L313.644 68H311.628V60.468ZM326.3 68L324.648 65.69L322.94 68H320.56L323.458 64.206L320.658 60.468H323.108L324.704 62.666L326.342 60.468H328.666L325.866 64.15L328.778 68H326.3ZM211.452 81.206C211.452 82.3727 211.06 83.2967 210.276 83.978C209.501 84.65 208.391 85.0373 206.944 85.14V87.716H204.942V85.14C203.495 85.0373 202.38 84.6547 201.596 83.992C200.821 83.32 200.434 82.3913 200.434 81.206C200.434 80.0393 200.817 79.134 201.582 78.49C202.357 77.846 203.477 77.4727 204.942 77.37V74.612H206.944V77.37C208.391 77.4727 209.501 77.8507 210.276 78.504C211.06 79.1573 211.452 80.058 211.452 81.206ZM202.548 81.206C202.548 81.878 202.739 82.396 203.122 82.76C203.505 83.124 204.111 83.3527 204.942 83.446V79.064C204.111 79.148 203.505 79.3673 203.122 79.722C202.739 80.0673 202.548 80.562 202.548 81.206ZM206.944 83.446C207.775 83.3527 208.381 83.124 208.764 82.76C209.156 82.396 209.352 81.878 209.352 81.206C209.352 80.562 209.156 80.0673 208.764 79.722C208.381 79.3673 207.775 79.148 206.944 79.064V83.446ZM220.272 77.468L216.87 85.462C216.524 86.33 216.095 86.9413 215.582 87.296C215.078 87.6507 214.466 87.828 213.748 87.828C213.356 87.828 212.968 87.7673 212.586 87.646C212.203 87.5247 211.89 87.3567 211.648 87.142L212.446 85.588C212.614 85.7373 212.805 85.854 213.02 85.938C213.244 86.022 213.463 86.064 213.678 86.064C213.976 86.064 214.219 85.9893 214.406 85.84C214.592 85.7 214.76 85.462 214.91 85.126L214.938 85.056L211.676 77.468H213.93L216.044 82.578L218.172 77.468H220.272ZM228.016 77.468V85H225.832V79.26H223.452L223.382 80.59C223.345 81.5793 223.252 82.4007 223.102 83.054C222.953 83.7073 222.71 84.2207 222.374 84.594C222.038 84.9673 221.572 85.154 220.974 85.154C220.657 85.154 220.279 85.098 219.84 84.986L219.952 83.194C220.102 83.2127 220.209 83.222 220.274 83.222C220.601 83.222 220.844 83.1053 221.002 82.872C221.17 82.6293 221.282 82.326 221.338 81.962C221.394 81.5887 221.436 81.0987 221.464 80.492L221.576 77.468H228.016ZM240.518 81.206C240.518 82.3727 240.126 83.2967 239.342 83.978C238.568 84.65 237.457 85.0373 236.01 85.14V87.716H234.008V85.14C232.562 85.0373 231.446 84.6547 230.662 83.992C229.888 83.32 229.5 82.3913 229.5 81.206C229.5 80.0393 229.883 79.134 230.648 78.49C231.423 77.846 232.543 77.4727 234.008 77.37V74.612H236.01V77.37C237.457 77.4727 238.568 77.8507 239.342 78.504C240.126 79.1573 240.518 80.058 240.518 81.206ZM231.614 81.206C231.614 81.878 231.806 82.396 232.188 82.76C232.571 83.124 233.178 83.3527 234.008 83.446V79.064C233.178 79.148 232.571 79.3673 232.188 79.722C231.806 80.0673 231.614 80.562 231.614 81.206ZM236.01 83.446C236.841 83.3527 237.448 83.124 237.83 82.76C238.222 82.396 238.418 81.878 238.418 81.206C238.418 80.562 238.222 80.0673 237.83 79.722C237.448 79.3673 236.841 79.148 236.01 79.064V83.446ZM241.997 77.468H244.167V81.948L247.835 77.468H249.837V85H247.667V80.52L244.013 85H241.997V77.468ZM259.161 77.468V85H256.977V79.26H254.597L254.527 80.59C254.489 81.5793 254.396 82.4007 254.247 83.054C254.097 83.7073 253.855 84.2207 253.519 84.594C253.183 84.9673 252.716 85.154 252.119 85.154C251.801 85.154 251.423 85.098 250.985 84.986L251.097 83.194C251.246 83.2127 251.353 83.222 251.419 83.222C251.745 83.222 251.988 83.1053 252.147 82.872C252.315 82.6293 252.427 82.326 252.483 81.962C252.539 81.5887 252.581 81.0987 252.609 80.492L252.721 77.468H259.161ZM268.611 85V80.492L266.357 84.272H265.433L263.235 80.478V85H261.261V77.468H263.543L265.951 81.822L268.513 77.468H270.557L270.585 85H268.611ZM279.999 81.262C279.999 81.29 279.985 81.486 279.957 81.85H274.259C274.362 82.3167 274.604 82.6853 274.987 82.956C275.37 83.2267 275.846 83.362 276.415 83.362C276.807 83.362 277.152 83.306 277.451 83.194C277.759 83.0727 278.044 82.886 278.305 82.634L279.467 83.894C278.758 84.706 277.722 85.112 276.359 85.112C275.51 85.112 274.758 84.9487 274.105 84.622C273.452 84.286 272.948 83.824 272.593 83.236C272.238 82.648 272.061 81.9807 272.061 81.234C272.061 80.4967 272.234 79.834 272.579 79.246C272.934 78.6487 273.414 78.1867 274.021 77.86C274.637 77.524 275.323 77.356 276.079 77.356C276.816 77.356 277.484 77.5147 278.081 77.832C278.678 78.1493 279.145 78.6067 279.481 79.204C279.826 79.792 279.999 80.478 279.999 81.262ZM276.093 79.008C275.598 79.008 275.183 79.148 274.847 79.428C274.511 79.708 274.306 80.0907 274.231 80.576H277.941C277.866 80.1 277.661 79.722 277.325 79.442C276.989 79.1527 276.578 79.008 276.093 79.008ZM281.673 77.468H283.843V80.408H287.119V77.468H289.303V85H287.119V82.186H283.843V85H281.673V77.468ZM297.722 79.26H295.174V85H293.004V79.26H290.456V77.468H297.722V79.26ZM204.578 102.112C203.785 102.112 203.071 101.949 202.436 101.622C201.811 101.286 201.321 100.824 200.966 100.236C200.611 99.648 200.434 98.9807 200.434 98.234C200.434 97.4873 200.611 96.82 200.966 96.232C201.321 95.644 201.811 95.1867 202.436 94.86C203.071 94.524 203.785 94.356 204.578 94.356C205.371 94.356 206.081 94.524 206.706 94.86C207.331 95.1867 207.821 95.644 208.176 96.232C208.531 96.82 208.708 97.4873 208.708 98.234C208.708 98.9807 208.531 99.648 208.176 100.236C207.821 100.824 207.331 101.286 206.706 101.622C206.081 101.949 205.371 102.112 204.578 102.112ZM204.578 100.32C205.138 100.32 205.595 100.133 205.95 99.76C206.314 99.3773 206.496 98.8687 206.496 98.234C206.496 97.5993 206.314 97.0953 205.95 96.722C205.595 96.3393 205.138 96.148 204.578 96.148C204.018 96.148 203.556 96.3393 203.192 96.722C202.828 97.0953 202.646 97.5993 202.646 98.234C202.646 98.8687 202.828 99.3773 203.192 99.76C203.556 100.133 204.018 100.32 204.578 100.32ZM217.7 94.468V102H215.516V96.26H212.38V102H210.21V94.468H217.7ZM227.116 98.262C227.116 98.29 227.102 98.486 227.074 98.85H221.376C221.479 99.3167 221.721 99.6853 222.104 99.956C222.487 100.227 222.963 100.362 223.532 100.362C223.924 100.362 224.269 100.306 224.568 100.194C224.876 100.073 225.161 99.886 225.422 99.634L226.584 100.894C225.875 101.706 224.839 102.112 223.476 102.112C222.627 102.112 221.875 101.949 221.222 101.622C220.569 101.286 220.065 100.824 219.71 100.236C219.355 99.648 219.178 98.9807 219.178 98.234C219.178 97.4967 219.351 96.834 219.696 96.246C220.051 95.6487 220.531 95.1867 221.138 94.86C221.754 94.524 222.44 94.356 223.196 94.356C223.933 94.356 224.601 94.5147 225.198 94.832C225.795 95.1493 226.262 95.6067 226.598 96.204C226.943 96.792 227.116 97.478 227.116 98.262ZM223.21 96.008C222.715 96.008 222.3 96.148 221.964 96.428C221.628 96.708 221.423 97.0907 221.348 97.576H225.058C224.983 97.1 224.778 96.722 224.442 96.442C224.106 96.1527 223.695 96.008 223.21 96.008ZM233.228 94.356C233.928 94.356 234.563 94.5193 235.132 94.846C235.711 95.1633 236.164 95.616 236.49 96.204C236.817 96.7827 236.98 97.4593 236.98 98.234C236.98 99.0087 236.817 99.69 236.49 100.278C236.164 100.857 235.711 101.309 235.132 101.636C234.563 101.953 233.928 102.112 233.228 102.112C232.267 102.112 231.511 101.809 230.96 101.202V104.716H228.776V94.468H230.862V95.336C231.404 94.6827 232.192 94.356 233.228 94.356ZM232.85 100.32C233.41 100.32 233.868 100.133 234.222 99.76C234.586 99.3773 234.768 98.8687 234.768 98.234C234.768 97.5993 234.586 97.0953 234.222 96.722C233.868 96.3393 233.41 96.148 232.85 96.148C232.29 96.148 231.828 96.3393 231.464 96.722C231.11 97.0953 230.932 97.5993 230.932 98.234C230.932 98.8687 231.11 99.3773 231.464 99.76C231.828 100.133 232.29 100.32 232.85 100.32ZM241.314 94.356C242.481 94.356 243.377 94.636 244.002 95.196C244.627 95.7467 244.94 96.582 244.94 97.702V102H242.896V101.062C242.485 101.762 241.72 102.112 240.6 102.112C240.021 102.112 239.517 102.014 239.088 101.818C238.668 101.622 238.346 101.351 238.122 101.006C237.898 100.661 237.786 100.269 237.786 99.83C237.786 99.13 238.047 98.5793 238.57 98.178C239.102 97.7767 239.919 97.576 241.02 97.576H242.756C242.756 97.1 242.611 96.736 242.322 96.484C242.033 96.2227 241.599 96.092 241.02 96.092C240.619 96.092 240.222 96.1573 239.83 96.288C239.447 96.4093 239.121 96.5773 238.85 96.792L238.066 95.266C238.477 94.9767 238.967 94.7527 239.536 94.594C240.115 94.4353 240.707 94.356 241.314 94.356ZM241.146 100.642C241.519 100.642 241.851 100.558 242.14 100.39C242.429 100.213 242.635 99.956 242.756 99.62V98.85H241.258C240.362 98.85 239.914 99.144 239.914 99.732C239.914 100.012 240.021 100.236 240.236 100.404C240.46 100.563 240.763 100.642 241.146 100.642ZM253.165 96.26H250.617V102H248.447V96.26H245.899V94.468H253.165V96.26ZM257.543 102.112C256.75 102.112 256.036 101.949 255.401 101.622C254.776 101.286 254.286 100.824 253.931 100.236C253.576 99.648 253.399 98.9807 253.399 98.234C253.399 97.4873 253.576 96.82 253.931 96.232C254.286 95.644 254.776 95.1867 255.401 94.86C256.036 94.524 256.75 94.356 257.543 94.356C258.336 94.356 259.046 94.524 259.671 94.86C260.296 95.1867 260.786 95.644 261.141 96.232C261.496 96.82 261.673 97.4873 261.673 98.234C261.673 98.9807 261.496 99.648 261.141 100.236C260.786 100.824 260.296 101.286 259.671 101.622C259.046 101.949 258.336 102.112 257.543 102.112ZM257.543 100.32C258.103 100.32 258.56 100.133 258.915 99.76C259.279 99.3773 259.461 98.8687 259.461 98.234C259.461 97.5993 259.279 97.0953 258.915 96.722C258.56 96.3393 258.103 96.148 257.543 96.148C256.983 96.148 256.521 96.3393 256.157 96.722C255.793 97.0953 255.611 97.5993 255.611 98.234C255.611 98.8687 255.793 99.3773 256.157 99.76C256.521 100.133 256.983 100.32 257.543 100.32ZM267.613 94.356C268.313 94.356 268.948 94.5193 269.517 94.846C270.096 95.1633 270.548 95.616 270.875 96.204C271.202 96.7827 271.365 97.4593 271.365 98.234C271.365 99.0087 271.202 99.69 270.875 100.278C270.548 100.857 270.096 101.309 269.517 101.636C268.948 101.953 268.313 102.112 267.613 102.112C266.652 102.112 265.896 101.809 265.345 101.202V104.716H263.161V94.468H265.247V95.336C265.788 94.6827 266.577 94.356 267.613 94.356ZM267.235 100.32C267.795 100.32 268.252 100.133 268.607 99.76C268.971 99.3773 269.153 98.8687 269.153 98.234C269.153 97.5993 268.971 97.0953 268.607 96.722C268.252 96.3393 267.795 96.148 267.235 96.148C266.675 96.148 266.213 96.3393 265.849 96.722C265.494 97.0953 265.317 97.5993 265.317 98.234C265.317 98.8687 265.494 99.3773 265.849 99.76C266.213 100.133 266.675 100.32 267.235 100.32ZM276.424 102.112C275.63 102.112 274.916 101.949 274.282 101.622C273.656 101.286 273.166 100.824 272.812 100.236C272.457 99.648 272.28 98.9807 272.28 98.234C272.28 97.4873 272.457 96.82 272.812 96.232C273.166 95.644 273.656 95.1867 274.282 94.86C274.916 94.524 275.63 94.356 276.424 94.356C277.217 94.356 277.926 94.524 278.552 94.86C279.177 95.1867 279.667 95.644 280.022 96.232C280.376 96.82 280.554 97.4873 280.554 98.234C280.554 98.9807 280.376 99.648 280.022 100.236C279.667 100.824 279.177 101.286 278.552 101.622C277.926 101.949 277.217 102.112 276.424 102.112ZM276.424 100.32C276.984 100.32 277.441 100.133 277.796 99.76C278.16 99.3773 278.342 98.8687 278.342 98.234C278.342 97.5993 278.16 97.0953 277.796 96.722C277.441 96.3393 276.984 96.148 276.424 96.148C275.864 96.148 275.402 96.3393 275.038 96.722C274.674 97.0953 274.492 97.5993 274.492 98.234C274.492 98.8687 274.674 99.3773 275.038 99.76C275.402 100.133 275.864 100.32 276.424 100.32ZM287.81 98.066C288.697 98.3647 289.14 98.962 289.14 99.858C289.14 100.539 288.883 101.067 288.37 101.44C287.857 101.813 287.091 102 286.074 102H282.056V94.468H285.906C286.849 94.468 287.586 94.6407 288.118 94.986C288.65 95.322 288.916 95.798 288.916 96.414C288.916 96.7873 288.818 97.1187 288.622 97.408C288.435 97.688 288.165 97.9073 287.81 98.066ZM284.058 97.562H285.71C286.475 97.562 286.858 97.2913 286.858 96.75C286.858 96.218 286.475 95.952 285.71 95.952H284.058V97.562ZM285.892 100.516C286.695 100.516 287.096 100.241 287.096 99.69C287.096 99.4007 287.003 99.1907 286.816 99.06C286.629 98.92 286.335 98.85 285.934 98.85H284.058V100.516H285.892ZM203.416 152.58C204.153 152.58 204.816 152.743 205.404 153.07C206.001 153.387 206.468 153.831 206.804 154.4C207.149 154.969 207.322 155.609 207.322 156.318C207.322 157.027 207.149 157.671 206.804 158.25C206.468 158.819 206.001 159.267 205.404 159.594C204.816 159.921 204.153 160.084 203.416 160.084C202.8 160.084 202.235 159.991 201.722 159.804C201.209 159.608 200.775 159.328 200.42 158.964L201.008 158.376C201.633 158.964 202.422 159.258 203.374 159.258C203.906 159.258 204.387 159.146 204.816 158.922C205.255 158.698 205.609 158.385 205.88 157.984C206.16 157.583 206.323 157.135 206.37 156.64H202.436V155.884H206.356C206.253 155.147 205.927 154.549 205.376 154.092C204.825 153.625 204.158 153.392 203.374 153.392C202.422 153.392 201.633 153.686 201.008 154.274L200.42 153.7C200.775 153.336 201.209 153.061 201.722 152.874C202.235 152.678 202.8 152.58 203.416 152.58ZM212.086 156.724H210.406V160H209.412V152.636H210.406V155.87H212.1L214.69 152.636H215.768L212.87 156.206L215.978 160H214.802L212.086 156.724ZM220.325 160.07C219.616 160.07 218.976 159.911 218.407 159.594C217.838 159.267 217.39 158.819 217.063 158.25C216.736 157.681 216.573 157.037 216.573 156.318C216.573 155.599 216.736 154.955 217.063 154.386C217.39 153.817 217.838 153.373 218.407 153.056C218.976 152.739 219.616 152.58 220.325 152.58C221.034 152.58 221.674 152.739 222.243 153.056C222.812 153.373 223.256 153.817 223.573 154.386C223.9 154.955 224.063 155.599 224.063 156.318C224.063 157.037 223.9 157.681 223.573 158.25C223.256 158.819 222.812 159.267 222.243 159.594C221.674 159.911 221.034 160.07 220.325 160.07ZM220.325 159.188C220.848 159.188 221.314 159.071 221.725 158.838C222.145 158.595 222.472 158.255 222.705 157.816C222.938 157.377 223.055 156.878 223.055 156.318C223.055 155.758 222.938 155.259 222.705 154.82C222.472 154.381 222.145 154.045 221.725 153.812C221.314 153.569 220.848 153.448 220.325 153.448C219.802 153.448 219.331 153.569 218.911 153.812C218.5 154.045 218.174 154.381 217.931 154.82C217.698 155.259 217.581 155.758 217.581 156.318C217.581 156.878 217.698 157.377 217.931 157.816C218.174 158.255 218.5 158.595 218.911 158.838C219.331 159.071 219.802 159.188 220.325 159.188ZM226.187 152.636H227.181V155.898H231.815V152.636H232.809V160H231.815V156.752H227.181V160H226.187V152.636ZM238.673 160.07C237.963 160.07 237.324 159.911 236.755 159.594C236.185 159.267 235.737 158.819 235.411 158.25C235.084 157.681 234.921 157.037 234.921 156.318C234.921 155.599 235.084 154.955 235.411 154.386C235.737 153.817 236.185 153.373 236.755 153.056C237.324 152.739 237.963 152.58 238.673 152.58C239.382 152.58 240.021 152.739 240.591 153.056C241.16 153.373 241.603 153.817 241.921 154.386C242.247 154.955 242.411 155.599 242.411 156.318C242.411 157.037 242.247 157.681 241.921 158.25C241.603 158.819 241.16 159.267 240.591 159.594C240.021 159.911 239.382 160.07 238.673 160.07ZM238.673 159.188C239.195 159.188 239.662 159.071 240.073 158.838C240.493 158.595 240.819 158.255 241.053 157.816C241.286 157.377 241.403 156.878 241.403 156.318C241.403 155.758 241.286 155.259 241.053 154.82C240.819 154.381 240.493 154.045 240.073 153.812C239.662 153.569 239.195 153.448 238.673 153.448C238.15 153.448 237.679 153.569 237.259 153.812C236.848 154.045 236.521 154.381 236.279 154.82C236.045 155.259 235.929 155.758 235.929 156.318C235.929 156.878 236.045 157.377 236.279 157.816C236.521 158.255 236.848 158.595 237.259 158.838C237.679 159.071 238.15 159.188 238.673 159.188ZM252.767 152.636V160H251.857V154.176L248.875 159.104H248.427L245.445 154.162V160H244.535V152.636H245.543L248.665 157.942L251.843 152.636H252.767ZM255.596 152.636H256.59V158.488L261.504 152.636H262.386V160H261.392V154.148L256.492 160H255.596V152.636ZM270.89 152.636V160H269.98V157.564H267.67H267.39L265.682 160H264.604L266.438 157.424C265.869 157.265 265.43 156.995 265.122 156.612C264.814 156.229 264.66 155.744 264.66 155.156C264.66 154.335 264.94 153.709 265.5 153.28C266.06 152.851 266.826 152.636 267.796 152.636H270.89ZM265.668 155.184C265.668 156.276 266.364 156.822 267.754 156.822H269.98V153.518H267.824C266.387 153.518 265.668 154.073 265.668 155.184ZM282.079 156.192C283.077 156.425 283.577 157.027 283.577 157.998C283.577 158.642 283.339 159.137 282.863 159.482C282.387 159.827 281.677 160 280.735 160H277.389V152.636H280.637C281.477 152.636 282.135 152.799 282.611 153.126C283.087 153.453 283.325 153.919 283.325 154.526C283.325 154.927 283.213 155.273 282.989 155.562C282.774 155.842 282.471 156.052 282.079 156.192ZM278.355 155.912H280.567C281.136 155.912 281.57 155.805 281.869 155.59C282.177 155.375 282.331 155.063 282.331 154.652C282.331 154.241 282.177 153.933 281.869 153.728C281.57 153.523 281.136 153.42 280.567 153.42H278.355V155.912ZM280.693 159.216C281.327 159.216 281.803 159.113 282.121 158.908C282.438 158.703 282.597 158.381 282.597 157.942C282.597 157.503 282.452 157.181 282.163 156.976C281.873 156.761 281.416 156.654 280.791 156.654H278.355V159.216H280.693ZM292.65 160.07C291.922 160.07 291.269 159.911 290.69 159.594C290.121 159.277 289.673 158.833 289.346 158.264C289.02 157.685 288.856 157.037 288.856 156.318C288.856 155.599 289.02 154.955 289.346 154.386C289.673 153.817 290.121 153.373 290.69 153.056C291.269 152.739 291.922 152.58 292.65 152.58C293.285 152.58 293.85 152.706 294.344 152.958C294.848 153.201 295.245 153.56 295.534 154.036L294.792 154.54C294.55 154.176 294.242 153.905 293.868 153.728C293.495 153.541 293.089 153.448 292.65 153.448C292.118 153.448 291.638 153.569 291.208 153.812C290.788 154.045 290.457 154.381 290.214 154.82C289.981 155.259 289.864 155.758 289.864 156.318C289.864 156.887 289.981 157.391 290.214 157.83C290.457 158.259 290.788 158.595 291.208 158.838C291.638 159.071 292.118 159.188 292.65 159.188C293.089 159.188 293.495 159.099 293.868 158.922C294.242 158.745 294.55 158.474 294.792 158.11L295.534 158.614C295.245 159.09 294.848 159.454 294.344 159.706C293.84 159.949 293.276 160.07 292.65 160.07ZM301.253 152.58C301.944 152.58 302.569 152.739 303.129 153.056C303.689 153.364 304.128 153.803 304.445 154.372C304.762 154.941 304.921 155.59 304.921 156.318C304.921 157.055 304.762 157.709 304.445 158.278C304.128 158.847 303.689 159.291 303.129 159.608C302.578 159.916 301.953 160.07 301.253 160.07C300.656 160.07 300.114 159.949 299.629 159.706C299.153 159.454 298.761 159.09 298.453 158.614V162.716H297.459V152.636H298.411V154.092C298.71 153.607 299.102 153.233 299.587 152.972C300.082 152.711 300.637 152.58 301.253 152.58ZM301.183 159.188C301.696 159.188 302.163 159.071 302.583 158.838C303.003 158.595 303.33 158.255 303.563 157.816C303.806 157.377 303.927 156.878 303.927 156.318C303.927 155.758 303.806 155.263 303.563 154.834C303.33 154.395 303.003 154.055 302.583 153.812C302.163 153.569 301.696 153.448 301.183 153.448C300.66 153.448 300.189 153.569 299.769 153.812C299.358 154.055 299.032 154.395 298.789 154.834C298.556 155.263 298.439 155.758 298.439 156.318C298.439 156.878 298.556 157.377 298.789 157.816C299.032 158.255 299.358 158.595 299.769 158.838C300.189 159.071 300.66 159.188 301.183 159.188ZM313.497 156.626H307.337C307.393 157.391 307.687 158.012 308.219 158.488C308.751 158.955 309.423 159.188 310.235 159.188C310.692 159.188 311.112 159.109 311.495 158.95C311.877 158.782 312.209 158.539 312.489 158.222L313.049 158.866C312.722 159.258 312.311 159.557 311.817 159.762C311.331 159.967 310.795 160.07 310.207 160.07C309.451 160.07 308.779 159.911 308.191 159.594C307.612 159.267 307.159 158.819 306.833 158.25C306.506 157.681 306.343 157.037 306.343 156.318C306.343 155.599 306.497 154.955 306.805 154.386C307.122 153.817 307.551 153.373 308.093 153.056C308.643 152.739 309.259 152.58 309.941 152.58C310.622 152.58 311.233 152.739 311.775 153.056C312.316 153.373 312.741 153.817 313.049 154.386C313.357 154.946 313.511 155.59 313.511 156.318L313.497 156.626ZM309.941 153.434C309.231 153.434 308.634 153.663 308.149 154.12C307.673 154.568 307.402 155.156 307.337 155.884H312.559C312.493 155.156 312.218 154.568 311.733 154.12C311.257 153.663 310.659 153.434 309.941 153.434ZM322.742 159.132V161.778H321.804V160H315.21V161.778H314.272V159.132H314.692C315.187 159.104 315.523 158.74 315.7 158.04C315.878 157.34 315.999 156.36 316.064 155.1L316.162 152.636H321.594V159.132H322.742ZM316.974 155.156C316.928 156.201 316.839 157.065 316.708 157.746C316.578 158.418 316.344 158.88 316.008 159.132H320.6V153.518H317.058L316.974 155.156ZM324.68 152.636H325.674V155.898H330.308V152.636H331.302V160H330.308V156.752H325.674V160H324.68V152.636ZM340.567 156.626H334.407C334.463 157.391 334.757 158.012 335.289 158.488C335.821 158.955 336.493 159.188 337.305 159.188C337.762 159.188 338.182 159.109 338.565 158.95C338.948 158.782 339.279 158.539 339.559 158.222L340.119 158.866C339.792 159.258 339.382 159.557 338.887 159.762C338.402 159.967 337.865 160.07 337.277 160.07C336.521 160.07 335.849 159.911 335.261 159.594C334.682 159.267 334.23 158.819 333.903 158.25C333.576 157.681 333.413 157.037 333.413 156.318C333.413 155.599 333.567 154.955 333.875 154.386C334.192 153.817 334.622 153.373 335.163 153.056C335.714 152.739 336.33 152.58 337.011 152.58C337.692 152.58 338.304 152.739 338.845 153.056C339.386 153.373 339.811 153.817 340.119 154.386C340.427 154.946 340.581 155.59 340.581 156.318L340.567 156.626ZM337.011 153.434C336.302 153.434 335.704 153.663 335.219 154.12C334.743 154.568 334.472 155.156 334.407 155.884H339.629C339.564 155.156 339.288 154.568 338.803 154.12C338.327 153.663 337.73 153.434 337.011 153.434ZM351.013 152.636V160H350.103V154.176L347.121 159.104H346.673L343.691 154.162V160H342.781V152.636H343.789L346.911 157.942L350.089 152.636H351.013ZM208.784 177.04C210.256 177.28 211.384 177.832 212.168 178.696C212.952 179.544 213.344 180.6 213.344 181.864C213.344 182.84 213.088 183.744 212.576 184.576C212.064 185.392 211.28 186.048 210.224 186.544C209.184 187.04 207.904 187.288 206.384 187.288C205.2 187.288 204.032 187.136 202.88 186.832C201.744 186.512 200.776 186.064 199.976 185.488L201.488 182.512C202.128 182.992 202.864 183.368 203.696 183.64C204.544 183.896 205.408 184.024 206.288 184.024C207.264 184.024 208.032 183.84 208.592 183.472C209.152 183.088 209.432 182.552 209.432 181.864C209.432 180.488 208.384 179.8 206.288 179.8H204.512V177.232L207.968 173.32H200.816V170.2H212.576V172.72L208.784 177.04ZM222.339 187.288C220.947 187.288 219.707 186.944 218.619 186.256C217.531 185.568 216.675 184.576 216.051 183.28C215.443 181.968 215.139 180.408 215.139 178.6C215.139 176.792 215.443 175.24 216.051 173.944C216.675 172.632 217.531 171.632 218.619 170.944C219.707 170.256 220.947 169.912 222.339 169.912C223.731 169.912 224.971 170.256 226.059 170.944C227.147 171.632 227.995 172.632 228.603 173.944C229.227 175.24 229.539 176.792 229.539 178.6C229.539 180.408 229.227 181.968 228.603 183.28C227.995 184.576 227.147 185.568 226.059 186.256C224.971 186.944 223.731 187.288 222.339 187.288ZM222.339 184C223.363 184 224.163 183.56 224.739 182.68C225.331 181.8 225.627 180.44 225.627 178.6C225.627 176.76 225.331 175.4 224.739 174.52C224.163 173.64 223.363 173.2 222.339 173.2C221.331 173.2 220.531 173.64 219.939 174.52C219.363 175.4 219.075 176.76 219.075 178.6C219.075 180.44 219.363 181.8 219.939 182.68C220.531 183.56 221.331 184 222.339 184ZM235.316 179.272C234.084 179.272 233.076 178.856 232.292 178.024C231.524 177.176 231.14 176.048 231.14 174.64C231.14 173.232 231.524 172.112 232.292 171.28C233.076 170.432 234.084 170.008 235.316 170.008C236.548 170.008 237.548 170.432 238.316 171.28C239.084 172.112 239.468 173.232 239.468 174.64C239.468 176.048 239.084 177.176 238.316 178.024C237.548 178.856 236.548 179.272 235.316 179.272ZM245.324 170.2H248.18L236.708 187H233.852L245.324 170.2ZM235.316 177.304C235.86 177.304 236.284 177.08 236.588 176.632C236.908 176.184 237.068 175.52 237.068 174.64C237.068 173.76 236.908 173.096 236.588 172.648C236.284 172.2 235.86 171.976 235.316 171.976C234.788 171.976 234.364 172.208 234.044 172.672C233.724 173.12 233.564 173.776 233.564 174.64C233.564 175.504 233.724 176.168 234.044 176.632C234.364 177.08 234.788 177.304 235.316 177.304ZM246.716 187.192C245.916 187.192 245.196 187.008 244.556 186.64C243.932 186.256 243.444 185.712 243.092 185.008C242.74 184.304 242.564 183.488 242.564 182.56C242.564 181.632 242.74 180.816 243.092 180.112C243.444 179.408 243.932 178.872 244.556 178.504C245.196 178.12 245.916 177.928 246.716 177.928C247.948 177.928 248.948 178.352 249.716 179.2C250.5 180.032 250.892 181.152 250.892 182.56C250.892 183.968 250.5 185.096 249.716 185.944C248.948 186.776 247.948 187.192 246.716 187.192ZM246.716 185.224C247.26 185.224 247.684 185 247.988 184.552C248.308 184.088 248.468 183.424 248.468 182.56C248.468 181.696 248.308 181.04 247.988 180.592C247.684 180.128 247.26 179.896 246.716 179.896C246.188 179.896 245.764 180.12 245.444 180.568C245.124 181.016 244.964 181.68 244.964 182.56C244.964 183.44 245.124 184.104 245.444 184.552C245.764 185 246.188 185.224 246.716 185.224Z" fill="white"/>
</svg>