<svg width="627" height="512" viewBox="0 0 627 512" fill="none" xmlns="http://www.w3.org/2000/svg">
<path d="M614.332 75.8517L474.503 6.79635C456.526 -2.0537 435.594 -2.30299 417.437 6.29776L36.4352 203.616C14.0553 215.583 0 239.453 0 265.504V415.581C0 424.369 4.88619 432.409 12.6076 436.211L152.497 505.204C170.474 514.054 191.406 514.303 209.563 505.702L306.985 459.832V459.956L308.915 458.959L320.075 453.724V453.038L590.565 308.446C612.945 296.48 627 272.609 627 246.558V96.481C626.94 87.6309 622.054 79.6534 614.332 75.8517Z" fill="url(#paint0_linear)"/>
<defs>
<linearGradient id="paint0_linear" x1="739.23" y1="-219.115" x2="201.5" y2="343.06" gradientUnits="userSpaceOnUse">
<stop stop-color="#011943"/>
<stop offset="0.538934" stop-color="#124F72"/>
<stop offset="0.9973" stop-color="#3EAAC0"/>
</linearGradient>
</defs>
</svg>
