<svg width="114" height="39" viewBox="0 0 114 39" fill="none" xmlns="http://www.w3.org/2000/svg">
<path d="M24.5492 17.6033C25.9003 17.6033 27 16.5815 27 15.3262H17.0083C16.6627 15.3262 16.317 15.2094 16.0342 15.0343C13.2692 13.1076 4.06303 8.20318 0.98382 0C0.418251 0.875784 -2.62954 6.50999 5.97968 12.2902C9.24741 14.4796 12.6723 16.202 16.1285 18.0411C16.2228 18.0995 16.2856 18.1871 16.2856 18.3039C16.2856 18.5082 16.0657 18.6542 15.8457 18.5958C14.6517 18.1579 8.43048 15.443 5.72832 14.1877C5.44553 14.0417 4.06303 13.4871 3.37178 13.1951C3.34036 13.8666 3.43462 14.9175 3.81167 15.5598C4.72286 17.1362 5.79116 17.7492 7.2365 18.3331C10.0643 19.5008 13.175 20.435 16.0342 21.3691C16.1599 21.4275 16.2856 21.5151 16.2856 21.6611V21.807C16.2856 21.9822 16.0971 22.1573 15.9086 22.0989C13.9919 21.6902 15.6572 22.0406 13.4892 21.5735C13.0807 21.4859 8.93321 20.3474 8.3048 20.2306C8.55616 20.902 8.80753 21.953 9.65588 22.7412C10.3157 23.3542 11.2269 23.7045 12.0438 23.8213C12.7979 23.9381 14.2433 24.1716 16.0028 24.4052C16.1599 24.4344 16.2856 24.4344 16.2856 24.5219V24.8139C16.2856 24.989 16.1285 25.135 15.94 25.1058C14.8403 24.989 13.6463 24.8723 12.578 24.7263C12.1695 24.6679 11.6982 24.5803 11.1955 24.4928C11.4154 24.989 11.9182 25.7772 12.6408 26.2151C13.2064 26.5363 13.8034 26.7406 14.4004 26.8282C15.0602 26.9158 15.4687 26.9158 16.0342 27.0033C16.1913 27.0325 16.317 27.0325 16.317 27.1493V27.2953C16.317 27.4412 16.1599 27.558 16.0028 27.5872C15.7515 27.5872 15.4687 27.6164 15.2173 27.6164C14.9974 27.6164 14.746 27.5872 14.5261 27.6456C14.6517 27.9959 14.9974 28.3462 15.2487 28.463C15.5944 28.6381 15.94 28.7549 16.2856 28.7841V33.0754H19.3962V25.8356H23.1667C24.5178 25.8356 25.6175 24.8139 25.6175 23.5586H19.3962V17.6616H24.5492V17.6033Z" fill="#0E4367"/>
<path d="M108.307 15.1788H103.726L98 15.2375C98 16.9391 99.5832 18.3474 101.503 18.3474H103.827V33.0754H108.408V18.23H110.463C112.417 18.23 114 16.7924 114 15.1201L108.307 15.1788Z" fill="#0E4367"/>
<path d="M28 31.3245V15.489C28.5647 15.262 29.1647 15.1201 29.7294 15.1201C30.7529 15.1201 31.3529 15.6593 31.3529 16.5674V31.0123C31.3529 31.5515 31.6706 31.8353 32.3059 31.8353C32.7647 31.8353 33.1529 31.7786 33.5412 31.6651L34 33.3962C33.2235 33.8219 32.3412 34.0205 31.3176 34.0205C29.2353 34.0205 28 33.0556 28 31.3245Z" fill="#0E4367"/>
<path d="M47 21.1887L41.5362 34.648C40.657 36.8106 39.1184 38.3472 37.2657 38.7456L36.0411 36.9814C37.2971 36.6968 38.4589 35.6724 39.0242 34.2212L39.558 32.9123C38.9928 32.77 38.6473 32.4001 38.4589 31.8879L34 21.2171C34.4082 20.9895 35.099 20.7903 35.6957 20.7903C36.4493 20.7903 37.1401 21.1033 37.5483 22.1277L39.715 27.5911L40.7512 30.8919L41.7246 27.5911L44.2053 20.7903L47 21.1887Z" fill="#0E4367"/>
<path d="M64 20.7841C64 24.4335 60.9803 26.5648 55.8271 26.5648C55.105 26.5648 54.3173 26.5356 53.4639 26.5064V33.0754H49V15.3537C50.9694 15.2077 54.3501 15.1201 55.8928 15.1201C60.9475 15.1201 64 17.2222 64 20.7841ZM59.3392 20.7841C59.3392 19.1491 58.0263 18.1857 55.8271 18.1857C55.1707 18.1857 54.3501 18.2149 53.4311 18.2441V23.4993C54.2516 23.4993 55.0722 23.5285 55.7943 23.5285C58.0919 23.5285 59.3392 22.4774 59.3392 20.7841Z" fill="#0E4367"/>
<path d="M65 24.0978C65 18.458 68.5185 15.1201 74.5 15.1201C80.4495 15.1201 84 18.4292 84 24.0978C84 29.7376 80.4815 33.0754 74.5 33.0754C68.5185 33.0754 65 29.7376 65 24.0978ZM79.4259 24.0978C79.4259 20.4146 77.6027 18.2278 74.468 18.2278C71.3333 18.2278 69.4781 20.4146 69.4781 24.0978C69.4781 27.7809 71.3333 29.9678 74.468 29.9678C77.6027 29.9678 79.4259 27.7809 79.4259 24.0978Z" fill="#0E4367"/>
<path d="M97.5568 16.8205C96.7 18.1751 95.0159 18.8092 93.4205 18.4345C92.9182 18.3192 92.3864 18.2328 91.8545 18.2328C90.4955 18.2328 89.6682 18.8092 89.6682 19.7314C89.6682 20.9707 91.1159 21.4607 92.8591 22.0659C95.2227 22.9017 98 23.9393 98 27.4266C98 31.0292 95.4591 33.0754 91.1455 33.0754C88.7818 33.0754 86.5955 32.4126 85 31.2597C85.6205 29.9052 87.1568 29.2135 88.6045 29.617C89.4318 29.8475 90.3477 29.9628 91.3523 29.9628C92.9773 29.9628 93.9227 29.2999 93.9227 28.2047C93.9227 26.8213 92.475 26.3026 90.8205 25.755C88.4568 24.948 85.5909 23.9681 85.5909 20.279C85.5909 16.9358 87.8955 15.1201 91.7955 15.1201C93.7455 15.1201 95.8432 15.6965 97.5568 16.8205Z" fill="#0E4367"/>
</svg>
