<svg width="300" height="108" viewBox="0 0 300 108" fill="none" xmlns="http://www.w3.org/2000/svg">
<path d="M64.5553 48.9638C68.1082 48.9638 71 46.1218 71 42.6302H44.7255C43.8166 42.6302 42.9077 42.3054 42.1641 41.8182C34.8932 36.4589 10.6843 22.8173 2.58708 0C1.09984 2.43601 -6.91471 18.1077 15.7243 34.1853C24.3173 40.2754 33.3233 45.0662 42.412 50.1818C42.6599 50.3442 42.8251 50.5878 42.8251 50.9126C42.8251 51.481 42.2467 51.887 41.6684 51.7246C38.5286 50.5066 22.169 42.955 15.0633 39.4634C14.3197 39.0574 10.6843 37.5146 8.86653 36.7026C8.7839 38.5702 9.03178 41.4934 10.0233 43.2798C12.4194 47.6646 15.2286 49.3698 19.0293 50.9938C26.4655 54.2418 34.6453 56.8402 42.1641 59.4387C42.4946 59.6011 42.8251 59.8447 42.8251 60.2507V60.6567C42.8251 61.1439 42.3294 61.6311 41.8336 61.4687C36.7935 60.3319 41.1726 61.3063 35.4715 60.0071C34.3974 59.7635 23.491 56.5966 21.8385 56.2718C22.4995 58.1395 23.1605 61.0627 25.3914 63.2551C27.1265 64.9603 29.5226 65.9347 31.6708 66.2595C33.6538 66.5843 37.4545 67.2339 42.0815 67.8835C42.4946 67.9647 42.8251 67.9647 42.8251 68.2083V69.0203C42.8251 69.5075 42.412 69.9135 41.9162 69.8323C39.0244 69.5075 35.8847 69.1827 33.0755 68.7767C32.0013 68.6143 30.762 68.3707 29.44 68.1271C30.0184 69.5075 31.3403 71.6999 33.2407 72.9179C34.7279 73.8111 36.2978 74.3795 37.8677 74.6231C39.6028 74.8667 40.6769 74.8667 42.1641 75.1103C42.5772 75.1915 42.9077 75.1915 42.9077 75.5163V75.9223C42.9077 76.3283 42.4946 76.6531 42.0815 76.7343C41.4205 76.7343 40.6769 76.8155 40.0159 76.8155C39.4375 76.8155 38.7765 76.7343 38.1982 76.8967C38.5287 77.8711 39.4375 78.8455 40.0985 79.1703C41.0074 79.6575 41.9163 79.9823 42.8251 80.0635V92H51.0049V71.8623H60.9198C64.4727 71.8623 67.3645 69.0203 67.3645 65.5287H51.0049V49.1262H64.5553V48.9638Z" fill="white"/>
<path d="M169 57.7724C169 67.935 160.947 73.8699 147.206 73.8699C145.28 73.8699 143.179 73.7886 140.904 73.7073V92H129V42.6504C134.252 42.2439 143.267 42 147.381 42C160.86 42 169 47.8537 169 57.7724ZM156.571 57.7724C156.571 53.2195 153.07 50.5366 147.206 50.5366C145.455 50.5366 143.267 50.6179 140.816 50.6992V65.3333C143.004 65.3333 145.193 65.4146 147.118 65.4146C153.245 65.4146 156.571 62.4878 156.571 57.7724Z" fill="white"/>
<path d="M171 67C171 51.2949 180.259 42 196 42C211.657 42 221 51.2148 221 67C221 82.7051 211.741 92 196 92C180.259 92 171 82.7051 171 67ZM208.963 67C208.963 56.7436 204.165 50.6539 195.916 50.6539C187.667 50.6539 182.785 56.7436 182.785 67C182.785 77.2564 187.667 83.3462 195.916 83.3462C204.165 83.3462 208.963 77.2564 208.963 67Z" fill="white"/>
<path d="M256.841 46.7351C254.6 50.5072 250.195 52.2729 246.023 51.2295C244.709 50.9085 243.318 50.6677 241.927 50.6677C238.373 50.6677 236.209 52.2729 236.209 54.8411C236.209 58.2921 239.995 59.6565 244.555 61.3419C250.736 63.6693 258 66.5586 258 76.2697C258 86.3018 251.355 92 240.073 92C233.891 92 228.173 90.1541 224 86.9438C225.623 83.1717 229.641 81.2456 233.427 82.3692C235.591 83.0112 237.986 83.3322 240.614 83.3322C244.864 83.3322 247.336 81.4863 247.336 78.4366C247.336 74.5843 243.55 73.1396 239.223 71.6148C233.041 69.3676 225.545 66.6388 225.545 56.366C225.545 47.0562 231.573 42 241.773 42C246.873 42 252.359 43.6051 256.841 46.7351Z" fill="white"/>
<path d="M285.057 42.1634H273.032L258 42.3268C258 47.0654 262.156 50.9869 267.196 50.9869H273.297V92H285.322V50.6601H290.716C295.844 50.6601 300 46.6569 300 42L285.057 42.1634Z" fill="white"/>
<path d="M74 87.4399V43.0345C75.5059 42.3979 77.1059 42 78.6118 42C81.3412 42 82.9412 43.512 82.9412 46.0585V86.5646C82.9412 88.0766 83.7882 88.8724 85.4824 88.8724C86.7059 88.8724 87.7412 88.7132 88.7765 88.3949L90 93.2493C87.9294 94.443 85.5765 95 82.8471 95C77.2941 95 74 92.2943 74 87.4399Z" fill="white"/>
<path d="M124 59.1094L109.71 96.5895C107.411 102.612 103.386 106.891 98.5411 108L95.3382 103.087C98.6232 102.295 101.662 99.4422 103.14 95.401L104.536 91.7559C103.058 91.3597 102.155 90.3296 101.662 88.9033L90 59.1886C91.0676 58.5547 92.8744 58 94.4348 58C96.4058 58 98.2126 58.8716 99.2802 61.7243L104.947 76.9382L107.657 86.1299L110.203 76.9382L116.691 58L124 59.1094Z" fill="white"/>
</svg>
