<svg width="114" height="41" viewBox="0 0 114 41" fill="none" xmlns="http://www.w3.org/2000/svg">
<path d="M24.5492 18.6275C25.9003 18.6275 27 17.5463 27 16.218H17.0083C16.6627 16.218 16.317 16.0944 16.0342 15.9091C13.2692 13.8703 4.06303 8.68049 0.98382 0C0.418251 0.926743 -2.62954 6.88879 5.97968 13.0053C9.24741 15.3221 12.6723 17.1447 16.1285 19.0909C16.2228 19.1527 16.2856 19.2454 16.2856 19.3689C16.2856 19.5852 16.0657 19.7396 15.8457 19.6778C14.6517 19.2145 8.43048 16.3416 5.72832 15.0132C5.44553 14.8588 4.06303 14.2718 3.37178 13.9629C3.34036 14.6734 3.43462 15.7855 3.81167 16.4651C4.72286 18.1333 5.79116 18.782 7.2365 19.3998C10.0643 20.6355 13.175 21.624 16.0342 22.6125C16.1599 22.6743 16.2856 22.767 16.2856 22.9214V23.0759C16.2856 23.2613 16.0971 23.4466 15.9086 23.3848C13.9919 22.9523 15.6572 23.323 13.4892 22.8288C13.0807 22.7361 8.93321 21.5313 8.3048 21.4078C8.55616 22.1183 8.80753 23.2304 9.65588 24.0644C10.3157 24.7132 11.2269 25.0838 12.0438 25.2074C12.7979 25.331 14.2433 25.5781 16.0028 25.8252C16.1599 25.8561 16.2856 25.8561 16.2856 25.9488V26.2577C16.2856 26.4431 16.1285 26.5975 15.94 26.5666C14.8403 26.4431 13.6463 26.3195 12.578 26.165C12.1695 26.1033 11.6982 26.0106 11.1955 25.9179C11.4154 26.4431 11.9182 27.2771 12.6408 27.7405C13.2064 28.0803 13.8034 28.2966 14.4004 28.3892C15.0602 28.4819 15.4687 28.4819 16.0342 28.5746C16.1913 28.6055 16.317 28.6055 16.317 28.729V28.8835C16.317 29.0379 16.1599 29.1615 16.0028 29.1924C15.7515 29.1924 15.4687 29.2233 15.2173 29.2233C14.9974 29.2233 14.746 29.1924 14.5261 29.2542C14.6517 29.6249 14.9974 29.9956 15.2487 30.1191C15.5944 30.3045 15.94 30.4281 16.2856 30.459V35H19.3962V27.3389H23.1667C24.5178 27.3389 25.6175 26.2577 25.6175 24.9294H19.3962V18.6893H24.5492V18.6275Z" fill="#0E4166"/>
<path d="M64 21.9935C64 25.8553 60.9803 28.1106 55.8271 28.1106C55.105 28.1106 54.3173 28.0797 53.4639 28.0488V35H49V16.2472C50.9694 16.0927 54.3501 16 55.8928 16C60.9475 16 64 18.2244 64 21.9935ZM59.3392 21.9935C59.3392 20.2634 58.0263 19.2439 55.8271 19.2439C55.1707 19.2439 54.3501 19.2748 53.4311 19.3057V24.8667C54.2516 24.8667 55.0722 24.8976 55.7943 24.8976C58.0919 24.8976 59.3392 23.7854 59.3392 21.9935Z" fill="#0E4166"/>
<path d="M65 25.5C65 19.5321 68.5185 16 74.5 16C80.4495 16 84 19.5016 84 25.5C84 31.468 80.4815 35 74.5 35C68.5185 35 65 31.468 65 25.5ZM79.4259 25.5C79.4259 21.6026 77.6027 19.2885 74.468 19.2885C71.3333 19.2885 69.4781 21.6026 69.4781 25.5C69.4781 29.3974 71.3333 31.7115 74.468 31.7115C77.6027 31.7115 79.4259 29.3974 79.4259 25.5Z" fill="#0E4166"/>
<path d="M97.5568 17.7994C96.7 19.2327 95.0159 19.9037 93.4205 19.5072C92.9182 19.3852 92.3864 19.2937 91.8545 19.2937C90.4955 19.2937 89.6682 19.9037 89.6682 20.8796C89.6682 22.191 91.1159 22.7095 92.8591 23.3499C95.2227 24.2343 98 25.3323 98 29.0225C98 32.8347 95.4591 35 91.1455 35C88.7818 35 86.5955 34.2985 85 33.0786C85.6205 31.6453 87.1568 30.9133 88.6045 31.3403C89.4318 31.5843 90.3477 31.7063 91.3523 31.7063C92.9773 31.7063 93.9227 31.0048 93.9227 29.8459C93.9227 28.382 92.475 27.8331 90.8205 27.2536C88.4568 26.3997 85.5909 25.3628 85.5909 21.4591C85.5909 17.9213 87.8955 16 91.7955 16C93.7455 16 95.8432 16.6099 97.5568 17.7994Z" fill="#0E4166"/>
<path d="M108.307 16.0621H103.726L98 16.1242C98 17.9248 99.5832 19.415 101.503 19.415H103.827V35H108.408V19.2909H110.463C112.417 19.2909 114 17.7696 114 16L108.307 16.0621Z" fill="#0E4166"/>
<path d="M28 33.1471V16.3904C28.5647 16.1501 29.1647 16 29.7294 16C30.7529 16 31.3529 16.5706 31.3529 17.5315V32.8168C31.3529 33.3874 31.6706 33.6877 32.3059 33.6877C32.7647 33.6877 33.1529 33.6276 33.5412 33.5075L34 35.3393C33.2235 35.7898 32.3412 36 31.3176 36C29.2353 36 28 34.979 28 33.1471Z" fill="#0E4166"/>
<path d="M47 22.4216L41.5362 36.664C40.657 38.9525 39.1184 40.5784 37.2657 41L36.0411 39.1331C37.2971 38.832 38.4589 37.748 39.0242 36.2124L39.558 34.8273C38.9928 34.6767 38.6473 34.2853 38.4589 33.7433L34 22.4517C34.4082 22.2108 35.099 22 35.6957 22C36.4493 22 37.1401 22.3312 37.5483 23.4152L39.715 29.1965L40.7512 32.6894L41.7246 29.1965L44.2053 22L47 22.4216Z" fill="#0E4166"/>
</svg>
