<svg width="55" height="54" viewBox="0 0 55 54" fill="none" xmlns="http://www.w3.org/2000/svg">
<path d="M23.1773 29.7054C23.1773 31.2693 21.9101 32.5276 20.3554 32.5276C18.7917 32.5276 17.5335 31.2603 17.5335 29.7054C17.5335 28.1415 18.8007 26.8832 20.3554 26.8832C21.9191 26.8832 23.1773 28.1415 23.1773 29.7054ZM34.6446 26.8832C33.0809 26.8832 31.8227 28.1505 31.8227 29.7054C31.8227 31.2693 33.0899 32.5276 34.6446 32.5276C36.1993 32.5276 37.4665 31.2603 37.4665 29.7054C37.4665 28.1415 36.1993 26.8832 34.6446 26.8832ZM55 28.1325V33.4983C55 36.1947 52.8162 38.3788 50.1201 38.3788H46.5792C43.0743 48.1218 34.1144 54 27.5 54C20.8856 54 11.9257 48.1218 8.42075 38.3788H4.8799C2.18382 38.3788 0 36.1947 0 33.4983V28.1325C0 26.281 1.0335 24.6631 2.56127 23.8362C2.6152 16.2144 4.83497 10.2643 9.17565 6.1478C13.4714 2.06724 19.6364 0 27.5 0C35.3636 0 41.5286 2.06724 45.8333 6.1478C50.174 10.2643 52.3938 16.2144 52.4477 23.8362C53.9665 24.6631 55 26.272 55 28.1325ZM44.674 29.7234C44.674 28.465 44.6111 27.2876 44.5123 26.1461C42.3464 24.1688 38.4191 22.6588 33.4583 22.1015C34.1054 22.8296 34.6716 23.8003 35.0131 25.0676C31.9755 22.6768 26.0082 23.243 21.4967 17.8862C21.2361 17.5895 21.0114 17.3019 20.8227 17.0413L20.8137 17.0323C20.0139 15.9447 19.7353 15.2976 19.7263 16.0166C19.5915 22.1734 15.2328 26.973 10.3799 27.6561C10.3529 28.3302 10.326 29.0133 10.326 29.7324C10.326 32.3389 10.7484 34.7117 11.4763 36.8419C14.1993 40.1225 18.6928 41.0573 22.674 41.2999C23.4109 40.1225 25.0735 39.3046 26.9967 39.3046C29.6119 39.3046 31.7328 40.8146 31.7328 42.6661C31.7328 44.5266 29.6119 46.0276 26.9967 46.0276C24.9837 46.0276 23.2672 45.1378 22.5842 43.8795C19.8072 43.7177 16.7426 43.2413 14.0196 41.9561C17.848 47.6005 23.7884 50.5935 27.5 50.5935C33.3325 50.5846 44.674 43.2234 44.674 29.7234ZM49.509 23.252C49.1944 9.94973 41.6095 2.93009 27.5 2.93009C13.3905 2.93009 5.80556 9.94973 5.49101 23.252H7.36928C8.05229 18.767 9.50817 15.0819 11.71 12.2507C15.2239 7.72969 20.5351 5.43775 27.5 5.43775C34.4649 5.43775 39.7761 7.72969 43.29 12.2507C45.4918 15.0819 46.9387 18.767 47.6307 23.252H49.509Z" fill="#3FADC2"/>
</svg>
