<svg width="29" height="29" viewBox="0 0 29 29" fill="none" xmlns="http://www.w3.org/2000/svg">
<g clip-path="url(#clip0)">
<path d="M20.4444 0H8.51737C3.95996 0 0.252899 3.70202 0.252899 8.25322V20.1585C0.252899 24.7153 3.95996 28.4173 8.51737 28.4173H20.4389C24.9963 28.4173 28.7034 24.7153 28.7034 20.1641V8.25322C28.7089 3.70202 25.0019 0 20.4444 0ZM26.4858 20.1641C26.4858 23.4942 23.7736 26.1972 20.4444 26.1972H8.51737C5.18824 26.1972 2.47603 23.4886 2.47603 20.1641V8.25322C2.47603 4.92862 5.18824 2.2201 8.51737 2.2201H20.4389C23.7736 2.2201 26.4802 4.92862 26.4802 8.25322V20.1641H26.4858Z" fill="white"/>
<path d="M14.4809 6.54932C10.2514 6.54932 6.81113 9.98492 6.81113 14.2087C6.81113 18.4324 10.2514 21.868 14.4809 21.868C18.7104 21.868 22.1507 18.4324 22.1507 14.2087C22.1507 9.98492 18.7104 6.54932 14.4809 6.54932ZM14.4809 19.6479C11.4797 19.6479 9.03425 17.2058 9.03425 14.2087C9.03425 11.2115 11.4797 8.76942 14.4809 8.76942C17.4821 8.76942 19.9276 11.2115 19.9276 14.2087C19.9276 17.2058 17.4821 19.6479 14.4809 19.6479Z" fill="white"/>
<ellipse cx="22.259" cy="6.55788" rx="1.45928" ry="1.4573" fill="white"/>
</g>
<defs>
<clipPath id="clip0">
<rect width="28.456" height="28.4173" fill="white" transform="translate(0.252899)"/>
</clipPath>
</defs>
</svg>
