<svg width="72" height="54" viewBox="0 0 72 54" fill="none" xmlns="http://www.w3.org/2000/svg">
<path d="M71.6625 14.9083L57.6984 0.782403C57.2484 0.327187 56.5172 0.327187 56.0672 0.782403L49.0922 7.85248C48.8813 8.06586 48.7547 8.36459 48.7547 8.67756C48.7547 8.99052 48.8813 9.27503 49.0922 9.50264L49.7953 10.2139L48.1922 11.8356C47.1516 12.8883 45.5344 13.1728 44.1844 12.5469C42.9047 11.9636 41.4844 11.6507 40.0781 11.6507C38.4047 11.6507 36.7734 12.0774 35.325 12.8741C34.7203 12.7176 34.1016 12.6465 33.4688 12.6465C32.5687 12.6465 31.6687 12.8029 30.825 13.1159C29.4609 13.6138 28.0125 13.3008 27.0281 12.3051L24.1453 9.38883L24.4828 9.04742C24.6938 8.83404 24.8203 8.5353 24.8203 8.22234C24.8203 7.90938 24.6938 7.62487 24.4828 7.39726L17.5078 0.341412C17.0578 -0.113804 16.3266 -0.113804 15.8766 0.341412L0.3375 16.0606C-0.1125 16.5158 -0.1125 17.2555 0.3375 17.7107L7.3125 24.7666C7.52344 24.98 7.81875 25.108 8.12813 25.108C8.4375 25.108 8.71875 24.98 8.94375 24.7666L9.36562 24.3398L11.3906 26.4025C11.8969 26.9146 12.2344 27.569 12.375 28.2661C13.05 31.922 14.7797 35.2366 17.3813 37.8683L17.7609 38.2524C17.0297 39.0348 16.6219 40.0448 16.6219 41.1259C16.6219 42.2497 17.0578 43.3024 17.8313 44.0848C18.6328 44.8957 19.7016 45.3082 20.7563 45.3082C20.8266 45.3082 20.8969 45.3082 20.9672 45.3082C20.9109 46.4463 21.3188 47.6128 22.1766 48.4805C22.9641 49.2771 23.9906 49.7039 25.1016 49.7039C25.1297 49.7039 25.1578 49.7039 25.2 49.7039C25.1719 50.7993 25.5797 51.9231 26.4094 52.7624C27.1969 53.559 28.2234 53.9858 29.3344 53.9858C30.4453 53.9858 31.4859 53.5448 32.2594 52.7624C32.3297 52.6913 32.3859 52.6201 32.4422 52.5632C32.85 52.7055 33.2859 52.7766 33.7219 52.7766C34.7625 52.7766 35.7328 52.3641 36.45 51.6243C36.8438 51.226 37.125 50.7708 37.3219 50.2729L37.4344 50.3867C38.1938 51.1549 39.1781 51.5248 40.1625 51.5248C41.1469 51.5248 42.1453 51.1407 42.8906 50.3867C43.2844 49.9884 43.5938 49.5047 43.7766 48.9784C44.4516 49.4763 45.2531 49.7181 46.0547 49.7181C47.0391 49.7181 48.0375 49.334 48.7828 48.5801C49.5141 47.8404 49.9078 46.8588 49.9078 45.8203C49.9078 45.5074 49.8656 45.1944 49.7953 44.8957C50.5266 44.7392 51.2016 44.3836 51.75 43.8288C52.4813 43.089 52.875 42.1075 52.875 41.069C52.875 40.2439 52.6219 39.4615 52.1578 38.8072L53.0859 37.8683C55.7156 35.2081 57.4594 31.8367 58.1063 28.138C58.2188 27.5121 58.5141 26.9431 58.9781 26.4737L62.4094 23.0026L63.0141 23.6143C63.2391 23.8419 63.5344 23.9557 63.8297 23.9557C64.125 23.9557 64.4203 23.8419 64.6453 23.6143L71.6203 16.5443C71.8312 16.3309 71.9578 16.0321 71.9578 15.7192C71.9578 15.4062 71.8734 15.1359 71.6625 14.9083ZM8.12813 22.3056L2.77031 16.8857L16.6922 2.80242L22.05 8.22234L8.12813 22.3056ZM22.05 42.4631C21.3328 43.1886 20.1656 43.1886 19.4484 42.4631C19.0969 42.1075 18.9141 41.638 18.9141 41.1544C18.9141 40.6565 19.1109 40.187 19.4484 39.8456C19.8 39.49 20.2781 39.3051 20.7422 39.3051C21.2062 39.3051 21.6844 39.49 22.0359 39.8456C22.7672 40.5569 22.7672 41.7376 22.05 42.4631ZM26.3953 46.8446C26.0437 47.2002 25.5797 47.3851 25.1016 47.3851C24.6094 47.3851 24.1453 47.186 23.8078 46.8446C23.0906 46.1191 23.0906 44.9384 23.8078 44.2129C24.1594 43.8572 24.6375 43.6723 25.1016 43.6723C25.5656 43.6723 26.0437 43.8572 26.3953 44.2129C27.1125 44.9384 27.1125 46.1191 26.3953 46.8446ZM30.6141 51.1264C30.2625 51.4821 29.7984 51.667 29.3203 51.667C28.8281 51.667 28.3641 51.4679 28.0266 51.1264C27.3094 50.4009 27.3094 49.2202 28.0266 48.4947C28.3781 48.1391 28.8563 47.9542 29.3203 47.9542C29.7844 47.9542 30.2625 48.1391 30.6141 48.4947C31.3312 49.2202 31.3312 50.4009 30.6141 51.1264ZM50.1469 42.1928C49.8516 42.4916 49.4578 42.6623 49.0359 42.6623C48.6141 42.6623 48.2203 42.4916 47.925 42.1928L36.7734 30.912C36.3234 30.4568 35.5922 30.4568 35.1422 30.912C34.6922 31.3672 34.6922 32.107 35.1422 32.5622L47.1656 44.7107C47.4609 45.0095 47.6297 45.4078 47.6297 45.8346C47.6297 46.2613 47.4609 46.6596 47.1656 46.9584C46.5609 47.5701 45.5625 47.5701 44.9438 46.9584L42.9188 44.9099C42.9047 44.8957 42.8906 44.8815 42.8906 44.8815C42.8906 44.8815 42.8766 44.8815 42.8766 44.8672L33.5672 35.4215C33.1172 34.9663 32.3859 34.9663 31.9359 35.4215C31.4859 35.8767 31.4859 36.6164 31.9359 37.0717L41.2875 46.5316C41.5688 46.8303 41.7375 47.2144 41.7375 47.6412C41.7375 48.068 41.5687 48.4663 41.2734 48.765C40.6688 49.3767 39.6703 49.3767 39.0656 48.765L28.9266 38.5084C28.4766 38.0532 27.7453 38.0532 27.2953 38.5084C26.8453 38.9636 26.8453 39.7034 27.2953 40.1586L34.8047 47.755C35.1 48.0537 35.2687 48.4521 35.2687 48.8788C35.2687 49.3056 35.1 49.7039 34.8047 50.0026C34.5094 50.3014 34.1156 50.4721 33.6938 50.4721C33.5953 50.4721 33.4969 50.4579 33.3984 50.4436C33.5812 49.1776 33.2016 47.8404 32.2313 46.8588C31.4438 46.0622 30.4172 45.6354 29.3062 45.6354C29.2781 45.6354 29.25 45.6354 29.2078 45.6354C29.2359 44.54 28.8281 43.4162 27.9984 42.5769C27.2109 41.7803 26.1844 41.3535 25.0734 41.3535C25.0031 41.3535 24.9328 41.3535 24.8625 41.3535C24.9188 40.2155 24.5109 39.049 23.6531 38.1812C22.6125 37.1286 21.1359 36.7587 19.8 37.0717L18.9703 36.2323C16.7062 33.942 15.1875 31.04 14.5969 27.8393C14.3859 26.6728 13.8234 25.6059 12.9797 24.7524L10.9547 22.7039L22.4859 11.039L25.3969 13.941C26.5078 15.0648 28.0125 15.6623 29.5453 15.6623C30.2344 15.6623 30.9375 15.5485 31.5984 15.2924C31.9219 15.1786 32.2594 15.0933 32.5969 15.0364L25.4812 22.2345C24.6094 23.1164 24.1313 24.2829 24.1313 25.5348C24.1313 26.7866 24.6094 27.9531 25.4812 28.8351C26.3813 29.7455 27.5625 30.2007 28.7437 30.2007C29.925 30.2007 31.1063 29.7455 32.0063 28.8351L35.5781 25.2218L36.5484 26.2034L36.5906 26.246L36.6328 26.2887C36.6469 26.303 36.6609 26.3172 36.6609 26.3172L50.1469 39.9594C50.4422 40.2582 50.6109 40.6565 50.6109 41.0832C50.6109 41.4958 50.4422 41.8941 50.1469 42.1928ZM57.3891 24.8377C56.5875 25.6486 56.0672 26.6444 55.8703 27.7397C55.2937 30.9689 53.775 33.9136 51.4828 36.2323L50.5969 37.1286L43.3266 29.774C43.4813 29.7882 43.65 29.7882 43.8047 29.7882C44.5359 29.7882 45.2953 29.6602 46.0406 29.3472C46.6312 29.1054 46.9125 28.4226 46.6734 27.8251C46.4344 27.2276 45.7594 26.9431 45.1688 27.1849C42.2156 28.4083 38.6578 25.0369 38.2641 24.6386L38.25 24.6243L38.2078 24.5817L38.1656 24.539L37.1953 23.5574L38.2922 22.4478C38.7422 21.9926 38.7422 21.2529 38.2922 20.7977C37.8422 20.3425 37.1109 20.3425 36.6609 20.7977L34.7484 22.7324L30.3609 27.1707C29.4609 28.0811 27.9984 28.0811 27.0844 27.1707C26.6484 26.7297 26.4094 26.1465 26.4094 25.5205C26.4094 24.8946 26.6484 24.3114 27.0844 23.8704L34.6641 16.2028C35.0859 15.7761 35.55 15.4062 36.0562 15.0933C37.2516 14.3393 38.6297 13.9552 40.05 13.9552C41.1328 13.9552 42.2156 14.1971 43.2 14.638C45.4219 15.6623 48.0797 15.1786 49.7953 13.4573L51.3984 11.8356L60.8062 21.3525L57.3891 24.8377ZM63.8719 21.1533L51.525 8.67756L56.8828 3.25764L69.2156 15.7334L63.8719 21.1533Z" fill="#3FADC2"/>
<path d="M65.025 17.7961C65.6619 17.7961 66.1781 17.2738 66.1781 16.6296C66.1781 15.9853 65.6619 15.4631 65.025 15.4631C64.3882 15.4631 63.8719 15.9853 63.8719 16.6296C63.8719 17.2738 64.3882 17.7961 65.025 17.7961Z" fill="#3FADC2"/>
<path d="M7.53751 18.9484C8.17436 18.9484 8.69063 18.4261 8.69063 17.7819C8.69063 17.1377 8.17436 16.6154 7.53751 16.6154C6.90066 16.6154 6.38438 17.1377 6.38438 17.7819C6.38438 18.4261 6.90066 18.9484 7.53751 18.9484Z" fill="#3FADC2"/>
</svg>
