<svg width="66" height="83" viewBox="0 0 66 83" fill="none" xmlns="http://www.w3.org/2000/svg">
<g clip-path="url(#clip0)">
<path d="M20.3077 33.3712L27.9231 32.0876L30.4615 26.098L33 24.8145L35.1154 26.098L37.6539 32.0876L45.5633 33.3712L46.5385 36.7938L41.4615 42.3557L42.7308 49.6289L39.7692 51.3402L33 48.3454L26.6539 51.7681L23.6923 49.6289L24.5385 42.3557L22 39.7887L19.4615 35.5103L20.3077 33.3712Z" fill="white"/>
<path d="M59.1564 18.4127L59.1208 18.3974C59.2423 18.4604 59.3936 18.506 59.5772 18.506V17.506V17.5058C59.5714 17.5011 59.3338 17.4016 58.908 17.2252C58.7688 17.5492 58.7213 17.9171 58.8473 18.1887C58.8497 18.1912 58.8521 18.1938 58.8545 18.1963C58.9302 18.2676 59.0379 18.3479 59.0677 18.3663C59.0772 18.3717 59.0902 18.379 59.101 18.3849C59.1081 18.3888 59.1142 18.3921 59.1178 18.394L59.1386 18.4043C59.1471 18.4085 59.1538 18.4115 59.1564 18.4127ZM59.1564 18.4127C59.1578 18.4133 59.158 18.4134 59.1565 18.4127L59.1564 18.4127ZM7.30198 17.6647C7.43795 17.6123 7.59351 17.5523 7.76705 17.4851C8.4782 17.2098 9.49727 16.8133 10.7226 16.3356C13.1736 15.3799 16.4528 14.0979 19.751 12.8078C21.1914 12.2443 22.6354 11.6794 24.0157 11.1393C25.7964 10.4426 27.471 9.78741 28.8953 9.23042C30.1595 8.73606 31.226 8.31925 31.9941 8.01965C32.3781 7.86983 32.6871 7.74949 32.9087 7.66349C32.9097 7.6631 32.9107 7.66272 32.9116 7.66234C34.4214 8.26886 40.5503 10.7737 46.5211 13.2195C49.7486 14.5416 52.9251 15.8444 55.2907 16.8166C56.4736 17.3028 57.4533 17.7061 58.1351 17.9877C58.31 18.06 58.465 18.1241 58.5987 18.1795C58.6037 18.5262 58.6079 19.0034 58.6115 19.586C58.6193 20.8706 58.6237 22.6564 58.625 24.6582C58.6275 28.6616 58.6174 33.5227 58.5973 36.9536V36.9594C58.5973 43.6551 57.9182 51.6301 54.3616 58.7379C50.8522 65.751 44.4993 72.0047 32.9792 75.3098C21.3935 72.0038 15.0283 65.8222 11.5217 58.8488C7.96701 51.7798 7.30198 43.8027 7.30198 36.9389V17.6647ZM45.9491 37.6456L46.0091 37.5856L46.058 37.5163C46.5235 36.8581 46.8966 35.8588 46.5083 34.8259C46.173 33.7842 45.2787 33.1173 44.2659 32.9405L44.2521 32.9381L44.2383 32.9361L38.1606 32.0494L35.532 26.584L35.5275 26.5746L35.5228 26.5653C35.0341 25.6014 34.0697 24.9925 32.9798 24.9925C31.9056 24.9925 30.9266 25.5679 30.4312 26.5767L30.4312 26.5766L30.4276 26.584L27.7991 32.0494L21.7214 32.9361L21.7051 32.9384L21.6889 32.9414C20.7097 33.1173 19.766 33.7839 19.4573 34.8711C19.1672 35.8079 19.3523 36.9336 20.1679 37.6826L24.5986 42.137L23.5387 48.3468C23.3425 49.4291 23.8707 50.4991 24.7202 51.086L24.7357 51.0967L24.7517 51.1069C25.2171 51.403 25.7836 51.5912 26.3758 51.5912C26.8678 51.5912 27.3146 51.4663 27.687 51.2913L27.7115 51.2798L27.7353 51.2669L33.0491 48.4095L38.338 51.2426C38.3397 51.2435 38.3413 51.2444 38.3429 51.2452C38.7848 51.4862 39.2599 51.5707 39.7047 51.5707C40.2968 51.5707 40.8634 51.3825 41.3288 51.0864L41.3447 51.0762L41.3603 51.0655C42.2097 50.4786 42.7378 49.4088 42.5418 48.3266L41.4821 42.1178L45.9491 37.6456Z" stroke="white" stroke-width="2"/>
<path d="M57.6338 17.6804C57.7408 17.7281 58.0161 17.9455 57.9362 17.8598C57.9203 17.8428 57.7034 17.6084 57.726 17.582C57.7779 17.5214 57.8871 17.6109 57.9263 17.6361C57.9894 17.6766 58.086 17.6771 57.9878 17.5968C57.9472 17.5636 57.8397 17.5162 57.828 17.4616C57.809 17.3731 58.1148 17.5426 58.1316 17.5464C58.1812 17.5574 58.0354 17.4631 58.0087 17.448C57.9856 17.4351 57.85 17.3706 57.8882 17.3706C58.1499 17.3706 58.3185 17.571 58.5507 17.6373C58.7597 17.697 58.9118 17.9016 59.1383 17.9016" stroke="white" stroke-linecap="round" stroke-linejoin="round"/>
<path d="M59.0718 18.3219C59.0473 18.4578 58.9836 18.6068 59.0104 18.7472C59.0293 18.8466 59.0276 18.8527 59.0276 18.7435C59.0276 18.6681 59.0604 18.6145 59.0706 18.5431C59.0776 18.4942 59.0771 18.453 59.089 18.4055C59.0965 18.3754 59.0497 18.2128 59.0497 18.2727C59.0497 18.3813 59.0497 18.4899 59.0497 18.5984C59.0497 18.8123 59.0718 19.0191 59.0718 19.2339C59.0718 19.3425 59.0718 19.4511 59.0718 19.5596C59.0718 19.749 58.9833 19.3891 58.9833 19.3175C58.9833 19.0012 58.9473 18.6979 59.0165 18.3797C59.0392 18.2753 59.0493 18.5839 59.0497 18.6169C59.0505 18.6939 59.0497 18.771 59.0497 18.848C59.0497 18.9371 59.036 19.0247 59.0276 19.1135C59.0192 19.2011 58.9612 19.2881 58.9612 19.3728C58.9612 19.3931 58.9569 19.5256 58.9194 19.492C58.8335 19.4151 58.7884 19.2776 58.7399 19.1774C58.6639 19.0201 58.5894 18.8626 58.5212 18.7017C58.4553 18.5464 58.407 18.3844 58.3417 18.2285C58.3154 18.1656 58.3178 18.2133 58.3208 18.2555C58.323 18.2862 58.3521 18.3732 58.3368 18.3465C58.2547 18.2029 58.155 18.0555 58.0012 17.9814C57.88 17.9231 58.0669 18.265 58.0848 18.3305C58.0978 18.3782 58.1644 18.4825 58.1327 18.3735C58.0802 18.1925 57.95 18.0496 57.8771 17.8794" stroke="white" stroke-linecap="round" stroke-linejoin="round"/>
</g>
<defs>
<clipPath id="clip0">
<rect width="66" height="83" fill="white"/>
</clipPath>
</defs>
</svg>
