<svg width="68" height="67" viewBox="0 0 68 67" fill="none" xmlns="http://www.w3.org/2000/svg">
<g clip-path="url(#clip0)">
<path d="M30.1394 52.3374C27.4885 54.7511 23.8219 55.2916 20.5699 53.7488C19.3942 53.1909 18.4021 52.4207 17.6254 51.4982L13.1973 61.1482C12.9958 61.5873 13.2208 61.9182 13.3268 62.04C13.4328 62.1617 13.7304 62.4312 14.2014 62.3022L17.425 61.4181C17.7924 61.3174 18.1637 61.2689 18.5299 61.2689C20.0746 61.2689 21.5285 62.1303 22.2286 63.5579L23.6845 66.5264C23.8971 66.9602 24.2959 67.0035 24.462 67.0003C24.6248 66.9982 25.0253 66.9461 25.2267 66.5071L32.2701 51.1567C31.4962 51.3762 30.7634 51.7692 30.1394 52.3374Z" fill="white"/>
<path d="M54.8026 61.1482L50.3745 51.4982C49.5978 52.4208 48.6057 53.1911 47.43 53.7488C44.1778 55.2916 40.5114 54.7511 37.8605 52.3374C37.2365 51.7692 36.5037 51.3762 35.7295 51.1567L42.7729 66.5071C42.9744 66.9462 43.375 66.9982 43.5377 67.0003C43.7037 67.0035 44.1025 66.9602 44.3152 66.5264L45.771 63.5579C46.471 62.1303 47.925 61.2689 49.4697 61.2689C49.8359 61.2689 50.2074 61.3174 50.5746 61.4181L53.7982 62.3022C54.2692 62.4313 54.567 62.1619 54.6728 62.04C54.7791 61.9181 55.004 61.5871 54.8026 61.1482Z" fill="white"/>
<path d="M29.0315 3.3305L29.9597 3.70243C28.1267 8.27737 22.9723 10.7117 18.2239 9.27902C16.1373 8.64975 14.451 9.58789 13.5493 10.7017C12.6475 11.8161 12.1047 13.6277 13.1807 15.4729C15.6699 19.7402 14.3882 25.2478 10.2784 28.0205L29.0315 3.3305ZM29.0315 3.3305L29.9597 3.70243C30.7541 1.71998 32.5406 1 34 1C35.4594 1 37.246 1.71999 38.0403 3.70231C39.8733 8.27712 45.0281 10.7118 49.7762 9.27887M29.0315 3.3305L20.2067 45.8043M20.2067 45.8043L20.2067 45.8044C20.0498 47.9233 21.3364 49.3294 22.6479 49.9519C23.9592 50.574 25.8921 50.6937 27.4891 49.2395L27.4891 49.2394C29.3203 47.5721 31.6654 46.7434 33.9999 46.7434C36.3351 46.7434 38.679 47.5717 40.5105 49.2395C42.1078 50.6938 44.0408 50.5741 45.3519 49.9519L45.3519 49.9519C46.6633 49.3296 47.9499 47.9235 47.7931 45.8044L47.7931 45.8044C47.4297 40.8908 51.0098 36.4875 55.9209 35.7481C58.0764 35.4236 59.1764 33.8615 59.4965 32.4797C59.8166 31.0975 59.5124 29.2286 57.7216 28.0203C53.6118 25.2476 52.3302 19.7401 54.8193 15.4727C55.8953 13.6277 55.3524 11.8158 54.4506 10.7014C53.5489 9.58776 51.8623 8.64956 49.7762 9.27887M20.2067 45.8043C20.5701 40.8907 16.9901 36.4873 12.079 35.7481C9.9234 35.4236 8.82327 33.8615 8.50337 32.4799C8.18339 31.0979 8.48735 29.229 10.2784 28.0205L20.2067 45.8043ZM49.7762 9.27887L49.4874 8.32148M49.7762 9.27887L49.4874 8.32148M49.4874 8.32148C52.049 7.54875 54.1325 8.71929 55.228 10.0724M49.4874 8.32148L55.228 10.0724M55.228 10.0724C56.3233 11.4259 57.018 13.6876 55.6831 15.9765L55.228 10.0724ZM15.5194 26.7351C15.5194 36.7984 23.8229 44.9587 34 44.9587C44.1772 44.9587 52.4805 36.7983 52.4806 26.735C52.4806 16.6716 44.1773 8.51138 34 8.51138C23.8227 8.51138 15.5194 16.6718 15.5194 26.7351Z" stroke="white" stroke-width="2"/>
<path d="M33.9999 12.7231C26.1581 12.7231 19.7784 19.0091 19.7784 26.7354C19.7784 34.4618 26.158 40.7477 33.9999 40.7477C41.8418 40.7477 48.2213 34.4618 48.2213 26.7354C48.2213 19.0091 41.8417 12.7231 33.9999 12.7231ZM41.288 25.3769L32.4371 31.7464C32.1562 31.9486 31.8191 32.0555 31.4759 32.0555C31.3875 32.0555 31.2986 32.0485 31.2101 32.0341C30.7786 31.9638 30.3937 31.7255 30.1422 31.3727L27.4947 27.6586C26.9774 26.9328 27.1552 25.9313 27.8917 25.4216C28.6283 24.9119 29.6446 25.087 30.162 25.8127L31.8553 28.1884L39.3656 22.7836C40.0925 22.2608 41.1121 22.4168 41.6428 23.1331C42.1737 23.8492 42.0147 24.8537 41.288 25.3769Z" fill="white"/>
</g>
<defs>
<clipPath id="clip0">
<rect width="68" height="67" fill="white"/>
</clipPath>
</defs>
</svg>
