<?xml version="1.0" encoding="utf-8"?>
<!-- Generator: Adobe Illustrator 21.1.0, SVG Export Plug-In . SVG Version: 6.00 Build 0)  -->
<svg version="1.1" id="Слой_1" xmlns="http://www.w3.org/2000/svg" xmlns:xlink="http://www.w3.org/1999/xlink" x="0px" y="0px"
	 viewBox="0 0 67 51" style="enable-background:new 0 0 67 51;" xml:space="preserve">
<style type="text/css">
	.st0{display:none;}
	.st1{fill:none;stroke:#FFFFFF;stroke-width:2;}
	.st2{clip-path:url(#SVGID_2_);}
	.st3{fill:#FFFFFF;}
	.st4{clip-path:url(#SVGID_2_);fill:none;stroke:#FFFFFF;stroke-width:2;}
	.st5{clip-path:url(#SVGID_2_);fill:none;stroke:#FFFFFF;stroke-linecap:round;stroke-linejoin:round;}
</style>
<rect x="0" class="st0" width="67" height="51"/>
<g>
	<path class="st1" d="M32.1,45.5v1.2l1.2-0.2L55,42l0.8-0.2v-0.8V26.8c0,0,0,0,0,0l2.6,0.4c0,0,0,0,0,0v16.6c0,0,0,0,0,0l-23.7,5.5
		c-1,0.2-2,0.2-3,0L8.1,44c0,0,0,0,0,0L7.7,27.2v0c0,0,0,0,0,0l19.9-1.9c0.7-0.1,1.4-0.6,1.6-1.2l0,0l2.9-7.5V45.5z M7.6,27.1
		l-0.1-1L7.6,27.1L7.6,27.1C7.6,27.1,7.6,27.1,7.6,27.1z M8,44C8,44,8,44,8,44L8,44L8,44z M7.4,7l24-4.7l-6.9,16.6L1.1,21.4
		c0,0,0,0,0,0c0,0,0,0,0,0L7.4,7z M34.6,2.2L59.2,7l6.1,14.4l0.9-0.4l-0.9,0.4c0,0,0,0,0,0c0,0,0,0,0,0l-23.4-2L34.6,2.2z M1,21.4
		C1,21.4,1,21.4,1,21.4L1,21.4z"/>
	<g>
		<defs>
			<polygon id="SVGID_1_" points="34.4,27.2 48,23.8 51.4,37.1 37.8,40.5 			"/>
		</defs>
		<clipPath id="SVGID_2_">
			<use xlink:href="#SVGID_1_"  style="overflow:visible;"/>
		</clipPath>
		<g class="st2">
			<path class="st3" d="M47.5,30.7c-1.7-1-3.9-1.3-6.4-0.7l-0.6-2.5c0-0.1-0.1-0.2-0.2-0.2c-0.1,0-0.2,0-0.3,0.1l-3.8,6.3
				c-0.1,0.1,0,0.3,0.1,0.4l6.3,3.7c0.1,0.1,0.2,0.1,0.3,0c0.1-0.1,0.1-0.2,0.1-0.3l-0.6-2.5c5.7-1.4,8,0.7,8,0.8
				c0.1,0.1,0.2,0.1,0.3,0.1c0,0,0,0,0.1,0c0.1-0.1,0.2-0.2,0.1-0.3C50.9,35.3,50.2,32.3,47.5,30.7z"/>
		</g>
		<path class="st4" d="M57.4,27.7v15.6l-25.7,5.2"/>
		<path class="st5" d="M31.8,47.6c0,0.1,0.1,0.2,0.1,0.3c0,0,0,0,0,0.1c0,0,0,0.1,0,0c0-0.1,0-0.1,0-0.2c0,0,0,0,0-0.1c0,0,0,0,0,0
			c0,0.1-0.1,0.2-0.1,0.3c0,0,0,0,0,0c0,0,0-0.1,0-0.1c0,0,0,0.1,0,0.1c0,0,0,0,0,0c0-0.1,0-0.2,0-0.2c0,0.1,0,0.2,0,0.2
			c0,0,0,0.1,0,0c0-0.1,0-0.1,0-0.2c0,0,0-0.1,0-0.1c0,0,0,0,0,0c0,0.1,0,0.2,0,0.3c0,0,0,0.1,0,0.1c0-0.1,0-0.2,0-0.2
			c0,0,0-0.1,0-0.1c0,0,0,0.1,0,0.1c0,0,0,0,0,0.1c0,0,0,0.1,0,0c0,0,0-0.1,0-0.2c0,0,0,0,0,0c0,0,0,0,0,0c0,0,0,0.1,0,0.1
			c0,0,0,0,0,0c0,0,0-0.1,0-0.1c0-0.1,0,0,0,0.1c0,0,0,0.1,0,0.1c0,0.1,0,0,0-0.1c0,0,0-0.1,0-0.1c0,0,0,0,0,0c0,0,0,0,0,0.1
			c0,0,0,0,0,0c0,0.1,0,0.1,0,0.2c0,0,0,0,0,0c0,0,0,0,0-0.1c0,0,0-0.1,0,0c0,0,0,0.1,0,0.1c0,0,0,0,0,0.1c0,0,0,0,0,0
			c0,0,0-0.1,0-0.1c0,0,0-0.1,0,0c0,0,0,0.1,0,0.1c0,0,0,0.1,0,0.1c0,0,0,0,0,0.1c0,0,0-0.1,0-0.1c0,0,0-0.1,0-0.1c0,0,0,0,0,0
			c0,0,0-0.1,0,0c0,0,0,0.2,0,0.1c0,0,0-0.1,0-0.1c0,0,0-0.1,0,0c0,0,0,0,0,0.1c0,0,0,0.1,0,0.1c0,0,0,0.1,0,0.1c0,0,0-0.1,0-0.1
			c0-0.1,0-0.1,0-0.2"/>
	</g>
</g>
<rect x="56.6" y="27.2" class="st3" width="0.9" height="16.2"/>
<rect x="31.1" y="44.4" transform="matrix(0.9746 -0.2241 0.2241 0.9746 -9.0404 11.0228)" class="st3" width="26" height="1.8"/>
<rect x="31.1" y="47.7" class="st3" width="0.6" height="0.8"/>
</svg>
