<svg width="58" height="57" viewBox="0 0 58 57" fill="none" xmlns="http://www.w3.org/2000/svg">
<path d="M15.9494 1.22423L44.5863 13.7022H17.4884C13.1661 13.7022 9.62768 17.1549 9.62768 21.4447V31.1617C9.62768 31.182 9.62324 31.1941 9.61728 31.2043C9.60994 31.217 9.5959 31.2335 9.57298 31.2479C9.52613 31.2775 9.47438 31.2815 9.42553 31.2602L9.42554 31.2602L9.41646 31.2563L3.43902 28.7154C2.12855 28.1404 1.56575 26.6483 2.13695 25.3935L2.13744 25.3925L12.5235 2.50548L12.524 2.50431C13.1003 1.23009 14.6329 0.645395 15.9464 1.22292L15.9494 1.22423Z" stroke="white" stroke-width="2"/>
<path d="M17.4617 45.4515V46.4515H18.4617H21.2021C21.1551 46.9073 21.1295 47.3706 21.1295 47.8428C21.1295 48.2237 21.1448 48.6019 21.1754 48.9776H17.4765C16.0063 48.9776 14.8444 47.8108 14.8444 46.408V21.433C14.8444 20.0302 16.0063 18.8635 17.4765 18.8635H53.4538C54.924 18.8635 56.086 20.0302 56.086 21.433V46.3964C56.086 47.7992 54.924 48.9659 53.4538 48.9659H49.7549C49.7856 48.5903 49.8009 48.212 49.8009 47.8312C49.8009 47.359 49.7752 46.8957 49.7282 46.4398H52.4805H53.4805V45.4398V33.4947V32.4947H52.4805H18.4617H17.4617V33.4947V45.4515ZM52.4805 27.134H53.4805V26.134V22.3895V21.3895H52.4805H18.4617H17.4617V22.3895V26.134V27.134H18.4617H52.4805Z" stroke="white" stroke-width="2"/>
<path d="M16 28V20H54.5V24V28" stroke="white" stroke-width="2"/>
<path d="M35.4711 38.6624C30.3196 38.6624 26.1415 42.7685 26.1415 47.8312C26.1415 52.8939 30.3196 57 35.4711 57C40.6226 57 44.8008 52.8939 44.8008 47.8312C44.8008 42.7685 40.6226 38.6624 35.4711 38.6624ZM38.1537 51.4474C37.7501 51.9373 37.216 52.2639 36.5988 52.4273C36.3257 52.4973 36.207 52.6372 36.2189 52.9172C36.2308 53.1855 36.2189 53.4538 36.2189 53.7338C36.2189 53.9787 36.0884 54.107 35.851 54.107C35.5542 54.1187 35.2575 54.1187 34.9607 54.107C34.6996 54.107 34.5809 53.9554 34.5809 53.7104C34.5809 53.5121 34.5809 53.3138 34.5809 53.1155C34.5809 52.6839 34.5572 52.6606 34.1298 52.5906C33.5838 52.5089 33.0497 52.3806 32.5512 52.1473C32.1595 51.9607 32.112 51.8673 32.2307 51.4591C32.3138 51.1558 32.3969 50.8525 32.4918 50.5608C32.5986 50.2109 32.6936 50.1759 33.0259 50.3392C33.5838 50.6192 34.1654 50.7825 34.7827 50.8525C35.1744 50.8991 35.5661 50.8641 35.934 50.7008C36.6225 50.4092 36.7293 49.6276 36.1477 49.161C35.9459 48.9977 35.7323 48.8811 35.4949 48.7877C34.8895 48.5311 34.2604 48.3328 33.7025 47.9945C32.7767 47.4579 32.1951 46.7114 32.2663 45.6032C32.3375 44.355 33.0616 43.5851 34.2248 43.1652C34.6996 42.9902 34.7115 43.0018 34.7115 42.5119C34.7115 42.3486 34.7115 42.1736 34.7115 42.0103C34.7233 41.637 34.7827 41.5787 35.1625 41.567C35.2812 41.567 35.3999 41.567 35.5067 41.567C36.3139 41.567 36.3139 41.567 36.3139 42.3603C36.3139 42.9202 36.3139 42.9202 36.8836 43.0018C37.3109 43.0718 37.7264 43.1885 38.13 43.3635C38.3555 43.4568 38.4386 43.6084 38.3673 43.8417C38.2724 44.18 38.1774 44.53 38.0587 44.8566C37.9519 45.1716 37.8451 45.2182 37.5365 45.0782C36.9074 44.7749 36.2545 44.6583 35.5661 44.6933C35.388 44.7049 35.21 44.7283 35.0438 44.7983C34.4503 45.0549 34.3435 45.7081 34.8539 46.1048C35.115 46.3031 35.3999 46.4547 35.7085 46.583C36.2427 46.793 36.7649 47.003 37.2753 47.2829C38.8421 48.1345 39.2813 50.1059 38.1537 51.4474Z" fill="white"/>
<path d="M16 31.5V47.5H20.5" stroke="white" stroke-width="2"/>
<path d="M54.5 31.5V47.5H50.5" stroke="white" stroke-width="2"/>
<rect x="15" y="27" width="41" height="6" fill="white"/>
</svg>
