<svg width="84" height="48" viewBox="0 0 84 48" fill="none" xmlns="http://www.w3.org/2000/svg">
<g clip-path="url(#clip0)">
<path d="M31.3173 33.4248C27.4896 33.4248 24.4275 36.508 24.4275 40.3621C24.4275 44.2161 27.4896 47.2993 31.3173 47.2993C35.145 47.2993 38.2071 44.2161 38.2071 40.3621C38.2071 36.5781 35.0754 33.4248 31.3173 33.4248ZM83.304 28.3095V35.7372C83.304 37.5591 81.8426 39.1007 79.9635 39.1007H76.4142C75.7879 34.6861 71.9602 31.2526 67.367 31.2526C62.7738 31.2526 59.0157 34.6861 58.3198 39.1007H40.2949C39.6686 34.6861 35.8409 31.2526 31.2477 31.2526C26.6545 31.2526 22.8964 34.6861 22.2005 39.1007H17.7465C15.937 39.1007 14.4059 37.6292 14.4059 35.7372V28.3095H83.304ZM67.367 33.4248C63.5393 33.4248 60.4772 36.508 60.4772 40.3621C60.4772 44.2161 63.5393 47.2993 67.367 47.2993C71.1947 47.2993 74.2568 44.2161 74.2568 40.3621C74.2568 36.5781 71.1947 33.4248 67.367 33.4248ZM81.9818 20.8117L68.8981 7.84819C68.063 7.00731 66.9494 6.58688 65.7663 6.58688H59.1549V4.06425C59.1549 2.24235 57.6934 0.700745 55.8144 0.700745H17.8161C16.0066 0.700745 14.4755 2.17228 14.4755 4.06425V4.55476L0.974299 6.16644L24.8451 9.31972L0.695923 11.7022L24.8451 15.1358L0.695923 17.238L14.4755 19.8307V26.4175H83.2345V23.965C83.304 22.8438 82.8169 21.6526 81.9818 20.8117Z" stroke="white" stroke-width="2" stroke-miterlimit="10" stroke-linecap="round" stroke-linejoin="round"/>
<path d="M23.5 38L26.5 33.5L31 32.5L36 33.5L39 38M75 38L72 33.5L67 32.5L62.5 33.5L59.5 38" stroke="white"/>
<path d="M31.3173 38.3299C32.4309 38.3299 33.4052 39.2409 33.4052 40.4321C33.4052 41.6234 32.5004 42.5343 31.3173 42.5343C30.1342 42.5343 29.2295 41.6234 29.2295 40.4321C29.2295 39.2409 30.1342 38.3299 31.3173 38.3299ZM31.3173 36.9285C29.4383 36.9285 27.8376 38.4701 27.8376 40.4321C27.8376 42.3241 29.3687 43.9358 31.3173 43.9358C33.1964 43.9358 34.797 42.3942 34.797 40.4321C34.7275 38.4701 33.1964 36.9285 31.3173 36.9285Z" fill="white"/>
<path d="M65.6968 11.7722L74.1177 19.8306H64.5137V11.7722H65.6968ZM66.0448 10.3708H63.609C63.3306 10.3708 63.1218 10.581 63.1218 10.8613V20.6715C63.1218 20.9518 63.3306 21.162 63.609 21.162H76.2751C76.7623 21.162 76.971 20.6014 76.6231 20.2511L66.3927 10.5109C66.3232 10.4409 66.184 10.3708 66.0448 10.3708Z" fill="white"/>
<path d="M66 11H64V20.5H74L75.5 20L66 11Z" fill="white"/>
<path d="M67.4366 38.3299C68.5501 38.3299 69.5244 39.2409 69.5244 40.4321C69.5244 41.6234 68.6197 42.5343 67.4366 42.5343C66.3231 42.5343 65.3488 41.6234 65.3488 40.4321C65.3488 39.2409 66.3231 38.3299 67.4366 38.3299ZM67.4366 36.9285C65.5576 36.9285 63.9569 38.4701 63.9569 40.4321C63.9569 42.3241 65.488 43.9358 67.4366 43.9358C69.3156 43.9358 70.9163 42.3942 70.9163 40.4321C70.8467 38.4701 69.3156 36.9285 67.4366 36.9285Z" fill="white"/>
<path d="M70 40.5C70 41.8807 68.8807 43 67.5 43C66.1193 43 65 41.8807 65 40.5C65 39.1193 66.1193 38 67.5 38C68.8807 38 70 39.1193 70 40.5Z" fill="white"/>
<path d="M34 40.5C34 41.8807 32.8807 43 31.5 43C30.1193 43 29 41.8807 29 40.5C29 39.1193 30.1193 38 31.5 38C32.8807 38 34 39.1193 34 40.5Z" fill="white"/>
</g>
<defs>
<clipPath id="clip0">
<rect width="84" height="48" fill="white"/>
</clipPath>
</defs>
</svg>
