<svg width="76" height="51" viewBox="0 0 76 51" fill="none" xmlns="http://www.w3.org/2000/svg">
<g clip-path="url(#clip0)">
<path d="M35.9273 11.8862L31.5745 22.4594C31.4363 22.8049 31.0909 23.0813 30.6763 23.0813L8.35998 25.0163C7.80725 25.0854 7.39271 25.5 7.39271 26.0528L7.87634 43.5366C7.87634 44.0203 8.2218 44.435 8.70544 44.5041L34.96 50.0325C35.5818 50.1707 36.2727 50.2398 36.8945 50.2398V45.0569V12.0935C36.9636 10.6423 36.48 10.5041 35.9273 11.8862ZM28.12 20.5935L1.86544 23.2195C1.03634 23.2886 0.483617 22.4594 0.829071 21.7683L7.80725 6.77236C7.94544 6.49594 8.2218 6.21951 8.56725 6.21951L37.4473 0.898376L28.9491 19.9715C28.8109 20.3171 28.4654 20.5244 28.12 20.5935ZM67.5709 25.0854L45.2545 23.1504C44.84 23.1504 44.5636 22.874 44.3563 22.5285L40.0036 11.9553C39.4509 10.6423 39.0363 10.7114 39.0363 12.1626V45.2642V50.4472C39.6582 50.4472 40.3491 50.378 40.9709 50.2398L67.2254 44.7114C67.7091 44.6423 68.0545 44.2276 68.0545 43.7439L68.5382 26.2602C68.5382 25.5691 68.1236 25.0854 67.5709 25.0854ZM74.1345 23.2195L47.88 20.5935C47.5345 20.5244 47.1891 20.3171 47.0509 19.9715L38.5527 0.898376L67.4327 6.21951C67.7782 6.28862 68.0545 6.49594 68.1927 6.77236L75.1709 21.6992C75.5164 22.4594 74.9636 23.2886 74.1345 23.2195Z" stroke="white" stroke-width="2" stroke-miterlimit="10"/>
<path d="M58.3818 34.4146H57.1381V42.1545C57.1381 42.5 56.7927 42.8455 56.3781 42.9146L54.3745 43.1911C53.8909 43.2602 53.5454 43.0528 53.5454 42.6382V34.4837L52.1636 34.5528C51.4727 34.5528 51.0581 34 51.4036 33.5854L54.7199 29.2317C55.0654 28.8171 55.8254 28.8862 56.1018 29.3008L59.0727 33.5163C59.2799 33.8618 58.9345 34.4146 58.3818 34.4146Z" fill="white"/>
<path d="M32.8873 44.5041L23.0764 42.9146V37.7317H32.8873V44.5041Z" fill="white"/>
<rect x="37" y="12" width="2" height="39" fill="white"/>
</g>
<defs>
<clipPath id="clip0">
<rect width="76" height="51" fill="white"/>
</clipPath>
</defs>
</svg>
