<?xml version="1.0" encoding="utf-8"?>
<!-- Generator: Adobe Illustrator 21.1.0, SVG Export Plug-In . SVG Version: 6.00 Build 0)  -->
<svg version="1.1" id="Слой_1" xmlns="http://www.w3.org/2000/svg" xmlns:xlink="http://www.w3.org/1999/xlink" x="0px" y="0px"
	 viewBox="0 0 66 55" style="enable-background:new 0 0 66 55;" xml:space="preserve">
<style type="text/css">
	.st0{fill:#FFFFFF;}
	.st1{fill:none;stroke:#FFFFFF;stroke-width:2.2;}
</style>
<g>
	<g>
		<rect x="21.2" y="34.8" class="st0" width="23.5" height="4.9"/>
		<rect x="21.2" y="48.6" class="st0" width="23.5" height="4.4"/>
		<rect x="21.2" y="41.8" class="st0" width="23.5" height="4.8"/>
		<g>
			<rect x="21.2" y="27.9" class="st0" width="23.5" height="4.9"/>
			<path class="st1" d="M63.5,23.1l-30-21.4c-0.4-0.3-0.8-0.3-1.2,0L2.3,23.1c-0.5,0.3-0.6,1-0.2,1.4C2.2,24.8,2.6,25,2.9,25
				c0.2,0,0.4-0.1,0.6-0.2l7.9-5.6V53h7.7V26.8c0-0.3,0.1-0.5,0.3-0.7c0.2-0.2,0.5-0.3,0.7-0.3h25.5c0.3,0,0.5,0.1,0.7,0.3
				c0.2,0.2,0.3,0.4,0.3,0.7V53h7.7V19.1l7.9,5.6c0.2,0.2,0.5,0.2,0.8,0.2c0.3,0,0.5-0.2,0.7-0.4c0.2-0.2,0.2-0.5,0.2-0.8
				C63.9,23.5,63.7,23.3,63.5,23.1L63.5,23.1z M63.5,23.1"/>
		</g>
	</g>
</g>
</svg>
