<svg width="66" height="66" viewBox="0 0 66 66" fill="none" xmlns="http://www.w3.org/2000/svg">
<g clip-path="url(#clip0)">
<path d="M21.0306 41.6744H44.9659V45.8806H21.0306V41.6744Z" fill="white" stroke="white"/>
<path d="M21.0306 56.3341H44.9659V59.9923H21.0306V56.3341Z" fill="white" stroke="white"/>
<path d="M21.0306 49.0728H44.9659V53.142H21.0306V49.0728Z" fill="white" stroke="white"/>
<path d="M21.0306 34.276H44.9659V38.4823H21.0306V34.276Z" fill="white" stroke="white"/>
<path d="M64.9553 29.5339L64.9553 29.5338L33.1012 6.73561L33.0989 6.73392C33.0674 6.71125 33.0248 6.71125 32.9933 6.73392L32.9898 6.73645L1.04603 29.5303C1.04554 29.5307 1.04505 29.531 1.04456 29.5314C0.997642 29.5666 0.985856 29.6319 1.01767 29.6814C1.03604 29.7054 1.06301 29.719 1.09057 29.7205C1.10449 29.7197 1.11964 29.7148 1.13355 29.7048L1.13899 29.7008L1.139 29.7008L9.53762 23.7138L11.1181 22.5871V24.528V59.4923H17.3385V32.6526V32.6471H17.3385C17.3416 32.0906 17.5682 31.5605 17.9651 31.1736C17.9653 31.1734 17.9655 31.1733 17.9656 31.1731L18.6633 31.8895C18.8689 31.6888 19.1466 31.5785 19.4345 31.5839L64.9553 29.5339ZM64.9553 29.5339L64.964 29.54C64.982 29.5526 64.9946 29.5723 64.9984 29.5945L64.9987 29.5964C65.0025 29.6182 64.9973 29.6408 64.9843 29.659L64.9821 29.6621C64.9656 29.6853 64.9419 29.6994 64.9172 29.7036C64.8903 29.7082 64.8638 29.7017 64.8434 29.6874C64.8432 29.6873 64.843 29.6871 64.8429 29.687L56.4603 23.6876L54.8783 22.5553V24.5007V59.4923H48.6579V32.6526C48.6579 32.0956 48.4337 31.561 48.0335 31.171M64.9553 29.5339L19.4423 30.5839H46.551C47.1025 30.5736 47.6371 30.7841 48.0335 31.171M48.0335 31.171C48.0333 31.1708 48.0331 31.1706 48.033 31.1705L47.3352 31.8868L48.0339 31.1714C48.0338 31.1712 48.0336 31.1711 48.0335 31.171ZM32.4091 5.92258L32.409 5.92243L32.4091 5.92258Z" stroke="white" stroke-width="2"/>
</g>
<defs>
<clipPath id="clip0">
<rect width="66" height="66" fill="white"/>
</clipPath>
</defs>
</svg>
