<svg width="1468" height="262" viewBox="0 0 1468 262" fill="none" xmlns="http://www.w3.org/2000/svg">
<rect x="1468" y="262" width="1468" height="261.097" transform="rotate(180 1468 262)" fill="url(#paint0_linear)"/>
<g clip-path="url(#clip0)">
<path d="M9.33885 1.49714C193.435 112.607 434.432 177.131 734.408 177.131C1034.38 177.131 1275.42 112.598 1459.52 1.49701L9.33885 1.49714Z" fill="#52B8CB" fill-opacity="0.2"/>
<path d="M0.101917 56.4151C0.104847 56.7367 0.0706674 57.0577 -1.12597e-05 57.3731C0.0417978 57.6001 0.0623057 57.8298 0.0612071 58.0599L0.0612164 164.362C79.3101 178.895 160.029 186.201 240.956 186.169C489.792 186.169 720.644 117.957 911.031 1.4971L0.0712729 1.49718L0.101917 56.4151Z" fill="#52B8CB" fill-opacity="0.2"/>
<path d="M1468 0.999985C1467.26 1.33516 1466.44 1.50575 1465.61 1.49701L559.151 1.49709C749.252 117.406 979.554 185.265 1227.74 185.265C1308.43 185.297 1388.92 178.029 1467.95 163.576L1467.95 152.081C1467.93 151.867 1467.93 151.653 1467.95 151.439L1467.95 0.999985L1468 0.999985Z" fill="#52B8CB" fill-opacity="0.2"/>
<path d="M1468 0.999985C1467.26 1.33516 1466.44 1.50577 1465.61 1.49702L809.782 1.49708C1001.11 124.861 1230.54 205.896 1467.99 226.862L1467.99 152.081C1467.97 151.867 1467.97 151.653 1467.99 151.439L1467.99 0.999985L1468 0.999985Z" fill="#52B8CB" fill-opacity="0.2"/>
<path d="M-2.90016 56.4151C-2.89717 56.7367 -2.93135 57.0576 -3.00209 57.373C-2.96022 57.6001 -2.93971 57.8298 -2.94081 58.0599L-2.9408 226.022C234.222 205.237 463.422 124.491 654.655 1.49712L-2.94082 1.49717L-2.90016 56.4151Z" fill="#52B8CB" fill-opacity="0.2"/>
</g>
<defs>
<linearGradient id="paint0_linear" x1="2202" y1="27.3479" x2="2202" y2="523.097" gradientUnits="userSpaceOnUse">
<stop stop-color="#001741"/>
<stop offset="1" stop-color="#2FA9C0"/>
</linearGradient>
<clipPath id="clip0">
<rect width="1468" height="225.862" fill="white" transform="translate(1468 226.862) rotate(180)"/>
</clipPath>
</defs>
</svg>
