<svg width="67" height="72" viewBox="0 0 67 72" fill="none" xmlns="http://www.w3.org/2000/svg">
<g clip-path="url(#clip0)">
<path d="M32.3923 56.0301V57.2547L33.5921 57.01L55.5727 52.5273L56.3729 52.3641V51.5474V37.0914C56.3729 37.0912 56.3729 37.0909 56.3729 37.0906L58.9596 37.5208C58.9609 37.526 58.9619 37.5328 58.9619 37.5411V54.335C58.9619 54.345 58.9604 54.3529 58.9587 54.3587L34.9308 59.9106C33.9145 60.1454 32.8644 60.1479 31.8473 59.918L8.07817 54.5452C8.07657 54.5399 8.07519 54.5327 8.07498 54.5238L7.66378 37.4682L7.66378 37.4681C7.66359 37.4601 7.66431 37.4536 7.66541 37.4483L27.8371 35.5435C28.5958 35.472 29.2068 34.9585 29.4659 34.2828L29.466 34.2825L32.3923 26.6456V56.0301ZM7.61769 37.4528L7.52369 36.4572L7.6177 37.4528L7.61808 37.4527C7.61795 37.4527 7.61782 37.4528 7.61769 37.4528ZM8.04372 54.5374C8.04387 54.5374 8.04401 54.5375 8.04416 54.5375L8.04392 54.5375L8.04372 54.5374ZM7.34887 17.0533L31.6651 12.2537L24.7144 29.0814L1.00023 31.6563C0.999466 31.6475 1.00026 31.6363 1.00718 31.6204C1.00719 31.6203 1.00719 31.6203 1.0072 31.6203L7.34887 17.0533ZM34.9548 12.2498L59.7935 17.0543L65.9931 31.66L66.9136 31.2693L65.9931 31.66C66 31.6762 66.0006 31.6877 65.9996 31.6968C65.9996 31.6969 65.9996 31.697 65.9996 31.6971L42.3301 29.6516L34.9548 12.2498ZM0.930753 31.6639C0.930876 31.6639 0.930975 31.6638 0.931101 31.6638L0.930753 31.6639Z" stroke="white" stroke-width="2"/>
<g clip-path="url(#clip1)">
<path d="M48.0196 41.0206C46.273 39.9589 44.1005 39.719 41.559 40.3081L40.9209 37.7866C40.8922 37.6735 40.7968 37.5887 40.6792 37.5726C40.5619 37.557 40.4456 37.6108 40.3844 37.7115L36.5279 44.0476C36.4444 44.1848 36.4893 44.3623 36.6281 44.4433L43.0343 48.182C43.1363 48.2419 43.2655 48.2348 43.3604 48.1638C43.4561 48.0937 43.4997 47.9737 43.4711 47.8606L42.8342 45.3441C48.5832 43.9761 50.9401 46.1001 50.963 46.1211C51.0373 46.1916 51.142 46.2169 51.2389 46.1924C51.2629 46.1864 51.2865 46.1768 51.3095 46.1644C51.4229 46.1018 51.4823 45.9748 51.4556 45.8499C51.4275 45.7224 50.7478 42.6796 48.0196 41.0206Z" fill="white"/>
</g>
<path d="M58 38V53.75L32 59" stroke="white" stroke-width="2"/>
<path d="M32.0754 58.2072C32.1063 58.2928 32.1334 58.384 32.1548 58.4726C32.159 58.49 32.1578 58.5078 32.1578 58.5257C32.1578 58.5449 32.1566 58.6403 32.1581 58.572C32.1593 58.5185 32.1672 58.4633 32.1603 58.41C32.1571 58.3861 32.1523 58.3632 32.1523 58.339C32.1523 58.3221 32.1498 58.3194 32.1407 58.3408C32.1078 58.4183 32.0818 58.5111 32.0757 58.5955C32.0737 58.6246 32.0609 58.5774 32.059 58.5711C32.0558 58.5609 32.0279 58.4528 32.0217 58.4573C32.0061 58.4689 32.0097 58.5206 32.0095 58.5373C32.0095 58.5447 32.0095 58.578 32.0095 58.5751C32.0095 58.5136 32.0095 58.329 32.0095 58.3905C32.0095 58.4722 32.0095 58.5538 32.0095 58.6355C32.0095 58.6397 32.0104 58.6946 32.0083 58.6678C32.0036 58.6053 32.0056 58.5423 31.9958 58.4802C31.9914 58.4525 31.989 58.4246 31.9848 58.3969C31.9802 58.3665 31.9772 58.3582 31.9766 58.3975C31.9751 58.4962 31.9656 58.594 31.9656 58.6929C31.9656 58.7032 31.9546 58.7865 31.9546 58.7472C31.9546 58.6661 31.9422 58.585 31.9302 58.5049C31.929 58.4965 31.9217 58.4095 31.9217 58.4521C31.9217 58.4904 31.9272 58.5284 31.9272 58.5668C31.9272 58.5843 31.9337 58.6042 31.9369 58.6215C31.9387 58.6306 31.9589 58.7004 31.9519 58.6709C31.9399 58.6204 31.9444 58.5659 31.9351 58.5147C31.9322 58.4989 31.9331 58.4836 31.9327 58.4677C31.9325 58.4629 31.9272 58.4341 31.9272 58.4531C31.9272 58.4901 31.9266 58.5271 31.9272 58.5641C31.9273 58.5755 31.9338 58.5969 31.9314 58.572C31.9286 58.5421 31.925 58.5122 31.9217 58.4823C31.9138 58.4116 31.9057 58.5191 31.9052 58.5397C31.9045 58.5675 31.9052 58.5955 31.9052 58.6233C31.9052 58.6812 31.8898 58.579 31.889 58.565C31.8871 58.5285 31.8786 58.4915 31.8777 58.4555C31.8771 58.4293 31.8777 58.4158 31.8777 58.454C31.8777 58.4733 31.8742 58.4965 31.882 58.5147C31.8851 58.5219 31.8887 58.5221 31.8887 58.5312C31.8887 58.6028 31.9052 58.6654 31.9052 58.7368C31.9052 58.7745 31.9056 58.7185 31.9049 58.7087C31.9032 58.6846 31.8942 58.6652 31.8942 58.641C31.8942 58.6248 31.8942 58.5763 31.8942 58.5925C31.8942 58.6357 31.8942 58.6789 31.8942 58.7221C31.8942 58.7437 31.8942 58.7653 31.8942 58.7868C31.8942 58.793 31.8942 58.8277 31.8942 58.8045C31.8942 58.7609 31.8942 58.7173 31.8942 58.6736C31.8942 58.672 31.8945 58.6228 31.904 58.6312C31.9122 58.6385 31.9052 58.6848 31.9052 58.6959C31.9052 58.7238 31.9011 58.751 31.8997 58.7783C31.8986 58.8012 31.893 58.8171 31.8887 58.8387C31.8835 58.8649 31.8832 58.7855 31.8832 58.7587C31.8832 58.7454 31.8752 58.7031 31.8887 58.6947C31.9019 58.6865 31.89 58.6618 31.897 58.6492C31.9041 58.6363 31.8997 58.5902 31.8997 58.605C31.8997 58.6545 31.8832 58.8022 31.8832 58.7526C31.8832 58.7176 31.8777 58.6839 31.8777 58.6489C31.8777 58.6389 31.8832 58.5913 31.8832 58.6245C31.8832 58.6485 31.8832 58.6725 31.8832 58.6965C31.8832 58.7347 31.8832 58.773 31.8832 58.8112C31.8832 58.8387 31.8832 58.8661 31.8832 58.8936C31.8832 58.9263 31.8832 58.8281 31.8832 58.7954C31.8832 58.7191 31.8818 58.644 31.8942 58.5696" stroke="white" stroke-linecap="round" stroke-linejoin="round"/>
</g>
<defs>
<clipPath id="clip0">
<rect width="67" height="72" fill="white"/>
</clipPath>
<clipPath id="clip1">
<rect width="14.1668" height="13.936" fill="white" transform="matrix(0.970491 -0.241138 0.249755 0.968309 34.7227 37.4962)"/>
</clipPath>
</defs>
</svg>
