<svg width="52" height="50" viewBox="0 0 52 50" fill="none" xmlns="http://www.w3.org/2000/svg">
<path d="M0.838745 38.7097V41.129C0.838745 42.9133 2.33794 44.3548 4.19358 44.3548H47.8065C49.6621 44.3548 51.1613 42.9133 51.1613 41.129V38.7097H0.838745ZM19.2904 40.3226H32.7097V41.9355H19.2904V40.3226Z" fill="white"/>
<path d="M37.742 0.806458H14.2582L10.9033 10.4839C10.9033 11.8246 12.0251 12.9032 13.4194 12.9032C14.8138 12.9032 15.9356 11.8246 15.9356 10.4839C15.9356 11.8246 17.0574 12.9032 18.4517 12.9032C19.8461 12.9032 20.9678 11.8246 20.9678 10.4839C20.9678 11.8246 22.0896 12.9032 23.484 12.9032C24.8783 12.9032 26.0001 11.8246 26.0001 10.4839C26.0001 11.8246 27.1219 12.9032 28.5162 12.9032C29.9106 12.9032 31.0324 11.8246 31.0324 10.4839C31.0324 11.8246 32.1541 12.9032 33.5485 12.9032C34.9428 12.9032 36.0646 11.8246 36.0646 10.4839C36.0646 11.8246 37.1864 12.9032 38.5807 12.9032C39.9751 12.9032 41.0969 11.8246 41.0969 10.4839L37.742 0.806458ZM15.1074 10.3528V10.4839H15.0969C15.0969 11.371 14.342 12.0968 13.4194 12.0968C12.5388 12.0968 11.8049 11.4415 11.742 10.6048L14.8662 1.61291H16.6275L15.1074 10.3528ZM20.1291 10.4839C20.1291 11.371 19.3743 12.0968 18.4517 12.0968C17.5396 12.0968 16.8057 11.3911 16.7743 10.5242L18.3259 1.61291H20.8945L20.1291 10.4839ZM25.1614 10.4839C25.1614 11.371 24.4065 12.0968 23.484 12.0968C22.5614 12.0968 21.817 11.3811 21.8065 10.494L22.5719 1.61291H25.1614V10.4839ZM28.5162 12.0968C27.5936 12.0968 26.8388 11.371 26.8388 10.4839V1.61291H29.4283L30.1936 10.4839C30.1936 11.371 29.4388 12.0968 28.5162 12.0968ZM33.5485 12.0968C32.6259 12.0968 31.8711 11.371 31.8711 10.4839V10.4133L31.1057 1.61291H33.6743L35.2154 10.5242C35.1945 11.3911 34.4606 12.0968 33.5485 12.0968ZM38.5807 12.0968C37.6582 12.0968 36.9033 11.371 36.9033 10.4839L35.3727 1.61291H37.134L40.2477 10.6048C40.1953 11.4415 39.4614 12.0968 38.5807 12.0968Z" fill="white"/>
<path d="M47.8064 8.87097H41.4218L38.35 0H13.65L10.5782 8.87097H4.19355C1.87661 8.87097 0 10.6754 0 12.9032V41.129C0 43.3569 1.87661 45.1613 4.19355 45.1613H14.2581V48.3871H10.9032V50H41.0968V48.3871H37.7419V45.1613H47.8064C50.1234 45.1613 52 43.3569 52 41.129V12.9032C52 10.6754 50.1234 8.87097 47.8064 8.87097ZM33.4331 15.3226H17.6968L16.6903 25H13.4194V13.7097C14.4153 13.7097 15.3169 13.2863 15.9355 12.6109C16.554 13.2863 17.4556 13.7097 18.4516 13.7097C19.4476 13.7097 20.3492 13.2863 20.9677 12.6109C21.5863 13.2863 22.4879 13.7097 23.4839 13.7097C24.4798 13.7097 25.3815 13.2863 26 12.6109C26.6185 13.2863 27.5202 13.7097 28.5161 13.7097C29.5121 13.7097 30.4137 13.2863 31.0323 12.6109C31.6508 13.2863 32.5524 13.7097 33.5484 13.7097C34.5444 13.7097 35.446 13.2863 36.0645 12.6109C36.6831 13.2863 37.5847 13.7097 38.5806 13.7097V25H34.9427L33.4331 15.3226ZM34.2508 31.4516H31.9129L32.5 20.2117L34.2508 31.4516ZM30.9903 16.9355L30.6129 24.1935L30.2355 31.4516H17.6968L19.2064 16.9355H30.9903ZM16.7742 10.5242L18.3258 1.6129H20.8944L20.129 10.4839C20.129 11.371 19.3742 12.0968 18.4516 12.0968C17.5395 12.0968 16.8056 11.3911 16.7742 10.5242ZM21.8064 10.494L22.5718 1.6129H25.1613V10.4839C25.1613 11.371 24.4064 12.0968 23.4839 12.0968C22.5613 12.0968 21.8169 11.381 21.8064 10.494ZM26.8387 10.4839V1.6129H29.4282L30.1935 10.4839C30.1935 11.371 29.4387 12.0968 28.5161 12.0968C27.5935 12.0968 26.8387 11.371 26.8387 10.4839ZM31.1056 1.6129H33.6742L35.2153 10.5242C35.1944 11.3911 34.45 12.0968 33.5379 12.0968C32.6153 12.0968 31.8605 11.371 31.8605 10.4839V10.4133L31.1056 1.6129ZM35.3726 1.6129H37.1339L40.2476 10.6048C40.1847 11.4415 39.4613 12.0968 38.5702 12.0968C37.6476 12.0968 36.8927 11.371 36.8927 10.4839L35.3726 1.6129ZM16.6274 1.6129L15.1073 10.3528V10.4839H15.0968C15.0968 11.371 14.3419 12.0968 13.4194 12.0968C12.5387 12.0968 11.8048 11.4415 11.7419 10.6048L14.8661 1.6129H16.6274ZM1.67742 12.9032C1.67742 11.5726 2.80968 10.4839 4.19355 10.4839H10.0645C10.0645 11.6734 10.746 12.7016 11.7419 13.256V26.6129H16.5226L15.8516 33.0645H36.2008L35.1944 26.6129H40.2581V13.256C41.254 12.7016 41.9355 11.6633 41.9355 10.4839H47.8064C49.1903 10.4839 50.3226 11.5726 50.3226 12.9032V37.0968H1.67742V12.9032ZM50.3226 38.7097V41.129C50.3226 42.4597 49.1903 43.5484 47.8064 43.5484H4.19355C2.80968 43.5484 1.67742 42.4597 1.67742 41.129V38.7097H50.3226ZM36.0645 48.3871H15.9355V45.1613H36.0645V48.3871Z" fill="white"/>
<path d="M27.6774 19.3549V20.1613C27.6774 21.492 26.5452 22.5807 25.1613 22.5807C23.7774 22.5807 22.6452 21.492 22.6452 20.1613V19.3549H20.9678V20.1613C20.9678 22.3891 22.8444 24.1936 25.1613 24.1936C27.4783 24.1936 29.3549 22.3891 29.3549 20.1613V19.3549H27.6774Z" fill="white"/>
</svg>
