<svg width="75" height="75" viewBox="0 0 75 75" fill="none" xmlns="http://www.w3.org/2000/svg">
<path d="M25.8967 38.6973L29.2093 33.7291L30.8431 35.3644C30.8433 35.3646 30.8435 35.3648 30.8438 35.365C31.5248 36.049 32.5094 36.3777 33.4171 36.2871C34.3734 36.1938 35.2351 35.6751 35.7657 34.879C35.7658 34.8789 35.7658 34.8788 35.7658 34.8788L44.5546 21.6956L25.8967 38.6973ZM25.8967 38.6973H41.8945C43.661 38.6973 45.0918 40.128 45.0918 41.8945C45.0918 43.661 43.661 45.0918 41.8945 45.0918H23.1191V46.2891C23.1191 48.0556 21.6884 49.4863 19.9219 49.4863C18.1554 49.4863 16.7246 48.0556 16.7246 46.2891V45.0918H15.5273C13.7608 45.0918 12.3301 43.661 12.3301 41.8945C12.3301 40.128 13.7608 38.6973 15.5273 38.6973H16.7246V19.9219C16.7246 18.1554 18.1554 16.7246 19.9219 16.7246C21.6884 16.7246 23.1191 18.1554 23.1191 19.9219V31.3349L26.0507 26.9375L26.051 26.937C26.5819 26.1415 27.4432 25.6226 28.3992 25.5293L28.4062 25.5286L28.4133 25.528C29.2953 25.4545 30.2812 25.755 30.9731 26.4518C30.9736 26.4523 30.9741 26.4528 30.9746 26.4533L32.6071 28.0873M25.8967 38.6973L32.6071 28.0873M32.6071 28.0873L39.2343 18.1483L39.2354 18.1468C40.2204 16.6755 42.2107 16.2856 43.6698 17.2628C45.135 18.2425 45.5359 20.2242 44.5548 21.6954L32.6071 28.0873ZM69.6055 52.8809V53.8809H70.6055H72.8027C73.4647 53.8809 74 54.4162 74 55.0781C74 55.7401 73.4647 56.2754 72.8027 56.2754H39.6973H38.6973V57.2754V62.221V62.9259L39.3613 63.1628C41.5356 63.9385 43.0918 65.9913 43.0918 68.4082C43.0918 71.4906 40.5824 74 37.5 74C34.4176 74 31.9082 71.4906 31.9082 68.4082C31.9082 65.9913 33.4644 63.9385 35.6387 63.1628L36.3027 62.9259V62.221V57.2754V56.2754H35.3027H2.19727C1.53533 56.2754 1 55.7401 1 55.0781C1 54.4162 1.53533 53.8809 2.19727 53.8809H4.39453H5.39453V52.8809V14.3301H69.6055V52.8809ZM50.6836 45.0918H59.4727C61.2392 45.0918 62.6699 43.661 62.6699 41.8945C62.6699 40.128 61.2392 38.6973 59.4727 38.6973H50.6836C48.9171 38.6973 47.4863 40.128 47.4863 41.8945C47.4863 43.661 48.9171 45.0918 50.6836 45.0918ZM50.6836 36.3027H59.4727C61.2392 36.3027 62.6699 34.872 62.6699 33.1055C62.6699 31.339 61.2392 29.9082 59.4727 29.9082H50.6836C48.9171 29.9082 47.4863 31.339 47.4863 33.1055C47.4863 34.872 48.9171 36.3027 50.6836 36.3027ZM50.6836 27.5137H59.4727C61.2392 27.5137 62.6699 26.0829 62.6699 24.3164C62.6699 22.5499 61.2392 21.1191 59.4727 21.1191H50.6836C48.9171 21.1191 47.4863 22.5499 47.4863 24.3164C47.4863 26.0829 48.9171 27.5137 50.6836 27.5137Z" stroke="white" stroke-width="2"/>
<path d="M2.19727 4.39453H4.39453V8.93555H70.6055V4.39453H72.8027C74.017 4.39453 75 3.41148 75 2.19727C75 0.983048 74.017 0 72.8027 0H2.19727C0.983048 0 0 0.983048 0 2.19727C0 3.41148 0.983048 4.39453 2.19727 4.39453Z" fill="white"/>
<path d="M37.5 55.5V63.5M68.5 55H73.5H6.26074H1.5" stroke="white" stroke-width="2"/>
</svg>
