<svg width="69" height="69" viewBox="0 0 69 69" fill="none" xmlns="http://www.w3.org/2000/svg">
<path d="M56.3336 52.5733L56.3351 52.5735C58.0816 52.7307 59.375 54.1457 59.375 55.8469V66.8438C59.375 67.4817 58.8567 68 58.2188 68C49.5918 68 41.2737 66.1228 33.4864 62.4138C21.7727 56.7766 12.2229 47.2266 6.59021 35.5216C2.8812 27.7299 1 19.4119 1 10.7812C1 10.1433 1.51828 9.625 2.15625 9.625H13.1531C14.8525 9.625 16.2655 10.9168 16.4266 12.6662C16.8593 17.4512 18.0778 22.1036 20.0414 26.4986L20.0415 26.4988C20.776 28.1413 20.1009 30.0341 18.5349 30.8204L18.534 30.8209L12.7165 33.7491L11.7872 34.2168L12.2913 35.1268C17.3027 44.1746 24.8122 51.6885 33.8686 56.7086L34.7785 57.2129L35.2465 56.2838L38.1788 50.4623C38.1789 50.4622 38.1789 50.462 38.179 50.4619C38.9685 48.8965 40.8608 48.2278 42.5005 48.9625L42.5026 48.9634C46.902 50.9226 51.5583 52.1364 56.3336 52.5733Z" stroke="white" stroke-width="2"/>
<path d="M47.4375 0C35.5479 0 25.875 9.67294 25.875 21.5625C25.875 33.4521 35.5479 43.125 47.4375 43.125C59.3271 43.125 69 33.4521 69 21.5625C69 9.67294 59.3271 0 47.4375 0ZM49.5938 29.8554V32.3438C49.5938 33.534 48.6278 34.5 47.4375 34.5C46.2472 34.5 45.2812 33.534 45.2812 32.3438V29.8899C44.5869 29.6916 43.9314 29.394 43.3493 29.0059C42.3574 28.3417 42.0943 27.0049 42.7541 26.013C43.4139 25.0211 44.7508 24.7581 45.747 25.4179C46.1912 25.7154 46.7777 25.875 47.4375 25.875C48.7571 25.875 49.5938 25.1677 49.5938 24.7969C49.5938 24.426 48.7571 23.7188 47.4375 23.7188C43.8711 23.7188 40.9688 21.2994 40.9688 18.3281C40.9688 15.9864 42.7757 14.0113 45.2812 13.2696V10.7812C45.2812 9.591 46.2472 8.625 47.4375 8.625C48.6278 8.625 49.5938 9.591 49.5938 10.7812V13.2351C50.2881 13.4334 50.9436 13.731 51.5257 14.1191C52.5133 14.7789 52.7807 16.1201 52.1209 17.1077C51.4568 18.0996 50.1199 18.3626 49.128 17.7028C48.6838 17.4096 48.0973 17.25 47.4375 17.25C46.1179 17.25 45.2812 17.9573 45.2812 18.3281C45.2812 18.699 46.1179 19.4062 47.4375 19.4062C51.0039 19.4062 53.9062 21.8256 53.9062 24.7969C53.9062 27.1386 52.0993 29.1137 49.5938 29.8554Z" fill="white"/>
</svg>
