<svg width="68" height="68" viewBox="0 0 68 68" fill="none" xmlns="http://www.w3.org/2000/svg">
<g clip-path="url(#clip0)">
<path d="M33.0886 21.3569C31.6299 23.0642 28.9035 26.3244 27.3064 28.7621L27.3051 28.764C26.7604 29.6038 26.9823 30.7457 27.8343 31.2984C28.6739 31.843 29.8155 31.6213 30.3684 30.7697C31.8912 28.4281 34.7235 25.0839 35.8748 23.7324L35.8748 23.7325L35.8801 23.7261C36.5063 22.9657 36.457 21.8005 35.6626 21.1463C34.8981 20.5167 33.7557 20.575 33.0886 21.3569ZM33.0886 21.3569L33.4687 21.6816M33.0886 21.3569C33.0885 21.357 33.0884 21.3571 33.0883 21.3572L33.4687 21.6816M33.4687 21.6816C33.9502 21.1172 34.7803 21.0674 35.3447 21.5322C35.9092 21.9971 35.959 22.8438 35.4941 23.4082C34.3486 24.7529 31.4932 28.123 29.9492 30.4971C29.5508 31.1113 28.7207 31.2773 28.1064 30.8789C27.4922 30.4805 27.3262 29.6504 27.7246 29.0361C29.3018 26.6289 32.0078 23.3916 33.4687 21.6816ZM28.0375 22.7839L28.0376 22.7837C30.0332 20.1944 32.2768 17.6373 34.6856 15.2286C40.3944 9.51973 47.7077 6.2116 53.9291 4.31717L63.6664 14.0704C61.772 20.2918 58.4638 27.6054 52.7548 33.3144C50.3468 35.7224 47.7729 37.9665 45.1984 39.9633C41.9093 42.5006 38.6136 44.6299 35.5664 46.1583C34.3729 43.1326 32.5573 40.3004 30.1202 37.8632C27.6835 35.4266 24.852 33.6113 21.8271 32.4178C23.3703 29.3693 25.5002 26.073 28.0375 22.7839ZM52.5323 15.4677C50.7764 13.7119 47.953 13.7119 46.1972 15.4677C44.4428 17.2221 44.4397 20.0628 46.198 21.8036C47.9539 23.5586 50.7767 23.5583 52.5323 21.8028C54.2881 20.047 54.2881 17.2235 52.5323 15.4677ZM39.3838 17.3437C38.6739 16.6338 37.5107 16.6338 36.8007 17.3437C36.0908 18.0536 36.0908 19.2169 36.8007 19.9268C37.5107 20.6367 38.6739 20.6367 39.3838 19.9268C40.0937 19.2169 40.0937 18.0536 39.3838 17.3437Z" stroke="white"/>
<path d="M16.081 52.762C15.8122 52.7981 15.5773 52.8266 15.384 52.8484C15.4059 52.6551 15.4343 52.4202 15.4704 52.1514C15.5782 51.3488 15.7538 50.2476 16.0246 49.0519C16.2958 47.8546 16.6603 46.5723 17.1433 45.4038C17.6278 44.2316 18.219 43.2049 18.929 42.49C19.481 41.9518 20.0669 41.482 20.6672 41.0804L27.156 47.5691C26.7658 48.1663 26.2955 48.7502 25.7447 49.3011C25.0297 50.0122 24.0021 50.6041 22.8286 51.0891C21.6601 51.5721 20.3778 51.9366 19.1806 52.2078C17.9848 52.4786 16.8836 52.6542 16.081 52.762Z" stroke="white"/>
<path d="M45.958 15.2454L45.958 15.2454L45.9595 15.244C47.8217 13.3667 50.8741 13.3647 52.7548 15.2454C54.634 17.1246 54.636 20.1626 52.7534 22.0602L52.7534 22.0602C50.8912 23.9375 47.8388 23.9395 45.958 22.0588C44.0781 20.1789 44.0781 17.1253 45.958 15.2454ZM46.1972 21.803C47.9527 23.5585 50.7754 23.5588 52.5313 21.804C54.2897 20.0632 54.2867 17.2224 52.5323 15.468C50.7764 13.7122 47.953 13.7122 46.1972 15.468C44.4414 17.2238 44.4414 20.0472 46.1972 21.803Z" stroke="white"/>
<path d="M66.1282 1.87179C66.1182 1.98421 66.1063 2.11233 66.0921 2.2554C66.0303 2.87789 65.926 3.78302 65.7562 4.90791C65.4428 6.98376 64.9068 9.80513 64.0044 12.978L55.022 3.99556C58.1949 3.09321 61.0162 2.55716 63.0921 2.24379C64.217 2.07397 65.1221 1.96967 65.7446 1.90791C65.8877 1.89372 66.0158 1.88177 66.1282 1.87179ZM63.2304 11.7256L63.848 12.3432L64.0679 11.4979C65.0382 7.76719 65.4898 4.6392 65.7073 2.84937L65.7836 2.22104L65.1547 2.29224C63.3761 2.49358 60.2312 2.9622 56.5021 3.93211L55.6568 4.15197L56.2744 4.76957L63.2304 11.7256Z" stroke="white"/>
<path d="M36.3968 62.7813L35.8643 64.4114L37.1894 63.3229C37.6699 62.9282 38.1469 62.485 38.587 62.045C43.7447 56.8872 46.1211 49.7418 45.1369 42.5978L45.0224 41.7662L44.3457 42.263C41.7407 44.1755 39.1393 45.805 36.7077 47.0701L36.3353 47.2639L36.4617 47.6642C38.024 52.6116 37.9913 57.9002 36.3968 62.7813ZM35.0453 65.35C37.6964 59.5971 37.992 53.0268 35.9327 47.1014C38.895 45.6254 42.07 43.6012 45.2376 41.2045C46.6837 48.5984 44.5413 56.5525 38.8267 62.2835C37.642 63.4562 36.3794 64.4781 35.0453 65.35Z" stroke="white"/>
<path d="M20.3362 31.5384L20.7363 31.6643L20.9299 31.2922C22.195 28.8605 23.8248 26.2586 25.7216 23.6525L26.2131 22.9773L25.3858 22.863C18.2581 21.8787 11.1126 24.2554 5.95504 29.413L5.95498 29.4129L5.94843 29.4197C5.51249 29.8724 5.09047 30.3281 4.68385 30.8024L3.52044 32.1598L5.2192 31.603C10.0831 30.0088 15.3716 29.9757 20.3362 31.5384ZM5.71586 29.1738C11.4458 23.4438 19.399 21.3155 26.7933 22.7619C24.3827 25.9316 22.3583 29.119 20.8828 32.0675C14.9572 30.0076 8.39905 30.3035 2.64775 32.9555C3.52072 31.6154 4.54339 30.3463 5.71586 29.1738Z" stroke="white"/>
<path d="M45.0284 14.2989C47.4229 11.9043 51.3066 11.9043 53.7011 14.2989C56.0947 16.6925 56.0969 20.5766 53.7172 22.9888C51.305 25.3838 47.4218 25.3816 45.0284 22.9882C42.618 20.5779 42.633 16.6943 45.0284 14.2989ZM46.1972 21.8028C47.9527 23.5583 50.7754 23.5586 52.5313 21.8037C54.2898 20.063 54.2867 17.2222 52.5323 15.4677C50.7765 13.7119 47.953 13.7119 46.1972 15.4677C44.4414 17.2235 44.4414 20.047 46.1972 21.8028Z" fill="white" stroke="white"/>
<path d="M9.05301 57.7786C9.3724 57.4592 9.9025 57.4592 10.2219 57.7786C10.5413 58.098 10.5413 58.6281 10.2219 58.9475L1.9211 67.2482C1.60172 67.5676 1.07162 67.5676 0.752235 67.2482C0.432849 66.9288 0.432849 66.3987 0.752234 66.0794L9.05301 57.7786Z" fill="white" stroke="white"/>
<path d="M22.334 57.7786C22.6534 57.4592 23.1835 57.4592 23.5029 57.7786C23.8223 58.098 23.8223 58.6281 23.5029 58.9475L15.2021 67.2482C14.8827 67.5676 14.3526 67.5676 14.0332 67.2482C13.7139 66.9288 13.7139 66.3987 14.0332 66.0794L22.334 57.7786Z" fill="white" stroke="white"/>
<path d="M9.05301 44.4974C9.3724 44.178 9.9025 44.178 10.2219 44.4974C10.5413 44.8167 10.5413 45.3468 10.2219 45.6662L1.9211 53.967C1.60172 54.2864 1.07162 54.2864 0.752235 53.967C0.432849 53.6476 0.432849 53.1175 0.752235 52.7981L9.05301 44.4974Z" fill="white" stroke="white"/>
<path d="M0.164867 33.5373C1.31037 31.4787 2.73811 29.5695 4.43147 27.9094C10.408 21.9162 18.8582 19.3596 27.1424 20.9865C29.0848 18.5461 31.1766 16.1887 33.4012 13.964C43.7273 3.63788 59.8475 0.400575 66.6043 0.018739C66.9861 -0.0144641 67.3514 0.13495 67.617 0.400575C67.8826 0.6662 68.0154 1.03143 67.9988 1.39667L0.164867 33.5373ZM0.164867 33.5373C-0.482593 34.6994 0.812328 35.9777 1.97444 35.3469L0.164867 33.5373ZM66.6607 1.01715L66.6758 1.01629L66.6909 1.01498C66.7517 1.0097 66.8334 1.03115 66.9099 1.10768C66.9675 1.16527 67.0035 1.25225 67 1.34808C66.8379 4.29692 65.8427 9.93671 64.5551 14.0114L64.555 14.0113L64.551 14.0245C62.0649 22.2845 58.2867 28.9524 53.3464 33.8927L53.3438 33.8953C51.167 36.0885 48.8228 38.1545 46.4083 40.0761L45.9326 40.4547L46.0498 41.0513C47.6126 49.009 45.1584 57.1051 39.4011 62.8624L39.3976 62.8659C37.7895 64.49 35.9749 65.8592 33.9845 66.9584C33.895 67.0065 33.8258 67.0096 33.7717 67.0002C33.7091 66.9892 33.6409 66.9557 33.5836 66.899C33.5264 66.8424 33.495 66.7778 33.485 66.7211C33.4765 66.673 33.4777 66.6045 33.5303 66.5085C36.5812 60.9614 37.2748 54.4427 35.4718 48.3923L35.1474 47.3035L34.1086 47.7636C32.9799 48.2634 31.9065 48.6634 30.9044 48.9656L30.8975 48.9677L30.8906 48.9699C30.142 49.2076 29.2863 49.095 28.5601 48.6317L27.8145 48.1561L27.2513 48.8379C26.9455 49.2081 26.6363 49.5627 26.3197 49.8794C24.8223 51.3686 22.1291 52.3451 19.5931 52.9446C17.2546 53.4974 15.2448 53.6872 14.8778 53.7209H14.8777H14.8775H14.8773H14.8772H14.877H14.8768H14.8766H14.8764H14.8762H14.876H14.8758H14.8756H14.8754H14.8752H14.875H14.8748H14.8746H14.8744H14.8742H14.874H14.8738H14.8737H14.8735H14.8733H14.8731H14.8729H14.8727H14.8725H14.8723H14.8721H14.8719H14.8717H14.8715H14.8713H14.8711H14.8709H14.8707H14.8705H14.8703H14.8702H14.87H14.8698H14.8696H14.8694H14.8692H14.869H14.8688H14.8686H14.8684H14.8682H14.868H14.8678H14.8676H14.8674H14.8672H14.867H14.8668H14.8666H14.8665H14.8663H14.8661H14.8659H14.8657H14.8655H14.8653H14.8651H14.8649H14.8647H14.8645H14.8643H14.8641H14.8639H14.8637H14.8635H14.8633H14.8631H14.863H14.8628H14.8626H14.8624H14.8622H14.862H14.8618H14.8616H14.8614H14.8612H14.861H14.8608H14.8606H14.8604H14.8602H14.86H14.8598H14.8596H14.8595H14.8593H14.8591H14.8589H14.8587H14.8585H14.8583H14.8581H14.8579H14.8577H14.8575H14.8573H14.8571H14.8569H14.8567H14.8565H14.8563H14.8561H14.8559H14.8558H14.8556H14.8554H14.8552H14.855H14.8548H14.8546H14.8544H14.8542H14.854H14.8538H14.8536H14.8534H14.8532H14.853H14.8528H14.8526H14.8524H14.8523H14.8521H14.8519H14.8517H14.8515H14.8513H14.8511H14.8509H14.8507H14.8505H14.8503H14.8501H14.8499H14.8497H14.8495H14.8493H14.8491H14.8489H14.8488H14.8486H14.8484H14.8482H14.848H14.8478H14.8476H14.8474H14.8472H14.847H14.8468H14.8466H14.8464H14.8462H14.846H14.8458H14.8456H14.8454H14.8452H14.8451H14.8449H14.8447H14.8445H14.8443H14.8441H14.8439H14.8437H14.8435H14.8433H14.8431H14.8429H14.8427H14.8425H14.8423H14.8421H14.8419H14.8417H14.8416H14.8414H14.8412H14.841H14.8408H14.8406H14.8404H14.8402H14.84H14.8398H14.8396H14.8394H14.8392H14.839H14.8388H14.8386H14.8384H14.8382H14.838H14.8379H14.8377H14.8375H14.8373H14.8371H14.8369H14.8367H14.8365H14.8363H14.8361H14.8359H14.8357H14.8355H14.8353H14.8351H14.8349H14.8347H14.8345H14.8344H14.8342H14.834H14.8338H14.8336H14.8334H14.8332H14.833H14.8328H14.8326H14.8324H14.8322H14.832H14.8318H14.8316H14.8314H14.8312H14.831H14.8309H14.8307H14.8305H14.8303H14.8301H14.8299H14.8297H14.8295H14.8293H14.8291H14.8289H14.8287H14.8285H14.8283H14.8281H14.8279H14.8277H14.8275H14.8273H14.8272H14.827H14.8268H14.8266H14.8264H14.8262H14.826H14.8258H14.8256H14.8254H14.8252H14.825H14.8248H14.8246H14.8244H14.8242H14.824C14.6109 53.7209 14.4771 53.5562 14.4923 53.3779L14.4939 53.3593L14.4948 53.3407C14.4947 53.3429 14.4951 53.3344 14.4969 53.3105C14.4984 53.2888 14.5008 53.2591 14.5039 53.2216C14.5103 53.1467 14.5197 53.0434 14.5329 52.9148C14.5591 52.6575 14.5997 52.3015 14.6586 51.8718C14.7766 51.0111 14.9669 49.8624 15.2597 48.6237C15.8591 46.0882 16.8398 43.3948 18.3368 41.8977C18.6527 41.5819 18.9898 41.2898 19.342 41.0017L20.076 40.4011L19.5152 39.6364C18.9579 38.8764 18.7831 37.9209 19.0357 37.0788C19.3379 36.0771 19.7378 35.004 20.2374 33.8758L20.6987 32.8342L19.6061 32.5118C13.5607 30.7276 7.04379 31.4017 1.49488 34.4693C1.40759 34.5161 1.34037 34.519 1.28697 34.5094C1.22452 34.4982 1.15519 34.464 1.09627 34.4054C1.0374 34.3469 1.00567 34.2807 0.995667 34.2243C0.987292 34.1771 0.98885 34.113 1.03844 34.024L1.03869 34.0235C2.14053 32.0434 3.51102 30.2122 5.13154 28.6234L5.13158 28.6235L5.13955 28.6155C10.8793 22.8597 18.9912 20.4048 26.9497 21.9678L27.5462 22.0849L27.9248 21.6093C29.8449 19.1968 31.9117 16.8678 34.1083 14.6712C39.1301 9.64931 45.5921 6.32402 51.6702 4.20661C57.7469 2.08968 63.3744 1.20286 66.6607 1.01715ZM35.9203 62.6447L34.8122 66.0369L37.5217 63.7145C38.0061 63.2993 38.4858 62.8536 38.9253 62.431L38.9324 62.4242L38.9393 62.4172C44.208 57.1486 46.6366 49.847 45.6311 42.5483L45.402 40.8851L44.0486 41.8787C41.4617 43.778 38.882 45.3934 36.4758 46.6453L35.7309 47.0328L35.9837 47.8335C37.5146 52.6814 37.4824 57.863 35.9203 62.6447ZM35.0921 45.4112L35.5246 46.3957L36.4752 45.8929C42.33 42.7963 48.2526 38.063 52.8847 33.4309C57.6367 28.6789 61.2619 22.319 63.6901 14.596L63.8719 14.0177L63.4432 13.589L54.412 4.55772L53.9833 4.12903L53.405 4.31087C45.6809 6.7394 39.3387 10.3648 34.5713 15.115L34.57 15.1163C29.9368 19.7495 25.2213 25.6714 22.1091 31.5238L21.5995 32.4821L22.5962 32.9117C25.3647 34.105 27.8497 35.8083 30.0212 37.9797C32.1892 40.1478 33.8792 42.6502 35.0921 45.4112ZM19.6602 37.2675L19.6575 37.2764L19.655 37.2852C19.4314 38.084 19.6995 38.9305 20.2761 39.5071L28.4865 47.7175C29.0572 48.3093 29.9302 48.5703 30.7095 48.343L30.7095 48.343L30.7169 48.3408C31.759 48.0282 32.8606 47.6144 34.0206 47.1026L34.9273 46.7026L34.5355 45.7924C33.3556 43.0507 31.6729 40.5885 29.5441 38.4593C27.4113 36.3096 24.9473 34.6441 22.2086 33.4654L21.3034 33.0758L20.9006 33.9753C20.3871 35.1222 19.9728 36.2253 19.6602 37.2675ZM15.3455 51.7529L15.1495 53.0839L16.4805 52.8879C17.8662 52.6839 19.6697 52.3337 21.3745 51.7935C23.0445 51.2644 24.7667 50.5089 25.8573 49.4182C26.211 49.0646 26.5585 48.6819 26.8587 48.2879L27.3876 47.5937L26.7715 46.9758L21.2764 41.4641L20.6721 40.858L19.98 41.3614C19.5584 41.668 19.1695 42.0218 18.8166 42.3746C17.7157 43.4666 16.9602 45.1903 16.4333 46.86C15.895 48.5654 15.5492 50.3691 15.3455 51.7529ZM4.28647 30.4793L1.96406 33.1887L5.35624 32.0806C10.1383 30.5185 15.3195 30.4865 20.1499 32.017L20.9491 32.2702L21.3379 31.5274C22.6064 29.1042 24.2227 26.5394 26.1081 23.949L27.0911 22.5984L25.4364 22.3699C18.1536 21.3642 10.8521 23.7933 5.58373 29.0616L5.57706 29.0683L5.57052 29.0751C5.13028 29.5323 4.70128 29.9953 4.28647 30.4793ZM56.375 3.45035L54.6845 3.89006L55.9197 5.12526L62.8757 12.0813L64.1065 13.3121L64.5498 11.6289C65.5446 7.85209 66.0003 4.69813 66.2034 2.90369L66.3446 1.65634L65.0973 1.79755C63.2999 2.00102 60.1312 2.47341 56.375 3.45035Z" stroke="white" stroke-width="2"/>
</g>
<defs>
<clipPath id="clip0">
<rect width="68" height="68" fill="white"/>
</clipPath>
</defs>
</svg>
