<svg width="83" height="84" viewBox="0 0 83 84" fill="none" xmlns="http://www.w3.org/2000/svg">
<path d="M82.5746 63.742L78.8767 59.1583C78.283 58.4202 77.9607 57.4931 77.9607 56.5318V52.2057V49.4418V41.4419V19.2792C77.9607 15.2277 74.7039 11.9316 70.7007 11.9316H43.5433H12.3658C8.36263 11.9316 5.10578 15.2277 5.10578 19.2792V49.4418V51.0555V56.4631C5.10578 57.4245 4.78349 58.3343 4.18979 59.0725L0.441031 63.7248C0.152665 64.0681 0 64.5145 0 64.9608V67.0895C0 69.8363 2.20515 72.068 4.91919 72.068H78.0794C80.7935 72.068 82.9986 69.8363 82.9986 67.0895V64.9608C83.0156 64.5316 82.8629 64.0853 82.5746 63.742ZM49.3955 64.8235C49.3955 66.214 48.2759 67.3642 46.885 67.3642H36.1645C34.7906 67.3642 33.6541 66.2312 33.6541 64.8235V64.2741H49.3785V64.8235H49.3955ZM70.7176 52.2228V56.9438H12.3319V51.3816V49.4418V19.262L12.3489 19.2448H46.8171H70.6837C70.7007 19.2448 70.7007 19.262 70.7007 19.262V49.4418V51.3816V51.8795V52.2228H70.7176Z" fill="white"/>
<path d="M51.8382 28.9615H33.5524C33.0265 28.9615 32.5346 29.116 32.0936 29.3735L31.1606 26.0602C31.0079 25.5281 30.516 25.1504 29.9732 25.1504H28.5484H25.8343C25.3085 25.1504 24.9014 25.5796 24.9014 26.0946V26.1976C24.9014 26.7298 25.3254 27.1418 25.8343 27.1418H29.3965L31.2115 33.6309L33.705 42.5922C32.2802 42.9527 31.2285 44.2574 31.2285 45.8024C31.2285 47.5535 32.5855 48.9955 34.2818 49.0985C34.1461 49.5105 34.0782 49.9569 34.1121 50.4375C34.2309 52.0169 35.5031 53.2873 37.0806 53.4074C38.9465 53.5448 40.5071 52.0341 40.5071 50.18C40.5071 49.8023 40.4392 49.4418 40.3205 49.1157H44.0523C43.8996 49.562 43.8318 50.0427 43.8996 50.5577C44.0692 52.0856 45.3245 53.3044 46.8511 53.4074C48.717 53.5448 50.2776 52.0512 50.2776 50.18C50.2776 48.3775 48.8018 46.9354 47.0208 46.9354H34.5192C33.9086 46.9354 33.3997 46.4548 33.3658 45.8367C33.3488 45.1844 33.8577 44.6522 34.4853 44.6522H36.3682H46.5288H49.3955C50.6677 44.6522 51.7703 43.7767 52.0757 42.5235L54.5522 32.3949C54.7558 31.5366 54.5692 30.6439 54.0094 29.9572C53.5005 29.322 52.6863 28.9615 51.8382 28.9615ZM47.0716 49.1157C47.6484 49.1157 48.1233 49.5963 48.1233 50.18C48.1233 50.7637 47.6484 51.2444 47.0716 51.2444C46.4949 51.2444 46.02 50.7637 46.02 50.18C46.02 49.5963 46.4949 49.1157 47.0716 49.1157ZM37.3011 49.1157C37.8779 49.1157 38.3528 49.5963 38.3528 50.18C38.3528 50.7637 37.8779 51.2444 37.3011 51.2444C36.7244 51.2444 36.2494 50.7637 36.2494 50.18C36.2494 49.5963 36.7074 49.1157 37.3011 49.1157ZM33.4336 33.6481L32.9587 31.9314C32.8908 31.6739 32.9926 31.4679 33.0604 31.382C33.1283 31.2962 33.281 31.1245 33.5524 31.1245H35.554L36.0968 33.6309H33.4336V33.6481ZM34.0273 35.8112H36.5548L37.0636 38.1459H34.6719L34.0273 35.8112ZM36.3682 42.5063C36.0968 42.5063 35.8423 42.3175 35.7745 42.0428L35.2826 40.2918H37.5386L38.0136 42.4892H36.3682V42.5063ZM41.7284 42.5063H40.2187L39.7438 40.3089H41.7284V42.5063ZM41.7284 38.1459H39.2688L38.7599 35.8112H41.7284V38.1459ZM41.7284 33.6481H38.3019L37.7591 31.1417H41.7454V33.6481H41.7284ZM45.562 42.5063H43.8657V40.3089H46.02L45.562 42.5063ZM46.478 38.1459H43.8827V35.8112H46.9699L46.478 38.1459ZM43.8657 33.6481V31.1417H47.9368L47.4109 33.6481H43.8657ZM50.0062 42.0257C49.9383 42.3003 49.6839 42.5063 49.3955 42.5063H47.7502L48.2082 40.3089H50.4303L50.0062 42.0257ZM50.9561 38.1459H48.6661L49.1581 35.8112H51.5328L50.9561 38.1459ZM52.4828 31.9142L52.0587 33.6481H49.5991L50.1249 31.1417H51.8891C52.1605 31.1417 52.3131 31.2962 52.381 31.382C52.4488 31.4507 52.5506 31.6567 52.4828 31.9142Z" fill="white"/>
</svg>
