<svg width="89" height="89" viewBox="0 0 89 89" fill="none" xmlns="http://www.w3.org/2000/svg">
<g clip-path="url(#clip0)">
<path d="M38.9637 55.7007C37.8976 56.0569 37.314 57.226 37.6702 58.2921C38.0263 59.3582 39.1955 59.9418 40.2616 59.5856C41.3277 59.2294 41.9112 58.0603 41.5551 56.9942C41.2049 55.9161 40.0358 55.3325 38.9637 55.7007Z" fill="white"/>
<path d="M33.6118 43.7093C33.2557 42.6432 32.0865 42.0596 31.0204 42.4158C29.9543 42.7719 29.3707 43.9411 29.7269 45.0072C30.0831 46.0733 31.2522 46.6569 32.3183 46.3007C33.3844 45.9445 33.962 44.7874 33.6118 43.7093Z" fill="white"/>
<path d="M59.5232 28.3165L57.8057 23.3877L57.2997 21.9353L58.8324 22.062C58.9828 22.0744 59.0867 22.0825 59.1892 22.0824L59.2253 22.0824L59.2614 22.085C63.263 22.372 67.1407 23.3137 69.94 24.711L69.9402 24.7111L69.9405 24.7112L69.9407 24.7113L69.9409 24.7114L69.9411 24.7115L69.9413 24.7116L69.9415 24.7117L69.9417 24.7118L69.942 24.7119L69.9422 24.712L69.9424 24.7121L69.9426 24.7122L69.9428 24.7124L69.943 24.7125L69.9432 24.7126L69.9435 24.7127L69.9437 24.7128L69.9439 24.7129L69.9441 24.713L69.9443 24.7131L69.9445 24.7132L69.9448 24.7133L69.945 24.7134L69.9452 24.7135L69.9454 24.7136L69.9456 24.7138L69.9459 24.7139L69.9461 24.714L69.9463 24.7141L69.9465 24.7142L69.9467 24.7143L69.947 24.7144L69.9472 24.7145L69.9474 24.7146L69.9476 24.7147L69.9478 24.7149L69.9481 24.715L69.9483 24.7151L69.9485 24.7152L69.9487 24.7153L69.9489 24.7154L69.9492 24.7155L69.9494 24.7156L69.9496 24.7157L69.9498 24.7159L69.9501 24.716L69.9503 24.7161L69.9505 24.7162L69.9507 24.7163L69.951 24.7164L69.9512 24.7165L69.9514 24.7166L69.9516 24.7168L69.9519 24.7169L69.9521 24.717L69.9523 24.7171L69.9525 24.7172L69.9528 24.7173L69.953 24.7174L69.9532 24.7175L69.9534 24.7177L69.9537 24.7178L69.9539 24.7179L69.9541 24.718L69.9543 24.7181L69.9546 24.7182L69.9548 24.7183L69.955 24.7184L69.9553 24.7186L69.9555 24.7187L69.9557 24.7188L69.9559 24.7189L69.9562 24.719L69.9564 24.7191L69.9566 24.7192L69.9569 24.7194L69.9571 24.7195L69.9573 24.7196L69.9575 24.7197L69.9578 24.7198L69.958 24.7199L69.9582 24.7201L69.9585 24.7202L69.9587 24.7203L69.9589 24.7204L69.9592 24.7205L69.9594 24.7206L69.9596 24.7207L69.9599 24.7209L69.9601 24.721L69.9603 24.7211L69.9606 24.7212L69.9608 24.7213L69.961 24.7214L69.9613 24.7216L69.9615 24.7217L69.9617 24.7218L69.962 24.7219L69.9622 24.722L69.9624 24.7221L69.9627 24.7223L69.9629 24.7224L69.9631 24.7225L69.9634 24.7226L69.9636 24.7227L69.9638 24.7228L69.9641 24.723L69.9643 24.7231L69.9645 24.7232L69.9648 24.7233L69.965 24.7234L69.9652 24.7235L69.9655 24.7237L69.9657 24.7238L69.966 24.7239L69.9662 24.724L69.9664 24.7241L69.9667 24.7243L69.9669 24.7244L69.9671 24.7245L69.9674 24.7246L69.9676 24.7247L69.9678 24.7248L69.9681 24.725L69.9683 24.7251L69.9686 24.7252L69.9688 24.7253L69.969 24.7254L69.9693 24.7256L69.9695 24.7257L69.9698 24.7258L69.97 24.7259L69.9702 24.726L69.9705 24.7262L69.9707 24.7263L69.9709 24.7264L69.9712 24.7265L69.9714 24.7266L69.9717 24.7268L69.9719 24.7269L69.9721 24.727L69.9724 24.7271L69.9726 24.7272L69.9729 24.7274L69.9731 24.7275L69.9734 24.7276L69.9736 24.7277L69.9738 24.7278L69.9741 24.728L69.9743 24.7281L69.9746 24.7282L69.9748 24.7283L69.975 24.7284L69.9753 24.7286L69.9755 24.7287L69.9758 24.7288L69.976 24.7289L69.9762 24.729L69.9765 24.7292L69.9767 24.7293L69.977 24.7294L69.9772 24.7295L69.9775 24.7296L69.9777 24.7298L69.9779 24.7299L69.9782 24.73L69.9784 24.7301L69.9787 24.7303L69.9789 24.7304L69.9792 24.7305L69.9794 24.7306L69.9796 24.7307L69.9799 24.7309L69.9801 24.731L69.9804 24.7311L69.9806 24.7312L69.9809 24.7313L69.9811 24.7315L69.9814 24.7316L69.9816 24.7317L69.9818 24.7318L69.9821 24.732L69.9823 24.7321L69.9826 24.7322L69.9828 24.7323L69.9831 24.7324L69.9833 24.7326L69.9835 24.7327L69.9838 24.7328L69.984 24.7329L69.9843 24.7331L69.9845 24.7332L69.9848 24.7333L69.985 24.7334L69.9853 24.7335L69.9855 24.7337L69.9858 24.7338L69.986 24.7339L69.9862 24.734L69.9865 24.7342L69.9867 24.7343L69.987 24.7344L69.9872 24.7345L69.9875 24.7346L69.9877 24.7348L69.988 24.7349L69.9882 24.735L69.9885 24.7351L69.9887 24.7353L69.9889 24.7354L69.9892 24.7355L69.9894 24.7356L69.9897 24.7357L69.9899 24.7359L69.9902 24.736L69.9904 24.7361L69.9907 24.7362L69.9909 24.7364L69.9912 24.7365L69.9914 24.7366L69.9917 24.7367L69.9919 24.7369L69.9922 24.737L69.9924 24.7371L69.9926 24.7372L69.9929 24.7373L69.9931 24.7375L69.9934 24.7376L69.9936 24.7377L69.9939 24.7378L69.9941 24.738L69.9944 24.7381L69.9946 24.7382L69.9949 24.7383L69.9951 24.7385L69.9954 24.7386L69.9956 24.7387L69.9959 24.7388L69.9961 24.7389L69.9963 24.7391L69.9966 24.7392L69.9968 24.7393L69.9971 24.7394L69.9973 24.7396L69.9976 24.7397L69.9978 24.7398L69.9981 24.7399L69.9983 24.7401L69.9986 24.7402L69.9988 24.7403L69.9991 24.7404L69.9993 24.7406L69.9996 24.7407L69.9998 24.7408L70.0001 24.7409L70.0003 24.741L70.0005 24.7412L70.0008 24.7413L70.001 24.7414L70.0013 24.7415L70.0015 24.7417L70.0018 24.7418L70.002 24.7419L70.0023 24.742L70.0025 24.7422L70.0028 24.7423L70.003 24.7424L70.0033 24.7425L70.0035 24.7426L70.0038 24.7428L70.004 24.7429L70.0043 24.743L70.0045 24.7431L70.0047 24.7433L70.005 24.7434L70.0052 24.7435L70.0055 24.7436L70.0057 24.7438L70.006 24.7439L70.0062 24.744L70.0065 24.7441L70.0067 24.7443L70.007 24.7444L70.0072 24.7445L70.0075 24.7446L70.0077 24.7447L70.008 24.7449L70.0082 24.745L70.0085 24.7451L70.0087 24.7452L70.0089 24.7454L70.0092 24.7455L70.0094 24.7456L70.0097 24.7457L70.0099 24.7459L70.0102 24.746L70.0104 24.7461L70.0107 24.7462L70.0109 24.7463L70.0112 24.7465L70.0114 24.7466L70.0117 24.7467L70.0119 24.7468L70.0121 24.747L70.0124 24.7471L70.0126 24.7472L70.0129 24.7473L70.0131 24.7475L70.0134 24.7476L70.0136 24.7477L70.0139 24.7478L70.0141 24.7479L70.0144 24.7481L70.0146 24.7482L70.0148 24.7483L70.0151 24.7484L70.0153 24.7486L70.0156 24.7487L70.0158 24.7488L70.0161 24.7489L70.0163 24.749L70.0166 24.7492L70.0168 24.7493L70.0171 24.7494L70.0173 24.7495L70.0175 24.7497L70.0178 24.7498L70.018 24.7499L70.0183 24.75L70.0185 24.7501L70.0188 24.7503L70.019 24.7504L70.0193 24.7505L70.0195 24.7506L70.0197 24.7507L70.02 24.7509L70.0202 24.751L70.0205 24.7511L70.0207 24.7512L70.021 24.7514L70.0212 24.7515L70.0214 24.7516L70.0217 24.7517L70.0219 24.7518L70.0222 24.752L70.0224 24.7521L70.0227 24.7522L70.0229 24.7523L70.0231 24.7524L70.0234 24.7526L70.0236 24.7527L70.0239 24.7528L70.0241 24.7529L70.0244 24.7531L70.0246 24.7532L70.0248 24.7533L70.0251 24.7534L70.0253 24.7535L70.0256 24.7537L70.0258 24.7538L70.026 24.7539L70.0263 24.754L70.0265 24.7541L70.0268 24.7543L70.027 24.7544L70.0273 24.7545L70.0275 24.7546L70.0277 24.7547L70.028 24.7549L70.0282 24.755L70.0285 24.7551L70.0287 24.7552L70.0289 24.7553L70.0292 24.7555L70.0294 24.7556L70.0297 24.7557L70.0299 24.7558L70.0301 24.7559L70.0304 24.7561L70.0306 24.7562L70.0308 24.7563L70.0311 24.7564L70.0313 24.7565L70.0316 24.7567L70.0318 24.7568L70.032 24.7569L70.0323 24.757L70.0325 24.7571L70.0328 24.7572L70.033 24.7574L70.0332 24.7575L70.0335 24.7576L70.0337 24.7577L70.0339 24.7578L70.0342 24.758L70.0344 24.7581L70.0347 24.7582L70.0349 24.7583L70.0351 24.7584L70.0354 24.7585L70.0356 24.7587L70.0358 24.7588L70.0361 24.7589L70.0363 24.759L70.0365 24.7591L70.0368 24.7593L70.037 24.7594L70.0372 24.7595L70.0375 24.7596L70.0377 24.7597L70.0379 24.7598L70.0382 24.76L70.0384 24.7601L70.0386 24.7602L70.0389 24.7603L70.0391 24.7604L70.0393 24.7605L70.0396 24.7607L70.0398 24.7608L70.04 24.7609L70.0403 24.761L70.0405 24.7611L70.0407 24.7612L70.041 24.7613L70.0412 24.7615L70.0414 24.7616L70.0417 24.7617L70.0419 24.7618L70.0421 24.7619L70.0424 24.762L70.0426 24.7622L70.0428 24.7623L70.0431 24.7624L70.0433 24.7625L70.0435 24.7626L70.0437 24.7627L70.044 24.7628L70.0442 24.763L70.0444 24.7631L70.0447 24.7632L70.0449 24.7633L70.0451 24.7634L70.0454 24.7635L70.0456 24.7636L70.0458 24.7638L70.046 24.7639L70.0463 24.764L70.0465 24.7641L70.0467 24.7642L70.0469 24.7643L70.0472 24.7644L70.0474 24.7646L70.0476 24.7647L70.0478 24.7648L70.0481 24.7649L70.0483 24.765L70.0485 24.7651L70.0488 24.7652L70.049 24.7653L70.0492 24.7655L70.0494 24.7656L70.0497 24.7657L70.0499 24.7658L70.0501 24.7659L70.0503 24.766L70.0505 24.7661L70.0508 24.7662L70.051 24.7663L70.0512 24.7665L70.0514 24.7666L70.0517 24.7667L70.0519 24.7668L70.0521 24.7669L70.0523 24.767L70.0525 24.7671L70.0528 24.7672L70.053 24.7673L70.0532 24.7675L70.0534 24.7676L70.0537 24.7677L70.0539 24.7678L70.0541 24.7679L70.0543 24.768L70.0545 24.7681L70.0548 24.7682L70.055 24.7683L70.0552 24.7684L70.0554 24.7686L70.0556 24.7687L70.0558 24.7688L70.0561 24.7689L70.0563 24.769L70.0565 24.7691L70.0567 24.7692L70.0569 24.7693L70.0571 24.7694L70.0574 24.7695L70.0576 24.7696L70.0578 24.7697L70.058 24.7698L70.0582 24.77L70.0584 24.7701L70.0586 24.7702L70.0589 24.7703L70.0591 24.7704L70.0593 24.7705L70.0595 24.7706L70.0597 24.7707L70.0599 24.7708L70.0601 24.7709L70.0604 24.771L70.0606 24.7711L70.069 24.7754L70.069 24.7754C71.4076 25.4595 72.2996 26.1393 72.8661 26.7574C73.1495 27.0666 73.3628 27.3728 73.5054 27.6689C73.64 27.9482 73.7438 28.2859 73.7153 28.636L59.5232 28.3165ZM59.5232 28.3165C59.1798 28.3017 58.8299 28.2812 58.4728 28.2548L58.4723 28.2547C56.2415 28.0904 54.0856 27.7165 52.1625 27.1812C51.7291 25.7146 50.7146 24.4192 49.2272 23.6768C46.3947 22.2629 42.9573 23.4113 41.5435 26.2438C40.1297 29.0762 41.2781 32.5136 44.1105 33.9275C46.7806 35.2602 49.9883 34.3161 51.5316 31.8307C53.6522 32.4423 56.033 32.8532 58.4617 33.0267C63.1415 33.3658 66.7934 32.8213 69.3248 31.9902C70.5866 31.576 71.5964 31.0818 72.32 30.5692C72.681 30.3135 72.9945 30.0364 73.2322 29.741C73.4595 29.4584 73.6787 29.0823 73.7151 28.6379L59.5232 28.3165ZM57.0425 19.186C57.8262 19.1854 58.6268 19.2197 59.4525 19.2781L59.4534 19.2782C63.9343 19.5995 68.084 20.6448 71.1826 22.1915L71.1829 22.1916L71.1833 22.1918L71.1837 22.192L71.184 22.1922L71.1844 22.1924L71.1847 22.1925L71.1851 22.1927L71.1854 22.1929L71.1858 22.1931L71.1861 22.1932L71.1865 22.1934L71.1868 22.1936L71.1872 22.1938L71.1875 22.1939L71.1879 22.1941L71.1882 22.1943L71.1886 22.1944L71.1889 22.1946L71.1893 22.1948L71.1896 22.195L71.19 22.1951L71.1903 22.1953L71.1906 22.1955L71.191 22.1957L71.1913 22.1958L71.1917 22.196L71.192 22.1962L71.1924 22.1964L71.1927 22.1965L71.1931 22.1967L71.1934 22.1969L71.1938 22.197L71.1941 22.1972L71.1944 22.1974L71.1948 22.1976L71.1951 22.1977L71.1955 22.1979L71.1958 22.1981L71.1962 22.1982L71.1965 22.1984L71.1969 22.1986L71.1972 22.1988L71.1975 22.1989L71.1979 22.1991L71.1982 22.1993L71.1986 22.1994L71.1989 22.1996L71.1992 22.1998L71.1996 22.2L71.1999 22.2001L71.2003 22.2003L71.2006 22.2005L71.201 22.2006L71.2013 22.2008L71.2016 22.201L71.202 22.2011L71.2023 22.2013L71.2026 22.2015L71.203 22.2016L71.2033 22.2018L71.2037 22.202L71.204 22.2022L71.2043 22.2023L71.2047 22.2025L71.205 22.2027L71.2054 22.2028L71.2057 22.203L71.206 22.2032L71.2064 22.2033L71.2067 22.2035L71.207 22.2037L71.2074 22.2038L71.2077 22.204L71.208 22.2042L71.2084 22.2043L71.2087 22.2045L71.2091 22.2047L71.2094 22.2048L71.2097 22.205L71.2101 22.2052L71.2104 22.2053L71.2107 22.2055L71.2111 22.2057L71.2114 22.2058L71.2117 22.206L71.2121 22.2062L71.2124 22.2063L71.2127 22.2065L71.2131 22.2067L71.2134 22.2068L71.2137 22.207L71.2141 22.2072L71.2144 22.2073L71.2147 22.2075L71.2151 22.2077L71.2154 22.2078L71.2157 22.208L71.216 22.2082L71.2164 22.2083L71.2167 22.2085L71.217 22.2087L71.2174 22.2088L71.2177 22.209L71.218 22.2092L71.2184 22.2093L71.2187 22.2095L71.219 22.2097L71.2193 22.2098L71.2197 22.21L71.22 22.2101L71.2203 22.2103L71.2207 22.2105L71.221 22.2106L71.2213 22.2108L71.2217 22.211L71.222 22.2111L71.2223 22.2113L71.2226 22.2115L71.223 22.2116L71.2233 22.2118L71.2236 22.212L71.2239 22.2121L71.2243 22.2123L71.2246 22.2124L71.2249 22.2126L71.2253 22.2128L71.2256 22.2129L71.2259 22.2131L71.2262 22.2133L71.2266 22.2134L71.2269 22.2136L71.2272 22.2137L71.2275 22.2139L71.2279 22.2141L71.2282 22.2142L71.2285 22.2144L71.2288 22.2146L71.2292 22.2147L71.2295 22.2149L71.2298 22.215L71.2301 22.2152L71.2305 22.2154L71.2308 22.2155L71.2311 22.2157L71.2314 22.2159L71.2318 22.216L71.2321 22.2162L71.2324 22.2163L71.2327 22.2165L71.2331 22.2167L71.2334 22.2168L71.2337 22.217L71.234 22.2171L71.2344 22.2173L71.2347 22.2175L71.235 22.2176L71.2353 22.2178L71.2357 22.218L71.236 22.2181L71.2363 22.2183L71.2366 22.2184L71.2369 22.2186L71.2373 22.2188L71.2376 22.2189L71.2379 22.2191L71.2382 22.2192L71.2386 22.2194L71.2389 22.2196L71.2392 22.2197L71.2395 22.2199L71.2398 22.22L71.2402 22.2202L71.2405 22.2204L71.2408 22.2205L71.2411 22.2207L71.2414 22.2208L71.2418 22.221L71.2421 22.2212L71.2424 22.2213L71.2427 22.2215L71.2431 22.2217L71.2434 22.2218L71.2437 22.222L71.244 22.2221L71.2443 22.2223L71.2447 22.2225L71.245 22.2226L71.2453 22.2228L71.2456 22.2229L71.2459 22.2231L71.2463 22.2232L71.2466 22.2234L71.2469 22.2236L71.2472 22.2237L71.2475 22.2239L71.2479 22.224L71.2482 22.2242L71.2485 22.2244L71.2488 22.2245L71.2491 22.2247L71.2495 22.2248L71.2498 22.225L71.2501 22.2252L71.2504 22.2253L71.2507 22.2255L71.2511 22.2256L71.2514 22.2258L71.2517 22.226L71.252 22.2261L71.2523 22.2263L71.2526 22.2264L71.253 22.2266L71.2533 22.2268L71.2536 22.2269L71.2539 22.2271L71.2542 22.2272L71.2546 22.2274L71.2549 22.2276L71.2552 22.2277L71.2555 22.2279L71.2558 22.228L71.2562 22.2282L71.2565 22.2283L71.2568 22.2285L71.2571 22.2287L71.2574 22.2288L71.2577 22.229L71.2581 22.2291L71.2584 22.2293L71.2587 22.2295L71.259 22.2296L71.2593 22.2298L71.2597 22.2299L71.26 22.2301L71.2603 22.2303L71.2606 22.2304L71.2609 22.2306L71.2612 22.2307L71.2616 22.2309L71.2619 22.231L71.2622 22.2312L71.2625 22.2314L71.2628 22.2315L71.2632 22.2317L71.2635 22.2318L71.2638 22.232L71.2641 22.2322L71.2644 22.2323L71.2647 22.2325L71.2651 22.2326L71.2654 22.2328L71.2657 22.233L71.266 22.2331L71.2663 22.2333L71.2666 22.2334L71.267 22.2336L71.2673 22.2337L71.2676 22.2339L71.2679 22.2341L71.2682 22.2342L71.2686 22.2344L71.2689 22.2345L71.2692 22.2347L71.2695 22.2349L71.2698 22.235L71.2701 22.2352L71.2705 22.2353L71.2708 22.2355L71.2711 22.2356L71.2714 22.2358L71.2717 22.236L71.2721 22.2361L71.2724 22.2363L71.2727 22.2364L71.273 22.2366L71.2733 22.2368L71.2736 22.2369L71.274 22.2371L71.2743 22.2372L71.2746 22.2374L71.2749 22.2376L71.2752 22.2377L71.2755 22.2379L71.2759 22.238L71.2762 22.2382L71.2765 22.2383L71.2768 22.2385L71.2771 22.2387L71.2775 22.2388L71.2778 22.239L71.2781 22.2391L71.2784 22.2393L71.2787 22.2395L71.2791 22.2396L71.2794 22.2398L71.2797 22.2399L71.28 22.2401L71.2803 22.2403L71.2806 22.2404L71.281 22.2406L71.2813 22.2407L71.2816 22.2409L71.2819 22.2411L71.2822 22.2412L71.2826 22.2414L71.2829 22.2415L71.2832 22.2417L71.2835 22.2418L71.2838 22.242L71.2842 22.2422L71.2845 22.2423L71.2848 22.2425L71.2851 22.2426L71.2854 22.2428L71.2858 22.243L71.2861 22.2431L71.2864 22.2433L71.2867 22.2434L71.287 22.2436L71.2874 22.2438L71.2877 22.2439L71.288 22.2441L71.2883 22.2442L71.2886 22.2444L71.289 22.2446L71.2893 22.2447L71.2896 22.2449L71.2899 22.245L71.2902 22.2452L71.2906 22.2454L71.2909 22.2455L71.2912 22.2457L71.2915 22.2458L71.2918 22.246L71.2922 22.2462L71.2925 22.2463L71.2928 22.2465L71.2931 22.2466L71.2934 22.2468L71.2938 22.247L71.2941 22.2471L71.2944 22.2473L71.2947 22.2474L71.2951 22.2476L71.2954 22.2478L71.2957 22.2479L71.296 22.2481L71.2963 22.2482L71.2967 22.2484L71.297 22.2486L71.2973 22.2487L71.2976 22.2489L71.298 22.2491L71.2983 22.2492L71.2986 22.2494L71.2989 22.2495L71.2992 22.2497L71.2996 22.2499L71.2999 22.25L71.3002 22.2502L71.3005 22.2503L71.3009 22.2505L71.3012 22.2507L71.3015 22.2508L71.3018 22.251L71.3022 22.2512L71.3025 22.2513L71.3028 22.2515L71.3031 22.2516L71.3035 22.2518L71.3038 22.252L71.3041 22.2521L71.3044 22.2523L71.3048 22.2524L71.3051 22.2526L71.3054 22.2528L71.3057 22.2529L71.3061 22.2531L71.3064 22.2533L71.3067 22.2534L71.307 22.2536L71.3074 22.2538L71.3077 22.2539L71.308 22.2541L71.3083 22.2542L71.3087 22.2544L71.309 22.2546L71.3093 22.2547L71.3097 22.2549L71.31 22.2551L71.3103 22.2552L71.3106 22.2554L71.311 22.2555L71.3113 22.2557L71.3116 22.2559L71.3119 22.256L71.3123 22.2562L71.3126 22.2564L71.3129 22.2565L71.3133 22.2567L71.3136 22.2569L71.3139 22.257L71.3143 22.2572L71.3146 22.2574L71.3149 22.2575L71.3152 22.2577L71.3156 22.2578L71.3159 22.258L71.3162 22.2582L71.3166 22.2583L71.3169 22.2585L71.3172 22.2587L71.3176 22.2588L71.3179 22.259L71.3182 22.2592L71.3185 22.2593L71.3189 22.2595L71.3192 22.2597L71.3195 22.2598L71.3199 22.26L71.3202 22.2602L71.3205 22.2603L71.3209 22.2605L71.3212 22.2607L71.3215 22.2608L71.3219 22.261L71.3222 22.2612L71.3225 22.2613L71.3229 22.2615L71.3232 22.2617L71.3235 22.2618L71.3239 22.262L71.3242 22.2622L71.3245 22.2623L71.3249 22.2625L71.3252 22.2627L71.3256 22.2628L71.3259 22.263L71.3262 22.2632L71.3266 22.2633L71.3269 22.2635L71.3272 22.2637L71.3276 22.2638L71.3279 22.264L71.3282 22.2642L71.3286 22.2643L71.3289 22.2645L71.3293 22.2647L71.3296 22.2648L71.3299 22.265L71.3303 22.2652L71.3306 22.2654L71.3309 22.2655L71.3313 22.2657L71.3316 22.2659L71.332 22.266L71.3323 22.2662L71.3326 22.2664L71.333 22.2665L71.3333 22.2667L71.3337 22.2669L71.334 22.267L71.3343 22.2672L71.3347 22.2674L71.335 22.2676L71.3354 22.2677L71.3357 22.2679L71.336 22.2681L71.3364 22.2682L71.3367 22.2684L71.3371 22.2686L71.3374 22.2688L71.3378 22.2689L71.3381 22.2691L71.3384 22.2693L71.3388 22.2694L71.3391 22.2696L71.3395 22.2698L71.3398 22.27L71.3402 22.2701L71.3405 22.2703L71.3409 22.2705L71.3412 22.2706L71.3416 22.2708L71.3419 22.271L71.3422 22.2712L71.3426 22.2713L71.3429 22.2715L71.3433 22.2717L71.3436 22.2719L71.344 22.272L71.3443 22.2722L71.3447 22.2724L71.345 22.2725L71.3454 22.2727L71.3457 22.2729L71.3461 22.2731L71.3464 22.2732L71.3468 22.2734L71.3471 22.2736L71.3472 22.2736C73.8424 23.5484 75.1397 24.8948 75.8097 26.0334C76.4776 27.1685 76.5645 28.169 76.5168 28.8298C76.4694 29.488 76.2374 30.4656 75.4118 31.4946C74.5837 32.5268 73.1075 33.6742 70.467 34.5805C68.3081 35.3111 65.7167 35.7642 62.9038 35.9012L61.9931 35.9455L61.9534 36.8565C61.9123 37.8014 61.6616 38.7552 61.2225 39.6349L43.7572 74.6249C42.596 76.9512 39.7634 77.8975 37.4371 76.7364L14.1747 65.1249C11.8484 63.9637 10.9021 61.1311 12.0633 58.8048L29.5286 23.8148C30.3886 22.0918 31.9088 20.7924 33.739 20.2161L33.7418 20.2152L49.5286 15.1921L49.5289 15.192C52.2334 14.3306 55.1373 15.7784 56.0776 18.4556L56.0934 18.5028L56.3217 19.1864L57.0425 19.186ZM26.3421 41.7069L26.34 41.7113C24.8894 44.6536 26.0745 48.2165 29.0058 49.6797C29.8944 50.1233 30.8432 50.3221 31.7746 50.302L25.4321 53.0955L25.4321 53.0954L25.4242 53.099C24.3243 53.5949 23.8215 54.8822 24.3038 55.9982L24.3069 56.0054L24.3101 56.0125C24.806 57.1124 26.0934 57.6152 27.2094 57.1329L27.2157 57.1301L35.2929 53.5726C34.9017 53.9862 34.5643 54.463 34.2975 54.9975C32.8355 57.9264 34.0322 61.5084 36.9611 62.9703C39.8899 64.4323 43.4719 63.2356 44.9339 60.3067C46.3958 57.3779 45.1991 53.7959 42.2703 52.3339C41.3873 51.8932 40.4449 51.6941 39.5192 51.7112L45.8198 48.9362L45.8198 48.9363L45.8277 48.9327C46.9276 48.4368 47.4304 47.1495 46.9481 46.0335L46.945 46.0263L46.9418 46.0192C46.4459 44.9193 45.1585 44.4165 44.0425 44.8988L44.0362 44.9016L35.9709 48.4538C36.3673 48.0374 36.709 47.5562 36.9785 47.0161C38.4405 44.0872 37.2438 40.5052 34.3149 39.0433C31.3861 37.5813 27.8041 38.778 26.3421 41.7069Z" stroke="white" stroke-width="2"/>
</g>
<defs>
<clipPath id="clip0">
<rect width="65.8739" height="65.8739" fill="white" transform="translate(29.4197 0.228027) rotate(26.5262)"/>
</clipPath>
</defs>
</svg>
