<svg width="92" height="115" viewBox="0 0 92 115" fill="none" xmlns="http://www.w3.org/2000/svg">
<path d="M61 92H30V25.9323C30 17.2271 36.9795 0 45.5 0C54.1111 0 61 17.1355 61 25.9323V92Z" fill="#3EAAC0"/>
<path d="M81.91 92H64V34.1319C64 29.0879 68.05 19 73 19C77.95 19 82 29.0879 82 34.1319L81.91 92Z" fill="#41315B"/>
<path d="M27.91 92H10V34.1319C10 29.0879 14.05 19 19 19C23.95 19 28 29.0879 28 34.1319V92H27.91Z" fill="#41315B"/>
<path d="M82.9401 84.0177C71.3052 78.0247 62.8175 70.0654 59.6703 61.076C57.9537 56.2067 57 51.0565 57 46V99H92V95.9099C92 91.1343 88.4714 86.9205 82.9401 84.0177Z" fill="#E6E9EE"/>
<path d="M9.31881 84.0177C21.2861 78.0247 30.0164 70.0654 33.2534 61.076C35.0191 56.2067 36 51.0565 36 46V99H0V95.9099C0 91.1343 3.62943 86.9205 9.31881 84.0177Z" fill="#E6E9EE"/>
<path d="M58 40C57.9196 32.5605 52.8531 19 46.5 19C40.3077 19 35.1608 32.5605 35 40H58Z" fill="#E6E9EE"/>
<path d="M55.9091 103H37.0105C35.965 103 35 101.885 35 100.677V43.0558C35 35.7138 40.1468 28 46.5 28C52.8531 28 58 35.7138 58 43.0558V100.677C58 101.885 57.035 103 55.9091 103Z" fill="white"/>
<path d="M46.5 36C50.6422 36 54 34.6568 54 33C54 31.3431 50.6422 30 46.5 30C42.3579 30 39 31.3431 39 33C39 34.6568 42.3579 36 46.5 36Z" fill="#E6E9EE"/>
<path d="M58.6085 110H33.2666C31.8028 110 30.705 108.602 31.0709 107.117L32.4432 102.573C32.7177 101.699 33.6326 101 34.6389 101H57.3276C58.2425 101 59.2489 101.612 59.5234 102.573L60.8957 107.117C61.3531 108.515 60.2552 110 58.6085 110Z" fill="#E6E9EE"/>
<path d="M55.9847 110H49.0153L47 115H58L55.9847 110Z" fill="#41315B"/>
<path d="M43.1679 110H36.8321L35 115H45L43.1679 110Z" fill="#41315B"/>
<path d="M57 50C54.1304 48.1 50.8261 47 47 47C43.2609 47 39.8696 48.2 37 50C38.5652 44.2 42.3913 40 47 40C51.6087 40.1 55.3478 44.2 57 50Z" fill="#3EAAC0"/>
</svg>
