<svg width="27" height="27" viewBox="0 0 27 27" fill="none" xmlns="http://www.w3.org/2000/svg">
<g clip-path="url(#clip0)">
<path d="M24.7482 0H2.25176C1.00723 0 0 1.00723 0 2.25176V24.7535C0 25.9928 1.00723 27 2.25176 27H24.7535C25.998 27 27 25.9928 27.0053 24.7482V2.25176C27 1.00723 25.9928 0 24.7482 0ZM26.0982 24.7482C26.0982 25.4918 25.4918 26.0982 24.7482 26.0982H2.25176C1.5082 26.0982 0.901758 25.4918 0.901758 24.7482V4.49824H26.1035L26.0982 24.7482ZM26.0982 3.60176H0.901758V2.25176C0.901758 1.5082 1.5082 0.901758 2.25176 0.901758H24.7535C25.4971 0.901758 26.1035 1.5082 26.1035 2.25176L26.0982 3.60176Z" fill="url(#paint0_linear)"/>
<path d="M3.14822 1.7981H2.69998C2.45213 1.7981 2.25174 1.99849 2.25174 2.24634C2.25174 2.49419 2.45213 2.69458 2.69998 2.69458H3.14822C3.39607 2.69458 3.59646 2.49419 3.59646 2.24634C3.59646 1.99849 3.39607 1.7981 3.14822 1.7981Z" fill="url(#paint1_linear)"/>
<path d="M5.12049 1.83516C5.00975 1.7877 4.88846 1.7877 4.77772 1.83516C4.72498 1.85625 4.67225 1.88789 4.63006 1.93008C4.45604 2.10937 4.45604 2.39414 4.63006 2.56816C4.67225 2.61035 4.72498 2.64199 4.77772 2.66309C4.88846 2.71055 5.00975 2.71055 5.12049 2.66309C5.17322 2.64199 5.22596 2.61035 5.26814 2.56816C5.44217 2.38887 5.44217 2.1041 5.26814 1.93008C5.22596 1.89316 5.17322 1.85625 5.12049 1.83516Z" fill="url(#paint2_linear)"/>
<path d="M6.92402 1.82993C6.75527 1.76138 6.56015 1.79829 6.43359 1.93013C6.3914 1.97232 6.35976 2.02505 6.33867 2.07779C6.2912 2.18853 6.2912 2.30982 6.33867 2.42056C6.35976 2.47329 6.3914 2.52603 6.43359 2.56821C6.61288 2.74224 6.89765 2.74224 7.07167 2.56821C7.11386 2.52603 7.1455 2.47329 7.16659 2.42056C7.19296 2.36782 7.20351 2.30982 7.20351 2.25181C7.20351 2.06724 7.09277 1.90376 6.92402 1.82993Z" fill="url(#paint3_linear)"/>
<path d="M24.3 1.7981H9.00174C8.75389 1.7981 8.5535 1.99849 8.5535 2.24634C8.5535 2.49419 8.75389 2.69458 9.00174 2.69458H24.3C24.5478 2.69458 24.7482 2.49419 24.7482 2.24634C24.7482 1.99849 24.5478 1.7981 24.3 1.7981Z" fill="url(#paint4_linear)"/>
<path d="M6.90821 21.4314C6.9293 21.4525 6.9504 21.4683 6.97676 21.4789C8.66954 23.2771 11.032 24.3001 13.5053 24.3001C15.9785 24.3001 18.341 23.2771 20.0338 21.4736C20.0549 21.463 20.076 21.4472 20.0971 21.4261C20.1129 21.405 20.1234 21.3839 20.134 21.3628C23.2928 17.9351 23.2928 12.6617 20.134 9.23394C20.1234 9.21284 20.1076 9.18647 20.0971 9.17065C20.076 9.14956 20.0549 9.13374 20.0285 9.11792C18.3357 7.31968 15.9732 6.29663 13.5053 6.29663C11.0373 6.29663 8.67481 7.3144 6.98204 9.11792C6.95567 9.13374 6.93458 9.14956 6.91348 9.17065C6.89766 9.19175 6.88712 9.21284 6.87657 9.23394C3.71778 12.6617 3.71778 17.9351 6.87657 21.3628C6.88184 21.3839 6.89239 21.4103 6.90821 21.4314ZM15.9522 23.0187C16.643 22.1855 17.165 21.2205 17.4867 20.1816C18.051 20.4453 18.5836 20.7722 19.074 21.1625C18.1881 22.0062 17.1229 22.639 15.9522 23.0187ZM19.6963 20.5033C19.0951 20.0234 18.4412 19.6173 17.7399 19.3062C18.0299 18.1408 18.1881 16.949 18.2092 15.7519H21.5736C21.484 17.4974 20.8248 19.1638 19.6963 20.5033ZM21.5789 14.8501H18.2145C18.1881 13.6531 18.0352 12.4613 17.7451 11.2958C18.4465 10.9794 19.1004 10.5787 19.7016 10.0988C20.8248 11.433 21.484 13.1046 21.5789 14.8501ZM19.0793 9.4396C18.5889 9.82456 18.0563 10.1515 17.492 10.4205C17.1703 9.38159 16.6535 8.42183 15.9574 7.58335C17.1229 7.95776 18.1881 8.59058 19.0793 9.4396ZM13.9482 7.26167C15.0504 7.55171 16.026 8.87534 16.643 10.7527C15.7729 11.0533 14.8658 11.2273 13.9482 11.2642V7.26167ZM13.9482 12.1712C14.9502 12.1343 15.9416 11.9498 16.8908 11.6333C17.144 12.688 17.2863 13.7691 17.3127 14.8554H13.9482V12.1712ZM13.9482 15.7519H17.3127C17.2863 16.8382 17.144 17.9193 16.8908 18.974C15.9416 18.6523 14.9502 18.473 13.9482 18.4361V15.7519ZM13.9482 19.3326C14.8658 19.3748 15.7729 19.5435 16.643 19.8441C16.026 21.7214 15.0504 23.0451 13.9482 23.3351V19.3326ZM7.92071 21.1572C8.41114 20.7722 8.94376 20.4453 9.50801 20.1816C9.82969 21.2205 10.3465 22.1802 11.0426 23.0187C9.87715 22.639 8.81192 22.0062 7.92071 21.1572ZM13.0518 23.3351C11.9496 23.0451 10.974 21.7214 10.357 19.8441C11.2272 19.5435 12.1342 19.3695 13.0518 19.3326V23.3351ZM13.0518 18.4308C12.0498 18.4677 11.0584 18.6523 10.1092 18.9687C9.85606 17.914 9.71368 16.833 9.68731 15.7466H13.0518V18.4308ZM13.0518 14.8501H9.68731C9.71368 13.7638 9.85606 12.6828 10.1092 11.6281C11.0584 11.9498 12.0498 12.1291 13.0518 12.166V14.8501ZM13.0518 7.26167V11.2695C12.1342 11.2273 11.2272 11.0585 10.357 10.758C10.974 8.87534 11.9496 7.55171 13.0518 7.26167ZM11.0479 7.58335C10.357 8.42183 9.83497 9.38159 9.51329 10.4205C8.94903 10.1568 8.41641 9.82983 7.92598 9.4396C8.81192 8.59058 9.87715 7.95776 11.0479 7.58335ZM7.30372 10.0935C7.90489 10.5734 8.5588 10.9794 9.26016 11.2906C8.97012 12.456 8.81192 13.6478 8.79083 14.8449H5.42637C5.51602 13.1046 6.1752 11.433 7.30372 10.0935ZM8.78555 15.7519C8.80665 16.949 8.96485 18.1408 9.25489 19.3062C8.55352 19.6226 7.89962 20.0234 7.29844 20.5033C6.1752 19.1638 5.51075 17.4974 5.4211 15.7519H8.78555Z" fill="url(#paint5_linear)"/>
</g>
<defs>
<linearGradient id="paint0_linear" x1="0.659791" y1="26.3402" x2="26.3402" y2="0.659794" gradientUnits="userSpaceOnUse">
<stop stop-color="#3EAAC0"/>
<stop offset="0.2052" stop-color="#3DA7BD"/>
<stop offset="0.37" stop-color="#389DB5"/>
<stop offset="0.5208" stop-color="#318CA6"/>
<stop offset="0.6633" stop-color="#277492"/>
<stop offset="0.7999" stop-color="#1A5577"/>
<stop offset="0.9304" stop-color="#0B3057"/>
<stop offset="1" stop-color="#011943"/>
</linearGradient>
<linearGradient id="paint1_linear" x1="2.49429" y1="2.68053" x2="3.35566" y2="1.81916" gradientUnits="userSpaceOnUse">
<stop stop-color="#3EAAC0"/>
<stop offset="0.2052" stop-color="#3DA7BD"/>
<stop offset="0.37" stop-color="#389DB5"/>
<stop offset="0.5208" stop-color="#318CA6"/>
<stop offset="0.6633" stop-color="#277492"/>
<stop offset="0.7999" stop-color="#1A5577"/>
<stop offset="0.9304" stop-color="#0B3057"/>
<stop offset="1" stop-color="#011943"/>
</linearGradient>
<linearGradient id="paint2_linear" x1="4.63048" y1="2.56948" x2="5.26946" y2="1.9305" gradientUnits="userSpaceOnUse">
<stop stop-color="#3EAAC0"/>
<stop offset="0.2052" stop-color="#3DA7BD"/>
<stop offset="0.37" stop-color="#389DB5"/>
<stop offset="0.5208" stop-color="#318CA6"/>
<stop offset="0.6633" stop-color="#277492"/>
<stop offset="0.7999" stop-color="#1A5577"/>
<stop offset="0.9304" stop-color="#0B3057"/>
<stop offset="1" stop-color="#011943"/>
</linearGradient>
<linearGradient id="paint3_linear" x1="6.43048" y1="2.56953" x2="7.06949" y2="1.93051" gradientUnits="userSpaceOnUse">
<stop stop-color="#3EAAC0"/>
<stop offset="0.2052" stop-color="#3DA7BD"/>
<stop offset="0.37" stop-color="#389DB5"/>
<stop offset="0.5208" stop-color="#318CA6"/>
<stop offset="0.6633" stop-color="#277492"/>
<stop offset="0.7999" stop-color="#1A5577"/>
<stop offset="0.9304" stop-color="#0B3057"/>
<stop offset="1" stop-color="#011943"/>
</linearGradient>
<linearGradient id="paint4_linear" x1="12.5068" y1="6.393" x2="20.7932" y2="-1.89337" gradientUnits="userSpaceOnUse">
<stop stop-color="#3EAAC0"/>
<stop offset="0.2052" stop-color="#3DA7BD"/>
<stop offset="0.37" stop-color="#389DB5"/>
<stop offset="0.5208" stop-color="#318CA6"/>
<stop offset="0.6633" stop-color="#277492"/>
<stop offset="0.7999" stop-color="#1A5577"/>
<stop offset="0.9304" stop-color="#0B3057"/>
<stop offset="1" stop-color="#011943"/>
</linearGradient>
<linearGradient id="paint5_linear" x1="7.14107" y1="21.6614" x2="19.8621" y2="8.9403" gradientUnits="userSpaceOnUse">
<stop stop-color="#3EAAC0"/>
<stop offset="0.2052" stop-color="#3DA7BD"/>
<stop offset="0.37" stop-color="#389DB5"/>
<stop offset="0.5208" stop-color="#318CA6"/>
<stop offset="0.6633" stop-color="#277492"/>
<stop offset="0.7999" stop-color="#1A5577"/>
<stop offset="0.9304" stop-color="#0B3057"/>
<stop offset="1" stop-color="#011943"/>
</linearGradient>
<clipPath id="clip0">
<rect width="27" height="27" fill="white"/>
</clipPath>
</defs>
</svg>
