<svg width="27" height="29" viewBox="0 0 27 29" fill="none" xmlns="http://www.w3.org/2000/svg">
<g clip-path="url(#clip0)">
<path d="M9.86361 15.9688L12.3609 10.2298C15.0104 10.2355 17.0947 8.14994 17.0105 5.5755C16.9805 4.67949 16.6912 3.80811 16.1673 3.05672C16.0418 2.87524 15.7902 2.81862 15.6071 2.93459C15.5448 2.97621 15.4907 3.03723 15.4616 3.10391L14.1366 6.14899L11.8935 6.22506L10.4203 4.53187L11.7453 1.48679C11.8304 1.29119 11.7328 1.05839 11.5284 0.969449C11.4587 0.939128 11.3767 0.924567 11.2989 0.938297C8.69237 1.31622 6.9592 3.68672 7.4328 6.22969C7.59481 7.1144 8.01847 7.94377 8.64453 8.61273L6.14727 14.3517C4.26065 14.345 2.58562 15.4137 1.86488 17.0828C0.830381 19.4348 1.98298 22.2203 4.44118 23.3006C6.89939 24.3808 9.73412 23.3514 10.7686 20.9994C11.5025 19.3255 11.1533 17.3601 9.86361 15.9688ZM9.21469 21.8406C7.66982 23.3467 5.12167 23.3112 3.52383 21.7647C1.926 20.2182 1.87394 17.7476 3.41881 16.2415C4.19743 15.4806 5.2831 15.0807 6.40603 15.141C6.57325 15.1504 6.72419 15.0574 6.78802 14.9107L9.49032 8.70055C9.55415 8.55385 9.51927 8.38006 9.39654 8.2685C7.80219 6.73938 7.7424 4.28658 9.26288 2.78578C9.66032 2.39301 10.1453 2.09117 10.6809 1.9013L9.58222 4.42627C9.52419 4.55963 9.549 4.71847 9.64734 4.83528L11.4148 6.868C11.4958 6.96137 11.6212 7.01594 11.7447 7.01151L14.4368 6.91934C14.5893 6.91168 14.7205 6.82602 14.7804 6.68821L15.8792 4.16324C16.7459 6.15824 15.8054 8.40842 13.7766 9.18572C13.2463 9.38853 12.6719 9.47696 12.0955 9.44293C11.9283 9.43361 11.7774 9.52654 11.7155 9.66879L9.01318 15.879C8.94934 16.0257 8.98422 16.1995 9.10502 16.3155C10.7141 17.8616 10.7596 20.3346 9.21469 21.8406Z" fill="url(#paint0_linear)"/>
<path d="M9.32365 20.1179L8.94755 17.427C8.93087 17.2876 8.83446 17.1663 8.70439 17.1097L6.10296 15.9777C5.97288 15.9211 5.81844 15.9332 5.70505 16.0161L3.47971 17.575C3.36167 17.6558 3.3017 17.7936 3.32302 17.935L3.69912 20.6259C3.7158 20.7653 3.81221 20.8866 3.94228 20.9432L6.54372 22.0752C6.67379 22.1318 6.82823 22.1197 6.94162 22.0368L9.16696 20.4779C9.285 20.3971 9.34497 20.2593 9.32365 20.1179ZM6.64146 21.2665L4.4674 20.3205L4.15489 18.0802L6.00715 16.782L8.18121 17.728L8.49371 19.9682L6.64146 21.2665Z" fill="url(#paint1_linear)"/>
<path d="M10.6418 9.10214C10.4374 9.0132 10.2006 9.10046 10.1155 9.29606L7.64915 14.9639C7.56404 15.1595 7.66164 15.3923 7.86603 15.4813C8.07043 15.5702 8.3073 15.4829 8.39242 15.2873L10.8587 9.61948C10.9438 9.42389 10.8462 9.19108 10.6418 9.10214Z" fill="url(#paint2_linear)"/>
<path d="M21.2869 19.1746L21.7511 18.1077C21.8363 17.9121 21.7387 17.6793 21.5343 17.5903L20.4194 17.1052L23.4776 10.0771L24.0887 9.58691C24.1548 9.5364 24.197 9.46487 24.216 9.38323L24.7728 7.08774C24.8204 6.90224 24.7166 6.70904 24.5354 6.63021L23.0489 5.98336C22.8677 5.90453 22.6603 5.96229 22.5523 6.12151L21.2522 8.09358C21.2054 8.16309 21.1864 8.24472 21.1899 8.32555L21.2478 9.10678L18.1896 16.1349L17.0747 15.6498C16.8703 15.5608 16.6334 15.6481 16.5483 15.8437L16.084 16.9106C16.0461 17.0104 16.0473 17.122 16.0907 17.2254C16.1639 17.4 16.1639 17.5904 16.0904 17.7593C16.015 17.9327 15.8691 18.0648 15.6868 18.1282C15.5881 18.1646 15.5122 18.2373 15.4697 18.3351L12.9937 24.0252C12.396 25.3988 13.0765 27.022 14.5119 27.6466C15.9473 28.2712 17.5989 27.6628 18.1966 26.2892L20.6726 20.5991C20.7105 20.4993 20.7093 20.3877 20.6659 20.2843C20.5927 20.1097 20.5927 19.9193 20.6662 19.7504C20.7416 19.577 20.8875 19.4449 21.0698 19.3815C21.1685 19.3451 21.2463 19.2679 21.2869 19.1746ZM23.0553 6.83208L23.9101 7.20401L23.4615 9.06021L22.8806 9.53177C22.8314 9.56854 22.7989 9.61784 22.7738 9.67563L19.6788 16.7882L18.9355 16.4648L22.0324 9.34777C22.0557 9.29442 22.0669 9.23057 22.0649 9.17156L22.0094 8.42307L23.0553 6.83208ZM20.6036 18.7133C19.9708 19.0248 19.6632 19.7317 19.8666 20.407L17.4487 25.9637C17.0212 26.9462 15.8434 27.3801 14.8168 26.9333C13.7901 26.4866 13.3048 25.329 13.7323 24.3466L16.1483 18.7943C16.7811 18.4828 17.0887 17.776 16.8853 17.1007L17.1368 16.5228L20.8531 18.1399L20.6036 18.7133Z" fill="url(#paint3_linear)"/>
<path d="M17.0137 19.8529C16.8093 19.7639 16.5724 19.8512 16.4873 20.0468L14.4755 24.67C14.3904 24.8656 14.488 25.0984 14.6924 25.1873C14.8968 25.2763 15.1337 25.189 15.2188 24.9934L17.2305 20.3702C17.3157 20.1746 17.2181 19.9418 17.0137 19.8529Z" fill="url(#paint4_linear)"/>
<path d="M18.5002 20.4998C18.2958 20.4109 18.059 20.4982 17.9739 20.6938L15.9621 25.317C15.877 25.5126 15.9746 25.7454 16.179 25.8343C16.3834 25.9232 16.6203 25.836 16.7054 25.6404L18.7171 21.0172C18.8022 20.8216 18.7046 20.5888 18.5002 20.4998Z" fill="url(#paint5_linear)"/>
</g>
<defs>
<linearGradient id="paint0_linear" x1="-0.202631" y1="15.7868" x2="18.3558" y2="8.00657" gradientUnits="userSpaceOnUse">
<stop stop-color="#3EAAC0"/>
<stop offset="1" stop-color="#011943"/>
</linearGradient>
<linearGradient id="paint1_linear" x1="3.45752" y1="20.0811" x2="9.08756" y2="17.7208" gradientUnits="userSpaceOnUse">
<stop stop-color="#3EAAC0"/>
<stop offset="1" stop-color="#011943"/>
</linearGradient>
<linearGradient id="paint2_linear" x1="6.78368" y1="13.2032" x2="11.6343" y2="11.1697" gradientUnits="userSpaceOnUse">
<stop stop-color="#3EAAC0"/>
<stop offset="1" stop-color="#011943"/>
</linearGradient>
<linearGradient id="paint3_linear" x1="10.5186" y1="20.2275" x2="27.397" y2="13.1516" gradientUnits="userSpaceOnUse">
<stop stop-color="#3EAAC0"/>
<stop offset="1" stop-color="#011943"/>
</linearGradient>
<linearGradient id="paint4_linear" x1="13.7705" y1="23.2876" x2="17.8609" y2="21.5728" gradientUnits="userSpaceOnUse">
<stop stop-color="#3EAAC0"/>
<stop offset="1" stop-color="#011943"/>
</linearGradient>
<linearGradient id="paint5_linear" x1="15.2571" y1="23.9346" x2="19.3475" y2="22.2198" gradientUnits="userSpaceOnUse">
<stop stop-color="#3EAAC0"/>
<stop offset="1" stop-color="#011943"/>
</linearGradient>
<clipPath id="clip0">
<rect width="18.6435" height="23.3043" fill="white" transform="matrix(0.916951 0.399 -0.399001 0.91695 9.29846 0)"/>
</clipPath>
</defs>
</svg>
