<svg width="28" height="24" viewBox="0 0 28 24" fill="none" xmlns="http://www.w3.org/2000/svg">
<g clip-path="url(#clip0)">
<path d="M27.7585 9.62622L14.3532 0.109866C14.1511 -0.0333667 13.8856 -0.0333667 13.6835 0.109866L0.243506 9.62622C-0.0162878 9.80956 -0.0740197 10.1648 0.110722 10.4226C0.295465 10.6804 0.653403 10.7377 0.913196 10.5544L3.33794 8.83558V23.3994C3.33794 23.7145 3.6035 24.001 3.9268 24.001H24.0868C24.4043 24.001 24.6757 23.7145 24.6757 23.3994V8.82985L27.1004 10.5601C27.1985 10.6288 27.314 10.669 27.4352 10.669C27.62 10.669 27.7932 10.5773 27.9029 10.4283C28.0761 10.1705 28.0183 9.81529 27.7585 9.62622ZM19.1276 13.8774H8.86865V11.9351H19.1276V13.8774ZM8.86865 15.0232H19.1276V16.9654H8.86865V15.0232ZM8.86865 18.1113H19.1276V19.9962H8.86865V18.1113ZM8.86865 21.1421H19.1276V22.8609H8.86865V21.1421ZM23.5095 22.8609H20.2823V11.3622C20.2823 11.0471 20.0225 10.7893 19.7049 10.7893H8.29134C7.97381 10.7893 7.71402 11.0471 7.71402 11.3622V22.8609H4.4868V8.02202L14.0126 1.28437L23.5037 8.01629V22.8609H23.5095Z" fill="url(#paint0_linear)"/>
</g>
<defs>
<linearGradient id="paint0_linear" x1="4.3603" y1="24.665" x2="23.4944" y2="5.38433" gradientUnits="userSpaceOnUse">
<stop stop-color="#3EAAC0"/>
<stop offset="0.2052" stop-color="#3DA7BD"/>
<stop offset="0.37" stop-color="#389DB5"/>
<stop offset="0.5208" stop-color="#318CA6"/>
<stop offset="0.6633" stop-color="#277492"/>
<stop offset="0.7999" stop-color="#1A5577"/>
<stop offset="0.9304" stop-color="#0B3057"/>
<stop offset="1" stop-color="#011943"/>
</linearGradient>
<clipPath id="clip0">
<rect width="28" height="24" fill="white"/>
</clipPath>
</defs>
</svg>
