<svg width="24" height="24" viewBox="0 0 24 24" fill="none" xmlns="http://www.w3.org/2000/svg">
<g clip-path="url(#clip0)">
<path d="M3.63611 10.2844H9.47459C9.66795 10.2844 9.82829 10.125 9.82829 9.93286C9.82829 9.74067 9.66795 9.5813 9.47459 9.5813H3.63611C3.44276 9.5813 3.28241 9.74067 3.28241 9.93286C3.28241 10.125 3.43804 10.2844 3.63611 10.2844Z" fill="url(#paint0_linear)"/>
<path d="M3.63611 11.8313H9.47459C9.66795 11.8313 9.82829 11.6719 9.82829 11.4797C9.82829 11.2875 9.66795 11.1282 9.47459 11.1282H3.63611C3.44276 11.1282 3.28241 11.2875 3.28241 11.4797C3.28241 11.6719 3.43804 11.8313 3.63611 11.8313Z" fill="url(#paint1_linear)"/>
<path d="M3.63611 13.3733H9.47459C9.66795 13.3733 9.82829 13.2139 9.82829 13.0217C9.82829 12.8295 9.66795 12.6702 9.47459 12.6702H3.63611C3.44276 12.6702 3.28241 12.8295 3.28241 13.0217C3.28241 13.2139 3.43804 13.3733 3.63611 13.3733Z" fill="url(#paint2_linear)"/>
<path d="M1.01868 18.4828H10.6064V21.1453H10.4131C9.23877 21.1453 8.28613 22.0922 8.28613 23.2594V23.6484C8.28613 23.8406 8.44647 24 8.63983 24H15.7847C15.978 24 16.1384 23.8406 16.1384 23.6484V23.2594C16.1384 22.0922 15.1857 21.1453 14.0114 21.1453H13.8133V18.4828H22.9766C23.5379 18.4828 24 18.0281 24 17.4656V16.0875C24 15.6516 23.7218 15.2766 23.3303 15.1359V3.34688C23.7218 3.20156 24 2.83125 24 2.39531V1.01719C24 0.459375 23.5426 0 22.9766 0H5.22541C5.03205 0 4.8717 0.159375 4.8717 0.351562C4.8717 0.54375 5.03205 0.703125 5.22541 0.703125H22.9766C23.1511 0.703125 23.2926 0.84375 23.2926 1.01719V2.39062C23.2926 2.56406 23.1511 2.70469 22.9766 2.70469H1.01868C0.844191 2.70469 0.702709 2.56406 0.702709 2.39062V1.01719C0.702709 0.84375 0.844191 0.703125 1.01868 0.703125H3.81059C4.00395 0.703125 4.16429 0.54375 4.16429 0.351562C4.16429 0.159375 4.00395 0 3.81059 0H1.01868C0.452758 0 -0.00469971 0.454688 -0.00469971 1.01719V2.39062C-0.00469971 2.82656 0.273548 3.20156 0.66498 3.34219V15.1359C0.273548 15.2812 -0.00469971 15.6516 -0.00469971 16.0922V17.4703C-0.00469971 18.0281 0.452758 18.4828 1.01868 18.4828ZM15.4262 23.2594V23.2969H8.98882V23.2594C8.98882 22.4813 9.62549 21.8484 10.4084 21.8484H14.0114C14.7896 21.8484 15.4262 22.4813 15.4262 23.2594ZM13.1059 21.1453H11.3091V18.4828H13.1059V21.1453ZM22.6229 3.40781V15.075H20.2555C20.0621 15.075 19.9018 15.2344 19.9018 15.4266C19.9018 15.6188 20.0621 15.7781 20.2555 15.7781H22.9766C23.1511 15.7781 23.2926 15.9187 23.2926 16.0922V17.4703C23.2926 17.6438 23.1511 17.7844 22.9766 17.7844H1.01868C0.844191 17.7844 0.702709 17.6438 0.702709 17.4703V16.0922C0.702709 15.9187 0.844191 15.7781 1.01868 15.7781H18.8595C19.0529 15.7781 19.2132 15.6188 19.2132 15.4266C19.2132 15.2344 19.0529 15.075 18.8595 15.075H1.37239V3.40781H22.6229Z" fill="url(#paint3_linear)"/>
<path d="M16.3648 14.1468C19.0859 14.1468 21.2978 11.9484 21.2978 9.2437C21.2978 7.93589 20.7837 6.70308 19.8546 5.77495C18.9209 4.84683 17.6853 4.34058 16.3648 4.34058C13.6436 4.34058 11.4318 6.53901 11.4318 9.2437C11.4271 11.9437 13.6436 14.1468 16.3648 14.1468ZM20.5762 8.88745H17.2184L19.5905 6.52964C20.1612 7.19995 20.5007 8.01558 20.5762 8.88745ZM16.7185 5.05308C17.5957 5.12339 18.421 5.46558 19.0906 6.03276L16.7185 8.39058V5.05308ZM16.0111 5.05308V9.23901C16.0111 9.42651 16.1761 9.59058 16.3648 9.59058H20.5762C20.397 11.7421 18.5766 13.439 16.3648 13.439C14.035 13.439 12.1392 11.5546 12.1392 9.23901C12.1345 7.04526 13.8417 5.23589 16.0111 5.05308Z" fill="url(#paint4_linear)"/>
<path d="M3.63611 8.69067H9.47459C9.66795 8.69067 9.82829 8.5313 9.82829 8.33911C9.82829 8.14692 9.66795 7.98755 9.47459 7.98755H3.63611C3.44276 7.98755 3.28241 8.14692 3.28241 8.33911C3.28241 8.5313 3.43804 8.69067 3.63611 8.69067Z" fill="url(#paint5_linear)"/>
</g>
<defs>
<linearGradient id="paint0_linear" x1="4.84529" y1="11.6342" x2="8.24443" y2="8.21437" gradientUnits="userSpaceOnUse">
<stop stop-color="#3EAAC0"/>
<stop offset="0.2052" stop-color="#3DA7BD"/>
<stop offset="0.37" stop-color="#389DB5"/>
<stop offset="0.5208" stop-color="#318CA6"/>
<stop offset="0.6633" stop-color="#277492"/>
<stop offset="0.7999" stop-color="#1A5577"/>
<stop offset="0.9304" stop-color="#0B3057"/>
<stop offset="1" stop-color="#011943"/>
</linearGradient>
<linearGradient id="paint1_linear" x1="4.84527" y1="13.1779" x2="8.24445" y2="9.75797" gradientUnits="userSpaceOnUse">
<stop stop-color="#3EAAC0"/>
<stop offset="0.2052" stop-color="#3DA7BD"/>
<stop offset="0.37" stop-color="#389DB5"/>
<stop offset="0.5208" stop-color="#318CA6"/>
<stop offset="0.6633" stop-color="#277492"/>
<stop offset="0.7999" stop-color="#1A5577"/>
<stop offset="0.9304" stop-color="#0B3057"/>
<stop offset="1" stop-color="#011943"/>
</linearGradient>
<linearGradient id="paint2_linear" x1="4.84527" y1="14.7212" x2="8.24445" y2="11.3014" gradientUnits="userSpaceOnUse">
<stop stop-color="#3EAAC0"/>
<stop offset="0.2052" stop-color="#3DA7BD"/>
<stop offset="0.37" stop-color="#389DB5"/>
<stop offset="0.5208" stop-color="#318CA6"/>
<stop offset="0.6633" stop-color="#277492"/>
<stop offset="0.7999" stop-color="#1A5577"/>
<stop offset="0.9304" stop-color="#0B3057"/>
<stop offset="1" stop-color="#011943"/>
</linearGradient>
<linearGradient id="paint3_linear" x1="1.6467" y1="19.5282" x2="22.2203" y2="-1.17073" gradientUnits="userSpaceOnUse">
<stop stop-color="#3EAAC0"/>
<stop offset="0.2052" stop-color="#3DA7BD"/>
<stop offset="0.37" stop-color="#389DB5"/>
<stop offset="0.5208" stop-color="#318CA6"/>
<stop offset="0.6633" stop-color="#277492"/>
<stop offset="0.7999" stop-color="#1A5577"/>
<stop offset="0.9304" stop-color="#0B3057"/>
<stop offset="1" stop-color="#011943"/>
</linearGradient>
<linearGradient id="paint4_linear" x1="12.8758" y1="12.7071" x2="19.809" y2="5.73163" gradientUnits="userSpaceOnUse">
<stop stop-color="#3EAAC0"/>
<stop offset="0.2052" stop-color="#3DA7BD"/>
<stop offset="0.37" stop-color="#389DB5"/>
<stop offset="0.5208" stop-color="#318CA6"/>
<stop offset="0.6633" stop-color="#277492"/>
<stop offset="0.7999" stop-color="#1A5577"/>
<stop offset="0.9304" stop-color="#0B3057"/>
<stop offset="1" stop-color="#011943"/>
</linearGradient>
<linearGradient id="paint5_linear" x1="4.84529" y1="10.0405" x2="8.24443" y2="6.62062" gradientUnits="userSpaceOnUse">
<stop stop-color="#3EAAC0"/>
<stop offset="0.2052" stop-color="#3DA7BD"/>
<stop offset="0.37" stop-color="#389DB5"/>
<stop offset="0.5208" stop-color="#318CA6"/>
<stop offset="0.6633" stop-color="#277492"/>
<stop offset="0.7999" stop-color="#1A5577"/>
<stop offset="0.9304" stop-color="#0B3057"/>
<stop offset="1" stop-color="#011943"/>
</linearGradient>
<clipPath id="clip0">
<rect width="24" height="24" fill="white" transform="matrix(-1 0 0 1 24 0)"/>
</clipPath>
</defs>
</svg>
