<svg width="25" height="27" viewBox="0 0 25 27" fill="none" xmlns="http://www.w3.org/2000/svg">
<g clip-path="url(#clip0)">
<path d="M14.9569 25.7622L14.0599 25.2986L14.6732 24.1121L13.1783 23.3394L14.7421 20.314C15.156 19.5131 15.1506 18.5707 14.693 17.7703L12.6123 14.0262L16.87 13.5584C17.7578 13.4535 18.5596 12.9283 18.9736 12.1275L20.5374 9.10204L22.0323 9.87476L22.6456 8.68831L23.5425 9.15194C23.7219 9.24467 23.9029 9.18784 23.9948 9.00988C24.0868 8.83191 24.0286 8.65145 23.8492 8.55872L22.9522 8.09509L22.6532 7.94055L10.6939 1.7588L10.3949 1.60426L9.49796 1.14063C9.31857 1.0479 9.13765 1.10473 9.04566 1.2827C8.95367 1.46066 9.01194 1.64112 9.19133 1.73385L10.0883 2.19748L9.47501 3.38393L10.9699 4.15665L9.40611 7.18208C8.99216 7.98293 8.99755 8.92537 9.45524 9.72574L11.5359 13.4698L7.27815 13.9376C6.39042 14.0425 5.58855 14.5677 5.1746 15.3686L3.61078 18.394L2.11586 17.6213L1.50259 18.8077L0.605642 18.3441C0.426252 18.2514 0.245332 18.3082 0.153343 18.4862C0.0613532 18.6641 0.119621 18.8446 0.299011 18.9373L1.19596 19.4009L1.49495 19.5555L13.4543 25.7372L13.7533 25.8918L14.6502 26.3554C14.8296 26.4481 15.0105 26.3913 15.1025 26.2133C15.1945 26.0354 15.1363 25.8549 14.9569 25.7622ZM10.0294 9.42116C9.6898 8.83216 9.68212 8.11405 9.98875 7.52083L11.5679 4.46573L19.9394 8.79295L18.3756 11.8184C18.069 12.4116 17.4787 12.8206 16.8018 12.8842L12.2581 13.3921L10.0294 9.42116ZM5.77256 15.6776C6.0792 15.0844 6.66948 14.6754 7.3464 14.6119L11.8901 14.104L14.1188 18.0749C14.4584 18.6639 14.4661 19.382 14.1594 19.9752L12.5803 23.0303L4.20874 18.7031L5.77256 15.6776Z" fill="url(#paint0_linear)"/>
<path d="M11.2085 8.75265C11.0904 8.54128 11.0927 8.31695 11.2 8.10932L11.5373 7.45677C11.6293 7.27881 11.571 7.09834 11.3916 7.00562C11.2122 6.91289 11.0313 6.96972 10.9393 7.14769L10.602 7.80023C10.3874 8.21549 10.4127 8.6796 10.6189 9.08689L11.519 10.7173C11.5634 10.7779 11.6079 10.8384 11.6677 10.8693C11.7574 10.9157 11.8778 10.9027 11.9682 10.8743C12.1346 10.7724 12.1967 10.579 12.0932 10.4127L11.2085 8.75265Z" fill="url(#paint1_linear)"/>
<path d="M13.3913 18.6761L12.4912 17.0457C12.3877 16.8794 12.193 16.8163 12.0267 16.9183C11.8603 17.0202 11.7982 17.2137 11.9017 17.3799L12.8018 19.0103C12.9198 19.2217 12.9175 19.446 12.8102 19.6536L12.4729 20.3062C12.3809 20.4841 12.4392 20.6646 12.6186 20.7573C12.798 20.8501 12.9789 20.7932 13.0709 20.6153L13.4082 19.9627C13.6228 19.5475 13.6128 19.0537 13.3913 18.6761Z" fill="url(#paint2_linear)"/>
</g>
<defs>
<linearGradient id="paint0_linear" x1="-0.231709" y1="17.6133" x2="24.3167" y2="9.68714" gradientUnits="userSpaceOnUse">
<stop stop-color="#3EAAC0"/>
<stop offset="0.2052" stop-color="#3DA7BD"/>
<stop offset="0.37" stop-color="#389DB5"/>
<stop offset="0.5208" stop-color="#318CA6"/>
<stop offset="0.6633" stop-color="#277492"/>
<stop offset="0.7999" stop-color="#1A5577"/>
<stop offset="0.9304" stop-color="#0B3057"/>
<stop offset="1" stop-color="#011943"/>
</linearGradient>
<linearGradient id="paint1_linear" x1="10.6339" y1="9.21401" x2="12.0593" y2="8.75379" gradientUnits="userSpaceOnUse">
<stop stop-color="#3EAAC0"/>
<stop offset="0.2052" stop-color="#3DA7BD"/>
<stop offset="0.37" stop-color="#389DB5"/>
<stop offset="0.5208" stop-color="#318CA6"/>
<stop offset="0.6633" stop-color="#277492"/>
<stop offset="0.7999" stop-color="#1A5577"/>
<stop offset="0.9304" stop-color="#0B3057"/>
<stop offset="1" stop-color="#011943"/>
</linearGradient>
<linearGradient id="paint2_linear" x1="11.9534" y1="18.9859" x2="13.3787" y2="18.5257" gradientUnits="userSpaceOnUse">
<stop stop-color="#3EAAC0"/>
<stop offset="0.2052" stop-color="#3DA7BD"/>
<stop offset="0.37" stop-color="#389DB5"/>
<stop offset="0.5208" stop-color="#318CA6"/>
<stop offset="0.6633" stop-color="#277492"/>
<stop offset="0.7999" stop-color="#1A5577"/>
<stop offset="0.9304" stop-color="#0B3057"/>
<stop offset="1" stop-color="#011943"/>
</linearGradient>
<clipPath id="clip0">
<rect width="16.8282" height="20.0335" fill="white" transform="matrix(0.888343 0.459181 -0.459177 0.888345 9.19897 0.986084)"/>
</clipPath>
</defs>
</svg>
