<svg width="24" height="24" viewBox="0 0 24 24" fill="none" xmlns="http://www.w3.org/2000/svg">
<g clip-path="url(#clip0)">
<path d="M22 7.19963H17.6V5.19963C17.6 5.18963 17.595 5.18463 17.595 5.17463C17.595 5.13963 17.585 5.10463 17.575 5.06963C17.57 5.05463 17.565 5.04463 17.56 5.02963C17.54 4.98463 17.515 4.94463 17.48 4.91463L12.68 0.114629C12.645 0.0796289 12.605 0.0546289 12.56 0.0346289C12.55 0.0296289 12.535 0.0246289 12.525 0.0196289C12.49 0.0096289 12.455 -0.000371094 12.42 -0.000371094C12.415 -0.000371094 12.405 -0.00537109 12.4 -0.00537109H2C0.895 -0.000371094 0 0.894629 0 1.99963V20.3996C0 21.5046 0.895 22.3996 2 22.3996H10.44C10.63 23.3296 11.45 23.9996 12.4 23.9996H22C23.105 23.9996 24 23.1046 24 21.9996V9.19963C24 8.09463 23.105 7.19963 22 7.19963ZM16.235 4.79963H13.2C12.98 4.79963 12.8 4.61963 12.8 4.39963V1.36463L16.235 4.79963ZM0.8 20.3996V1.99963C0.8 1.33463 1.335 0.799629 2 0.799629H12V4.39963C12 5.06463 12.535 5.59963 13.2 5.59963H16.8V7.19963H12.4C11.295 7.19963 10.4 8.09463 10.4 9.19963V21.5996H2C1.335 21.5996 0.8 21.0646 0.8 20.3996ZM23.2 21.9996C23.2 22.6646 22.665 23.1996 22 23.1996H12.4C11.735 23.1996 11.2 22.6646 11.2 21.9996V9.19963C11.2 8.53463 11.735 7.99963 12.4 7.99963H22C22.665 7.99963 23.2 8.53463 23.2 9.19963V21.9996Z" fill="url(#paint0_linear)"/>
<path d="M20.4 8.80005H14C12.895 8.80005 12 9.69505 12 10.8V12.4C12 13.505 12.895 14.4 14 14.4H20.4C21.505 14.4 22.4 13.505 22.4 12.4V10.8C22.4 9.69505 21.505 8.80005 20.4 8.80005ZM21.6 12.4C21.6 13.065 21.065 13.6 20.4 13.6H14C13.335 13.6 12.8 13.065 12.8 12.4V10.8C12.8 10.135 13.335 9.60005 14 9.60005H20.4C21.065 9.60005 21.6 10.135 21.6 10.8V12.4Z" fill="url(#paint1_linear)"/>
<path d="M13.6 15.2C12.715 15.2 12 15.915 12 16.8C12 17.685 12.715 18.4 13.6 18.4C14.485 18.4 15.2 17.685 15.2 16.8C15.2 15.915 14.485 15.2 13.6 15.2ZM13.6 17.6C13.16 17.6 12.8 17.24 12.8 16.8C12.8 16.36 13.16 16 13.6 16C14.04 16 14.4 16.36 14.4 16.8C14.4 17.24 14.04 17.6 13.6 17.6Z" fill="url(#paint2_linear)"/>
<path d="M17.2 15.2C16.315 15.2 15.6 15.915 15.6 16.8C15.6 17.685 16.315 18.4 17.2 18.4C18.085 18.4 18.8 17.685 18.8 16.8C18.8 15.915 18.085 15.2 17.2 15.2ZM17.2 17.6C16.76 17.6 16.4 17.24 16.4 16.8C16.4 16.36 16.76 16 17.2 16C17.64 16 18 16.36 18 16.8C18 17.24 17.64 17.6 17.2 17.6Z" fill="url(#paint3_linear)"/>
<path d="M13.6 19.2C12.715 19.2 12 19.915 12 20.8C12 21.685 12.715 22.4 13.6 22.4C14.485 22.4 15.2 21.685 15.2 20.8C15.2 19.915 14.485 19.2 13.6 19.2ZM13.6 21.6C13.16 21.6 12.8 21.24 12.8 20.8C12.8 20.36 13.16 20 13.6 20C14.04 20 14.4 20.36 14.4 20.8C14.4 21.24 14.04 21.6 13.6 21.6Z" fill="url(#paint4_linear)"/>
<path d="M17.2 19.2C16.315 19.2 15.6 19.915 15.6 20.8C15.6 21.685 16.315 22.4 17.2 22.4C18.085 22.4 18.8 21.685 18.8 20.8C18.8 19.915 18.085 19.2 17.2 19.2ZM17.2 21.6C16.76 21.6 16.4 21.24 16.4 20.8C16.4 20.36 16.76 20 17.2 20C17.64 20 18 20.36 18 20.8C18 21.24 17.64 21.6 17.2 21.6Z" fill="url(#paint5_linear)"/>
<path d="M20.8 15.2C19.915 15.2 19.2 15.915 19.2 16.8V20.8C19.2 21.685 19.915 22.4 20.8 22.4C21.685 22.4 22.4 21.685 22.4 20.8V16.8C22.4 15.915 21.685 15.2 20.8 15.2ZM21.6 20.8C21.6 21.24 21.24 21.6 20.8 21.6C20.36 21.6 20 21.24 20 20.8V16.8C20 16.36 20.36 16 20.8 16C21.24 16 21.6 16.36 21.6 16.8V20.8Z" fill="url(#paint6_linear)"/>
<path d="M4.11503 7.085C4.27003 7.24 4.52503 7.24 4.68003 7.085L8.28003 3.48499C8.43003 3.32999 8.43003 3.07999 8.27503 2.92499C8.12003 2.76999 7.87003 2.76999 7.71503 2.91999L4.11503 6.51999C3.96003 6.675 3.96003 6.925 4.11503 7.085Z" fill="url(#paint7_linear)"/>
<path d="M6.40002 6.39995C6.40002 7.06495 6.93502 7.59995 7.60002 7.59995C8.26502 7.59995 8.80002 7.06495 8.80002 6.39995C8.80002 5.73495 8.26502 5.19995 7.60002 5.19995C6.93502 5.19995 6.40002 5.73495 6.40002 6.39995ZM8.00002 6.39995C8.00002 6.61995 7.82002 6.79995 7.60002 6.79995C7.38002 6.79995 7.20002 6.61995 7.20002 6.39995C7.20002 6.17995 7.38002 5.99995 7.60002 5.99995C7.82002 5.99995 8.00002 6.17995 8.00002 6.39995Z" fill="url(#paint8_linear)"/>
<path d="M4.79998 4.7999C5.46498 4.7999 5.99998 4.2649 5.99998 3.5999C5.99998 2.9349 5.46498 2.3999 4.79998 2.3999C4.13498 2.3999 3.59998 2.9349 3.59998 3.5999C3.59998 4.2649 4.13498 4.7999 4.79998 4.7999ZM4.79998 3.1999C5.01998 3.1999 5.19998 3.3799 5.19998 3.5999C5.19998 3.8199 5.01998 3.9999 4.79998 3.9999C4.57998 3.9999 4.39998 3.8199 4.39998 3.5999C4.39998 3.3799 4.57998 3.1999 4.79998 3.1999Z" fill="url(#paint9_linear)"/>
<path d="M2.80002 10.8H7.60002C7.82002 10.8 8.00002 10.62 8.00002 10.4C8.00002 10.18 7.82002 10 7.60002 10H2.80002C2.58002 10 2.40002 10.18 2.40002 10.4C2.40002 10.62 2.58002 10.8 2.80002 10.8Z" fill="url(#paint10_linear)"/>
<path d="M8.40002 11.5999H2.80002C2.58002 11.5999 2.40002 11.7799 2.40002 11.9999C2.40002 12.2199 2.58002 12.3999 2.80002 12.3999H8.40002C8.62003 12.3999 8.80002 12.2199 8.80002 11.9999C8.80002 11.7799 8.62003 11.5999 8.40002 11.5999Z" fill="url(#paint11_linear)"/>
<path d="M4.40002 13.2H2.80002C2.58002 13.2 2.40002 13.38 2.40002 13.6C2.40002 13.82 2.58002 14 2.80002 14H4.40002C4.62002 14 4.80002 13.82 4.80002 13.6C4.80002 13.38 4.62002 13.2 4.40002 13.2Z" fill="url(#paint12_linear)"/>
<path d="M8.39998 13.2H5.99998C5.77998 13.2 5.59998 13.38 5.59998 13.6C5.59998 13.82 5.77998 14 5.99998 14H8.39998C8.61997 14 8.79997 13.82 8.79997 13.6C8.79997 13.38 8.61997 13.2 8.39998 13.2Z" fill="url(#paint13_linear)"/>
</g>
<defs>
<linearGradient id="paint0_linear" x1="1.38647" y1="22.6132" x2="19.8135" y2="4.1861" gradientUnits="userSpaceOnUse">
<stop stop-color="#3EAAC0"/>
<stop offset="0.2052" stop-color="#3DA7BD"/>
<stop offset="0.37" stop-color="#389DB5"/>
<stop offset="0.5208" stop-color="#318CA6"/>
<stop offset="0.6633" stop-color="#277492"/>
<stop offset="0.7999" stop-color="#1A5577"/>
<stop offset="0.9304" stop-color="#0B3057"/>
<stop offset="1" stop-color="#011943"/>
</linearGradient>
<linearGradient id="paint1_linear" x1="13.7865" y1="15.0136" x2="20.6135" y2="8.18652" gradientUnits="userSpaceOnUse">
<stop stop-color="#3EAAC0"/>
<stop offset="0.2052" stop-color="#3DA7BD"/>
<stop offset="0.37" stop-color="#389DB5"/>
<stop offset="0.5208" stop-color="#318CA6"/>
<stop offset="0.6633" stop-color="#277492"/>
<stop offset="0.7999" stop-color="#1A5577"/>
<stop offset="0.9304" stop-color="#0B3057"/>
<stop offset="1" stop-color="#011943"/>
</linearGradient>
<linearGradient id="paint2_linear" x1="12.4686" y1="17.9313" x2="14.7314" y2="15.6686" gradientUnits="userSpaceOnUse">
<stop stop-color="#3EAAC0"/>
<stop offset="0.2052" stop-color="#3DA7BD"/>
<stop offset="0.37" stop-color="#389DB5"/>
<stop offset="0.5208" stop-color="#318CA6"/>
<stop offset="0.6633" stop-color="#277492"/>
<stop offset="0.7999" stop-color="#1A5577"/>
<stop offset="0.9304" stop-color="#0B3057"/>
<stop offset="1" stop-color="#011943"/>
</linearGradient>
<linearGradient id="paint3_linear" x1="16.0686" y1="17.9313" x2="18.3313" y2="15.6686" gradientUnits="userSpaceOnUse">
<stop stop-color="#3EAAC0"/>
<stop offset="0.2052" stop-color="#3DA7BD"/>
<stop offset="0.37" stop-color="#389DB5"/>
<stop offset="0.5208" stop-color="#318CA6"/>
<stop offset="0.6633" stop-color="#277492"/>
<stop offset="0.7999" stop-color="#1A5577"/>
<stop offset="0.9304" stop-color="#0B3057"/>
<stop offset="1" stop-color="#011943"/>
</linearGradient>
<linearGradient id="paint4_linear" x1="12.4686" y1="21.9313" x2="14.7314" y2="19.6686" gradientUnits="userSpaceOnUse">
<stop stop-color="#3EAAC0"/>
<stop offset="0.2052" stop-color="#3DA7BD"/>
<stop offset="0.37" stop-color="#389DB5"/>
<stop offset="0.5208" stop-color="#318CA6"/>
<stop offset="0.6633" stop-color="#277492"/>
<stop offset="0.7999" stop-color="#1A5577"/>
<stop offset="0.9304" stop-color="#0B3057"/>
<stop offset="1" stop-color="#011943"/>
</linearGradient>
<linearGradient id="paint5_linear" x1="16.0686" y1="21.9313" x2="18.3313" y2="19.6686" gradientUnits="userSpaceOnUse">
<stop stop-color="#3EAAC0"/>
<stop offset="0.2052" stop-color="#3DA7BD"/>
<stop offset="0.37" stop-color="#389DB5"/>
<stop offset="0.5208" stop-color="#318CA6"/>
<stop offset="0.6633" stop-color="#277492"/>
<stop offset="0.7999" stop-color="#1A5577"/>
<stop offset="0.9304" stop-color="#0B3057"/>
<stop offset="1" stop-color="#011943"/>
</linearGradient>
<linearGradient id="paint6_linear" x1="18.6687" y1="20.9313" x2="22.9314" y2="16.6686" gradientUnits="userSpaceOnUse">
<stop stop-color="#3EAAC0"/>
<stop offset="0.2052" stop-color="#3DA7BD"/>
<stop offset="0.37" stop-color="#389DB5"/>
<stop offset="0.5208" stop-color="#318CA6"/>
<stop offset="0.6633" stop-color="#277492"/>
<stop offset="0.7999" stop-color="#1A5577"/>
<stop offset="0.9304" stop-color="#0B3057"/>
<stop offset="1" stop-color="#011943"/>
</linearGradient>
<linearGradient id="paint7_linear" x1="4.11722" y1="7.08281" x2="8.27797" y2="2.92207" gradientUnits="userSpaceOnUse">
<stop stop-color="#3EAAC0"/>
<stop offset="0.2052" stop-color="#3DA7BD"/>
<stop offset="0.37" stop-color="#389DB5"/>
<stop offset="0.5208" stop-color="#318CA6"/>
<stop offset="0.6633" stop-color="#277492"/>
<stop offset="0.7999" stop-color="#1A5577"/>
<stop offset="0.9304" stop-color="#0B3057"/>
<stop offset="1" stop-color="#011943"/>
</linearGradient>
<linearGradient id="paint8_linear" x1="6.75151" y1="7.24846" x2="8.44853" y2="5.55144" gradientUnits="userSpaceOnUse">
<stop stop-color="#3EAAC0"/>
<stop offset="0.2052" stop-color="#3DA7BD"/>
<stop offset="0.37" stop-color="#389DB5"/>
<stop offset="0.5208" stop-color="#318CA6"/>
<stop offset="0.6633" stop-color="#277492"/>
<stop offset="0.7999" stop-color="#1A5577"/>
<stop offset="0.9304" stop-color="#0B3057"/>
<stop offset="1" stop-color="#011943"/>
</linearGradient>
<linearGradient id="paint9_linear" x1="3.95147" y1="4.44841" x2="5.64849" y2="2.75139" gradientUnits="userSpaceOnUse">
<stop stop-color="#3EAAC0"/>
<stop offset="0.2052" stop-color="#3DA7BD"/>
<stop offset="0.37" stop-color="#389DB5"/>
<stop offset="0.5208" stop-color="#318CA6"/>
<stop offset="0.6633" stop-color="#277492"/>
<stop offset="0.7999" stop-color="#1A5577"/>
<stop offset="0.9304" stop-color="#0B3057"/>
<stop offset="1" stop-color="#011943"/>
</linearGradient>
<linearGradient id="paint10_linear" x1="3.71719" y1="11.8828" x2="6.68286" y2="8.91716" gradientUnits="userSpaceOnUse">
<stop stop-color="#3EAAC0"/>
<stop offset="0.2052" stop-color="#3DA7BD"/>
<stop offset="0.37" stop-color="#389DB5"/>
<stop offset="0.5208" stop-color="#318CA6"/>
<stop offset="0.6633" stop-color="#277492"/>
<stop offset="0.7999" stop-color="#1A5577"/>
<stop offset="0.9304" stop-color="#0B3057"/>
<stop offset="1" stop-color="#011943"/>
</linearGradient>
<linearGradient id="paint11_linear" x1="3.91719" y1="13.6827" x2="7.28286" y2="10.317" gradientUnits="userSpaceOnUse">
<stop stop-color="#3EAAC0"/>
<stop offset="0.2052" stop-color="#3DA7BD"/>
<stop offset="0.37" stop-color="#389DB5"/>
<stop offset="0.5208" stop-color="#318CA6"/>
<stop offset="0.6633" stop-color="#277492"/>
<stop offset="0.7999" stop-color="#1A5577"/>
<stop offset="0.9304" stop-color="#0B3057"/>
<stop offset="1" stop-color="#011943"/>
</linearGradient>
<linearGradient id="paint12_linear" x1="2.91719" y1="14.2828" x2="4.28286" y2="12.9171" gradientUnits="userSpaceOnUse">
<stop stop-color="#3EAAC0"/>
<stop offset="0.2052" stop-color="#3DA7BD"/>
<stop offset="0.37" stop-color="#389DB5"/>
<stop offset="0.5208" stop-color="#318CA6"/>
<stop offset="0.6633" stop-color="#277492"/>
<stop offset="0.7999" stop-color="#1A5577"/>
<stop offset="0.9304" stop-color="#0B3057"/>
<stop offset="1" stop-color="#011943"/>
</linearGradient>
<linearGradient id="paint13_linear" x1="6.31714" y1="14.4828" x2="8.08281" y2="12.7171" gradientUnits="userSpaceOnUse">
<stop stop-color="#3EAAC0"/>
<stop offset="0.2052" stop-color="#3DA7BD"/>
<stop offset="0.37" stop-color="#389DB5"/>
<stop offset="0.5208" stop-color="#318CA6"/>
<stop offset="0.6633" stop-color="#277492"/>
<stop offset="0.7999" stop-color="#1A5577"/>
<stop offset="0.9304" stop-color="#0B3057"/>
<stop offset="1" stop-color="#011943"/>
</linearGradient>
<clipPath id="clip0">
<rect width="24" height="24" fill="white"/>
</clipPath>
</defs>
</svg>
