<svg width="30" height="20" viewBox="0 0 30 20" fill="none" xmlns="http://www.w3.org/2000/svg">
<path d="M29.3864 18.2815C29.3833 18.2151 29.3833 18.1519 29.3802 18.0856C29.3771 18.0192 29.374 17.9529 29.374 17.8865L29.3709 17.836V17.8107V17.8044V17.7475V17.7443V17.7349L29.3647 17.6527C29.3554 17.5421 29.3493 17.4316 29.34 17.321L29.3338 17.2388L29.3245 17.1314C29.3183 17.0587 29.3121 16.9861 29.3059 16.9166C29.2998 16.8439 29.2936 16.7744 29.2843 16.7017C29.2812 16.667 29.2781 16.629 29.275 16.5943C29.2719 16.5627 29.2657 16.5279 29.2626 16.4963C29.2286 16.2373 29.1946 15.9813 29.1513 15.7349C29.1296 15.6117 29.111 15.4916 29.0894 15.3716C29.0646 15.2547 29.043 15.1378 29.0182 15.0272C28.9749 14.8029 28.9192 14.5943 28.8759 14.3984C28.8636 14.351 28.8512 14.3037 28.8419 14.2563C28.8295 14.2089 28.8171 14.1646 28.8048 14.1204C28.78 14.0319 28.7584 13.9498 28.7367 13.8708C28.7151 13.7918 28.6965 13.7191 28.6748 13.6528C28.6532 13.5865 28.6346 13.5233 28.6161 13.4695C28.5913 13.3874 28.5697 13.3211 28.5511 13.2642C28.5263 13.1852 28.4428 13.1378 28.3655 13.1631L23.3878 14.6164C23.3135 14.6386 23.264 14.7144 23.2795 14.7934C23.2857 14.8218 23.2919 14.8566 23.2981 14.8945C23.3043 14.9324 23.3135 14.9735 23.3228 15.0209C23.3321 15.0683 23.3383 15.1188 23.3445 15.1694C23.3538 15.2231 23.3599 15.2799 23.3692 15.34C23.3723 15.3684 23.3785 15.4 23.3816 15.4316C23.3847 15.4632 23.3878 15.4948 23.3909 15.5295C23.4033 15.6622 23.4249 15.8044 23.4342 15.9561C23.4404 16.0319 23.4466 16.1109 23.4528 16.1899C23.4589 16.2689 23.4589 16.351 23.4651 16.4332C23.4744 16.5975 23.4744 16.7681 23.4775 16.9418V17.005L23.4744 17.0619C23.4744 17.0998 23.4713 17.1377 23.4713 17.1756C23.4713 17.2136 23.4682 17.2515 23.4682 17.2894V17.3463L23.4651 17.4284C23.462 17.539 23.4559 17.6496 23.4528 17.7601L23.4497 17.8423V17.8518V17.8549C23.4497 17.8676 23.4497 17.757 23.4497 17.8044V17.8075V17.8233L23.4466 17.8549C23.4435 17.8992 23.4404 17.9402 23.4342 17.9845C23.4311 18.0287 23.428 18.0698 23.4218 18.114C23.4156 18.1551 23.4125 18.1993 23.4064 18.2404C23.3971 18.3257 23.3878 18.4078 23.3754 18.4868C23.363 18.569 23.3538 18.648 23.3414 18.7238C23.329 18.7996 23.3166 18.8755 23.3043 18.9513C23.2919 19.0239 23.2764 19.0966 23.264 19.163C23.2486 19.2325 23.2393 19.2988 23.2238 19.362C23.2084 19.4252 23.196 19.4852 23.1836 19.5421C23.1774 19.5705 23.1712 19.599 23.165 19.6243C23.1589 19.6464 23.1527 19.6685 23.1465 19.6906C23.1434 19.7032 23.1403 19.7159 23.1372 19.7285H29.2131C29.2936 19.7285 29.3616 19.6622 29.3647 19.58C29.3709 19.4631 29.374 19.3462 29.3802 19.223C29.3833 19.1029 29.3833 18.9766 29.3864 18.8533C29.3895 18.727 29.3864 18.6006 29.3864 18.471C29.3864 18.4142 29.3864 18.3478 29.3864 18.2815Z" fill="url(#paint0_linear)"/>
<path d="M27.8056 11.7695C27.886 11.7348 27.9231 11.64 27.886 11.5578C27.8705 11.5231 27.8489 11.4789 27.8272 11.4315C27.8056 11.3872 27.7839 11.3367 27.7592 11.283C27.7282 11.2166 27.6911 11.1439 27.654 11.0649C27.6169 10.9859 27.5766 10.9038 27.5333 10.8185C27.5117 10.7742 27.49 10.7363 27.4684 10.6921C27.4467 10.651 27.4251 10.6068 27.4003 10.5657C27.3539 10.4804 27.3075 10.3888 27.2549 10.294C27.2023 10.2023 27.1466 10.1076 27.0909 10.0096C27.0631 9.96221 27.0353 9.91165 27.0074 9.8611C26.9765 9.81054 26.9455 9.76315 26.9177 9.71259C26.8558 9.61148 26.7939 9.51037 26.729 9.40611C26.5929 9.20073 26.4598 8.98903 26.3082 8.78049C26.2711 8.72677 26.234 8.67622 26.1969 8.6225L26.1412 8.54351L26.0824 8.46452C26.0051 8.36025 25.9277 8.25914 25.8473 8.15487C25.7669 8.05376 25.6864 7.95265 25.606 7.85154C25.5658 7.80099 25.5256 7.75043 25.4853 7.70304C25.442 7.65564 25.4018 7.60509 25.3616 7.55769C25.3214 7.5103 25.2781 7.4629 25.2378 7.41235C25.1976 7.36495 25.1543 7.31756 25.1141 7.27016C25.0306 7.17853 24.947 7.0869 24.8635 6.99843C24.78 6.90996 24.6965 6.82465 24.616 6.7425C24.5356 6.66034 24.4552 6.57819 24.3747 6.50236C24.2943 6.42653 24.2169 6.3507 24.1427 6.28118C24.0685 6.20851 23.9911 6.14532 23.92 6.07896C23.8488 6.01577 23.7807 5.95258 23.7127 5.8957C23.6446 5.83883 23.5828 5.78511 23.5209 5.73456C23.4621 5.684 23.4064 5.63661 23.3538 5.59553C23.3012 5.5513 23.2517 5.51338 23.2084 5.47862C23.1435 5.42807 23.0909 5.38699 23.0476 5.35224C22.9826 5.30168 22.8898 5.31116 22.8372 5.37752L20.1705 8.67938C20.121 8.74257 20.1241 8.83104 20.1797 8.88792C20.2014 8.91004 20.2292 8.93531 20.2571 8.96691C20.2849 8.99535 20.3159 9.02694 20.3499 9.0617C20.3839 9.09646 20.418 9.13437 20.4551 9.17545C20.4922 9.21652 20.5324 9.2576 20.5757 9.305C20.616 9.35239 20.6593 9.39979 20.7026 9.4535C20.7459 9.50406 20.7954 9.55777 20.8418 9.61464C20.8882 9.67152 20.9346 9.73155 20.9841 9.79159C21.0336 9.85162 21.0831 9.91481 21.1326 9.98117C21.1821 10.0475 21.2347 10.1107 21.2842 10.1802C21.3337 10.2497 21.3832 10.3193 21.4358 10.3919C21.4605 10.4267 21.4853 10.4646 21.51 10.4994C21.5348 10.5373 21.5595 10.572 21.5843 10.6099C21.609 10.6479 21.6338 10.6826 21.6585 10.7205C21.6833 10.7584 21.7049 10.7964 21.7297 10.8343C21.7761 10.9101 21.8256 10.9859 21.872 11.0649C21.9184 11.1439 21.9617 11.2198 22.0081 11.2988L22.0421 11.3556L22.0731 11.4157C22.0947 11.4536 22.1164 11.4947 22.1349 11.5326C22.2216 11.6874 22.2958 11.8454 22.37 11.997C22.4041 12.0729 22.4381 12.1487 22.4721 12.2245C22.4876 12.2625 22.5062 12.2972 22.5216 12.3351C22.5371 12.373 22.5526 12.4078 22.568 12.4426C22.599 12.5121 22.6268 12.5816 22.6547 12.6479C22.6794 12.7143 22.7042 12.7806 22.7289 12.8438C22.7413 12.8754 22.7537 12.907 22.7629 12.9355C22.7753 12.9639 22.7877 12.9955 22.7939 13.0208C22.8124 13.0713 22.8279 13.1219 22.8434 13.1661C22.8588 13.2104 22.8743 13.2546 22.8867 13.2925C22.9052 13.3462 22.9207 13.3968 22.9362 13.441C22.9517 13.4916 22.9671 13.5358 22.9795 13.5737C23.0073 13.659 23.1001 13.7033 23.1806 13.6685L27.8056 11.7695Z" fill="url(#paint1_linear)"/>
<path d="M14.2245 5.87991C14.2647 5.88623 14.3111 5.89255 14.3575 5.89887C14.407 5.90835 14.4596 5.91782 14.5153 5.9273C14.571 5.93678 14.6298 5.94626 14.6917 5.9589C14.7473 5.96838 14.803 5.98101 14.8618 5.99365L16.5447 2.47714C16.4612 2.4645 16.3777 2.45186 16.2972 2.43922C16.2415 2.42975 16.1859 2.42027 16.1333 2.41395C16.0776 2.40763 16.025 2.40131 15.9724 2.39499C15.8672 2.38235 15.762 2.36972 15.663 2.35708C15.564 2.3476 15.465 2.34128 15.3722 2.3318C15.2794 2.32548 15.1897 2.316 15.1062 2.30969C15.0227 2.30653 14.9422 2.30021 14.8649 2.29705C14.7906 2.29389 14.7195 2.29073 14.6545 2.28757C14.5896 2.28757 14.5308 2.28441 14.4751 2.28441C14.3978 2.28441 14.3359 2.28125 14.2833 2.28125C14.1998 2.28125 14.1317 2.34444 14.1286 2.42975L13.9739 5.70298C13.9708 5.78513 14.0265 5.85464 14.107 5.86411C14.141 5.86727 14.1812 5.87359 14.2245 5.87991Z" fill="url(#paint2_linear)"/>
<path d="M18.7474 7.68113C18.7938 7.71589 18.834 7.74749 18.8773 7.77592C18.9175 7.80436 18.9547 7.8328 18.9918 7.85808C19.0073 7.86756 19.032 7.88651 19.0537 7.90231C19.0753 7.91811 19.0939 7.93391 19.1124 7.94655C19.1527 7.97814 19.1898 8.00658 19.2207 8.0287C19.2919 8.08241 19.3909 8.06346 19.4404 7.98762L21.6369 4.56884C21.6864 4.49301 21.6616 4.3919 21.5843 4.34766C21.5502 4.3287 21.51 4.30343 21.4667 4.27815C21.4451 4.26551 21.4234 4.25287 21.4017 4.24023C21.377 4.22443 21.3522 4.21179 21.3244 4.196C21.2625 4.16124 21.1945 4.12332 21.1233 4.08225C21.0522 4.04117 20.9748 4.0001 20.8944 3.9527C20.817 3.91162 20.7366 3.87055 20.65 3.82947C20.5634 3.7884 20.4767 3.741 20.3839 3.69677C20.2911 3.65253 20.1952 3.60829 20.0962 3.5609C19.9972 3.5135 19.8951 3.47243 19.7899 3.42503C19.6848 3.3808 19.5796 3.3334 19.4682 3.28917C19.4404 3.27969 19.4125 3.26705 19.3847 3.25757L18.438 7.45996C18.4906 7.49471 18.5401 7.52947 18.5896 7.56107C18.6422 7.61162 18.6979 7.64638 18.7474 7.68113Z" fill="url(#paint3_linear)"/>
<path d="M11.2732 5.86114C11.3165 5.85482 11.3567 5.8485 11.4 5.84534C11.4402 5.84218 11.4836 5.83586 11.5238 5.8327C11.6042 5.82322 11.6846 5.8169 11.7589 5.80742C11.8362 5.8011 11.9105 5.79794 11.9785 5.79163C12.0126 5.78847 12.0497 5.78531 12.0837 5.78531C12.1178 5.78215 12.1518 5.77899 12.1796 5.77899C12.2384 5.77583 12.2972 5.77583 12.3498 5.77583C12.4024 5.77267 12.4519 5.77267 12.4983 5.76951C12.554 5.76951 12.6066 5.76951 12.653 5.76951C12.7055 5.76951 12.7489 5.76951 12.7891 5.76951C12.8757 5.76951 12.9469 5.69368 12.9407 5.60205L12.7427 2.51831C12.7365 2.42984 12.6591 2.36349 12.5725 2.37297C12.5323 2.37929 12.489 2.38245 12.4364 2.39193C12.39 2.39825 12.3374 2.40457 12.2786 2.41089C12.2106 2.42037 12.1363 2.433 12.059 2.44564C11.9816 2.45828 11.8981 2.47092 11.8115 2.48356C11.7682 2.48988 11.7249 2.49936 11.6816 2.50567C11.6382 2.51515 11.5949 2.52147 11.5485 2.53095C11.4588 2.54991 11.366 2.56571 11.267 2.58782C11.1711 2.60994 11.0721 2.63206 10.97 2.65733C10.9174 2.66997 10.8679 2.68261 10.8153 2.69525C10.7627 2.70789 10.7102 2.72368 10.6576 2.73632C10.5524 2.76476 10.4441 2.79635 10.3327 2.82479C10.2244 2.85955 10.1131 2.89114 9.99861 2.9259C9.94293 2.94485 9.88724 2.96065 9.82846 2.97961C9.77278 2.99857 9.71709 3.01752 9.65831 3.03964C9.60263 3.0586 9.54385 3.08072 9.48816 3.09967C9.43248 3.11863 9.3737 3.14075 9.31801 3.16286C9.20664 3.2071 9.09218 3.25133 8.97771 3.29557C8.86634 3.3398 8.75497 3.39035 8.6436 3.43775C8.58791 3.46302 8.53223 3.48514 8.47654 3.51042C8.42086 3.53569 8.36827 3.56097 8.31258 3.58625C8.25999 3.61152 8.2043 3.6368 8.15171 3.66208C8.09912 3.68735 8.04653 3.71263 7.99393 3.74107C7.88875 3.79478 7.78666 3.84849 7.68766 3.89904C7.58557 3.9496 7.48967 4.00647 7.39686 4.06018C7.30096 4.11389 7.20815 4.16445 7.12153 4.21816C7.03181 4.27187 6.94828 4.32559 6.86476 4.37298C6.78123 4.42353 6.70389 4.47724 6.62655 4.52464C6.5523 4.57519 6.47805 4.62258 6.40999 4.66682C6.34193 4.71421 6.28006 4.75845 6.21818 4.79952C6.15941 4.84059 6.10372 4.88167 6.05113 4.91642C5.99854 4.95434 5.95213 4.98909 5.91191 5.02069C5.85623 5.06492 5.80673 5.09968 5.76651 5.13127C5.70155 5.18183 5.68608 5.27346 5.73248 5.34297L6.98541 7.22607C7.02872 7.29242 7.11843 7.31454 7.18649 7.27346C7.21743 7.2545 7.25455 7.23239 7.29787 7.21027C7.33499 7.18815 7.37521 7.16288 7.42161 7.14076C7.46802 7.11548 7.51751 7.09021 7.57011 7.06177C7.6227 7.03334 7.67838 7.0049 7.73716 6.9733C7.79594 6.94487 7.86091 6.91327 7.92587 6.88168C7.99084 6.85008 8.0589 6.81532 8.13005 6.78373C8.20121 6.75213 8.27546 6.71738 8.3528 6.68262C8.42704 6.64787 8.50748 6.61627 8.58791 6.58152C8.66835 6.54992 8.75188 6.51201 8.8354 6.48357C8.91893 6.45197 9.00555 6.42038 9.09527 6.38878C9.13858 6.37299 9.18189 6.35719 9.2283 6.34455C9.27161 6.32875 9.31801 6.31611 9.36442 6.30032C9.41082 6.28452 9.45413 6.27188 9.50054 6.25608C9.54694 6.24344 9.59335 6.2308 9.63666 6.21501C9.72947 6.18973 9.81918 6.16129 9.91199 6.13602C10.0048 6.1139 10.0976 6.08862 10.1904 6.06651C10.2368 6.05387 10.2832 6.04439 10.3296 6.03491C10.376 6.02543 10.4224 6.01595 10.4688 6.00648C10.5153 5.997 10.5617 5.98752 10.605 5.97804C10.6514 5.96856 10.6978 5.96224 10.7411 5.95276C10.8308 5.93696 10.9205 5.92117 11.0071 5.90537C11.103 5.88641 11.1897 5.87377 11.2732 5.86114Z" fill="url(#paint4_linear)"/>
<path d="M2.72859 8.29708C2.69456 8.34447 2.66363 8.39187 2.6296 8.43926C2.59557 8.48666 2.56463 8.53405 2.5306 8.58461C2.49657 8.632 2.46563 8.68256 2.4347 8.73311C2.36973 8.83106 2.30476 8.93217 2.24289 9.03012C2.18102 9.13123 2.12224 9.23234 2.06037 9.33345L2.01396 9.40928L1.97065 9.48511C1.94281 9.53567 1.91496 9.58622 1.88403 9.63678C1.76956 9.83899 1.66747 10.0412 1.56538 10.2371C1.51898 10.3351 1.47257 10.433 1.42617 10.531C1.40451 10.5784 1.37976 10.6257 1.35811 10.6731C1.33645 10.7205 1.31789 10.7679 1.29624 10.8122C1.25602 10.9038 1.2158 10.9954 1.17868 11.0807C1.14155 11.1692 1.10752 11.2545 1.07659 11.3335C1.04565 11.4157 1.01162 11.4915 0.983779 11.5673C0.955936 11.6432 0.931187 11.7127 0.906438 11.7822C0.881688 11.8485 0.860033 11.9117 0.838377 11.9686C0.819816 12.0255 0.801254 12.0792 0.785786 12.1297C0.76413 12.1929 0.745568 12.2498 0.733194 12.2941C0.708445 12.373 0.745568 12.4584 0.822909 12.4899L1.98921 12.9481C2.06346 12.9765 2.14699 12.9418 2.18102 12.8691C2.19958 12.8344 2.21814 12.7901 2.24289 12.7396C2.26145 12.6985 2.28311 12.6543 2.30786 12.6037C2.33261 12.5563 2.36045 12.5026 2.38829 12.4457C2.41613 12.3888 2.44707 12.3288 2.47801 12.2656C2.50894 12.2024 2.54607 12.1392 2.58319 12.0697C2.62031 12.0034 2.66053 11.9307 2.70075 11.858C2.74406 11.7853 2.78737 11.7127 2.83378 11.6368C2.85543 11.5989 2.88018 11.561 2.90184 11.5199C2.92659 11.482 2.95133 11.4441 2.97608 11.403C3.02558 11.324 3.07508 11.245 3.12767 11.1629C3.23595 11.0049 3.34423 10.8374 3.46488 10.6763C3.49582 10.6352 3.52366 10.5942 3.55459 10.5531L3.59791 10.493L3.64431 10.433C3.70618 10.354 3.76806 10.2719 3.83302 10.1929C3.89799 10.1139 3.96295 10.0349 4.02792 9.95906C4.06195 9.92115 4.09289 9.88007 4.12382 9.84215C4.15785 9.80424 4.19188 9.76632 4.22282 9.72841C4.25685 9.69049 4.28779 9.65257 4.32182 9.61782C4.35585 9.5799 4.38678 9.54515 4.42081 9.51039C4.48887 9.44088 4.55384 9.3682 4.61881 9.30185C4.68377 9.23234 4.75183 9.16915 4.8168 9.10595C4.88177 9.04276 4.94364 8.97957 5.00861 8.91953C5.07048 8.8595 5.13235 8.80262 5.19422 8.74891C5.253 8.69204 5.31488 8.64464 5.37056 8.59409C5.42625 8.54353 5.48193 8.4993 5.53143 8.4519C5.58093 8.41083 5.63043 8.37291 5.67374 8.33499C5.71705 8.29708 5.76036 8.26548 5.80058 8.23389C5.81914 8.21809 5.84389 8.20229 5.86245 8.18649C5.88411 8.17069 5.90267 8.15489 5.92123 8.1391C5.96145 8.1075 5.99857 8.07906 6.02951 8.05378C6.10066 8.00007 6.10994 7.8958 6.05426 7.82945L4.72708 6.24014C4.6714 6.17063 4.56931 6.16747 4.50434 6.2275C4.4765 6.25594 4.44247 6.28753 4.40535 6.32545C4.38678 6.34125 4.37132 6.36021 4.35275 6.37916C4.33419 6.39812 4.31563 6.41708 4.29088 6.4392C4.24448 6.48659 4.19498 6.53715 4.14239 6.59086C4.08979 6.64458 4.03411 6.70145 3.97533 6.76464C3.91964 6.82468 3.86396 6.88787 3.80209 6.95422C3.74331 7.02058 3.67834 7.08693 3.61647 7.16276C3.55459 7.23543 3.48963 7.31126 3.42466 7.39026C3.3566 7.46609 3.29473 7.5514 3.22667 7.63355C3.1617 7.71886 3.09055 7.80101 3.02558 7.89264C2.96062 7.98111 2.89256 8.07274 2.8245 8.16437C2.79356 8.20229 2.75953 8.24652 2.72859 8.29708Z" fill="url(#paint5_linear)"/>
<path d="M0.31555 13.8675C0.306269 13.9054 0.300082 13.9528 0.287708 14.0034C0.278427 14.0508 0.269146 14.1045 0.256771 14.1613C0.244397 14.2214 0.235116 14.2877 0.222741 14.3604C0.210367 14.4331 0.197992 14.5089 0.185618 14.5879C0.17943 14.629 0.173243 14.67 0.167056 14.7111C0.160869 14.7522 0.154681 14.7933 0.151588 14.8375C0.123745 15.0081 0.0959025 15.1945 0.0804344 15.3904C0.0711535 15.4884 0.0618726 15.5895 0.0494981 15.6937C0.0402172 15.798 0.0371235 15.9023 0.0278427 16.0129C0.0123745 16.2277 0.00928089 16.452 0 16.6764L0 16.7617V16.847C0 16.9039 0 16.9607 0 17.0176C0 17.0745 0 17.1314 0 17.1882V17.2735L0.00309363 17.3589C0.00618726 17.4726 0.0123745 17.5863 0.0154681 17.7001L0.0185618 17.7854V17.8138V17.8359L0.0216554 17.877C0.024749 17.9307 0.0309363 17.9876 0.0340299 18.0413C0.0371235 18.095 0.0433108 18.1487 0.0464044 18.2025C0.0525917 18.2593 0.0556853 18.313 0.0618726 18.3699C0.0680598 18.4268 0.0711535 18.4805 0.0773407 18.5342C0.0804344 18.5627 0.083528 18.5879 0.0866216 18.6164C0.0897152 18.6416 0.0928089 18.6701 0.0959025 18.6954C0.108277 18.7996 0.120652 18.9039 0.13612 19.0082C0.151588 19.1093 0.167056 19.2104 0.17943 19.3052C0.191805 19.4031 0.210367 19.4947 0.225835 19.5864C0.225835 19.5927 0.228929 19.6022 0.228929 19.6085C0.241303 19.6811 0.306269 19.7349 0.377423 19.7349H0.788875C0.875497 19.7349 0.946651 19.659 0.940463 19.5706C0.940463 19.5453 0.93737 19.5232 0.93737 19.4979C0.931182 19.4094 0.924995 19.321 0.924995 19.2293C0.921901 19.1377 0.918808 19.0429 0.915714 18.945C0.915714 18.847 0.915714 18.7491 0.912621 18.648C0.912621 18.6227 0.912621 18.5974 0.912621 18.5721C0.912621 18.5469 0.912621 18.5216 0.915714 18.4963C0.915714 18.4458 0.918808 18.3952 0.918808 18.3446C0.918808 18.2941 0.921901 18.2435 0.921901 18.1898C0.924995 18.1361 0.928089 18.0824 0.928089 18.0287C0.931182 17.975 0.934276 17.9181 0.934276 17.8644L0.93737 17.8233V17.8012V17.798C0.93737 17.7917 0.93737 17.8044 0.93737 17.8012V17.7949V17.7854L0.943557 17.7064C0.952838 17.599 0.959025 17.4947 0.968306 17.3873L0.974493 17.3083L0.983774 17.2293C0.989961 17.1756 0.996149 17.1219 1.00234 17.0713C1.00852 17.0176 1.01471 16.9671 1.0209 16.9133L1.03018 16.8344L1.04255 16.7554C1.07349 16.5468 1.10133 16.3446 1.13846 16.1487C1.15702 16.0508 1.17249 15.9528 1.19105 15.8612C1.2127 15.7664 1.23126 15.6779 1.24983 15.5863C1.28695 15.4094 1.33335 15.2419 1.37048 15.0903C1.37976 15.0523 1.38904 15.0144 1.39832 14.9765C1.4076 14.9418 1.41998 14.907 1.42926 14.8723C1.44782 14.8059 1.46638 14.7395 1.48494 14.6795C1.5035 14.6195 1.51897 14.5658 1.53444 14.5089C1.553 14.452 1.56847 14.4015 1.58394 14.3572C1.59941 14.3067 1.61487 14.2624 1.62725 14.2245C1.65509 14.1392 1.60559 14.0476 1.52207 14.0255L0.491887 13.7443C0.41764 13.7253 0.331018 13.779 0.31555 13.8675Z" fill="url(#paint6_linear)"/>
<path d="M11.9816 19.3241C12.3157 19.4916 12.6715 19.5706 13.0211 19.5706C13.8997 19.5706 14.7411 19.0713 15.1557 18.2119C15.2361 18.0476 15.2949 17.8644 15.3351 17.6906L17.7358 7.05223L18.6515 3.00162L19.2176 0.492897C19.2826 0.199055 19.0536 0 18.8278 0C18.6948 0 18.5618 0.0695112 18.4844 0.224332L17.3336 2.63195L15.6352 6.18334L10.8926 16.0824C10.3172 17.2862 10.806 18.7364 11.9816 19.3241ZM13.1108 15.8991C13.7543 15.8991 14.274 16.4299 14.274 17.0871C14.274 17.7443 13.7543 18.2751 13.1108 18.2751C12.4673 18.2751 11.9476 17.7443 11.9476 17.0871C11.9476 16.4299 12.4673 15.8991 13.1108 15.8991Z" fill="url(#paint7_linear)"/>
<defs>
<linearGradient id="paint0_linear" x1="23.4737" y1="20.0821" x2="29.4788" y2="14.2022" gradientUnits="userSpaceOnUse">
<stop stop-color="#3EAAC0"/>
<stop offset="0.2052" stop-color="#3DA7BD"/>
<stop offset="0.37" stop-color="#389DB5"/>
<stop offset="0.5208" stop-color="#318CA6"/>
<stop offset="0.6633" stop-color="#277492"/>
<stop offset="0.7999" stop-color="#1A5577"/>
<stop offset="0.9304" stop-color="#0B3057"/>
<stop offset="1" stop-color="#011943"/>
</linearGradient>
<linearGradient id="paint1_linear" x1="21.6977" y1="12.2846" x2="25.9533" y2="8.11808" gradientUnits="userSpaceOnUse">
<stop stop-color="#3EAAC0"/>
<stop offset="0.2052" stop-color="#3DA7BD"/>
<stop offset="0.37" stop-color="#389DB5"/>
<stop offset="0.5208" stop-color="#318CA6"/>
<stop offset="0.6633" stop-color="#277492"/>
<stop offset="0.7999" stop-color="#1A5577"/>
<stop offset="0.9304" stop-color="#0B3057"/>
<stop offset="1" stop-color="#011943"/>
</linearGradient>
<linearGradient id="paint2_linear" x1="13.4574" y1="5.24301" x2="16.4169" y2="2.34526" gradientUnits="userSpaceOnUse">
<stop stop-color="#3EAAC0"/>
<stop offset="0.2052" stop-color="#3DA7BD"/>
<stop offset="0.37" stop-color="#389DB5"/>
<stop offset="0.5208" stop-color="#318CA6"/>
<stop offset="0.6633" stop-color="#277492"/>
<stop offset="0.7999" stop-color="#1A5577"/>
<stop offset="0.9304" stop-color="#0B3057"/>
<stop offset="1" stop-color="#011943"/>
</linearGradient>
<linearGradient id="paint3_linear" x1="18.024" y1="7.05012" x2="21.1924" y2="3.94794" gradientUnits="userSpaceOnUse">
<stop stop-color="#3EAAC0"/>
<stop offset="0.2052" stop-color="#3DA7BD"/>
<stop offset="0.37" stop-color="#389DB5"/>
<stop offset="0.5208" stop-color="#318CA6"/>
<stop offset="0.6633" stop-color="#277492"/>
<stop offset="0.7999" stop-color="#1A5577"/>
<stop offset="0.9304" stop-color="#0B3057"/>
<stop offset="1" stop-color="#011943"/>
</linearGradient>
<linearGradient id="paint4_linear" x1="7.27655" y1="7.52731" x2="12.598" y2="2.31686" gradientUnits="userSpaceOnUse">
<stop stop-color="#3EAAC0"/>
<stop offset="0.2052" stop-color="#3DA7BD"/>
<stop offset="0.37" stop-color="#389DB5"/>
<stop offset="0.5208" stop-color="#318CA6"/>
<stop offset="0.6633" stop-color="#277492"/>
<stop offset="0.7999" stop-color="#1A5577"/>
<stop offset="0.9304" stop-color="#0B3057"/>
<stop offset="1" stop-color="#011943"/>
</linearGradient>
<linearGradient id="paint5_linear" x1="0.632285" y1="12.314" x2="5.76274" y2="7.29078" gradientUnits="userSpaceOnUse">
<stop stop-color="#3EAAC0"/>
<stop offset="0.2052" stop-color="#3DA7BD"/>
<stop offset="0.37" stop-color="#389DB5"/>
<stop offset="0.5208" stop-color="#318CA6"/>
<stop offset="0.6633" stop-color="#277492"/>
<stop offset="0.7999" stop-color="#1A5577"/>
<stop offset="0.9304" stop-color="#0B3057"/>
<stop offset="1" stop-color="#011943"/>
</linearGradient>
<linearGradient id="paint6_linear" x1="-0.990039" y1="18.3956" x2="2.49602" y2="14.9823" gradientUnits="userSpaceOnUse">
<stop stop-color="#3EAAC0"/>
<stop offset="0.2052" stop-color="#3DA7BD"/>
<stop offset="0.37" stop-color="#389DB5"/>
<stop offset="0.5208" stop-color="#318CA6"/>
<stop offset="0.6633" stop-color="#277492"/>
<stop offset="0.7999" stop-color="#1A5577"/>
<stop offset="0.9304" stop-color="#0B3057"/>
<stop offset="1" stop-color="#011943"/>
</linearGradient>
<linearGradient id="paint7_linear" x1="9.39944" y1="16.8732" x2="22.7352" y2="3.81586" gradientUnits="userSpaceOnUse">
<stop stop-color="#3EAAC0"/>
<stop offset="0.2052" stop-color="#3DA7BD"/>
<stop offset="0.37" stop-color="#389DB5"/>
<stop offset="0.5208" stop-color="#318CA6"/>
<stop offset="0.6633" stop-color="#277492"/>
<stop offset="0.7999" stop-color="#1A5577"/>
<stop offset="0.9304" stop-color="#0B3057"/>
<stop offset="1" stop-color="#011943"/>
</linearGradient>
</defs>
</svg>
