<svg width="58" height="58" viewBox="0 0 58 58" fill="none" xmlns="http://www.w3.org/2000/svg">
<g clip-path="url(#clip0)">
<path d="M27.6127 36.0045L27.604 36.013L27.5955 36.0218C27.5794 36.0383 27.5636 36.0552 27.5481 36.0724C27.1858 35.6829 26.6669 35.4422 26.0999 35.4422H25.7551C26.0742 35.3366 26.3589 35.1518 26.5833 34.91C26.9456 35.3006 27.4653 35.5422 28.0333 35.5422H28.3967C28.1079 35.63 27.8374 35.7836 27.6127 36.0045ZM27.5481 38.7119C27.5631 38.7285 27.5782 38.7447 27.5937 38.7607L27.6124 38.7802L27.6322 38.7986C27.8434 38.9952 28.101 39.1491 28.3833 39.2422H26.7218C27.0401 39.1369 27.3241 38.9528 27.5481 38.7119ZM22.2666 37.8993C22.4549 38.5976 23.0226 39.1315 23.7236 39.2922C23.0226 39.4529 22.4549 39.9868 22.2666 40.6851V37.8993ZM22.2666 43.0422V41.6993C22.4386 42.3371 22.9272 42.8378 23.5447 43.0422H22.2666ZM32.2447 43.0422H30.5885C30.9076 42.9366 31.1922 42.7518 31.4166 42.51C31.6409 42.7518 31.9256 42.9366 32.2447 43.0422ZM31.4166 39.8744C31.0543 39.4837 30.5346 39.2422 29.9666 39.2422H29.6165C29.8988 39.1491 30.1565 38.9952 30.3677 38.7986L30.3875 38.7802L30.4062 38.7607C30.4216 38.7447 30.4368 38.7284 30.4517 38.7119C30.814 39.1014 31.3329 39.3422 31.8999 39.3422H32.2447C31.9256 39.4478 31.6409 39.6325 31.4166 39.8744ZM35.7333 40.6851C35.545 39.9868 34.9772 39.4529 34.2762 39.2922C34.9772 39.1315 35.545 38.5976 35.7333 37.8993V40.6851ZM35.7333 34.0993V36.8851C35.545 36.1868 34.9772 35.6529 34.2762 35.4922C34.9772 35.3315 35.545 34.7976 35.7333 34.0993ZM29.5943 35.5422H31.2781C30.9598 35.6475 30.6758 35.8315 30.4518 36.0724C30.4363 36.0552 30.4205 36.0383 30.4044 36.0218L30.3913 36.0082L30.3776 35.9952C30.1535 35.7807 29.8833 35.6293 29.5943 35.5422ZM35.7333 31.7422V33.0851C35.5613 32.4473 35.0727 31.9466 34.4551 31.7422H35.7333ZM35.7333 41.6993V43.0422H34.4551C35.0727 42.8378 35.5613 42.3371 35.7333 41.6993ZM22.2666 33.0851V31.7422H23.5447C22.9272 31.9466 22.4386 32.4473 22.2666 33.0851ZM26.5833 32.2744C26.3589 32.0325 26.0742 31.8478 25.7551 31.7422H27.4114C27.0923 31.8478 26.8076 32.0325 26.5833 32.2744ZM22.2666 36.8851V34.0993C22.4549 34.7976 23.0226 35.3315 23.7236 35.4922C23.0226 35.6529 22.4549 36.1868 22.2666 36.8851Z" stroke="white" stroke-width="2"/>
<path d="M36.7666 14.5418V1.3418H47.353L55.7477 14.5418H36.7666Z" stroke="white" stroke-width="2"/>
<path d="M2.25221 14.5418L10.6469 1.3418H21.2334V14.5418H2.25221Z" stroke="white" stroke-width="2"/>
<path d="M21.2333 48.3981V56.3414H1V18.4414H21.2333V25.4347V27.8195L22.9343 26.1479L25.1333 23.9868L28.2991 27.0979L29 27.7868L29.7009 27.0979L32.8667 23.9868L35.0657 26.1479L36.7667 27.8195V25.4347V18.4414H57V56.3414H36.7667V48.3981V46.9414H38.6667H39.6667V45.9414V28.8414V27.8414H38.6667H19.3333H18.3333V28.8414V45.9414V46.9414H19.3333H21.2333V48.3981ZM29.9111 46.9414H35.8222L35.0657 47.6849L32.8667 49.846L29.9111 46.9414ZM22.1778 46.9414H28.0889L25.1333 49.846L22.9343 47.6849L22.1778 46.9414Z" stroke="white" stroke-width="2"/>
</g>
<defs>
<clipPath id="clip0">
<rect width="58" height="57" fill="white" transform="translate(0 0.341797)"/>
</clipPath>
</defs>
</svg>
