<svg width="55" height="53" viewBox="0 0 55 53" fill="none" xmlns="http://www.w3.org/2000/svg">
<path d="M43.6133 48.2383H38.3286L37.2544 45.1328H17.7456L16.6714 48.2383H11.3867C10.4963 48.2383 9.77539 48.933 9.77539 49.791C9.77539 50.6491 10.4963 51.3438 11.3867 51.3438H43.6133C44.5037 51.3438 45.2246 50.6491 45.2246 49.791C45.2246 48.933 44.5037 48.2383 43.6133 48.2383Z" fill="white"/>
<path d="M43.6133 10.9727C42.7241 10.9727 42.002 11.6686 42.002 12.5254C42.002 13.3822 42.7241 14.0781 43.6133 14.0781C44.5024 14.0781 45.2246 13.3822 45.2246 12.5254C45.2246 11.6686 44.5024 10.9727 43.6133 10.9727Z" fill="white"/>
<path d="M34.7828 16.1645L34.7826 16.1647L33.5004 17.4003C33.445 17.3777 33.3896 17.3554 33.334 17.3334V15.6309C33.334 14.1859 32.1301 13.0781 30.7227 13.0781H24.2773C22.8699 13.0781 21.666 14.1859 21.666 15.6309V17.3331C21.6104 17.3551 21.5548 17.3775 21.4995 17.4001L20.2174 16.1647C19.2007 15.1849 17.5678 15.1849 16.5511 16.1647L11.9941 20.556C10.9565 21.5559 10.9565 23.192 11.9941 24.1918L13.2422 25.3954C13.2271 25.4302 13.2121 25.4651 13.1973 25.5H11.3867C9.97924 25.5 8.77539 26.6078 8.77539 28.0527V31.7109H1V6.31445C1 4.33285 2.68563 2.65625 4.83398 2.65625H50.0586C52.2361 2.65625 54 4.36055 54 6.31445V31.7109H46.2246V28.0527C46.2246 26.6078 45.0208 25.5 43.6133 25.5H41.8026C41.7878 25.4651 41.7729 25.4303 41.7578 25.3955L43.0057 24.1921C44.0437 23.1925 44.0434 21.5557 43.0059 20.556L38.4489 16.1647L38.4487 16.1645C37.432 15.1854 35.7995 15.1854 34.7828 16.1645ZM37.7793 12.5254C37.7793 15.6807 40.4308 18.1836 43.6133 18.1836C46.7957 18.1836 49.4473 15.6807 49.4473 12.5254C49.4473 9.37003 46.7957 6.86719 43.6133 6.86719C40.4308 6.86719 37.7793 9.37003 37.7793 12.5254Z" stroke="white" stroke-width="2"/>
<path d="M22.666 31.1582C22.666 31.6948 22.7944 32.2124 22.9786 32.7109H32.0214C32.2056 32.2124 32.334 31.6948 32.334 31.1582C32.334 28.5897 30.1654 26.5 27.5 26.5C24.8342 26.5 22.666 28.5897 22.666 31.1582Z" fill="white"/>
<path d="M16.6265 28.4409C16.4427 29.1263 15.8007 29.6055 15.0655 29.6055H12.998V32.7109H19.6553C19.547 32.1994 19.4434 31.6855 19.4434 31.1582C19.4434 26.8777 23.0579 23.3945 27.5 23.3945C31.9421 23.3945 35.5566 26.8777 35.5566 31.1582C35.5566 31.6855 35.453 32.1994 35.3447 32.7109H42.002V29.6055H39.9345C39.1993 29.6055 38.5573 29.1263 38.3735 28.4409C38.1167 27.4781 37.7156 26.5469 37.1806 25.6735C36.8075 25.0641 36.9099 24.2878 37.429 23.7872L38.8943 22.3739L36.6158 20.1783L35.1492 21.5915C34.6297 22.0937 33.8224 22.1936 33.19 21.8297C32.2853 21.3157 31.3206 20.9275 30.3198 20.6801C29.6086 20.503 29.1113 19.8843 29.1113 19.1759V17.1836H25.8887V19.1759C25.8887 19.8843 25.3914 20.503 24.6802 20.6801C23.6794 20.9275 22.7147 21.3157 21.81 21.8297C21.1806 22.1936 20.3716 22.0937 19.8508 21.5915L18.3842 20.1783L16.1057 22.3739L17.571 23.7872C18.0901 24.2878 18.1925 25.0641 17.8194 25.6735C17.2844 26.5469 16.8833 27.4781 16.6265 28.4409Z" fill="white"/>
<path d="M0 37.3691C0 39.9376 2.16858 42.0273 4.83398 42.0273H50.0586C52.724 42.0273 55 39.9376 55 37.3691V35.8164H0V37.3691Z" fill="white"/>
</svg>
