<svg width="69" height="57" viewBox="0 0 69 57" fill="none" xmlns="http://www.w3.org/2000/svg">
<g clip-path="url(#clip0)">
<path d="M33.5297 35.3896H20.7943V39.6773H33.5297V35.3896Z" fill="white"/>
<path d="M20.7808 19.7119H20.3092C19.2445 19.7119 18.3685 20.5615 18.3685 21.6234V23.1101V28.2606V29.7473V30.0394V31.3004V31.5261V32.7871V33.0792V34.5659V34.8314V36.3181V36.6101V37.8712V38.0969V39.3579V39.65V39.6632V41.1367V41.15H22.7215V41.1367V39.6898V39.6765V39.3845V38.1234V37.8978V36.6367V36.3447V34.8579V34.5925V33.1057V32.7871V31.5261V31.3004V30.0394V29.7473V28.2606V23.1101V21.6234C22.7215 20.5615 21.8455 19.7119 20.7808 19.7119Z" fill="white"/>
<path d="M38.0578 32.6419C37.5996 32.6419 37.1819 32.3631 37.0201 31.9251L28.8264 10.2348H26.2793C25.6594 10.2348 25.1608 9.74364 25.1608 9.13302C25.1608 8.5224 25.6594 8.03125 26.2793 8.03125H29.5946C30.0528 8.03125 30.4705 8.31001 30.6323 8.74806L39.0821 31.1552C39.2977 31.726 39.0012 32.3498 38.4217 32.5622C38.3139 32.6153 38.1791 32.6419 38.0578 32.6419Z" fill="white"/>
<path d="M59.0812 33.8232H40.1466V47.4029H59.0812V33.8232Z" fill="white"/>
<path d="M59.0812 33.8232H40.1466V47.4029H59.0812V33.8232Z" fill="white"/>
<path d="M44.7825 33.8232H40.1466V47.4029H44.7825V33.8232Z" fill="white"/>
<path d="M53.1111 6.38496V2.30973C53.1111 1.0354 52.0599 0 50.7661 0H50.2406C48.9468 0 47.8956 1.0354 47.8956 2.30973V45C48.7177 45.6372 49.3781 46.4602 49.8363 47.3894H53.0976V9.88938" fill="white"/>
<path d="M51.0087 6.38496V2.30973C51.0087 1.5 51.4265 0.79646 52.0599 0.384956C51.696 0.146018 51.2513 0 50.7661 0H50.2406C48.9468 0 47.8956 1.0354 47.8956 2.30973V45C48.7177 45.6372 49.3781 46.4602 49.8363 47.3894H50.9952V9.88938L51.0087 6.38496Z" fill="white"/>
<path d="M53.1111 15.2129H47.9092V31.0492H53.1111V15.2129Z" fill="white"/>
<path d="M51.0088 15.2129H47.9092V31.0492H51.0088V15.2129Z" fill="white"/>
<path d="M35.2007 39.5312H13.6652V47.3897H35.2007V39.5312Z" fill="white"/>
<path d="M20.956 39.5312H13.6652V47.3897H27.0743L20.956 39.5312Z" fill="white"/>
<path d="M41.6966 33.1724V48.73C41.3596 49.1547 41.1575 49.6857 41.1575 50.2698C41.1575 50.8539 41.3596 51.3848 41.6966 51.8096V52.8981H31.8182V33.053C31.8182 31.3406 32.829 30.9423 33.4759 30.876H39.3516C40.6454 30.876 41.6966 31.9114 41.6966 33.1724Z" fill="white"/>
<path d="M33.4759 30.876C32.8155 30.9556 31.8182 31.3406 31.8182 33.053V47.3893V52.8981H34.7831V43.845V33.1857C34.7831 31.9114 35.8342 30.876 37.128 30.876H33.4759Z" fill="white"/>
<path d="M9.00242 10.5137H14.5278V31.0491H6.078L9.00242 10.5137Z" fill="white"/>
<path d="M9.00242 10.5137L6.078 31.0491H9.04285L11.9673 10.5137H9.00242Z" fill="white"/>
<path d="M33.8397 6.99512H27.1014H25.2821H24.0018H22.1825H20.4036H18.5977H17.3175H15.4981H8.75984C7.69519 6.99512 6.81921 7.84467 6.81921 8.90662V9.37122C6.81921 10.4199 7.68171 11.2827 8.75984 11.2827H29.5946H33.8262C34.8909 11.2827 35.7669 10.4332 35.7669 9.37122V8.90662C35.7669 7.84467 34.9044 6.99512 33.8397 6.99512Z" fill="white"/>
<path d="M9.81096 9.37122V8.90662C9.81096 7.85795 10.6735 6.99512 11.7516 6.99512H8.77327C7.70862 6.99512 6.83264 7.84467 6.83264 8.90662V9.37122C6.83264 10.4199 7.69514 11.2827 8.77327 11.2827H11.7516C10.6735 11.2827 9.81096 10.4199 9.81096 9.37122Z" fill="white"/>
<path d="M23.4897 52.8977V47.3889L14.5143 35.9862V30.8623H6.07795C4.7842 30.8623 3.73303 31.8977 3.73303 33.172V44.2694C4.66292 43.8048 5.71409 43.5393 6.83264 43.5393C10.6061 43.5393 13.6653 46.5526 13.6653 50.2694C13.6653 51.1986 13.4766 52.088 13.1262 52.8844L23.4897 52.8977Z" fill="white"/>
<path d="M6.69788 33.172C6.69788 31.8977 7.74905 30.8623 9.0428 30.8623H6.07795C4.7842 30.8623 3.73303 31.8977 3.73303 33.172V44.2694C4.62249 43.8181 5.63323 43.5658 6.69788 43.5393C6.69788 43.5526 6.69788 33.172 6.69788 33.172Z" fill="white"/>
<path d="M6.83262 43.5537C3.05918 43.5537 0 46.567 0 50.2838C0 54.0006 3.05918 57.0139 6.83262 57.0139C10.6061 57.0139 13.6652 54.0006 13.6652 50.2838C13.6652 46.567 10.6061 43.5537 6.83262 43.5537ZM6.83262 52.7661C5.43106 52.7661 4.29902 51.6511 4.29902 50.2705C4.29902 48.89 5.43106 47.7749 6.83262 47.7749C8.23418 47.7749 9.36621 48.89 9.36621 50.2705C9.35273 51.6511 8.2207 52.7661 6.83262 52.7661Z" fill="white"/>
<path d="M43.6775 43.5537C42.9902 43.5537 42.3164 43.6599 41.6965 43.8457C38.8934 44.682 36.8584 47.244 36.8584 50.2838C36.8584 51.213 37.0471 52.1024 37.3975 52.8988C38.4352 55.3148 40.8609 57.0006 43.691 57.0006C47.4645 57.0006 50.5236 53.9873 50.5236 50.2705C50.5102 46.567 47.451 43.5537 43.6775 43.5537ZM43.6775 52.7661C42.8689 52.7661 42.1547 52.3944 41.6965 51.8103C41.3596 51.3856 41.1574 50.8546 41.1574 50.2705C41.1574 49.6865 41.3596 49.1555 41.6965 48.7307C42.1547 48.1466 42.8824 47.7749 43.6775 47.7749C45.0791 47.7749 46.2111 48.89 46.2111 50.2705C46.2111 51.6511 45.0791 52.7661 43.6775 52.7661Z" fill="white"/>
<path d="M2.96484 50.2838C2.96484 47.0714 5.25586 44.39 8.31504 43.713C7.84336 43.6068 7.34473 43.5537 6.83262 43.5537C3.05918 43.5537 0 46.567 0 50.2838C0 54.0006 3.05918 57.0139 6.83262 57.0139C7.34473 57.0139 7.84336 56.9608 8.31504 56.8546C5.25586 56.1776 2.96484 53.4962 2.96484 50.2838Z" fill="white"/>
<path d="M39.8232 50.2838C39.8232 47.0714 42.1143 44.39 45.1734 43.713C44.7018 43.6068 44.2031 43.5537 43.691 43.5537C39.9176 43.5537 36.8584 46.567 36.8584 50.2838C36.8584 54.0006 39.9176 57.0139 43.691 57.0139C44.2031 57.0139 44.7018 56.9608 45.1734 56.8546C42.1008 56.1776 39.8232 53.4962 39.8232 50.2838Z" fill="white"/>
<path d="M67.8948 51.3717H59.0946C58.4747 51.3717 57.9761 50.8806 57.9761 50.27V33.8098C57.9761 33.1992 58.4747 32.708 59.0946 32.708C59.7145 32.708 60.2132 33.1992 60.2132 33.8098V49.1682H67.9083C68.5282 49.1682 69.0269 49.6593 69.0269 50.27C69.0269 50.8806 68.5013 51.3717 67.8948 51.3717Z" fill="white"/>
<path d="M31.8047 47.3896H23.4896V52.8985H31.8047V47.3896Z" fill="white"/>
<path d="M26.4545 47.3896H23.4896V52.8985H26.4545V47.3896Z" fill="white"/>
</g>
<defs>
<clipPath id="clip0">
<rect width="69" height="57" fill="white"/>
</clipPath>
</defs>
</svg>
