<svg width="532" height="202" viewBox="0 0 532 202" fill="none" xmlns="http://www.w3.org/2000/svg">
                            <rect y="1" width="470" height="200" fill="#3EAAC0"/>
                            <rect x="1" y="26" width="324" height="175" fill="#277996"/>
                            <rect y="51" width="133" height="150" fill="#0E4166"/>
                            <path d="M528.759 89.3998C532.078 96.428 532.078 104.572 528.759 111.6L494.011 185.2C484.632 205.067 456.368 205.067 446.989 185.2L412.241 111.6C408.922 104.572 408.922 96.428 412.241 89.3998L446.989 15.7997C456.368 -4.06669 484.632 -4.06669 494.011 15.7997L528.759 89.3998Z" fill="#3EAAC0"/>
                            <path d="M384.113 100.974C388.402 108.774 388.402 118.226 384.113 126.026L350.284 187.559C340.407 205.524 314.593 205.524 304.716 187.559L270.887 126.026C266.598 118.226 266.598 108.774 270.887 100.974L304.716 39.4412C314.593 21.476 340.407 21.476 350.284 39.4412L384.113 100.974Z" fill="#277996"/>
                            <path d="M190.512 111.656C196.265 120.353 196.265 131.647 190.512 140.344L158.185 189.216C147.905 204.757 125.095 204.757 114.815 189.216L82.4879 140.344C76.735 131.647 76.735 120.353 82.4879 111.656L114.815 62.7841C125.095 47.2426 147.905 47.2426 158.185 62.7841L190.512 111.656Z" fill="#0E4166"/>
                            <path d="M396.79 23.89C397.359 24.086 397.803 24.394 398.12 24.814C398.447 25.2247 398.61 25.7053 398.61 26.256C398.61 26.8533 398.414 27.3713 398.022 27.81C397.63 28.2487 397.098 28.5847 396.426 28.818C395.763 29.0513 395.035 29.168 394.242 29.168C393.57 29.168 392.898 29.084 392.226 28.916C391.563 28.748 390.933 28.4913 390.336 28.146L391.036 26.522C391.465 26.7833 391.937 26.984 392.45 27.124C392.973 27.2547 393.481 27.32 393.976 27.32C394.648 27.32 395.203 27.1987 395.642 26.956C396.09 26.7133 396.314 26.3727 396.314 25.934C396.314 25.57 396.16 25.2947 395.852 25.108C395.553 24.9213 395.143 24.828 394.62 24.828H392.226V23.12H394.452C394.909 23.12 395.264 23.0267 395.516 22.84C395.777 22.6533 395.908 22.3967 395.908 22.07C395.908 21.6873 395.721 21.3887 395.348 21.174C394.984 20.9593 394.513 20.852 393.934 20.852C393.505 20.852 393.061 20.9127 392.604 21.034C392.147 21.146 391.713 21.3187 391.302 21.552L390.616 19.788C391.652 19.256 392.772 18.99 393.976 18.99C394.741 18.99 395.446 19.102 396.09 19.326C396.734 19.55 397.247 19.8767 397.63 20.306C398.013 20.7353 398.204 21.2347 398.204 21.804C398.204 22.2707 398.078 22.686 397.826 23.05C397.574 23.414 397.229 23.694 396.79 23.89ZM403.164 21.356C404.33 21.356 405.226 21.636 405.852 22.196C406.477 22.7467 406.79 23.582 406.79 24.702V29H404.746V28.062C404.335 28.762 403.57 29.112 402.45 29.112C401.871 29.112 401.367 29.014 400.938 28.818C400.518 28.622 400.196 28.3513 399.972 28.006C399.748 27.6607 399.636 27.2687 399.636 26.83C399.636 26.13 399.897 25.5793 400.42 25.178C400.952 24.7767 401.768 24.576 402.87 24.576H404.606C404.606 24.1 404.461 23.736 404.172 23.484C403.882 23.2227 403.448 23.092 402.87 23.092C402.468 23.092 402.072 23.1573 401.68 23.288C401.297 23.4093 400.97 23.5773 400.7 23.792L399.916 22.266C400.326 21.9767 400.816 21.7527 401.386 21.594C401.964 21.4353 402.557 21.356 403.164 21.356ZM402.996 27.642C403.369 27.642 403.7 27.558 403.99 27.39C404.279 27.2127 404.484 26.956 404.606 26.62V25.85H403.108C402.212 25.85 401.764 26.144 401.764 26.732C401.764 27.012 401.871 27.236 402.086 27.404C402.31 27.5627 402.613 27.642 402.996 27.642ZM415.015 23.26H412.467V29H410.297V23.26H407.749V21.468H415.015V23.26ZM420.617 21.356C421.317 21.356 421.952 21.5193 422.521 21.846C423.1 22.1633 423.552 22.616 423.879 23.204C424.206 23.7827 424.369 24.4593 424.369 25.234C424.369 26.0087 424.206 26.69 423.879 27.278C423.552 27.8567 423.1 28.3093 422.521 28.636C421.952 28.9533 421.317 29.112 420.617 29.112C419.656 29.112 418.9 28.8087 418.349 28.202V31.716H416.165V21.468H418.251V22.336C418.792 21.6827 419.581 21.356 420.617 21.356ZM420.239 27.32C420.799 27.32 421.256 27.1333 421.611 26.76C421.975 26.3773 422.157 25.8687 422.157 25.234C422.157 24.5993 421.975 24.0953 421.611 23.722C421.256 23.3393 420.799 23.148 420.239 23.148C419.679 23.148 419.217 23.3393 418.853 23.722C418.498 24.0953 418.321 24.5993 418.321 25.234C418.321 25.8687 418.498 26.3773 418.853 26.76C419.217 27.1333 419.679 27.32 420.239 27.32ZM428.703 21.356C429.869 21.356 430.765 21.636 431.391 22.196C432.016 22.7467 432.329 23.582 432.329 24.702V29H430.285V28.062C429.874 28.762 429.109 29.112 427.989 29.112C427.41 29.112 426.906 29.014 426.477 28.818C426.057 28.622 425.735 28.3513 425.511 28.006C425.287 27.6607 425.175 27.2687 425.175 26.83C425.175 26.13 425.436 25.5793 425.959 25.178C426.491 24.7767 427.307 24.576 428.409 24.576H430.145C430.145 24.1 430 23.736 429.711 23.484C429.421 23.2227 428.987 23.092 428.409 23.092C428.007 23.092 427.611 23.1573 427.219 23.288C426.836 23.4093 426.509 23.5773 426.239 23.792L425.455 22.266C425.865 21.9767 426.355 21.7527 426.925 21.594C427.503 21.4353 428.096 21.356 428.703 21.356ZM428.535 27.642C428.908 27.642 429.239 27.558 429.529 27.39C429.818 27.2127 430.023 26.956 430.145 26.62V25.85H428.647C427.751 25.85 427.303 26.144 427.303 26.732C427.303 27.012 427.41 27.236 427.625 27.404C427.849 27.5627 428.152 27.642 428.535 27.642ZM440.554 23.26H438.006V29H435.836V23.26H433.288V21.468H440.554V23.26ZM445.68 23.876C446.66 23.8853 447.402 24.1047 447.906 24.534C448.41 24.9633 448.662 25.5793 448.662 26.382C448.662 27.222 448.377 27.8707 447.808 28.328C447.239 28.7853 446.431 29.014 445.386 29.014L441.718 29V21.468H443.888V23.876H445.68ZM449.474 21.468H451.644V29H449.474V21.468ZM445.19 27.46C445.61 27.4693 445.932 27.3807 446.156 27.194C446.38 27.0073 446.492 26.7273 446.492 26.354C446.492 25.99 446.38 25.724 446.156 25.556C445.941 25.388 445.619 25.2993 445.19 25.29L443.888 25.276V27.46H445.19ZM391.05 38.468H393.22V41.408H396.496V38.468H398.68V46H396.496V43.186H393.22V46H391.05V38.468ZM403.697 38.356C404.863 38.356 405.759 38.636 406.385 39.196C407.01 39.7467 407.323 40.582 407.323 41.702V46H405.279V45.062C404.868 45.762 404.103 46.112 402.983 46.112C402.404 46.112 401.9 46.014 401.471 45.818C401.051 45.622 400.729 45.3513 400.505 45.006C400.281 44.6607 400.169 44.2687 400.169 43.83C400.169 43.13 400.43 42.5793 400.953 42.178C401.485 41.7767 402.301 41.576 403.403 41.576H405.139C405.139 41.1 404.994 40.736 404.705 40.484C404.415 40.2227 403.981 40.092 403.403 40.092C403.001 40.092 402.605 40.1573 402.213 40.288C401.83 40.4093 401.503 40.5773 401.233 40.792L400.449 39.266C400.859 38.9767 401.349 38.7527 401.919 38.594C402.497 38.4353 403.09 38.356 403.697 38.356ZM403.529 44.642C403.902 44.642 404.233 44.558 404.523 44.39C404.812 44.2127 405.017 43.956 405.139 43.62V42.85H403.641C402.745 42.85 402.297 43.144 402.297 43.732C402.297 44.012 402.404 44.236 402.619 44.404C402.843 44.5627 403.146 44.642 403.529 44.642ZM413.185 38.468H415.355V41.408H418.631V38.468H420.815V46H418.631V43.186H415.355V46H413.185V38.468ZM425.831 38.356C426.998 38.356 427.894 38.636 428.519 39.196C429.145 39.7467 429.457 40.582 429.457 41.702V46H427.413V45.062C427.003 45.762 426.237 46.112 425.117 46.112C424.539 46.112 424.035 46.014 423.605 45.818C423.185 45.622 422.863 45.3513 422.639 45.006C422.415 44.6607 422.303 44.2687 422.303 43.83C422.303 43.13 422.565 42.5793 423.087 42.178C423.619 41.7767 424.436 41.576 425.537 41.576H427.273C427.273 41.1 427.129 40.736 426.839 40.484C426.55 40.2227 426.116 40.092 425.537 40.092C425.136 40.092 424.739 40.1573 424.347 40.288C423.965 40.4093 423.638 40.5773 423.367 40.792L422.583 39.266C422.994 38.9767 423.484 38.7527 424.053 38.594C424.632 38.4353 425.225 38.356 425.831 38.356ZM425.663 44.642C426.037 44.642 426.368 44.558 426.657 44.39C426.947 44.2127 427.152 43.956 427.273 43.62V42.85H425.775C424.879 42.85 424.431 43.144 424.431 43.732C424.431 44.012 424.539 44.236 424.753 44.404C424.977 44.5627 425.281 44.642 425.663 44.642ZM431.355 38.468H433.525V42.948L437.193 38.468H439.195V46H437.025V41.52L433.371 46H431.355V38.468ZM435.135 37.656C433.492 37.656 432.666 36.9327 432.657 35.486H434.085C434.094 35.8127 434.183 36.0693 434.351 36.256C434.528 36.4333 434.785 36.522 435.121 36.522C435.457 36.522 435.713 36.4333 435.891 36.256C436.077 36.0693 436.171 35.8127 436.171 35.486H437.627C437.617 36.9327 436.787 37.656 435.135 37.656ZM448.644 46V41.492L446.39 45.272H445.466L443.268 41.478V46H441.294V38.468H443.576L445.984 42.822L448.546 38.468H450.59L450.618 46H448.644ZM401.452 59.206C401.452 60.3727 401.06 61.2967 400.276 61.978C399.501 62.65 398.391 63.0373 396.944 63.14V65.716H394.942V63.14C393.495 63.0373 392.38 62.6547 391.596 61.992C390.821 61.32 390.434 60.3913 390.434 59.206C390.434 58.0393 390.817 57.134 391.582 56.49C392.357 55.846 393.477 55.4727 394.942 55.37V52.612H396.944V55.37C398.391 55.4727 399.501 55.8507 400.276 56.504C401.06 57.1573 401.452 58.058 401.452 59.206ZM392.548 59.206C392.548 59.878 392.739 60.396 393.122 60.76C393.505 61.124 394.111 61.3527 394.942 61.446V57.064C394.111 57.148 393.505 57.3673 393.122 57.722C392.739 58.0673 392.548 58.562 392.548 59.206ZM396.944 61.446C397.775 61.3527 398.381 61.124 398.764 60.76C399.156 60.396 399.352 59.878 399.352 59.206C399.352 58.562 399.156 58.0673 398.764 57.722C398.381 57.3673 397.775 57.148 396.944 57.064V61.446ZM405.734 55.356C406.9 55.356 407.796 55.636 408.422 56.196C409.047 56.7467 409.36 57.582 409.36 58.702V63H407.316V62.062C406.905 62.762 406.14 63.112 405.02 63.112C404.441 63.112 403.937 63.014 403.508 62.818C403.088 62.622 402.766 62.3513 402.542 62.006C402.318 61.6607 402.206 61.2687 402.206 60.83C402.206 60.13 402.467 59.5793 402.99 59.178C403.522 58.7767 404.338 58.576 405.44 58.576H407.176C407.176 58.1 407.031 57.736 406.742 57.484C406.452 57.2227 406.018 57.092 405.44 57.092C405.038 57.092 404.642 57.1573 404.25 57.288C403.867 57.4093 403.54 57.5773 403.27 57.792L402.486 56.266C402.896 55.9767 403.386 55.7527 403.956 55.594C404.534 55.4353 405.127 55.356 405.734 55.356ZM405.566 61.642C405.939 61.642 406.27 61.558 406.56 61.39C406.849 61.2127 407.054 60.956 407.176 60.62V59.85H405.678C404.782 59.85 404.334 60.144 404.334 60.732C404.334 61.012 404.441 61.236 404.656 61.404C404.88 61.5627 405.183 61.642 405.566 61.642ZM414.841 63.112C414.038 63.112 413.315 62.9487 412.671 62.622C412.036 62.286 411.537 61.824 411.173 61.236C410.818 60.648 410.641 59.9807 410.641 59.234C410.641 58.4873 410.818 57.82 411.173 57.232C411.537 56.644 412.036 56.1867 412.671 55.86C413.315 55.524 414.038 55.356 414.841 55.356C415.634 55.356 416.325 55.524 416.913 55.86C417.51 56.1867 417.944 56.658 418.215 57.274L416.521 58.184C416.129 57.4933 415.564 57.148 414.827 57.148C414.258 57.148 413.786 57.3347 413.413 57.708C413.04 58.0813 412.853 58.59 412.853 59.234C412.853 59.878 413.04 60.3867 413.413 60.76C413.786 61.1333 414.258 61.32 414.827 61.32C415.574 61.32 416.138 60.9747 416.521 60.284L418.215 61.208C417.944 61.8053 417.51 62.272 416.913 62.608C416.325 62.944 415.634 63.112 414.841 63.112ZM422.974 63.112C422.181 63.112 421.467 62.9487 420.832 62.622C420.207 62.286 419.717 61.824 419.362 61.236C419.008 60.648 418.83 59.9807 418.83 59.234C418.83 58.4873 419.008 57.82 419.362 57.232C419.717 56.644 420.207 56.1867 420.832 55.86C421.467 55.524 422.181 55.356 422.974 55.356C423.768 55.356 424.477 55.524 425.102 55.86C425.728 56.1867 426.218 56.644 426.572 57.232C426.927 57.82 427.104 58.4873 427.104 59.234C427.104 59.9807 426.927 60.648 426.572 61.236C426.218 61.824 425.728 62.286 425.102 62.622C424.477 62.9487 423.768 63.112 422.974 63.112ZM422.974 61.32C423.534 61.32 423.992 61.1333 424.346 60.76C424.71 60.3773 424.892 59.8687 424.892 59.234C424.892 58.5993 424.71 58.0953 424.346 57.722C423.992 57.3393 423.534 57.148 422.974 57.148C422.414 57.148 421.952 57.3393 421.588 57.722C421.224 58.0953 421.042 58.5993 421.042 59.234C421.042 59.8687 421.224 60.3773 421.588 60.76C421.952 61.1333 422.414 61.32 422.974 61.32ZM434.361 59.066C435.247 59.3647 435.691 59.962 435.691 60.858C435.691 61.5393 435.434 62.0667 434.921 62.44C434.407 62.8133 433.642 63 432.625 63H428.607V55.468H432.457C433.399 55.468 434.137 55.6407 434.669 55.986C435.201 56.322 435.467 56.798 435.467 57.414C435.467 57.7873 435.369 58.1187 435.173 58.408C434.986 58.688 434.715 58.9073 434.361 59.066ZM430.609 58.562H432.261C433.026 58.562 433.409 58.2913 433.409 57.75C433.409 57.218 433.026 56.952 432.261 56.952H430.609V58.562ZM432.443 61.516C433.245 61.516 433.647 61.2407 433.647 60.69C433.647 60.4007 433.553 60.1907 433.367 60.06C433.18 59.92 432.886 59.85 432.485 59.85H430.609V61.516H432.443ZM448.81 55.468V63H437.316V55.468H439.486V61.208H441.992V55.468H444.162V61.208H446.64V55.468H448.81ZM449.86 61.208V64.498H447.83V63H446.584V61.208H449.86ZM450.905 55.468H453.075V59.948L456.743 55.468H458.745V63H456.575V58.52L452.921 63H450.905V55.468ZM464.163 60.144H463.029V63H460.845V55.468H463.029V58.394H464.205L466.249 55.468H468.573L465.941 59.08L468.755 63H466.179L464.163 60.144ZM472.617 55.356C473.783 55.356 474.679 55.636 475.305 56.196C475.93 56.7467 476.243 57.582 476.243 58.702V63H474.199V62.062C473.788 62.762 473.023 63.112 471.903 63.112C471.324 63.112 470.82 63.014 470.391 62.818C469.971 62.622 469.649 62.3513 469.425 62.006C469.201 61.6607 469.089 61.2687 469.089 60.83C469.089 60.13 469.35 59.5793 469.873 59.178C470.405 58.7767 471.221 58.576 472.323 58.576H474.059C474.059 58.1 473.914 57.736 473.625 57.484C473.335 57.2227 472.901 57.092 472.323 57.092C471.921 57.092 471.525 57.1573 471.133 57.288C470.75 57.4093 470.423 57.5773 470.153 57.792L469.369 56.266C469.779 55.9767 470.269 55.7527 470.839 55.594C471.417 55.4353 472.01 55.356 472.617 55.356ZM472.449 61.642C472.822 61.642 473.153 61.558 473.443 61.39C473.732 61.2127 473.937 60.956 474.059 60.62V59.85H472.561C471.665 59.85 471.217 60.144 471.217 60.732C471.217 61.012 471.324 61.236 471.539 61.404C471.763 61.5627 472.066 61.642 472.449 61.642ZM396.804 76.066C397.691 76.3647 398.134 76.962 398.134 77.858C398.134 78.5393 397.877 79.0667 397.364 79.44C396.851 79.8133 396.085 80 395.068 80H391.05V72.468H394.9C395.843 72.468 396.58 72.6407 397.112 72.986C397.644 73.322 397.91 73.798 397.91 74.414C397.91 74.7873 397.812 75.1187 397.616 75.408C397.429 75.688 397.159 75.9073 396.804 76.066ZM393.052 75.562H394.704C395.469 75.562 395.852 75.2913 395.852 74.75C395.852 74.218 395.469 73.952 394.704 73.952H393.052V75.562ZM394.886 78.516C395.689 78.516 396.09 78.2407 396.09 77.69C396.09 77.4007 395.997 77.1907 395.81 77.06C395.623 76.92 395.329 76.85 394.928 76.85H393.052V78.516H394.886ZM415.218 72.468V80H403.724V72.468H405.894V78.208H408.4V72.468H410.57V78.208H413.048V72.468H415.218ZM423.642 74.26H421.094V80H418.924V74.26H416.376V72.468H423.642V74.26ZM427.732 72.356C428.899 72.356 429.795 72.636 430.42 73.196C431.045 73.7467 431.358 74.582 431.358 75.702V80H429.314V79.062C428.903 79.762 428.138 80.112 427.018 80.112C426.439 80.112 425.935 80.014 425.506 79.818C425.086 79.622 424.764 79.3513 424.54 79.006C424.316 78.6607 424.204 78.2687 424.204 77.83C424.204 77.13 424.465 76.5793 424.988 76.178C425.52 75.7767 426.337 75.576 427.438 75.576H429.174C429.174 75.1 429.029 74.736 428.74 74.484C428.451 74.2227 428.017 74.092 427.438 74.092C427.037 74.092 426.64 74.1573 426.248 74.288C425.865 74.4093 425.539 74.5773 425.268 74.792L424.484 73.266C424.895 72.9767 425.385 72.7527 425.954 72.594C426.533 72.4353 427.125 72.356 427.732 72.356ZM427.564 78.642C427.937 78.642 428.269 78.558 428.558 78.39C428.847 78.2127 429.053 77.956 429.174 77.62V76.85H427.676C426.78 76.85 426.332 77.144 426.332 77.732C426.332 78.012 426.439 78.236 426.654 78.404C426.878 78.5627 427.181 78.642 427.564 78.642ZM439.583 74.26H437.035V80H434.865V74.26H432.317V72.468H439.583V74.26Z" fill="white"/>
                            <path d="M29.15 65.2V75H26.896V67.048H22.472V75H20.218V65.2H29.15ZM34.9393 75.112C34.146 75.112 33.432 74.9487 32.7973 74.622C32.172 74.286 31.682 73.824 31.3273 73.236C30.9727 72.648 30.7953 71.9807 30.7953 71.234C30.7953 70.4873 30.9727 69.82 31.3273 69.232C31.682 68.644 32.172 68.1867 32.7973 67.86C33.432 67.524 34.146 67.356 34.9393 67.356C35.7327 67.356 36.442 67.524 37.0673 67.86C37.6927 68.1867 38.1827 68.644 38.5373 69.232C38.892 69.82 39.0693 70.4873 39.0693 71.234C39.0693 71.9807 38.892 72.648 38.5373 73.236C38.1827 73.824 37.6927 74.286 37.0673 74.622C36.442 74.9487 35.7327 75.112 34.9393 75.112ZM34.9393 73.32C35.4993 73.32 35.9567 73.1333 36.3113 72.76C36.6753 72.3773 36.8573 71.8687 36.8573 71.234C36.8573 70.5993 36.6753 70.0953 36.3113 69.722C35.9567 69.3393 35.4993 69.148 34.9393 69.148C34.3793 69.148 33.9173 69.3393 33.5533 69.722C33.1893 70.0953 33.0073 70.5993 33.0073 71.234C33.0073 71.8687 33.1893 72.3773 33.5533 72.76C33.9173 73.1333 34.3793 73.32 34.9393 73.32ZM48.9041 73.208V76.624H46.8741V75H41.5821V76.624H39.5521V73.208H39.8601C40.3268 73.1987 40.6488 72.9233 40.8261 72.382C41.0034 71.8407 41.1154 71.0707 41.1621 70.072L41.2601 67.468H47.8261V73.208H48.9041ZM43.1361 70.226C43.1081 70.9913 43.0474 71.6167 42.9541 72.102C42.8701 72.5873 42.7068 72.956 42.4641 73.208H45.6421V69.26H43.1781L43.1361 70.226ZM53.5965 72.144H52.4625V75H50.2785V67.468H52.4625V70.394H53.6385L55.6825 67.468H58.0065L55.3745 71.08L58.1885 75H55.6125L53.5965 72.144ZM66.4849 67.468V75H64.3009V69.26H61.9209L61.8509 70.59C61.8136 71.5793 61.7203 72.4007 61.5709 73.054C61.4216 73.7073 61.1789 74.2207 60.8429 74.594C60.5069 74.9673 60.0403 75.154 59.4429 75.154C59.1256 75.154 58.7476 75.098 58.3089 74.986L58.4209 73.194C58.5703 73.2127 58.6776 73.222 58.7429 73.222C59.0696 73.222 59.3123 73.1053 59.4709 72.872C59.6389 72.6293 59.7509 72.326 59.8069 71.962C59.8629 71.5887 59.9049 71.0987 59.9329 70.492L60.0449 67.468H66.4849ZM75.7112 67.356C76.4765 67.356 77.1625 67.524 77.7692 67.86C78.3758 68.1867 78.8518 68.644 79.1972 69.232C79.5425 69.82 79.7152 70.4873 79.7152 71.234C79.7152 71.9807 79.5425 72.648 79.1972 73.236C78.8518 73.824 78.3758 74.286 77.7692 74.622C77.1625 74.9487 76.4765 75.112 75.7112 75.112C75.0485 75.112 74.4418 74.9907 73.8912 74.748C73.3405 74.496 72.8832 74.146 72.5192 73.698C72.1552 73.2407 71.9125 72.718 71.7912 72.13H70.7552V75H68.5852V67.468H70.7552V70.24H71.8052C72.0198 69.3627 72.4772 68.6627 73.1772 68.14C73.8772 67.6173 74.7218 67.356 75.7112 67.356ZM75.7112 73.32C76.2432 73.32 76.6818 73.1333 77.0272 72.76C77.3818 72.3773 77.5592 71.8687 77.5592 71.234C77.5592 70.59 77.3818 70.0813 77.0272 69.708C76.6818 69.3347 76.2432 69.148 75.7112 69.148C75.1698 69.148 74.7218 69.3347 74.3672 69.708C74.0218 70.0813 73.8492 70.59 73.8492 71.234C73.8492 71.8687 74.0218 72.3773 74.3672 72.76C74.7218 73.1333 75.1698 73.32 75.7112 73.32ZM88.0076 67.468V75H85.8236V72.2C85.189 72.5173 84.489 72.676 83.7236 72.676C82.7063 72.676 81.9363 72.4473 81.4136 71.99C80.9003 71.5233 80.6436 70.8047 80.6436 69.834V67.468H82.8276V69.694C82.8276 70.1513 82.9443 70.4827 83.1776 70.688C83.4203 70.8933 83.7656 70.996 84.2136 70.996C84.783 70.996 85.3196 70.8747 85.8236 70.632V67.468H88.0076ZM90.1047 67.468H92.2747V71.948L95.9427 67.468H97.9447V75H95.7747V70.52L92.1207 75H90.1047V67.468ZM106.372 69.26H103.824V75H101.654V69.26H99.1061V67.468H106.372V69.26ZM111.61 69.876C112.59 69.8853 113.342 70.1093 113.864 70.548C114.387 70.9773 114.648 71.5887 114.648 72.382C114.648 73.2127 114.354 73.8613 113.766 74.328C113.188 74.7853 112.371 75.014 111.316 75.014L107.536 75V67.468H109.706V69.876H111.61ZM111.12 73.46C111.54 73.4693 111.862 73.3807 112.086 73.194C112.31 73.0073 112.422 72.7273 112.422 72.354C112.422 71.99 112.31 71.724 112.086 71.556C111.872 71.388 111.55 71.2993 111.12 71.29L109.706 71.276V73.46H111.12ZM119.597 75.112C118.794 75.112 118.071 74.9487 117.427 74.622C116.792 74.286 116.293 73.824 115.929 73.236C115.574 72.648 115.397 71.9807 115.397 71.234C115.397 70.4873 115.574 69.82 115.929 69.232C116.293 68.644 116.792 68.1867 117.427 67.86C118.071 67.524 118.794 67.356 119.597 67.356C120.39 67.356 121.081 67.524 121.669 67.86C122.266 68.1867 122.7 68.658 122.971 69.274L121.277 70.184C120.885 69.4933 120.32 69.148 119.583 69.148C119.014 69.148 118.542 69.3347 118.169 69.708C117.796 70.0813 117.609 70.59 117.609 71.234C117.609 71.878 117.796 72.3867 118.169 72.76C118.542 73.1333 119.014 73.32 119.583 73.32C120.33 73.32 120.894 72.9747 121.277 72.284L122.971 73.208C122.7 73.8053 122.266 74.272 121.669 74.608C121.081 74.944 120.39 75.112 119.597 75.112ZM130.799 67.468V75H128.853V72.844H127.243L125.815 75H123.491L125.213 72.536C124.69 72.3307 124.289 72.0367 124.009 71.654C123.738 71.262 123.603 70.7907 123.603 70.24C123.603 69.3533 123.92 68.672 124.555 68.196C125.199 67.7107 126.081 67.468 127.201 67.468H130.799ZM127.243 69.246C126.776 69.246 126.421 69.33 126.179 69.498C125.945 69.666 125.829 69.9367 125.829 70.31C125.829 70.6833 125.941 70.9587 126.165 71.136C126.398 71.304 126.748 71.388 127.215 71.388H128.853V69.246H127.243ZM23.368 89.144H22.234V92H20.05V84.468H22.234V87.394H23.41L25.454 84.468H27.778L25.146 88.08L27.96 92H25.384L23.368 89.144ZM35.3773 84.02V86.61H39.9133V88.43H35.3773V92H33.1093V82.2H40.5153V84.02H35.3773ZM41.8967 81.612H44.0807V92H41.8967V81.612ZM53.5836 84.468L50.1816 92.462C49.8363 93.33 49.4069 93.9413 48.8936 94.296C48.3896 94.6507 47.7783 94.828 47.0596 94.828C46.6676 94.828 46.2803 94.7673 45.8976 94.646C45.5149 94.5247 45.2023 94.3567 44.9596 94.142L45.7576 92.588C45.9256 92.7373 46.1169 92.854 46.3316 92.938C46.5556 93.022 46.7749 93.064 46.9896 93.064C47.2883 93.064 47.5309 92.9893 47.7176 92.84C47.9043 92.7 48.0723 92.462 48.2216 92.126L48.2496 92.056L44.9876 84.468H47.2416L49.3556 89.578L51.4836 84.468H53.5836ZM58.9268 84.356C59.6268 84.356 60.2615 84.5193 60.8308 84.846C61.4095 85.1633 61.8621 85.616 62.1888 86.204C62.5155 86.7827 62.6788 87.4593 62.6788 88.234C62.6788 89.0087 62.5155 89.69 62.1888 90.278C61.8621 90.8567 61.4095 91.3093 60.8308 91.636C60.2615 91.9533 59.6268 92.112 58.9268 92.112C57.9655 92.112 57.2095 91.8087 56.6588 91.202V94.716H54.4748V84.468H56.5608V85.336C57.1021 84.6827 57.8908 84.356 58.9268 84.356ZM58.5488 90.32C59.1088 90.32 59.5661 90.1333 59.9208 89.76C60.2848 89.3773 60.4668 88.8687 60.4668 88.234C60.4668 87.5993 60.2848 87.0953 59.9208 86.722C59.5661 86.3393 59.1088 86.148 58.5488 86.148C57.9888 86.148 57.5268 86.3393 57.1628 86.722C56.8081 87.0953 56.6308 87.5993 56.6308 88.234C56.6308 88.8687 56.8081 89.3773 57.1628 89.76C57.5268 90.1333 57.9888 90.32 58.5488 90.32ZM67.7248 92.112C66.9315 92.112 66.2175 91.9487 65.5828 91.622C64.9575 91.286 64.4675 90.824 64.1128 90.236C63.7581 89.648 63.5808 88.9807 63.5808 88.234C63.5808 87.4873 63.7581 86.82 64.1128 86.232C64.4675 85.644 64.9575 85.1867 65.5828 84.86C66.2175 84.524 66.9315 84.356 67.7248 84.356C68.5181 84.356 69.2275 84.524 69.8528 84.86C70.4781 85.1867 70.9681 85.644 71.3228 86.232C71.6775 86.82 71.8548 87.4873 71.8548 88.234C71.8548 88.9807 71.6775 89.648 71.3228 90.236C70.9681 90.824 70.4781 91.286 69.8528 91.622C69.2275 91.9487 68.5181 92.112 67.7248 92.112ZM67.7248 90.32C68.2848 90.32 68.7421 90.1333 69.0968 89.76C69.4608 89.3773 69.6428 88.8687 69.6428 88.234C69.6428 87.5993 69.4608 87.0953 69.0968 86.722C68.7421 86.3393 68.2848 86.148 67.7248 86.148C67.1648 86.148 66.7028 86.3393 66.3388 86.722C65.9748 87.0953 65.7928 87.5993 65.7928 88.234C65.7928 88.8687 65.9748 89.3773 66.3388 89.76C66.7028 90.1333 67.1648 90.32 67.7248 90.32ZM75.8486 92.112C75.2233 92.112 74.612 92.0373 74.0146 91.888C73.4173 91.7293 72.9413 91.5333 72.5866 91.3L73.3146 89.732C73.6506 89.9467 74.0566 90.124 74.5326 90.264C75.0086 90.3947 75.4753 90.46 75.9326 90.46C76.8566 90.46 77.3186 90.2313 77.3186 89.774C77.3186 89.5593 77.1926 89.4053 76.9406 89.312C76.6886 89.2187 76.3013 89.1393 75.7786 89.074C75.1626 88.9807 74.654 88.8733 74.2526 88.752C73.8513 88.6307 73.5013 88.416 73.2026 88.108C72.9133 87.8 72.7686 87.3613 72.7686 86.792C72.7686 86.316 72.904 85.896 73.1746 85.532C73.4546 85.1587 73.856 84.8693 74.3786 84.664C74.9106 84.4587 75.536 84.356 76.2546 84.356C76.7866 84.356 77.314 84.4167 77.8366 84.538C78.3686 84.65 78.8073 84.8087 79.1526 85.014L78.4246 86.568C77.762 86.1947 77.0386 86.008 76.2546 86.008C75.788 86.008 75.438 86.0733 75.2046 86.204C74.9713 86.3347 74.8546 86.5027 74.8546 86.708C74.8546 86.9413 74.9806 87.1047 75.2326 87.198C75.4846 87.2913 75.886 87.38 76.4366 87.464C77.0526 87.5667 77.5566 87.6787 77.9486 87.8C78.3406 87.912 78.6813 88.122 78.9706 88.43C79.26 88.738 79.4046 89.1673 79.4046 89.718C79.4046 90.1847 79.2646 90.6 78.9846 90.964C78.7046 91.328 78.294 91.6127 77.7526 91.818C77.2206 92.014 76.586 92.112 75.8486 92.112ZM85.6101 91.636C85.3955 91.7947 85.1295 91.916 84.8121 92C84.5041 92.0747 84.1775 92.112 83.8321 92.112C82.9361 92.112 82.2408 91.8833 81.7461 91.426C81.2608 90.9687 81.0181 90.2967 81.0181 89.41V86.316H79.8561V84.636H81.0181V82.802H83.2021V84.636H85.0781V86.316H83.2021V89.382C83.2021 89.6993 83.2815 89.9467 83.4401 90.124C83.6081 90.292 83.8415 90.376 84.1401 90.376C84.4855 90.376 84.7795 90.2827 85.0221 90.096L85.6101 91.636ZM22.416 153.58C23.1533 153.58 23.816 153.743 24.404 154.07C25.0013 154.387 25.468 154.831 25.804 155.4C26.1493 155.969 26.322 156.609 26.322 157.318C26.322 158.027 26.1493 158.671 25.804 159.25C25.468 159.819 25.0013 160.267 24.404 160.594C23.816 160.921 23.1533 161.084 22.416 161.084C21.8 161.084 21.2353 160.991 20.722 160.804C20.2087 160.608 19.7747 160.328 19.42 159.964L20.008 159.376C20.6333 159.964 21.422 160.258 22.374 160.258C22.906 160.258 23.3867 160.146 23.816 159.922C24.2547 159.698 24.6093 159.385 24.88 158.984C25.16 158.583 25.3233 158.135 25.37 157.64H21.436V156.884H25.356C25.2533 156.147 24.9267 155.549 24.376 155.092C23.8253 154.625 23.158 154.392 22.374 154.392C21.422 154.392 20.6333 154.686 20.008 155.274L19.42 154.7C19.7747 154.336 20.2087 154.061 20.722 153.874C21.2353 153.678 21.8 153.58 22.416 153.58ZM31.086 157.724H29.406V161H28.412V153.636H29.406V156.87H31.1L33.69 153.636H34.768L31.87 157.206L34.978 161H33.802L31.086 157.724ZM39.325 161.07C38.6157 161.07 37.9764 160.911 37.407 160.594C36.8377 160.267 36.3897 159.819 36.063 159.25C35.7364 158.681 35.573 158.037 35.573 157.318C35.573 156.599 35.7364 155.955 36.063 155.386C36.3897 154.817 36.8377 154.373 37.407 154.056C37.9764 153.739 38.6157 153.58 39.325 153.58C40.0344 153.58 40.6737 153.739 41.243 154.056C41.8124 154.373 42.2557 154.817 42.573 155.386C42.8997 155.955 43.063 156.599 43.063 157.318C43.063 158.037 42.8997 158.681 42.573 159.25C42.2557 159.819 41.8124 160.267 41.243 160.594C40.6737 160.911 40.0344 161.07 39.325 161.07ZM39.325 160.188C39.8477 160.188 40.3144 160.071 40.725 159.838C41.145 159.595 41.4717 159.255 41.705 158.816C41.9384 158.377 42.055 157.878 42.055 157.318C42.055 156.758 41.9384 156.259 41.705 155.82C41.4717 155.381 41.145 155.045 40.725 154.812C40.3144 154.569 39.8477 154.448 39.325 154.448C38.8024 154.448 38.331 154.569 37.911 154.812C37.5004 155.045 37.1737 155.381 36.931 155.82C36.6977 156.259 36.581 156.758 36.581 157.318C36.581 157.878 36.6977 158.377 36.931 158.816C37.1737 159.255 37.5004 159.595 37.911 159.838C38.331 160.071 38.8024 160.188 39.325 160.188ZM45.1874 153.636H46.1814V156.898H50.8154V153.636H51.8094V161H50.8154V157.752H46.1814V161H45.1874V153.636ZM57.6727 161.07C56.9634 161.07 56.324 160.911 55.7547 160.594C55.1854 160.267 54.7374 159.819 54.4107 159.25C54.084 158.681 53.9207 158.037 53.9207 157.318C53.9207 156.599 54.084 155.955 54.4107 155.386C54.7374 154.817 55.1854 154.373 55.7547 154.056C56.324 153.739 56.9634 153.58 57.6727 153.58C58.382 153.58 59.0214 153.739 59.5907 154.056C60.16 154.373 60.6034 154.817 60.9207 155.386C61.2474 155.955 61.4107 156.599 61.4107 157.318C61.4107 158.037 61.2474 158.681 60.9207 159.25C60.6034 159.819 60.16 160.267 59.5907 160.594C59.0214 160.911 58.382 161.07 57.6727 161.07ZM57.6727 160.188C58.1954 160.188 58.662 160.071 59.0727 159.838C59.4927 159.595 59.8194 159.255 60.0527 158.816C60.286 158.377 60.4027 157.878 60.4027 157.318C60.4027 156.758 60.286 156.259 60.0527 155.82C59.8194 155.381 59.4927 155.045 59.0727 154.812C58.662 154.569 58.1954 154.448 57.6727 154.448C57.15 154.448 56.6787 154.569 56.2587 154.812C55.848 155.045 55.5214 155.381 55.2787 155.82C55.0454 156.259 54.9287 156.758 54.9287 157.318C54.9287 157.878 55.0454 158.377 55.2787 158.816C55.5214 159.255 55.848 159.595 56.2587 159.838C56.6787 160.071 57.15 160.188 57.6727 160.188ZM71.7671 153.636V161H70.8571V155.176L67.8751 160.104H67.4271L64.4451 155.162V161H63.5351V153.636H64.5431L67.6651 158.942L70.8431 153.636H71.7671ZM74.5956 153.636H75.5896V159.488L80.5036 153.636H81.3856V161H80.3916V155.148L75.4916 161H74.5956V153.636ZM89.8903 153.636V161H88.9803V158.564H86.6703H86.3903L84.6823 161H83.6043L85.4383 158.424C84.869 158.265 84.4303 157.995 84.1223 157.612C83.8143 157.229 83.6603 156.744 83.6603 156.156C83.6603 155.335 83.9403 154.709 84.5003 154.28C85.0603 153.851 85.8256 153.636 86.7963 153.636H89.8903ZM84.6683 156.184C84.6683 157.276 85.3636 157.822 86.7543 157.822H88.9803V154.518H86.8243C85.387 154.518 84.6683 155.073 84.6683 156.184ZM27.784 177.04C29.256 177.28 30.384 177.832 31.168 178.696C31.952 179.544 32.344 180.6 32.344 181.864C32.344 182.84 32.088 183.744 31.576 184.576C31.064 185.392 30.28 186.048 29.224 186.544C28.184 187.04 26.904 187.288 25.384 187.288C24.2 187.288 23.032 187.136 21.88 186.832C20.744 186.512 19.776 186.064 18.976 185.488L20.488 182.512C21.128 182.992 21.864 183.368 22.696 183.64C23.544 183.896 24.408 184.024 25.288 184.024C26.264 184.024 27.032 183.84 27.592 183.472C28.152 183.088 28.432 182.552 28.432 181.864C28.432 180.488 27.384 179.8 25.288 179.8H23.512V177.232L26.968 173.32H19.816V170.2H31.576V172.72L27.784 177.04ZM39.6648 176.512C42.0328 176.512 43.7768 176.984 44.8968 177.928C46.0328 178.872 46.6008 180.136 46.6008 181.72C46.6008 182.744 46.3448 183.68 45.8328 184.528C45.3208 185.36 44.5368 186.032 43.4808 186.544C42.4408 187.04 41.1528 187.288 39.6168 187.288C38.4328 187.288 37.2648 187.136 36.1128 186.832C34.9768 186.512 34.0088 186.064 33.2088 185.488L34.7448 182.512C35.3848 182.992 36.1208 183.368 36.9528 183.64C37.7848 183.896 38.6408 184.024 39.5208 184.024C40.4968 184.024 41.2648 183.832 41.8248 183.448C42.3848 183.064 42.6648 182.528 42.6648 181.84C42.6648 181.12 42.3688 180.576 41.7768 180.208C41.2008 179.84 40.1928 179.656 38.7528 179.656H34.4568L35.3208 170.2H45.5688V173.32H38.5608L38.2968 176.512H39.6648ZM51.8318 179.272C50.5998 179.272 49.5918 178.856 48.8078 178.024C48.0398 177.176 47.6558 176.048 47.6558 174.64C47.6558 173.232 48.0398 172.112 48.8078 171.28C49.5918 170.432 50.5998 170.008 51.8318 170.008C53.0638 170.008 54.0638 170.432 54.8318 171.28C55.5998 172.112 55.9838 173.232 55.9838 174.64C55.9838 176.048 55.5998 177.176 54.8318 178.024C54.0638 178.856 53.0638 179.272 51.8318 179.272ZM61.8398 170.2H64.6958L53.2238 187H50.3678L61.8398 170.2ZM51.8318 177.304C52.3758 177.304 52.7998 177.08 53.1038 176.632C53.4238 176.184 53.5838 175.52 53.5838 174.64C53.5838 173.76 53.4238 173.096 53.1038 172.648C52.7998 172.2 52.3758 171.976 51.8318 171.976C51.3038 171.976 50.8798 172.208 50.5598 172.672C50.2398 173.12 50.0798 173.776 50.0798 174.64C50.0798 175.504 50.2398 176.168 50.5598 176.632C50.8798 177.08 51.3038 177.304 51.8318 177.304ZM63.2318 187.192C62.4318 187.192 61.7118 187.008 61.0718 186.64C60.4478 186.256 59.9598 185.712 59.6078 185.008C59.2558 184.304 59.0798 183.488 59.0798 182.56C59.0798 181.632 59.2558 180.816 59.6078 180.112C59.9598 179.408 60.4478 178.872 61.0718 178.504C61.7118 178.12 62.4318 177.928 63.2318 177.928C64.4638 177.928 65.4638 178.352 66.2318 179.2C67.0158 180.032 67.4078 181.152 67.4078 182.56C67.4078 183.968 67.0158 185.096 66.2318 185.944C65.4638 186.776 64.4638 187.192 63.2318 187.192ZM63.2318 185.224C63.7758 185.224 64.1998 185 64.5038 184.552C64.8238 184.088 64.9838 183.424 64.9838 182.56C64.9838 181.696 64.8238 181.04 64.5038 180.592C64.1998 180.128 63.7758 179.896 63.2318 179.896C62.7038 179.896 62.2798 180.12 61.9598 180.568C61.6398 181.016 61.4798 181.68 61.4798 182.56C61.4798 183.44 61.6398 184.104 61.9598 184.552C62.2798 185 62.7038 185.224 63.2318 185.224Z" fill="white"/>
                            <path d="M207.008 44.89C207.605 45.0673 208.063 45.3567 208.38 45.758C208.697 46.1593 208.856 46.654 208.856 47.242C208.856 48.11 208.525 48.7867 207.862 49.272C207.209 49.7573 206.271 50 205.048 50H200.218V40.2H204.782C205.921 40.2 206.807 40.4193 207.442 40.858C208.077 41.2967 208.394 41.922 208.394 42.734C208.394 43.2193 208.273 43.6487 208.03 44.022C207.787 44.386 207.447 44.6753 207.008 44.89ZM202.472 44.26H204.586C205.081 44.26 205.454 44.162 205.706 43.966C205.958 43.7607 206.084 43.462 206.084 43.07C206.084 42.6873 205.953 42.3933 205.692 42.188C205.44 41.9827 205.071 41.88 204.586 41.88H202.472V44.26ZM204.964 48.32C206.028 48.32 206.56 47.9 206.56 47.06C206.56 46.248 206.028 45.842 204.964 45.842H202.472V48.32H204.964ZM214.01 50.112C213.216 50.112 212.502 49.9487 211.868 49.622C211.242 49.286 210.752 48.824 210.398 48.236C210.043 47.648 209.866 46.9807 209.866 46.234C209.866 45.4873 210.043 44.82 210.398 44.232C210.752 43.644 211.242 43.1867 211.868 42.86C212.502 42.524 213.216 42.356 214.01 42.356C214.803 42.356 215.512 42.524 216.138 42.86C216.763 43.1867 217.253 43.644 217.608 44.232C217.962 44.82 218.14 45.4873 218.14 46.234C218.14 46.9807 217.962 47.648 217.608 48.236C217.253 48.824 216.763 49.286 216.138 49.622C215.512 49.9487 214.803 50.112 214.01 50.112ZM214.01 48.32C214.57 48.32 215.027 48.1333 215.382 47.76C215.746 47.3773 215.928 46.8687 215.928 46.234C215.928 45.5993 215.746 45.0953 215.382 44.722C215.027 44.3393 214.57 44.148 214.01 44.148C213.45 44.148 212.988 44.3393 212.624 44.722C212.26 45.0953 212.078 45.5993 212.078 46.234C212.078 46.8687 212.26 47.3773 212.624 47.76C212.988 48.1333 213.45 48.32 214.01 48.32ZM223.226 50.112C222.423 50.112 221.7 49.9487 221.056 49.622C220.421 49.286 219.922 48.824 219.558 48.236C219.203 47.648 219.026 46.9807 219.026 46.234C219.026 45.4873 219.203 44.82 219.558 44.232C219.922 43.644 220.421 43.1867 221.056 42.86C221.7 42.524 222.423 42.356 223.226 42.356C224.019 42.356 224.71 42.524 225.298 42.86C225.895 43.1867 226.329 43.658 226.6 44.274L224.906 45.184C224.514 44.4933 223.949 44.148 223.212 44.148C222.642 44.148 222.171 44.3347 221.798 44.708C221.424 45.0813 221.238 45.59 221.238 46.234C221.238 46.878 221.424 47.3867 221.798 47.76C222.171 48.1333 222.642 48.32 223.212 48.32C223.958 48.32 224.523 47.9747 224.906 47.284L226.6 48.208C226.329 48.8053 225.895 49.272 225.298 49.608C224.71 49.944 224.019 50.112 223.226 50.112ZM235.417 42.468V50H233.233V44.26H230.097V50H227.927V42.468H235.417ZM241.039 50.112C240.246 50.112 239.532 49.9487 238.897 49.622C238.272 49.286 237.782 48.824 237.427 48.236C237.072 47.648 236.895 46.9807 236.895 46.234C236.895 45.4873 237.072 44.82 237.427 44.232C237.782 43.644 238.272 43.1867 238.897 42.86C239.532 42.524 240.246 42.356 241.039 42.356C241.832 42.356 242.542 42.524 243.167 42.86C243.792 43.1867 244.282 43.644 244.637 44.232C244.992 44.82 245.169 45.4873 245.169 46.234C245.169 46.9807 244.992 47.648 244.637 48.236C244.282 48.824 243.792 49.286 243.167 49.622C242.542 49.9487 241.832 50.112 241.039 50.112ZM241.039 48.32C241.599 48.32 242.056 48.1333 242.411 47.76C242.775 47.3773 242.957 46.8687 242.957 46.234C242.957 45.5993 242.775 45.0953 242.411 44.722C242.056 44.3393 241.599 44.148 241.039 44.148C240.479 44.148 240.017 44.3393 239.653 44.722C239.289 45.0953 239.107 45.5993 239.107 46.234C239.107 46.8687 239.289 47.3773 239.653 47.76C240.017 48.1333 240.479 48.32 241.039 48.32ZM253.786 42.468V50H251.602V44.26H249.222L249.152 45.59C249.114 46.5793 249.021 47.4007 248.872 48.054C248.722 48.7073 248.48 49.2207 248.144 49.594C247.808 49.9673 247.341 50.154 246.744 50.154C246.426 50.154 246.048 50.098 245.61 49.986L245.722 48.194C245.871 48.2127 245.978 48.222 246.044 48.222C246.37 48.222 246.613 48.1053 246.772 47.872C246.94 47.6293 247.052 47.326 247.108 46.962C247.164 46.5887 247.206 46.0987 247.234 45.492L247.346 42.468H253.786ZM259.96 44.876C260.94 44.8853 261.691 45.1093 262.214 45.548C262.737 45.9773 262.998 46.5887 262.998 47.382C262.998 48.2127 262.704 48.8613 262.116 49.328C261.537 49.7853 260.721 50.014 259.666 50.014L255.886 50V42.468H258.056V44.876H259.96ZM259.47 48.46C259.89 48.4693 260.212 48.3807 260.436 48.194C260.66 48.0073 260.772 47.7273 260.772 47.354C260.772 46.99 260.66 46.724 260.436 46.556C260.221 46.388 259.899 46.2993 259.47 46.29L258.056 46.276V48.46H259.47ZM269.071 46.08C269.519 46.22 269.864 46.4347 270.107 46.724C270.359 47.0133 270.485 47.3587 270.485 47.76C270.485 48.236 270.321 48.656 269.995 49.02C269.668 49.3747 269.22 49.65 268.651 49.846C268.081 50.042 267.437 50.14 266.719 50.14C266.131 50.14 265.552 50.0793 264.983 49.958C264.413 49.8367 263.886 49.6547 263.401 49.412L263.989 47.886C264.782 48.2687 265.659 48.46 266.621 48.46C267.134 48.46 267.535 48.3853 267.825 48.236C268.123 48.0773 268.273 47.858 268.273 47.578C268.273 47.3353 268.17 47.1533 267.965 47.032C267.759 46.9013 267.461 46.836 267.069 46.836H265.529V45.478H266.873C267.255 45.478 267.549 45.4173 267.755 45.296C267.96 45.1747 268.063 44.9973 268.063 44.764C268.063 44.5213 267.932 44.3347 267.671 44.204C267.419 44.0733 267.055 44.008 266.579 44.008C265.851 44.008 265.057 44.1807 264.199 44.526L263.667 43.014C264.712 42.5567 265.729 42.328 266.719 42.328C267.4 42.328 268.007 42.412 268.539 42.58C269.08 42.748 269.505 42.9953 269.813 43.322C270.121 43.6393 270.275 44.0127 270.275 44.442C270.275 44.7967 270.167 45.1187 269.953 45.408C269.738 45.688 269.444 45.912 269.071 46.08ZM275.601 50.112C274.808 50.112 274.094 49.9487 273.459 49.622C272.834 49.286 272.344 48.824 271.989 48.236C271.635 47.648 271.457 46.9807 271.457 46.234C271.457 45.4873 271.635 44.82 271.989 44.232C272.344 43.644 272.834 43.1867 273.459 42.86C274.094 42.524 274.808 42.356 275.601 42.356C276.395 42.356 277.104 42.524 277.729 42.86C278.355 43.1867 278.845 43.644 279.199 44.232C279.554 44.82 279.731 45.4873 279.731 46.234C279.731 46.9807 279.554 47.648 279.199 48.236C278.845 48.824 278.355 49.286 277.729 49.622C277.104 49.9487 276.395 50.112 275.601 50.112ZM275.601 48.32C276.161 48.32 276.619 48.1333 276.973 47.76C277.337 47.3773 277.519 46.8687 277.519 46.234C277.519 45.5993 277.337 45.0953 276.973 44.722C276.619 44.3393 276.161 44.148 275.601 44.148C275.041 44.148 274.579 44.3393 274.215 44.722C273.851 45.0953 273.669 45.5993 273.669 46.234C273.669 46.8687 273.851 47.3773 274.215 47.76C274.579 48.1333 275.041 48.32 275.601 48.32ZM286.988 46.066C287.874 46.3647 288.318 46.962 288.318 47.858C288.318 48.5393 288.061 49.0667 287.548 49.44C287.034 49.8133 286.269 50 285.252 50H281.234V42.468H285.084C286.026 42.468 286.764 42.6407 287.296 42.986C287.828 43.322 288.094 43.798 288.094 44.414C288.094 44.7873 287.996 45.1187 287.8 45.408C287.613 45.688 287.342 45.9073 286.988 46.066ZM283.236 45.562H284.888C285.653 45.562 286.036 45.2913 286.036 44.75C286.036 44.218 285.653 43.952 284.888 43.952H283.236V45.562ZM285.07 48.516C285.872 48.516 286.274 48.2407 286.274 47.69C286.274 47.4007 286.18 47.1907 285.994 47.06C285.807 46.92 285.513 46.85 285.112 46.85H283.236V48.516H285.07ZM292.869 42.356C294.035 42.356 294.931 42.636 295.557 43.196C296.182 43.7467 296.495 44.582 296.495 45.702V50H294.451V49.062C294.04 49.762 293.275 50.112 292.155 50.112C291.576 50.112 291.072 50.014 290.643 49.818C290.223 49.622 289.901 49.3513 289.677 49.006C289.453 48.6607 289.341 48.2687 289.341 47.83C289.341 47.13 289.602 46.5793 290.125 46.178C290.657 45.7767 291.473 45.576 292.575 45.576H294.311C294.311 45.1 294.166 44.736 293.877 44.484C293.587 44.2227 293.153 44.092 292.575 44.092C292.173 44.092 291.777 44.1573 291.385 44.288C291.002 44.4093 290.675 44.5773 290.405 44.792L289.621 43.266C290.031 42.9767 290.521 42.7527 291.091 42.594C291.669 42.4353 292.262 42.356 292.869 42.356ZM292.701 48.642C293.074 48.642 293.405 48.558 293.695 48.39C293.984 48.2127 294.189 47.956 294.311 47.62V46.85H292.813C291.917 46.85 291.469 47.144 291.469 47.732C291.469 48.012 291.576 48.236 291.791 48.404C292.015 48.5627 292.318 48.642 292.701 48.642ZM304.72 44.26H302.172V50H300.002V44.26H297.454V42.468H304.72V44.26ZM309.958 44.876C310.938 44.8853 311.689 45.1093 312.212 45.548C312.735 45.9773 312.996 46.5887 312.996 47.382C312.996 48.2127 312.702 48.8613 312.114 49.328C311.535 49.7853 310.719 50.014 309.664 50.014L305.884 50V42.468H308.054V44.876H309.958ZM309.468 48.46C309.888 48.4693 310.21 48.3807 310.434 48.194C310.658 48.0073 310.77 47.7273 310.77 47.354C310.77 46.99 310.658 46.724 310.434 46.556C310.219 46.388 309.897 46.2993 309.468 46.29L308.054 46.276V48.46H309.468ZM317.945 50.112C317.142 50.112 316.419 49.9487 315.775 49.622C315.14 49.286 314.641 48.824 314.277 48.236C313.922 47.648 313.745 46.9807 313.745 46.234C313.745 45.4873 313.922 44.82 314.277 44.232C314.641 43.644 315.14 43.1867 315.775 42.86C316.419 42.524 317.142 42.356 317.945 42.356C318.738 42.356 319.429 42.524 320.017 42.86C320.614 43.1867 321.048 43.658 321.319 44.274L319.625 45.184C319.233 44.4933 318.668 44.148 317.931 44.148C317.361 44.148 316.89 44.3347 316.517 44.708C316.143 45.0813 315.957 45.59 315.957 46.234C315.957 46.878 316.143 47.3867 316.517 47.76C316.89 48.1333 317.361 48.32 317.931 48.32C318.677 48.32 319.242 47.9747 319.625 47.284L321.319 48.208C321.048 48.8053 320.614 49.272 320.017 49.608C319.429 49.944 318.738 50.112 317.945 50.112ZM329.146 42.468V50H327.2V47.844H325.59L324.162 50H321.838L323.56 47.536C323.038 47.3307 322.636 47.0367 322.356 46.654C322.086 46.262 321.95 45.7907 321.95 45.24C321.95 44.3533 322.268 43.672 322.902 43.196C323.546 42.7107 324.428 42.468 325.548 42.468H329.146ZM325.59 44.246C325.124 44.246 324.769 44.33 324.526 44.498C324.293 44.666 324.176 44.9367 324.176 45.31C324.176 45.6833 324.288 45.9587 324.512 46.136C324.746 46.304 325.096 46.388 325.562 46.388H327.2V44.246H325.59ZM207.596 59.468L204.194 67.462C203.849 68.33 203.419 68.9413 202.906 69.296C202.402 69.6507 201.791 69.828 201.072 69.828C200.68 69.828 200.293 69.7673 199.91 69.646C199.527 69.5247 199.215 69.3567 198.972 69.142L199.77 67.588C199.938 67.7373 200.129 67.854 200.344 67.938C200.568 68.022 200.787 68.064 201.002 68.064C201.301 68.064 201.543 67.9893 201.73 67.84C201.917 67.7 202.085 67.462 202.234 67.126L202.262 67.056L199 59.468H201.254L203.368 64.578L205.496 59.468H207.596ZM212.029 67.112C211.226 67.112 210.503 66.9487 209.859 66.622C209.224 66.286 208.725 65.824 208.361 65.236C208.006 64.648 207.829 63.9807 207.829 63.234C207.829 62.4873 208.006 61.82 208.361 61.232C208.725 60.644 209.224 60.1867 209.859 59.86C210.503 59.524 211.226 59.356 212.029 59.356C212.822 59.356 213.513 59.524 214.101 59.86C214.698 60.1867 215.132 60.658 215.403 61.274L213.709 62.184C213.317 61.4933 212.752 61.148 212.015 61.148C211.445 61.148 210.974 61.3347 210.601 61.708C210.227 62.0813 210.041 62.59 210.041 63.234C210.041 63.878 210.227 64.3867 210.601 64.76C210.974 65.1333 211.445 65.32 212.015 65.32C212.761 65.32 213.326 64.9747 213.709 64.284L215.403 65.208C215.132 65.8053 214.698 66.272 214.101 66.608C213.513 66.944 212.822 67.112 212.029 67.112ZM223.844 59.468V67H221.66V61.26H219.28L219.21 62.59C219.173 63.5793 219.08 64.4007 218.93 65.054C218.781 65.7073 218.538 66.2207 218.202 66.594C217.866 66.9673 217.4 67.154 216.802 67.154C216.485 67.154 216.107 67.098 215.668 66.986L215.78 65.194C215.93 65.2127 216.037 65.222 216.102 65.222C216.429 65.222 216.672 65.1053 216.83 64.872C216.998 64.6293 217.11 64.326 217.166 63.962C217.222 63.5887 217.264 63.0987 217.292 62.492L217.404 59.468H223.844ZM233.491 59.468L230.089 67.462C229.743 68.33 229.314 68.9413 228.801 69.296C228.297 69.6507 227.685 69.828 226.967 69.828C226.575 69.828 226.187 69.7673 225.805 69.646C225.422 69.5247 225.109 69.3567 224.867 69.142L225.665 67.588C225.833 67.7373 226.024 67.854 226.239 67.938C226.463 68.022 226.682 68.064 226.897 68.064C227.195 68.064 227.438 67.9893 227.625 67.84C227.811 67.7 227.979 67.462 228.129 67.126L228.157 67.056L224.895 59.468H227.149L229.263 64.578L231.391 59.468H233.491ZM240.578 61.26H236.714V67H234.544V59.468H240.578V61.26ZM244.662 59.356C245.828 59.356 246.724 59.636 247.35 60.196C247.975 60.7467 248.288 61.582 248.288 62.702V67H246.244V66.062C245.833 66.762 245.068 67.112 243.948 67.112C243.369 67.112 242.865 67.014 242.436 66.818C242.016 66.622 241.694 66.3513 241.47 66.006C241.246 65.6607 241.134 65.2687 241.134 64.83C241.134 64.13 241.395 63.5793 241.918 63.178C242.45 62.7767 243.266 62.576 244.368 62.576H246.104C246.104 62.1 245.959 61.736 245.67 61.484C245.38 61.2227 244.946 61.092 244.368 61.092C243.966 61.092 243.57 61.1573 243.178 61.288C242.795 61.4093 242.468 61.5773 242.198 61.792L241.414 60.266C241.824 59.9767 242.314 59.7527 242.884 59.594C243.462 59.4353 244.055 59.356 244.662 59.356ZM244.494 65.642C244.867 65.642 245.198 65.558 245.488 65.39C245.777 65.2127 245.982 64.956 246.104 64.62V63.85H244.606C243.71 63.85 243.262 64.144 243.262 64.732C243.262 65.012 243.369 65.236 243.584 65.404C243.808 65.5627 244.111 65.642 244.494 65.642ZM257.535 67V62.492L255.281 66.272H254.357L252.159 62.478V67H250.185V59.468H252.467L254.875 63.822L257.437 59.468H259.481L259.509 67H257.535ZM261.601 59.468H263.771V63.948L267.439 59.468H269.441V67H267.271V62.52L263.617 67H261.601V59.468ZM283.947 65.208V68.624H281.917V67H276.625V68.624H274.595V65.208H274.903C275.37 65.1987 275.692 64.9233 275.869 64.382C276.046 63.8407 276.158 63.0707 276.205 62.072L276.303 59.468H282.869V65.208H283.947ZM278.179 62.226C278.151 62.9913 278.09 63.6167 277.997 64.102C277.913 64.5873 277.75 64.956 277.507 65.208H280.685V61.26H278.221L278.179 62.226ZM289.759 59.356C290.459 59.356 291.094 59.5193 291.663 59.846C292.242 60.1633 292.695 60.616 293.021 61.204C293.348 61.7827 293.511 62.4593 293.511 63.234C293.511 64.0087 293.348 64.69 293.021 65.278C292.695 65.8567 292.242 66.3093 291.663 66.636C291.094 66.9533 290.459 67.112 289.759 67.112C288.798 67.112 288.042 66.8087 287.491 66.202V69.716H285.307V59.468H287.393V60.336C287.935 59.6827 288.723 59.356 289.759 59.356ZM289.381 65.32C289.941 65.32 290.399 65.1333 290.753 64.76C291.117 64.3773 291.299 63.8687 291.299 63.234C291.299 62.5993 291.117 62.0953 290.753 61.722C290.399 61.3393 289.941 61.148 289.381 61.148C288.821 61.148 288.359 61.3393 287.995 61.722C287.641 62.0953 287.463 62.5993 287.463 63.234C287.463 63.8687 287.641 64.3773 287.995 64.76C288.359 65.1333 288.821 65.32 289.381 65.32ZM302.383 59.468L298.981 67.462C298.636 68.33 298.206 68.9413 297.693 69.296C297.189 69.6507 296.578 69.828 295.859 69.828C295.467 69.828 295.08 69.7673 294.697 69.646C294.314 69.5247 294.002 69.3567 293.759 69.142L294.557 67.588C294.725 67.7373 294.916 67.854 295.131 67.938C295.355 68.022 295.574 68.064 295.789 68.064C296.088 68.064 296.33 67.9893 296.517 67.84C296.704 67.7 296.872 67.462 297.021 67.126L297.049 67.056L293.787 59.468H296.041L298.155 64.578L300.283 59.468H302.383ZM309.471 61.26H305.607V67H303.437V59.468H309.471V61.26ZM310.628 59.468H312.798V63.948L316.466 59.468H318.468V67H316.298V62.52L312.644 67H310.628V59.468ZM325.3 67L323.648 64.69L321.94 67H319.56L322.458 63.206L319.658 59.468H322.108L323.704 61.666L325.342 59.468H327.666L324.866 63.15L327.778 67H325.3ZM210.452 80.206C210.452 81.3727 210.06 82.2967 209.276 82.978C208.501 83.65 207.391 84.0373 205.944 84.14V86.716H203.942V84.14C202.495 84.0373 201.38 83.6547 200.596 82.992C199.821 82.32 199.434 81.3913 199.434 80.206C199.434 79.0393 199.817 78.134 200.582 77.49C201.357 76.846 202.477 76.4727 203.942 76.37V73.612H205.944V76.37C207.391 76.4727 208.501 76.8507 209.276 77.504C210.06 78.1573 210.452 79.058 210.452 80.206ZM201.548 80.206C201.548 80.878 201.739 81.396 202.122 81.76C202.505 82.124 203.111 82.3527 203.942 82.446V78.064C203.111 78.148 202.505 78.3673 202.122 78.722C201.739 79.0673 201.548 79.562 201.548 80.206ZM205.944 82.446C206.775 82.3527 207.381 82.124 207.764 81.76C208.156 81.396 208.352 80.878 208.352 80.206C208.352 79.562 208.156 79.0673 207.764 78.722C207.381 78.3673 206.775 78.148 205.944 78.064V82.446ZM219.272 76.468L215.87 84.462C215.524 85.33 215.095 85.9413 214.582 86.296C214.078 86.6507 213.466 86.828 212.748 86.828C212.356 86.828 211.968 86.7673 211.586 86.646C211.203 86.5247 210.89 86.3567 210.648 86.142L211.446 84.588C211.614 84.7373 211.805 84.854 212.02 84.938C212.244 85.022 212.463 85.064 212.678 85.064C212.976 85.064 213.219 84.9893 213.406 84.84C213.592 84.7 213.76 84.462 213.91 84.126L213.938 84.056L210.676 76.468H212.93L215.044 81.578L217.172 76.468H219.272ZM227.016 76.468V84H224.832V78.26H222.452L222.382 79.59C222.345 80.5793 222.252 81.4007 222.102 82.054C221.953 82.7073 221.71 83.2207 221.374 83.594C221.038 83.9673 220.572 84.154 219.974 84.154C219.657 84.154 219.279 84.098 218.84 83.986L218.952 82.194C219.102 82.2127 219.209 82.222 219.274 82.222C219.601 82.222 219.844 82.1053 220.002 81.872C220.17 81.6293 220.282 81.326 220.338 80.962C220.394 80.5887 220.436 80.0987 220.464 79.492L220.576 76.468H227.016ZM239.518 80.206C239.518 81.3727 239.126 82.2967 238.342 82.978C237.568 83.65 236.457 84.0373 235.01 84.14V86.716H233.008V84.14C231.562 84.0373 230.446 83.6547 229.662 82.992C228.888 82.32 228.5 81.3913 228.5 80.206C228.5 79.0393 228.883 78.134 229.648 77.49C230.423 76.846 231.543 76.4727 233.008 76.37V73.612H235.01V76.37C236.457 76.4727 237.568 76.8507 238.342 77.504C239.126 78.1573 239.518 79.058 239.518 80.206ZM230.614 80.206C230.614 80.878 230.806 81.396 231.188 81.76C231.571 82.124 232.178 82.3527 233.008 82.446V78.064C232.178 78.148 231.571 78.3673 231.188 78.722C230.806 79.0673 230.614 79.562 230.614 80.206ZM235.01 82.446C235.841 82.3527 236.448 82.124 236.83 81.76C237.222 81.396 237.418 80.878 237.418 80.206C237.418 79.562 237.222 79.0673 236.83 78.722C236.448 78.3673 235.841 78.148 235.01 78.064V82.446ZM240.997 76.468H243.167V80.948L246.835 76.468H248.837V84H246.667V79.52L243.013 84H240.997V76.468ZM258.161 76.468V84H255.977V78.26H253.597L253.527 79.59C253.489 80.5793 253.396 81.4007 253.247 82.054C253.097 82.7073 252.855 83.2207 252.519 83.594C252.183 83.9673 251.716 84.154 251.119 84.154C250.801 84.154 250.423 84.098 249.985 83.986L250.097 82.194C250.246 82.2127 250.353 82.222 250.419 82.222C250.745 82.222 250.988 82.1053 251.147 81.872C251.315 81.6293 251.427 81.326 251.483 80.962C251.539 80.5887 251.581 80.0987 251.609 79.492L251.721 76.468H258.161ZM267.611 84V79.492L265.357 83.272H264.433L262.235 79.478V84H260.261V76.468H262.543L264.951 80.822L267.513 76.468H269.557L269.585 84H267.611ZM278.999 80.262C278.999 80.29 278.985 80.486 278.957 80.85H273.259C273.362 81.3167 273.604 81.6853 273.987 81.956C274.37 82.2267 274.846 82.362 275.415 82.362C275.807 82.362 276.152 82.306 276.451 82.194C276.759 82.0727 277.044 81.886 277.305 81.634L278.467 82.894C277.758 83.706 276.722 84.112 275.359 84.112C274.51 84.112 273.758 83.9487 273.105 83.622C272.452 83.286 271.948 82.824 271.593 82.236C271.238 81.648 271.061 80.9807 271.061 80.234C271.061 79.4967 271.234 78.834 271.579 78.246C271.934 77.6487 272.414 77.1867 273.021 76.86C273.637 76.524 274.323 76.356 275.079 76.356C275.816 76.356 276.484 76.5147 277.081 76.832C277.678 77.1493 278.145 77.6067 278.481 78.204C278.826 78.792 278.999 79.478 278.999 80.262ZM275.093 78.008C274.598 78.008 274.183 78.148 273.847 78.428C273.511 78.708 273.306 79.0907 273.231 79.576H276.941C276.866 79.1 276.661 78.722 276.325 78.442C275.989 78.1527 275.578 78.008 275.093 78.008ZM280.673 76.468H282.843V79.408H286.119V76.468H288.303V84H286.119V81.186H282.843V84H280.673V76.468ZM296.722 78.26H294.174V84H292.004V78.26H289.456V76.468H296.722V78.26ZM203.578 101.112C202.785 101.112 202.071 100.949 201.436 100.622C200.811 100.286 200.321 99.824 199.966 99.236C199.611 98.648 199.434 97.9807 199.434 97.234C199.434 96.4873 199.611 95.82 199.966 95.232C200.321 94.644 200.811 94.1867 201.436 93.86C202.071 93.524 202.785 93.356 203.578 93.356C204.371 93.356 205.081 93.524 205.706 93.86C206.331 94.1867 206.821 94.644 207.176 95.232C207.531 95.82 207.708 96.4873 207.708 97.234C207.708 97.9807 207.531 98.648 207.176 99.236C206.821 99.824 206.331 100.286 205.706 100.622C205.081 100.949 204.371 101.112 203.578 101.112ZM203.578 99.32C204.138 99.32 204.595 99.1333 204.95 98.76C205.314 98.3773 205.496 97.8687 205.496 97.234C205.496 96.5993 205.314 96.0953 204.95 95.722C204.595 95.3393 204.138 95.148 203.578 95.148C203.018 95.148 202.556 95.3393 202.192 95.722C201.828 96.0953 201.646 96.5993 201.646 97.234C201.646 97.8687 201.828 98.3773 202.192 98.76C202.556 99.1333 203.018 99.32 203.578 99.32ZM216.7 93.468V101H214.516V95.26H211.38V101H209.21V93.468H216.7ZM226.116 97.262C226.116 97.29 226.102 97.486 226.074 97.85H220.376C220.479 98.3167 220.721 98.6853 221.104 98.956C221.487 99.2267 221.963 99.362 222.532 99.362C222.924 99.362 223.269 99.306 223.568 99.194C223.876 99.0727 224.161 98.886 224.422 98.634L225.584 99.894C224.875 100.706 223.839 101.112 222.476 101.112C221.627 101.112 220.875 100.949 220.222 100.622C219.569 100.286 219.065 99.824 218.71 99.236C218.355 98.648 218.178 97.9807 218.178 97.234C218.178 96.4967 218.351 95.834 218.696 95.246C219.051 94.6487 219.531 94.1867 220.138 93.86C220.754 93.524 221.44 93.356 222.196 93.356C222.933 93.356 223.601 93.5147 224.198 93.832C224.795 94.1493 225.262 94.6067 225.598 95.204C225.943 95.792 226.116 96.478 226.116 97.262ZM222.21 95.008C221.715 95.008 221.3 95.148 220.964 95.428C220.628 95.708 220.423 96.0907 220.348 96.576H224.058C223.983 96.1 223.778 95.722 223.442 95.442C223.106 95.1527 222.695 95.008 222.21 95.008ZM232.228 93.356C232.928 93.356 233.563 93.5193 234.132 93.846C234.711 94.1633 235.164 94.616 235.49 95.204C235.817 95.7827 235.98 96.4593 235.98 97.234C235.98 98.0087 235.817 98.69 235.49 99.278C235.164 99.8567 234.711 100.309 234.132 100.636C233.563 100.953 232.928 101.112 232.228 101.112C231.267 101.112 230.511 100.809 229.96 100.202V103.716H227.776V93.468H229.862V94.336C230.404 93.6827 231.192 93.356 232.228 93.356ZM231.85 99.32C232.41 99.32 232.868 99.1333 233.222 98.76C233.586 98.3773 233.768 97.8687 233.768 97.234C233.768 96.5993 233.586 96.0953 233.222 95.722C232.868 95.3393 232.41 95.148 231.85 95.148C231.29 95.148 230.828 95.3393 230.464 95.722C230.11 96.0953 229.932 96.5993 229.932 97.234C229.932 97.8687 230.11 98.3773 230.464 98.76C230.828 99.1333 231.29 99.32 231.85 99.32ZM240.314 93.356C241.481 93.356 242.377 93.636 243.002 94.196C243.627 94.7467 243.94 95.582 243.94 96.702V101H241.896V100.062C241.485 100.762 240.72 101.112 239.6 101.112C239.021 101.112 238.517 101.014 238.088 100.818C237.668 100.622 237.346 100.351 237.122 100.006C236.898 99.6607 236.786 99.2687 236.786 98.83C236.786 98.13 237.047 97.5793 237.57 97.178C238.102 96.7767 238.919 96.576 240.02 96.576H241.756C241.756 96.1 241.611 95.736 241.322 95.484C241.033 95.2227 240.599 95.092 240.02 95.092C239.619 95.092 239.222 95.1573 238.83 95.288C238.447 95.4093 238.121 95.5773 237.85 95.792L237.066 94.266C237.477 93.9767 237.967 93.7527 238.536 93.594C239.115 93.4353 239.707 93.356 240.314 93.356ZM240.146 99.642C240.519 99.642 240.851 99.558 241.14 99.39C241.429 99.2127 241.635 98.956 241.756 98.62V97.85H240.258C239.362 97.85 238.914 98.144 238.914 98.732C238.914 99.012 239.021 99.236 239.236 99.404C239.46 99.5627 239.763 99.642 240.146 99.642ZM252.165 95.26H249.617V101H247.447V95.26H244.899V93.468H252.165V95.26ZM256.543 101.112C255.75 101.112 255.036 100.949 254.401 100.622C253.776 100.286 253.286 99.824 252.931 99.236C252.576 98.648 252.399 97.9807 252.399 97.234C252.399 96.4873 252.576 95.82 252.931 95.232C253.286 94.644 253.776 94.1867 254.401 93.86C255.036 93.524 255.75 93.356 256.543 93.356C257.336 93.356 258.046 93.524 258.671 93.86C259.296 94.1867 259.786 94.644 260.141 95.232C260.496 95.82 260.673 96.4873 260.673 97.234C260.673 97.9807 260.496 98.648 260.141 99.236C259.786 99.824 259.296 100.286 258.671 100.622C258.046 100.949 257.336 101.112 256.543 101.112ZM256.543 99.32C257.103 99.32 257.56 99.1333 257.915 98.76C258.279 98.3773 258.461 97.8687 258.461 97.234C258.461 96.5993 258.279 96.0953 257.915 95.722C257.56 95.3393 257.103 95.148 256.543 95.148C255.983 95.148 255.521 95.3393 255.157 95.722C254.793 96.0953 254.611 96.5993 254.611 97.234C254.611 97.8687 254.793 98.3773 255.157 98.76C255.521 99.1333 255.983 99.32 256.543 99.32ZM266.613 93.356C267.313 93.356 267.948 93.5193 268.517 93.846C269.096 94.1633 269.548 94.616 269.875 95.204C270.202 95.7827 270.365 96.4593 270.365 97.234C270.365 98.0087 270.202 98.69 269.875 99.278C269.548 99.8567 269.096 100.309 268.517 100.636C267.948 100.953 267.313 101.112 266.613 101.112C265.652 101.112 264.896 100.809 264.345 100.202V103.716H262.161V93.468H264.247V94.336C264.788 93.6827 265.577 93.356 266.613 93.356ZM266.235 99.32C266.795 99.32 267.252 99.1333 267.607 98.76C267.971 98.3773 268.153 97.8687 268.153 97.234C268.153 96.5993 267.971 96.0953 267.607 95.722C267.252 95.3393 266.795 95.148 266.235 95.148C265.675 95.148 265.213 95.3393 264.849 95.722C264.494 96.0953 264.317 96.5993 264.317 97.234C264.317 97.8687 264.494 98.3773 264.849 98.76C265.213 99.1333 265.675 99.32 266.235 99.32ZM275.424 101.112C274.63 101.112 273.916 100.949 273.282 100.622C272.656 100.286 272.166 99.824 271.812 99.236C271.457 98.648 271.28 97.9807 271.28 97.234C271.28 96.4873 271.457 95.82 271.812 95.232C272.166 94.644 272.656 94.1867 273.282 93.86C273.916 93.524 274.63 93.356 275.424 93.356C276.217 93.356 276.926 93.524 277.552 93.86C278.177 94.1867 278.667 94.644 279.022 95.232C279.376 95.82 279.554 96.4873 279.554 97.234C279.554 97.9807 279.376 98.648 279.022 99.236C278.667 99.824 278.177 100.286 277.552 100.622C276.926 100.949 276.217 101.112 275.424 101.112ZM275.424 99.32C275.984 99.32 276.441 99.1333 276.796 98.76C277.16 98.3773 277.342 97.8687 277.342 97.234C277.342 96.5993 277.16 96.0953 276.796 95.722C276.441 95.3393 275.984 95.148 275.424 95.148C274.864 95.148 274.402 95.3393 274.038 95.722C273.674 96.0953 273.492 96.5993 273.492 97.234C273.492 97.8687 273.674 98.3773 274.038 98.76C274.402 99.1333 274.864 99.32 275.424 99.32ZM286.81 97.066C287.697 97.3647 288.14 97.962 288.14 98.858C288.14 99.5393 287.883 100.067 287.37 100.44C286.857 100.813 286.091 101 285.074 101H281.056V93.468H284.906C285.849 93.468 286.586 93.6407 287.118 93.986C287.65 94.322 287.916 94.798 287.916 95.414C287.916 95.7873 287.818 96.1187 287.622 96.408C287.435 96.688 287.165 96.9073 286.81 97.066ZM283.058 96.562H284.71C285.475 96.562 285.858 96.2913 285.858 95.75C285.858 95.218 285.475 94.952 284.71 94.952H283.058V96.562ZM284.892 99.516C285.695 99.516 286.096 99.2407 286.096 98.69C286.096 98.4007 286.003 98.1907 285.816 98.06C285.629 97.92 285.335 97.85 284.934 97.85H283.058V99.516H284.892ZM202.416 154.58C203.153 154.58 203.816 154.743 204.404 155.07C205.001 155.387 205.468 155.831 205.804 156.4C206.149 156.969 206.322 157.609 206.322 158.318C206.322 159.027 206.149 159.671 205.804 160.25C205.468 160.819 205.001 161.267 204.404 161.594C203.816 161.921 203.153 162.084 202.416 162.084C201.8 162.084 201.235 161.991 200.722 161.804C200.209 161.608 199.775 161.328 199.42 160.964L200.008 160.376C200.633 160.964 201.422 161.258 202.374 161.258C202.906 161.258 203.387 161.146 203.816 160.922C204.255 160.698 204.609 160.385 204.88 159.984C205.16 159.583 205.323 159.135 205.37 158.64H201.436V157.884H205.356C205.253 157.147 204.927 156.549 204.376 156.092C203.825 155.625 203.158 155.392 202.374 155.392C201.422 155.392 200.633 155.686 200.008 156.274L199.42 155.7C199.775 155.336 200.209 155.061 200.722 154.874C201.235 154.678 201.8 154.58 202.416 154.58ZM211.086 158.724H209.406V162H208.412V154.636H209.406V157.87H211.1L213.69 154.636H214.768L211.87 158.206L214.978 162H213.802L211.086 158.724ZM219.325 162.07C218.616 162.07 217.976 161.911 217.407 161.594C216.838 161.267 216.39 160.819 216.063 160.25C215.736 159.681 215.573 159.037 215.573 158.318C215.573 157.599 215.736 156.955 216.063 156.386C216.39 155.817 216.838 155.373 217.407 155.056C217.976 154.739 218.616 154.58 219.325 154.58C220.034 154.58 220.674 154.739 221.243 155.056C221.812 155.373 222.256 155.817 222.573 156.386C222.9 156.955 223.063 157.599 223.063 158.318C223.063 159.037 222.9 159.681 222.573 160.25C222.256 160.819 221.812 161.267 221.243 161.594C220.674 161.911 220.034 162.07 219.325 162.07ZM219.325 161.188C219.848 161.188 220.314 161.071 220.725 160.838C221.145 160.595 221.472 160.255 221.705 159.816C221.938 159.377 222.055 158.878 222.055 158.318C222.055 157.758 221.938 157.259 221.705 156.82C221.472 156.381 221.145 156.045 220.725 155.812C220.314 155.569 219.848 155.448 219.325 155.448C218.802 155.448 218.331 155.569 217.911 155.812C217.5 156.045 217.174 156.381 216.931 156.82C216.698 157.259 216.581 157.758 216.581 158.318C216.581 158.878 216.698 159.377 216.931 159.816C217.174 160.255 217.5 160.595 217.911 160.838C218.331 161.071 218.802 161.188 219.325 161.188ZM225.187 154.636H226.181V157.898H230.815V154.636H231.809V162H230.815V158.752H226.181V162H225.187V154.636ZM237.673 162.07C236.963 162.07 236.324 161.911 235.755 161.594C235.185 161.267 234.737 160.819 234.411 160.25C234.084 159.681 233.921 159.037 233.921 158.318C233.921 157.599 234.084 156.955 234.411 156.386C234.737 155.817 235.185 155.373 235.755 155.056C236.324 154.739 236.963 154.58 237.673 154.58C238.382 154.58 239.021 154.739 239.591 155.056C240.16 155.373 240.603 155.817 240.921 156.386C241.247 156.955 241.411 157.599 241.411 158.318C241.411 159.037 241.247 159.681 240.921 160.25C240.603 160.819 240.16 161.267 239.591 161.594C239.021 161.911 238.382 162.07 237.673 162.07ZM237.673 161.188C238.195 161.188 238.662 161.071 239.073 160.838C239.493 160.595 239.819 160.255 240.053 159.816C240.286 159.377 240.403 158.878 240.403 158.318C240.403 157.758 240.286 157.259 240.053 156.82C239.819 156.381 239.493 156.045 239.073 155.812C238.662 155.569 238.195 155.448 237.673 155.448C237.15 155.448 236.679 155.569 236.259 155.812C235.848 156.045 235.521 156.381 235.279 156.82C235.045 157.259 234.929 157.758 234.929 158.318C234.929 158.878 235.045 159.377 235.279 159.816C235.521 160.255 235.848 160.595 236.259 160.838C236.679 161.071 237.15 161.188 237.673 161.188ZM251.767 154.636V162H250.857V156.176L247.875 161.104H247.427L244.445 156.162V162H243.535V154.636H244.543L247.665 159.942L250.843 154.636H251.767ZM254.596 154.636H255.59V160.488L260.504 154.636H261.386V162H260.392V156.148L255.492 162H254.596V154.636ZM269.89 154.636V162H268.98V159.564H266.67H266.39L264.682 162H263.604L265.438 159.424C264.869 159.265 264.43 158.995 264.122 158.612C263.814 158.229 263.66 157.744 263.66 157.156C263.66 156.335 263.94 155.709 264.5 155.28C265.06 154.851 265.826 154.636 266.796 154.636H269.89ZM264.668 157.184C264.668 158.276 265.364 158.822 266.754 158.822H268.98V155.518H266.824C265.387 155.518 264.668 156.073 264.668 157.184ZM281.079 158.192C282.077 158.425 282.577 159.027 282.577 159.998C282.577 160.642 282.339 161.137 281.863 161.482C281.387 161.827 280.677 162 279.735 162H276.389V154.636H279.637C280.477 154.636 281.135 154.799 281.611 155.126C282.087 155.453 282.325 155.919 282.325 156.526C282.325 156.927 282.213 157.273 281.989 157.562C281.774 157.842 281.471 158.052 281.079 158.192ZM277.355 157.912H279.567C280.136 157.912 280.57 157.805 280.869 157.59C281.177 157.375 281.331 157.063 281.331 156.652C281.331 156.241 281.177 155.933 280.869 155.728C280.57 155.523 280.136 155.42 279.567 155.42H277.355V157.912ZM279.693 161.216C280.327 161.216 280.803 161.113 281.121 160.908C281.438 160.703 281.597 160.381 281.597 159.942C281.597 159.503 281.452 159.181 281.163 158.976C280.873 158.761 280.416 158.654 279.791 158.654H277.355V161.216H279.693ZM291.65 162.07C290.922 162.07 290.269 161.911 289.69 161.594C289.121 161.277 288.673 160.833 288.346 160.264C288.02 159.685 287.856 159.037 287.856 158.318C287.856 157.599 288.02 156.955 288.346 156.386C288.673 155.817 289.121 155.373 289.69 155.056C290.269 154.739 290.922 154.58 291.65 154.58C292.285 154.58 292.85 154.706 293.344 154.958C293.848 155.201 294.245 155.56 294.534 156.036L293.792 156.54C293.55 156.176 293.242 155.905 292.868 155.728C292.495 155.541 292.089 155.448 291.65 155.448C291.118 155.448 290.638 155.569 290.208 155.812C289.788 156.045 289.457 156.381 289.214 156.82C288.981 157.259 288.864 157.758 288.864 158.318C288.864 158.887 288.981 159.391 289.214 159.83C289.457 160.259 289.788 160.595 290.208 160.838C290.638 161.071 291.118 161.188 291.65 161.188C292.089 161.188 292.495 161.099 292.868 160.922C293.242 160.745 293.55 160.474 293.792 160.11L294.534 160.614C294.245 161.09 293.848 161.454 293.344 161.706C292.84 161.949 292.276 162.07 291.65 162.07ZM300.253 154.58C300.944 154.58 301.569 154.739 302.129 155.056C302.689 155.364 303.128 155.803 303.445 156.372C303.762 156.941 303.921 157.59 303.921 158.318C303.921 159.055 303.762 159.709 303.445 160.278C303.128 160.847 302.689 161.291 302.129 161.608C301.578 161.916 300.953 162.07 300.253 162.07C299.656 162.07 299.114 161.949 298.629 161.706C298.153 161.454 297.761 161.09 297.453 160.614V164.716H296.459V154.636H297.411V156.092C297.71 155.607 298.102 155.233 298.587 154.972C299.082 154.711 299.637 154.58 300.253 154.58ZM300.183 161.188C300.696 161.188 301.163 161.071 301.583 160.838C302.003 160.595 302.33 160.255 302.563 159.816C302.806 159.377 302.927 158.878 302.927 158.318C302.927 157.758 302.806 157.263 302.563 156.834C302.33 156.395 302.003 156.055 301.583 155.812C301.163 155.569 300.696 155.448 300.183 155.448C299.66 155.448 299.189 155.569 298.769 155.812C298.358 156.055 298.032 156.395 297.789 156.834C297.556 157.263 297.439 157.758 297.439 158.318C297.439 158.878 297.556 159.377 297.789 159.816C298.032 160.255 298.358 160.595 298.769 160.838C299.189 161.071 299.66 161.188 300.183 161.188ZM312.497 158.626H306.337C306.393 159.391 306.687 160.012 307.219 160.488C307.751 160.955 308.423 161.188 309.235 161.188C309.692 161.188 310.112 161.109 310.495 160.95C310.877 160.782 311.209 160.539 311.489 160.222L312.049 160.866C311.722 161.258 311.311 161.557 310.817 161.762C310.331 161.967 309.795 162.07 309.207 162.07C308.451 162.07 307.779 161.911 307.191 161.594C306.612 161.267 306.159 160.819 305.833 160.25C305.506 159.681 305.343 159.037 305.343 158.318C305.343 157.599 305.497 156.955 305.805 156.386C306.122 155.817 306.551 155.373 307.093 155.056C307.643 154.739 308.259 154.58 308.941 154.58C309.622 154.58 310.233 154.739 310.775 155.056C311.316 155.373 311.741 155.817 312.049 156.386C312.357 156.946 312.511 157.59 312.511 158.318L312.497 158.626ZM308.941 155.434C308.231 155.434 307.634 155.663 307.149 156.12C306.673 156.568 306.402 157.156 306.337 157.884H311.559C311.493 157.156 311.218 156.568 310.733 156.12C310.257 155.663 309.659 155.434 308.941 155.434ZM321.742 161.132V163.778H320.804V162H314.21V163.778H313.272V161.132H313.692C314.187 161.104 314.523 160.74 314.7 160.04C314.878 159.34 314.999 158.36 315.064 157.1L315.162 154.636H320.594V161.132H321.742ZM315.974 157.156C315.928 158.201 315.839 159.065 315.708 159.746C315.578 160.418 315.344 160.88 315.008 161.132H319.6V155.518H316.058L315.974 157.156ZM323.68 154.636H324.674V157.898H329.308V154.636H330.302V162H329.308V158.752H324.674V162H323.68V154.636ZM339.567 158.626H333.407C333.463 159.391 333.757 160.012 334.289 160.488C334.821 160.955 335.493 161.188 336.305 161.188C336.762 161.188 337.182 161.109 337.565 160.95C337.948 160.782 338.279 160.539 338.559 160.222L339.119 160.866C338.792 161.258 338.382 161.557 337.887 161.762C337.402 161.967 336.865 162.07 336.277 162.07C335.521 162.07 334.849 161.911 334.261 161.594C333.682 161.267 333.23 160.819 332.903 160.25C332.576 159.681 332.413 159.037 332.413 158.318C332.413 157.599 332.567 156.955 332.875 156.386C333.192 155.817 333.622 155.373 334.163 155.056C334.714 154.739 335.33 154.58 336.011 154.58C336.692 154.58 337.304 154.739 337.845 155.056C338.386 155.373 338.811 155.817 339.119 156.386C339.427 156.946 339.581 157.59 339.581 158.318L339.567 158.626ZM336.011 155.434C335.302 155.434 334.704 155.663 334.219 156.12C333.743 156.568 333.472 157.156 333.407 157.884H338.629C338.564 157.156 338.288 156.568 337.803 156.12C337.327 155.663 336.73 155.434 336.011 155.434ZM350.013 154.636V162H349.103V156.176L346.121 161.104H345.673L342.691 156.162V162H341.781V154.636H342.789L345.911 159.942L349.089 154.636H350.013ZM212.488 185.832V189H199.792V186.48L206.272 180.36C206.96 179.704 207.424 179.144 207.664 178.68C207.904 178.2 208.024 177.728 208.024 177.264C208.024 176.592 207.792 176.08 207.328 175.728C206.88 175.36 206.216 175.176 205.336 175.176C204.6 175.176 203.936 175.32 203.344 175.608C202.752 175.88 202.256 176.296 201.856 176.856L199.024 175.032C199.68 174.056 200.584 173.296 201.736 172.752C202.888 172.192 204.208 171.912 205.696 171.912C206.944 171.912 208.032 172.12 208.96 172.536C209.904 172.936 210.632 173.512 211.144 174.264C211.672 175 211.936 175.872 211.936 176.88C211.936 177.792 211.744 178.648 211.36 179.448C210.976 180.248 210.232 181.16 209.128 182.184L205.264 185.832H212.488ZM226.644 185.832V189H213.948V186.48L220.428 180.36C221.116 179.704 221.58 179.144 221.82 178.68C222.06 178.2 222.18 177.728 222.18 177.264C222.18 176.592 221.948 176.08 221.484 175.728C221.036 175.36 220.372 175.176 219.492 175.176C218.756 175.176 218.092 175.32 217.5 175.608C216.908 175.88 216.412 176.296 216.012 176.856L213.18 175.032C213.836 174.056 214.74 173.296 215.892 172.752C217.044 172.192 218.364 171.912 219.852 171.912C221.1 171.912 222.188 172.12 223.116 172.536C224.06 172.936 224.788 173.512 225.3 174.264C225.828 175 226.092 175.872 226.092 176.88C226.092 177.792 225.9 178.648 225.516 179.448C225.132 180.248 224.388 181.16 223.284 182.184L219.42 185.832H226.644ZM232.371 181.272C231.139 181.272 230.131 180.856 229.347 180.024C228.579 179.176 228.195 178.048 228.195 176.64C228.195 175.232 228.579 174.112 229.347 173.28C230.131 172.432 231.139 172.008 232.371 172.008C233.603 172.008 234.603 172.432 235.371 173.28C236.139 174.112 236.523 175.232 236.523 176.64C236.523 178.048 236.139 179.176 235.371 180.024C234.603 180.856 233.603 181.272 232.371 181.272ZM242.379 172.2H245.235L233.763 189H230.907L242.379 172.2ZM232.371 179.304C232.915 179.304 233.339 179.08 233.643 178.632C233.963 178.184 234.123 177.52 234.123 176.64C234.123 175.76 233.963 175.096 233.643 174.648C233.339 174.2 232.915 173.976 232.371 173.976C231.843 173.976 231.419 174.208 231.099 174.672C230.779 175.12 230.619 175.776 230.619 176.64C230.619 177.504 230.779 178.168 231.099 178.632C231.419 179.08 231.843 179.304 232.371 179.304ZM243.771 189.192C242.971 189.192 242.251 189.008 241.611 188.64C240.987 188.256 240.499 187.712 240.147 187.008C239.795 186.304 239.619 185.488 239.619 184.56C239.619 183.632 239.795 182.816 240.147 182.112C240.499 181.408 240.987 180.872 241.611 180.504C242.251 180.12 242.971 179.928 243.771 179.928C245.003 179.928 246.003 180.352 246.771 181.2C247.555 182.032 247.947 183.152 247.947 184.56C247.947 185.968 247.555 187.096 246.771 187.944C246.003 188.776 245.003 189.192 243.771 189.192ZM243.771 187.224C244.315 187.224 244.739 187 245.043 186.552C245.363 186.088 245.523 185.424 245.523 184.56C245.523 183.696 245.363 183.04 245.043 182.592C244.739 182.128 244.315 181.896 243.771 181.896C243.243 181.896 242.819 182.12 242.499 182.568C242.179 183.016 242.019 183.68 242.019 184.56C242.019 185.44 242.179 186.104 242.499 186.552C242.819 187 243.243 187.224 243.771 187.224Z" fill="white"/>
                        </svg>