<svg width="25" height="25" viewBox="0 0 25 25" fill="none" xmlns="http://www.w3.org/2000/svg">
<path d="M24.5117 10.1904H21.3867C21.1182 10.1904 20.8984 10.4102 20.8984 10.6787V13.1445C20.8984 13.4131 21.1182 13.6328 21.3867 13.6328C21.6553 13.6328 21.875 13.4131 21.875 13.1445V11.167H24.0234V24.0234H22.9492H21.875V16.8066C21.875 16.5381 21.6553 16.3184 21.3867 16.3184C21.1182 16.3184 20.8984 16.5381 20.8984 16.8066V24.0234H19.9219V13.916C19.9219 13.6475 19.7021 13.4277 19.4336 13.4277H16.3086C16.04 13.4277 15.8203 13.6475 15.8203 13.916V24.0234H14.8438V17.334C14.8438 17.0654 14.624 16.8457 14.3555 16.8457H11.2305C10.9619 16.8457 10.7422 17.0654 10.7422 17.334V24.0234H9.76562V20.1367C9.76562 19.8682 9.5459 19.6484 9.27734 19.6484H6.15234C5.88379 19.6484 5.66406 19.8682 5.66406 20.1367V24.0234H1.46484C1.19629 24.0234 0.976562 23.8037 0.976562 23.5352V1.46484C0.976562 1.19629 1.19629 0.976562 1.46484 0.976562H14.0625V4.19922C14.0625 5.00488 14.7217 5.66406 15.5273 5.66406H18.75V11.6699C18.75 11.9385 18.9697 12.1582 19.2383 12.1582C19.5068 12.1582 19.7266 11.9385 19.7266 11.6699V5.17578C19.7266 5.04395 19.6729 4.92188 19.585 4.8291L14.8975 0.141602C14.8047 0.0537109 14.6777 0 14.5508 0H1.46484C0.65918 0 0 0.65918 0 1.46484V23.5352C0 24.3408 0.65918 25 1.46484 25H24.5117C24.7803 25 25 24.7803 25 24.5117V10.6787C25 10.4102 24.7803 10.1904 24.5117 10.1904ZM15.0391 1.66504L18.0566 4.6875H15.5273C15.2588 4.6875 15.0391 4.46777 15.0391 4.19922V1.66504ZM8.78906 24.0234H6.64062V20.625H8.78906V24.0234ZM13.8672 24.0234H11.7188V17.8223H13.8672V24.0234ZM18.9453 24.0234H16.7969V14.4043H18.9453V24.0234Z" fill="url(#paint0_linear)"/>
<path d="M21.7334 14.541C21.6406 14.4482 21.5186 14.3994 21.3867 14.3994C21.2549 14.3994 21.1328 14.4531 21.04 14.541C20.9473 14.6338 20.8984 14.7559 20.8984 14.8877C20.8984 15.0195 20.9521 15.1416 21.04 15.2344C21.1328 15.3271 21.2549 15.376 21.3867 15.376C21.5186 15.376 21.6406 15.3223 21.7334 15.2344C21.8262 15.1465 21.875 15.0195 21.875 14.8877C21.875 14.7559 21.8213 14.6338 21.7334 14.541Z" fill="url(#paint1_linear)"/>
<path d="M7.10938 2.6709C6.84082 2.6709 6.62109 2.89062 6.62109 3.15918V4.03808C4.375 4.28223 2.61719 6.1914 2.61719 8.50097C2.61719 10.9766 4.63379 12.9932 7.10938 12.9932C9.41895 12.9932 11.3281 11.2402 11.5723 8.98925H12.4512C12.7197 8.98925 12.9395 8.76953 12.9395 8.50097C12.9395 5.28808 10.3223 2.6709 7.10938 2.6709ZM7.10938 12.0166C5.1709 12.0166 3.59375 10.4394 3.59375 8.50097C3.59375 6.72851 4.91211 5.25879 6.62109 5.01953V8.50097C6.62109 8.76953 6.84082 8.98925 7.10938 8.98925H10.5908C10.3516 10.6982 8.88184 12.0166 7.10938 12.0166ZM7.59766 8.01758V3.67187C9.8877 3.90137 11.709 5.72754 11.9385 8.01269H7.59766V8.01758Z" fill="url(#paint2_linear)"/>
<path d="M12.4512 14.3701H3.125C2.85645 14.3701 2.63672 14.5898 2.63672 14.8584C2.63672 15.127 2.85645 15.3467 3.125 15.3467H12.4512C12.7197 15.3467 12.9395 15.127 12.9395 14.8584C12.9395 14.5898 12.7197 14.3701 12.4512 14.3701Z" fill="url(#paint3_linear)"/>
<path d="M6.25 16.7236H3.125C2.85645 16.7236 2.63672 16.9434 2.63672 17.2119C2.63672 17.4805 2.85645 17.7002 3.125 17.7002H6.25C6.51855 17.7002 6.73828 17.4805 6.73828 17.2119C6.73828 16.9434 6.51855 16.7236 6.25 16.7236Z" fill="url(#paint4_linear)"/>
<path d="M9.03809 16.8652C8.94531 16.7725 8.82324 16.7236 8.69141 16.7236C8.56445 16.7236 8.4375 16.7773 8.34473 16.8652C8.25195 16.958 8.20312 17.0801 8.20312 17.2119C8.20312 17.3438 8.25684 17.4658 8.34473 17.5586C8.4375 17.6514 8.55957 17.7002 8.69141 17.7002C8.81836 17.7002 8.94531 17.6465 9.03809 17.5586C9.13086 17.4658 9.17969 17.3438 9.17969 17.2119C9.17969 17.0801 9.13086 16.958 9.03809 16.8652Z" fill="url(#paint5_linear)"/>
<defs>
<linearGradient id="paint0_linear" x1="0.572784" y1="24.7137" x2="20.0192" y2="5.26735" gradientUnits="userSpaceOnUse">
<stop stop-color="#3EAAC0"/>
<stop offset="0.2052" stop-color="#3DA7BD"/>
<stop offset="0.37" stop-color="#389DB5"/>
<stop offset="0.5208" stop-color="#318CA6"/>
<stop offset="0.6633" stop-color="#277492"/>
<stop offset="0.7999" stop-color="#1A5577"/>
<stop offset="0.9304" stop-color="#0B3057"/>
<stop offset="1" stop-color="#011943"/>
</linearGradient>
<linearGradient id="paint1_linear" x1="21.0415" y1="15.2324" x2="21.7319" y2="14.542" gradientUnits="userSpaceOnUse">
<stop stop-color="#3EAAC0"/>
<stop offset="0.2052" stop-color="#3DA7BD"/>
<stop offset="0.37" stop-color="#389DB5"/>
<stop offset="0.5208" stop-color="#318CA6"/>
<stop offset="0.6633" stop-color="#277492"/>
<stop offset="0.7999" stop-color="#1A5577"/>
<stop offset="0.9304" stop-color="#0B3057"/>
<stop offset="1" stop-color="#011943"/>
</linearGradient>
<linearGradient id="paint2_linear" x1="3.93416" y1="11.6777" x2="11.2296" y2="4.38219" gradientUnits="userSpaceOnUse">
<stop stop-color="#3EAAC0"/>
<stop offset="0.2052" stop-color="#3DA7BD"/>
<stop offset="0.37" stop-color="#389DB5"/>
<stop offset="0.5208" stop-color="#318CA6"/>
<stop offset="0.6633" stop-color="#277492"/>
<stop offset="0.7999" stop-color="#1A5577"/>
<stop offset="0.9304" stop-color="#0B3057"/>
<stop offset="1" stop-color="#011943"/>
</linearGradient>
<linearGradient id="paint3_linear" x1="5.11128" y1="17.5328" x2="10.4649" y2="12.1792" gradientUnits="userSpaceOnUse">
<stop stop-color="#3EAAC0"/>
<stop offset="0.2052" stop-color="#3DA7BD"/>
<stop offset="0.37" stop-color="#389DB5"/>
<stop offset="0.5208" stop-color="#318CA6"/>
<stop offset="0.6633" stop-color="#277492"/>
<stop offset="0.7999" stop-color="#1A5577"/>
<stop offset="0.9304" stop-color="#0B3057"/>
<stop offset="1" stop-color="#011943"/>
</linearGradient>
<linearGradient id="paint4_linear" x1="3.56099" y1="18.3384" x2="5.81401" y2="16.0854" gradientUnits="userSpaceOnUse">
<stop stop-color="#3EAAC0"/>
<stop offset="0.2052" stop-color="#3DA7BD"/>
<stop offset="0.37" stop-color="#389DB5"/>
<stop offset="0.5208" stop-color="#318CA6"/>
<stop offset="0.6633" stop-color="#277492"/>
<stop offset="0.7999" stop-color="#1A5577"/>
<stop offset="0.9304" stop-color="#0B3057"/>
<stop offset="1" stop-color="#011943"/>
</linearGradient>
<linearGradient id="paint5_linear" x1="8.35011" y1="17.5571" x2="9.04051" y2="16.8667" gradientUnits="userSpaceOnUse">
<stop stop-color="#3EAAC0"/>
<stop offset="0.2052" stop-color="#3DA7BD"/>
<stop offset="0.37" stop-color="#389DB5"/>
<stop offset="0.5208" stop-color="#318CA6"/>
<stop offset="0.6633" stop-color="#277492"/>
<stop offset="0.7999" stop-color="#1A5577"/>
<stop offset="0.9304" stop-color="#0B3057"/>
<stop offset="1" stop-color="#011943"/>
</linearGradient>
</defs>
</svg>
