<svg width="23" height="24" viewBox="0 0 23 24" fill="none" xmlns="http://www.w3.org/2000/svg">
<g clip-path="url(#clip0)">
<path d="M22.5256 23.0625H21.4866V8.13276C21.4866 7.43901 20.9125 6.87183 20.2104 6.87183H17.8857C17.1836 6.87183 16.6095 7.43901 16.6095 8.13276V23.0625H13.967V14.8968C13.967 14.2031 13.3929 13.6359 12.6908 13.6359H10.3661C9.66399 13.6359 9.08993 14.2031 9.08993 14.8968V23.0625H6.4474V18.8343C6.4474 18.1406 5.87335 17.5734 5.17121 17.5734H2.84653C2.14439 17.5734 1.57034 18.1406 1.57034 18.8343V23.0625H0.474422C0.21349 23.0625 0 23.2734 0 23.5312C0 23.789 0.21349 24 0.474422 24H22.5256C22.7865 24 23 23.789 23 23.5312C23 23.2734 22.7865 23.0625 22.5256 23.0625ZM5.49856 23.0625H2.51918V18.8343C2.51918 18.6562 2.66625 18.5109 2.84653 18.5109H5.17121C5.35149 18.5109 5.49856 18.6562 5.49856 18.8343V23.0625ZM13.0182 23.0625H10.0388V14.8968C10.0388 14.7187 10.1859 14.5734 10.3661 14.5734H12.6908C12.8711 14.5734 13.0182 14.7187 13.0182 14.8968V23.0625ZM20.5377 23.0625H17.5584V8.13276C17.5584 7.95464 17.7054 7.80933 17.8857 7.80933H20.2104C20.3907 7.80933 20.5377 7.95464 20.5377 8.13276V23.0625Z" fill="url(#paint0_linear)"/>
<path d="M21.4819 0.49205C21.4866 0.365487 21.4439 0.234237 21.3443 0.1358C21.2446 0.0373621 21.1118 -0.00482538 20.9837 -0.000137882C20.9742 -0.000137882 20.9695 -0.000137882 20.96 -0.000137882H18.0897C17.8288 -0.000137882 17.6153 0.2108 17.6153 0.468612C17.6153 0.726425 17.8288 0.937362 18.0897 0.937362H19.8641L15.172 5.5733L13.4024 3.82486C13.3123 3.7358 13.1937 3.68892 13.0656 3.68892C12.9375 3.68892 12.8189 3.74049 12.7288 3.82486L4.20814 12.2483C4.02311 12.4311 4.02311 12.7264 4.20814 12.9092C4.30302 13.003 4.42163 13.0452 4.54498 13.0452C4.66833 13.0452 4.78693 12.9983 4.88181 12.9092L13.0751 4.81392L14.8447 6.56236C15.0297 6.74517 15.3286 6.74517 15.5136 6.56236L20.5378 1.5983V3.18736C20.5378 3.44517 20.7512 3.65611 21.0122 3.65611C21.2731 3.65611 21.4866 3.44517 21.4866 3.18736V0.515487C21.4866 0.506112 21.4819 0.501425 21.4819 0.49205Z" fill="url(#paint1_linear)"/>
<path d="M2.9414 14.6858C3.20342 14.6858 3.41583 14.4759 3.41583 14.217C3.41583 13.9582 3.20342 13.7483 2.9414 13.7483C2.67939 13.7483 2.46698 13.9582 2.46698 14.217C2.46698 14.4759 2.67939 14.6858 2.9414 14.6858Z" fill="url(#paint2_linear)"/>
</g>
<defs>
<linearGradient id="paint0_linear" x1="4.77329" y1="28.4416" x2="23.442" y2="9.54699" gradientUnits="userSpaceOnUse">
<stop stop-color="#3EAAC0"/>
<stop offset="0.2052" stop-color="#3DA7BD"/>
<stop offset="0.37" stop-color="#389DB5"/>
<stop offset="0.5208" stop-color="#318CA6"/>
<stop offset="0.6633" stop-color="#277492"/>
<stop offset="0.7999" stop-color="#1A5577"/>
<stop offset="0.9304" stop-color="#0B3057"/>
<stop offset="1" stop-color="#011943"/>
</linearGradient>
<linearGradient id="paint1_linear" x1="5.94627" y1="14.6321" x2="20.8005" y2="-0.401905" gradientUnits="userSpaceOnUse">
<stop stop-color="#3EAAC0"/>
<stop offset="0.2052" stop-color="#3DA7BD"/>
<stop offset="0.37" stop-color="#389DB5"/>
<stop offset="0.5208" stop-color="#318CA6"/>
<stop offset="0.6633" stop-color="#277492"/>
<stop offset="0.7999" stop-color="#1A5577"/>
<stop offset="0.9304" stop-color="#0B3057"/>
<stop offset="1" stop-color="#011943"/>
</linearGradient>
<linearGradient id="paint2_linear" x1="2.60778" y1="14.549" x2="3.27065" y2="13.8781" gradientUnits="userSpaceOnUse">
<stop stop-color="#3EAAC0"/>
<stop offset="0.2052" stop-color="#3DA7BD"/>
<stop offset="0.37" stop-color="#389DB5"/>
<stop offset="0.5208" stop-color="#318CA6"/>
<stop offset="0.6633" stop-color="#277492"/>
<stop offset="0.7999" stop-color="#1A5577"/>
<stop offset="0.9304" stop-color="#0B3057"/>
<stop offset="1" stop-color="#011943"/>
</linearGradient>
<clipPath id="clip0">
<rect width="23" height="24" fill="white"/>
</clipPath>
</defs>
</svg>
