<svg width="65" height="65" viewBox="0 0 65 65" fill="none" xmlns="http://www.w3.org/2000/svg">
<path d="M8.76819 45.4575L8.76819 59.0072L13.5497 59.0072L13.5497 45.4575L8.76819 45.4575ZM12.2754 57.7456L10.0298 57.7456L10.0298 46.7191L12.2881 46.7191L12.2881 57.7456L12.2754 57.7456Z" fill="white"/>
<path d="M8.76814 45.4575L1.2616 45.4575L1.2616 61.3664L8.76814 61.3664L8.76814 45.4575Z" fill="white"/>
<path d="M58.0338 50.2012C58.0338 50.1886 58.0212 50.176 58.0212 50.1633C56.8605 47.4509 54.1355 46.4416 50.9184 47.5392L42.125 49.9741C41.6203 48.4349 40.3461 47.1229 38.5546 46.4668C38.542 46.4668 38.5294 46.4542 38.5168 46.4542L28.8529 43.174C28.0455 42.1395 25.5349 39.4775 20.8165 39.4775C17.5237 39.4775 14.6094 41.7358 12.9314 44.2086L1.2616 44.2086C0.567722 44.2086 2.39575e-10 44.7763 2.70948e-10 45.4702L9.90244e-10 61.379C1.02162e-09 62.0729 0.567722 62.6406 1.2616 62.6406L8.76815 62.6406C9.46203 62.6406 10.0298 62.0729 10.0298 61.379L10.0298 60.294L13.5496 60.294C14.2435 60.294 14.8112 59.7263 14.8112 59.0324L14.8112 58.6666C16.8677 58.8432 17.5363 59.2343 19.4161 60.3193C20.8669 61.1519 23.0495 62.4135 26.9983 64.1924C27.0236 64.205 27.0362 64.205 27.0488 64.2176C27.8058 64.5204 29.2818 64.9872 31.1112 64.9872C32.3854 64.9872 33.811 64.7601 35.2871 64.0915L54.7158 57.14C54.7536 57.1274 54.7789 57.1148 54.8167 57.1022C56.6713 56.2064 59.4342 53.7968 58.0338 50.2012ZM7.50655 60.0922L2.52321 60.0922L2.52321 46.7192L7.50655 46.7192L7.50655 60.0922ZM12.2754 57.7456L10.0298 57.7456L10.0298 46.7192L12.288 46.7192L12.288 57.7456L12.2754 57.7456ZM53.8074 54.7556L34.3913 61.707C34.3787 61.707 34.3535 61.7196 34.3283 61.7323C34.3156 61.7449 34.2904 61.7449 34.2778 61.7575C31.578 63.0065 29.0043 62.2621 27.995 61.8584C24.185 60.1426 22.1538 58.9693 20.6651 58.1114C18.5961 56.9255 17.5994 56.3452 14.7986 56.1181L14.7986 45.9622C15.9971 44.0067 18.3185 42.0007 20.8165 42.0007C25.1059 42.0007 26.9226 44.7889 26.9857 44.9024C27.1371 45.1548 27.3768 45.344 27.6544 45.4323L37.6841 48.8387C39.2864 49.4442 40.1316 50.8068 39.7405 52.1819C39.5639 52.8127 39.1476 53.3426 38.5673 53.658C37.9995 53.9734 37.3435 54.0491 36.7127 53.8851L25.4087 50.3021C24.7401 50.0876 24.0336 50.4535 23.8191 51.1222C23.6046 51.7908 23.9831 52.4973 24.6391 52.6992L35.9683 56.2821C35.981 56.2821 35.9936 56.2947 36.0062 56.2947C36.4604 56.4209 36.9145 56.484 37.3813 56.484C38.214 56.484 39.0467 56.2695 39.8036 55.8532C40.9643 55.2098 41.8096 54.15 42.1754 52.8632C42.2007 52.7622 42.2259 52.6613 42.2511 52.5604L51.7258 49.9362C53.0883 49.4695 54.8924 49.3054 55.6872 51.1474C56.5199 53.2921 54.3625 54.478 53.8074 54.7556Z" fill="white"/>
<path d="M51.0571 8.25293L51.0571 21.8026L55.8386 21.8026L55.8386 8.25293L51.0571 8.25293ZM54.5644 20.541L52.3061 20.541L52.3061 9.51453L54.5644 9.51453L54.5644 20.541Z" fill="white"/>
<path d="M63.3326 5.90674L55.826 5.90674L55.826 21.8156L63.3326 21.8156L63.3326 5.90674Z" fill="white"/>
<path d="M63.3324 4.64474L55.8259 4.64474C55.132 4.64474 54.5643 5.21246 54.5643 5.90635L54.5643 6.99133L51.0444 6.99133C50.3505 6.99133 49.7828 7.55905 49.7828 8.25293L49.7828 8.6188C47.7264 8.44217 47.0577 8.05107 45.1779 6.96609C43.7271 6.13343 41.5445 4.87183 37.5957 3.09297C37.5831 3.08035 37.5579 3.08035 37.5452 3.06773C36.2584 2.56309 32.9025 1.56642 29.307 3.1939L24.2353 5.01061L19.9585 0.733766C19.4664 0.24174 18.659 0.24174 18.167 0.733766L4.12534 14.788C3.67116 15.2422 3.58285 16.0244 4.12534 16.5669L28.1337 40.5753C28.5122 40.9537 29.4205 41.0799 29.9251 40.5753L42.7557 27.7447C43.0963 27.77 43.4369 27.7826 43.7902 27.7826C47.083 27.7826 49.9973 25.5243 51.6752 23.0516L63.3324 23.0516C64.0263 23.0516 64.594 22.4838 64.594 21.79L64.594 5.90635C64.594 5.19985 64.0263 4.64474 63.3324 4.64474ZM62.0708 20.541L57.0875 20.541L57.0875 7.16795L62.0708 7.16795L62.0708 20.541ZM43.7776 25.272C43.3108 25.272 42.8692 25.2341 42.4655 25.1837C39.7404 24.7926 38.277 23.2408 37.7976 22.6226C37.7723 22.5848 37.6588 22.446 37.6462 22.4208C37.4948 22.1558 37.2551 21.9413 36.9523 21.8404L26.9225 18.4341C25.3203 17.8285 24.475 16.466 24.8661 15.0908C25.0427 14.46 25.4591 13.9428 26.0394 13.6148C26.6071 13.2994 27.2632 13.2237 27.894 13.3877L39.1979 16.9706C39.8035 17.1599 40.4595 16.8697 40.7245 16.302C40.7497 16.2515 40.7749 16.201 40.7876 16.1506C40.8128 16.0749 40.8254 15.9866 40.838 15.9109C40.9011 15.3179 40.5479 14.7502 39.9675 14.561L30.9471 11.7223L30.8714 11.6466L26.216 6.99133L30.2153 5.5531C30.2279 5.5531 30.2406 5.54048 30.2532 5.54048L30.2658 5.54048C30.2784 5.52786 30.3036 5.52786 30.3162 5.51525C33.0161 4.27888 35.5898 5.01061 36.599 5.41432C40.4091 7.1301 42.4403 8.3034 43.929 9.16129C45.998 10.3472 46.9947 10.9275 49.7954 11.1546L49.7954 21.3105C48.5969 23.266 46.2755 25.272 43.7776 25.272ZM26.0394 20.8059C26.052 20.8059 26.0646 20.8185 26.0773 20.8185L28.6005 21.6764C28.4112 22.5343 27.9823 23.3291 27.3389 23.9599C25.5222 25.7766 22.5574 25.7766 20.7407 23.9599C18.924 22.1432 18.924 19.1784 20.7407 17.3617C21.1822 16.9202 21.6995 16.5795 22.2672 16.3524C22.4943 18.2827 23.8947 20.0111 26.0394 20.8059ZM54.5643 20.541L52.306 20.541L52.306 9.51454L54.5643 9.51454L54.5643 20.541ZM19.0627 3.40837L21.9392 6.28483C21.0813 6.8147 20.0973 7.09225 19.0627 7.09225C18.0282 7.09225 17.0442 6.8147 16.1863 6.28483L19.0627 3.40837ZM9.6764 18.5476L6.79994 15.6712L9.6764 12.7947C10.2063 13.6526 10.4838 14.6367 10.4838 15.6712C10.4838 16.7057 10.1937 17.7024 9.6764 18.5476ZM29.0168 37.9006L26.1403 35.0242C27.894 33.9392 30.1396 33.9392 31.8933 35.0242L29.0168 37.9006ZM33.71 33.2075C30.9218 31.1889 27.1118 31.1889 24.3236 33.2075L11.4931 20.377C12.4772 19.027 13.007 17.3996 13.007 15.6838C13.007 13.968 12.4772 12.3405 11.4931 10.9906L14.3696 8.11416C15.7195 9.09821 17.347 9.62808 19.0627 9.62808C20.7785 9.62808 22.3934 9.09821 23.7559 8.11416L26.481 10.8392C25.888 10.9275 25.3203 11.1168 24.7778 11.4196C23.8694 11.9242 23.163 12.6812 22.7214 13.5895C21.2958 13.8545 19.9837 14.5357 18.9492 15.5702C16.1484 18.371 16.1484 22.938 18.9492 25.7388C20.3496 27.1392 22.1915 27.8457 24.0335 27.8457C25.8754 27.8457 27.7173 27.1518 29.1177 25.7388C30.0261 24.8304 30.6695 23.7076 30.9849 22.4838L35.2491 23.9347C34.7697 26.1551 35.2617 28.4891 36.5864 30.331L33.71 33.2075ZM38.4157 28.5143C37.9237 27.7195 37.6462 26.8111 37.6083 25.8902C38.2139 26.3317 38.9456 26.7607 39.8287 27.1013L38.4157 28.5143Z" fill="white"/>
</svg>
