<svg width="60" height="59" viewBox="0 0 60 59" fill="none" xmlns="http://www.w3.org/2000/svg">
<g clip-path="url(#clip0)">
<path d="M8.52037 6.16163L8.52052 6.15301V6.14438C8.52052 4.89544 7.49299 3.9109 6.26514 3.9109C5.0373 3.9109 4.00977 4.89544 4.00977 6.14438C4.00977 7.39333 5.0373 8.37787 6.26514 8.37787C7.50864 8.37787 8.49933 7.38152 8.52037 6.16163ZM6.25341 1H48.8071C51.7208 1 54.0605 3.32397 54.0605 6.14438V10.0668H1V6.14438C1 3.32397 3.33969 1 6.25341 1ZM9.0078 6.14438C9.0078 7.39332 10.0353 8.37787 11.2632 8.37787C12.491 8.37787 13.5186 7.39332 13.5186 6.14438C13.5186 4.89544 12.491 3.9109 11.2632 3.9109C10.0353 3.9109 9.0078 4.89544 9.0078 6.14438ZM14.0176 6.14438C14.0176 7.39333 15.0451 8.37787 16.2729 8.37787C17.5008 8.37787 18.5283 7.39333 18.5283 6.14438C18.5283 4.89544 17.5008 3.9109 16.2729 3.9109C15.0451 3.9109 14.0176 4.89544 14.0176 6.14438Z" stroke="white" stroke-width="2"/>
<path d="M50.2677 51.1922L50.1235 50.6036L49.971 49.9811L49.8436 49.4611L50.2057 49.0668C51.0585 48.138 51.6648 46.9539 51.9096 45.741L52.0062 45.2626L52.4427 45.0444C52.8306 44.8505 53.101 44.4848 53.1523 44.0562L53.1531 44.0496L53.1531 44.0496L53.423 41.9169L53.4231 41.9163C53.4684 41.5597 53.3599 41.1969 53.1151 40.9203C53.01 40.8094 52.9254 40.7387 52.8603 40.6976L52.3641 40.3842L52.3958 39.7982L52.4662 38.4955L52.4864 38.1228L52.7458 37.8544L52.9681 37.6245C52.9683 37.6243 52.9684 37.6242 52.9685 37.6241C53.206 37.3779 53.4507 37.0223 53.5305 36.5775C53.6052 36.1613 53.5591 35.5399 52.9949 34.6867L50.2677 51.1922ZM50.2677 51.1922L50.8562 51.3367M50.2677 51.1922L50.8562 51.3367M50.8562 51.3367L54.6098 52.2588C54.6099 52.2588 54.6101 52.2588 54.6102 52.2589C57.2154 52.9015 59.0196 55.1835 58.9998 57.7935H58.9997V57.8011C58.9997 57.9125 58.901 58.0346 58.7444 58.0346H33.719C33.6514 58.0346 33.5912 58.0101 33.548 57.9715C33.4928 57.9104 33.4753 57.8495 33.4753 57.8011C33.4753 55.1971 35.2831 52.913 37.8883 52.2704C37.8885 52.2704 37.8886 52.2703 37.8888 52.2703L41.6423 51.3483L42.2224 51.2058L42.3719 50.6274L42.5597 49.9011L42.6925 49.3874L42.3414 48.9894C41.5389 48.0795 40.9618 46.9332 40.7163 45.7674L40.6103 45.2641L40.1392 45.0576C39.6813 44.8569 39.4031 44.4766 39.345 44.0464L39.0756 41.9061L39.0755 41.9047C39.0297 41.545 39.1406 41.1787 39.3901 40.9013L39.4066 40.883L39.4221 40.864C39.4712 40.8037 39.55 40.7346 39.6744 40.6582L40.215 40.3262L40.145 39.6957C40.0737 39.0536 40.0103 38.347 40.0103 38.0077C40.0103 37.0477 40.1593 36.1414 40.7297 35.4519C41.2788 34.7882 42.3951 34.1195 44.8045 34.0386L45.0686 34.0297M50.8562 51.3367L45.0686 34.0297M45.0686 34.0297L45.2938 33.8916M45.0686 34.0297L45.2938 33.8916M45.2938 33.8916C46.786 32.9764 48.332 32.967 49.112 32.967C51.4703 32.967 52.5137 33.9607 52.9948 34.6865L45.2938 33.8916Z" stroke="white" stroke-width="2"/>
<path d="M30.0351 53.1006H6.26514C3.33846 53.1006 1 50.7754 1 47.9562V6.14438C1 3.32518 3.33846 1 6.26514 1H48.8071C51.7208 1 54.0605 3.32397 54.0605 6.14438V29.5115C54.0605 29.6228 53.9617 29.745 53.8051 29.745C53.6609 29.745 53.5615 29.635 53.5615 29.5115V6.14438C53.5615 3.54667 51.4077 1.45545 48.8071 1.45545H6.26514C3.6646 1.45545 1.51075 3.54668 1.51075 6.14438V47.9562C1.51075 50.5539 3.6646 52.6451 6.26514 52.6451H30.0351C30.1917 52.6451 30.2905 52.7672 30.2905 52.8786C30.2905 52.9779 30.2041 53.1006 30.0351 53.1006Z" stroke="white" stroke-width="2"/>
<path d="M53.8169 11.3002H1.25538C1.09879 11.3002 1 11.1781 1 11.0667C1 10.9554 1.09879 10.8333 1.25538 10.8333H53.8169C53.9735 10.8333 54.0723 10.9554 54.0723 11.0667C54.0723 11.1781 53.9735 11.3002 53.8169 11.3002Z" stroke="white" stroke-width="2"/>
</g>
<defs>
<clipPath id="clip0">
<rect width="60" height="59" fill="white"/>
</clipPath>
</defs>
</svg>
