<svg width="64" height="66" viewBox="0 0 64 66" fill="none" xmlns="http://www.w3.org/2000/svg">
<path d="M34.8695 0H4.57662C2.1067 0 0 2.01088 0 4.45267V61.5473C0 63.9891 2.1067 66 4.57662 66H34.8695C37.3394 66 39.4461 63.9891 39.4461 61.5473V46.3939H36.1771V57.8128H3.12372V7.1099H36.1771V21.8324H39.4461V4.45267C39.4461 2.01088 37.3394 0 34.8695 0ZM19.6867 59.2492C20.9943 59.2492 22.0114 60.2546 22.0114 61.5473C22.0114 62.84 20.9943 63.7737 19.6867 63.7737C18.4518 63.7737 17.3621 62.84 17.3621 61.5473C17.3621 60.3264 18.3791 59.2492 19.6867 59.2492ZM24.5539 4.38085H14.8922C14.5289 4.38085 14.311 4.1654 14.311 3.80631C14.311 3.51904 14.5289 3.23177 14.8922 3.23177H24.6266C24.9898 3.23177 25.2077 3.44723 25.2077 3.80631C25.1351 4.09358 24.9171 4.38085 24.5539 4.38085Z" fill="white"/>
<path d="M63.1945 20.3215L62.5899 21.8656L62.589 21.868L52.5767 47.833H12.8514L17.7553 35.2281L18.0204 34.5468H17.2893H13.5759V33.4641H18.1611H18.5017L18.6264 33.1471L19.6434 30.5617L19.9121 29.8787H19.1781H11.9778V28.2932H20.2678H20.6138L20.7357 27.9694L21.898 24.8812L22.1525 24.2051H21.4301H7.25586V21.8297H22.6651H23.0082L23.1316 21.5095L23.5894 20.3215H63.1945ZM60.1848 22.2637L61.7721 21.3324H59.9318H25.5708H24.4156L25.2063 22.1747L37.4106 35.1736L37.6839 35.4646L38.0282 35.2626L60.1848 22.2637ZM24.191 23.3565L23.6448 22.7776L23.3604 23.521L15.0062 45.3534L14.3412 47.0914L15.7878 45.9208L32.2055 32.6346L32.6249 32.2952L32.2546 31.9028L24.191 23.3565ZM16.9016 46.0057L15.8074 46.8939H17.2167H49.3983H50.1811L49.852 46.1837L43.8951 33.3284L43.6639 32.8294L43.1891 33.107L36.7809 36.8536L33.4213 33.2002L33.1031 32.8541L32.7381 33.1504L16.9016 46.0057ZM51.3422 45.7428L51.8362 46.8059L52.2615 45.7135L60.761 23.8811L61.2802 22.5473L60.0434 23.2676L45.3691 31.8138L44.9752 32.0433L45.1674 32.4566L51.3422 45.7428Z" fill="white" stroke="white"/>
</svg>
