<svg width="68" height="63" viewBox="0 0 68 63" fill="none" xmlns="http://www.w3.org/2000/svg">
<path d="M63.3781 59.3838H39.2738C40.136 58.7952 40.8677 58.0212 41.416 57.0958C42.4019 55.4317 42.6749 53.479 42.1813 51.6154C42.1812 51.6151 42.1811 51.6147 42.181 51.6144L34.1174 20.824L34.117 20.8226C33.2781 17.638 30.3927 15.4251 27.0938 15.4251C26.482 15.4251 25.8763 15.4982 25.2689 15.658C25.2681 15.6582 25.2673 15.6584 25.2665 15.6586L21.5164 16.6278C20.7527 16.266 19.8981 16.0476 18.9869 16.0476C18.8565 16.0476 18.7234 16.0513 18.5888 16.0598C17.4386 14.6794 15.7073 13.8217 13.8125 13.8217C13.2933 13.8217 12.7616 13.8849 12.1987 14.0337C10.6079 14.448 9.26287 15.4547 8.42631 16.8642L8.42454 16.8672C8.0558 17.4934 7.79567 18.1781 7.66666 18.8881C7.47075 18.9817 7.28128 19.0859 7.09875 19.1999V14.7795C7.09875 14.2389 7.22886 13.5604 7.4597 12.8918C7.63571 12.382 7.85454 11.9235 8.07924 11.5703H9.945H64.1537H66.0197C66.2451 11.924 66.4646 12.3815 66.6413 12.8823C66.8739 13.5416 67 14.1846 67 14.6529V55.7949C67 57.7677 65.3826 59.3838 63.3781 59.3838ZM12.41 6.5005H12.1217L12.6843 5.7999H14.5775H29.0786L28.6486 6.5005H12.41ZM44.3455 5.7999H59.5213H61.4145L61.977 6.5005H61.6887H44.5853L44.3455 5.7999Z" stroke="white" stroke-width="2"/>
<path d="M20.995 21.3834L20.9843 21.3412C20.6975 20.244 19.5712 19.5794 18.4556 19.8748L17.4143 20.1385C16.8618 20.2862 16.2881 19.9487 16.15 19.4001L16.1393 19.3685C15.7993 18.092 14.4925 17.3219 13.1962 17.6489L13.1431 17.6595C11.8575 17.997 11.0818 19.2946 11.4112 20.5816L11.4218 20.6133C11.5706 21.1618 11.2306 21.7315 10.6781 21.8686L9.63683 22.1324C8.53183 22.4172 7.86246 23.5354 8.15996 24.6431L8.17058 24.6853C8.45746 25.7824 9.58371 26.4364 10.6993 26.1516L19.5075 23.873C20.6231 23.6092 21.2818 22.4805 20.995 21.3834ZM14.0568 21.0141C13.4937 21.1618 12.9306 20.8242 12.7818 20.2757C12.6331 19.7166 12.9731 19.1575 13.5256 19.0098C14.0781 18.8621 14.6518 19.1997 14.8006 19.7482C14.9493 20.2968 14.62 20.8664 14.0568 21.0141Z" fill="white"/>
<path d="M26.5094 50.6785C26.6051 51.0477 26.3819 51.4275 26.0101 51.5224L13.1963 54.8349C12.8244 54.9298 12.4419 54.7083 12.3463 54.3391L12.1763 53.6745C12.0807 53.3052 12.3038 52.9255 12.6757 52.8305L25.4894 49.5181C25.8613 49.4231 26.2438 49.6447 26.3394 50.0139L26.5094 50.6785Z" fill="white"/>
<path d="M28.0712 37.4077L28.2412 38.0723C28.3368 38.4415 28.1137 38.8213 27.7418 38.9162L10.2106 43.4418C9.83871 43.5368 9.45621 43.3152 9.36059 42.946L9.17996 42.2814C9.08434 41.9122 9.30746 41.5324 9.67934 41.4375L27.2106 36.9119C27.5931 36.8169 27.9756 37.0385 28.0712 37.4077Z" fill="white"/>
<path d="M26.1695 32.8925L8.6382 37.4182C8.26633 37.5131 7.88383 37.2916 7.7882 36.9223L7.60758 36.2577C7.51195 35.8885 7.73508 35.5087 8.10695 35.4138L25.6382 30.8882C26.0101 30.7932 26.3926 31.0148 26.4882 31.384L26.6688 32.0486C26.7645 32.4178 26.5413 32.7976 26.1695 32.8925Z" fill="white"/>
<path d="M25.7763 45.1403L11.6132 48.8009C11.2413 48.8959 10.8588 48.6743 10.7632 48.3051L10.5826 47.6405C10.4869 47.2713 10.7101 46.8915 11.0819 46.7966L25.2451 43.136C25.6169 43.041 25.9994 43.2626 26.0951 43.6318L26.2757 44.2964C26.3713 44.6656 26.1482 45.0454 25.7763 45.1403Z" fill="white"/>
<path d="M38.5262 52.5774L30.4619 21.7842C29.9837 19.9381 28.0712 18.8304 26.2119 19.3052L22.1 20.3601C22.1956 20.5605 22.2806 20.7715 22.3337 20.993C22.8225 22.8708 21.7175 24.7486 19.8687 25.2233L11.1881 27.4597C9.41373 27.9133 7.51186 27.0061 6.91686 25.2971C6.81061 24.9701 6.74686 24.6536 6.72561 24.3266L2.61373 25.3921C0.75436 25.8773 -0.361265 27.7656 0.11686 29.6118L8.19186 60.405C8.66998 62.2511 10.5825 63.3587 12.4419 62.884L36.04 56.7866C37.8887 56.3119 39.0044 54.4235 38.5262 52.5774ZM11.5494 59.5399L4.53686 32.766L28.135 26.6685L35.1475 53.4425L11.5494 59.5399Z" fill="white"/>
</svg>
