<svg width="61" height="61" viewBox="0 0 61 61" fill="none" xmlns="http://www.w3.org/2000/svg">
<path d="M39.008 58.5241L43.7892 55.549L44.0639 55.3781L44.1864 55.0786L45.5147 51.8317L48.8499 50.3098L49.1829 50.1578L49.3391 49.8269L52.2956 43.5632L52.6885 42.7309L51.8916 42.2705L46.617 39.2229L44.017 36.2184L43.7712 35.9343L43.3992 35.8823L41.7507 35.6521L38.6214 34.7106L38.5588 34.6917L38.4942 34.6812L35.5377 34.1994L35.3134 34.1628L35.0953 34.2268L33.2442 34.7698L32.1868 33.5635L32.0058 33.3571L31.7447 33.272L31.0423 33.043L31.1965 31.6856L31.257 31.1535L31.4883 31.2666L31.6962 31.3682H31.9275H33.1594H33.9359L34.1283 30.6159L34.5671 28.8996L37.9926 24.6569L42.6852 22.2535L45.3174 22.6824L46.2972 22.8421L46.464 21.8635L46.7104 20.418L46.7985 19.9014L46.4238 19.535L42.8317 16.0227L41.424 13.4992L41.3048 13.2854L41.4827 13.1984L42.3259 12.7861L42.5474 13.5441L42.6309 13.8299L42.8571 14.0235L46.7992 17.3962L46.9803 17.5512L47.2118 17.6078L48.1973 17.8487L48.8706 18.0133L49.261 17.4406L50.4758 15.6588L54.9379 15.2225L55.0088 15.2156L55.078 15.1987L55.3737 15.1264C58.2538 19.6769 60 25.0451 60 30.6091C60 43.6711 51.1639 54.8578 39.008 58.5241ZM30.0692 30.5727H28.8584L29.4638 30.2768L30.0692 30.5727ZM35.3623 11.8182V12.1359L34.8127 12.0382L34.3966 11.9642L34.6403 10.773L35.3623 11.0554V11.8182ZM33.3231 14.944L31.8452 14.6105L31.8063 14.3063L33.3513 14.0041L33.4748 13.98L33.3231 14.944ZM42.0661 11.8971L42.0933 11.9902L41.8046 11.6514L40.5727 10.2059L40.5291 10.1548L40.479 10.1099L38.4253 8.26909L39.3669 8.42254L41.4299 10.238L42.0661 11.8971Z" stroke="white" stroke-width="2"/>
<path d="M31.392 41.8965L31.1838 42.3516L31.4233 42.7909L33.5944 46.7758L33.6283 46.8858C33.6687 47.017 33.7263 47.2046 33.7955 47.4306C33.934 47.8828 34.1184 48.4877 34.3028 49.0996C34.4874 49.7124 34.6708 50.3289 34.8077 50.8055C34.8764 51.0446 34.9317 51.2429 34.9693 51.3858C34.9699 51.3881 34.9705 51.3904 34.971 51.3926L33.5547 56.6678L33.5035 56.8587L33.5287 57.0547L33.896 59.9096C32.9891 59.9981 31.996 60 31.0685 60C14.3384 60 1 46.7696 1 30.8125C1 26.1991 2.07181 21.7628 4.05878 17.802L5.34764 18.6965L5.60479 18.875H5.91781H9.36986H9.46162L9.55185 18.8583L14.0758 18.021L17 22.4858V26.9792V27.3202L17.2084 27.5902L21.6467 33.3402L21.947 33.7292H22.4384H23.1781H23.5846L24.0027 34.5996L24.2226 35.0575L24.7221 35.15L29.6025 36.0532L31.6045 37.9985L31.758 38.1476L31.959 38.2208L32.9141 38.5688L31.392 41.8965ZM35.014 51.571C35.0139 51.571 35.0126 51.5649 35.0108 51.5539C35.0133 51.5656 35.0142 51.571 35.014 51.571Z" stroke="white" stroke-width="2"/>
<path d="M12.0907 8.81385L12.0224 8.82333L11.9561 8.84208L11.0892 9.08721C14.1613 6.08717 17.8933 3.77593 22.0336 2.40686V2.95817C21.895 3.06813 21.7149 3.19961 21.5206 3.33561C21.2963 3.49255 21.0701 3.64374 20.8986 3.75647C20.8132 3.8126 20.7422 3.85868 20.6929 3.89054L20.6361 3.92704L20.6217 3.93625L20.6183 3.93843L20.6176 3.93888L20.6176 3.93891L20.6175 3.93894L20.6175 3.93895L19.2915 4.78261L20.6176 5.62631L22.4967 6.82196L22.8543 7.04948L23.2665 6.95075L26.8295 6.0973L26.2018 7.16221L22.6611 7.36246L19.9916 6.68307L19.5833 6.57915L19.2237 6.79878L17.0523 8.12507L12.0907 8.81385ZM30.7852 1C31.703 1 32.6087 1.04176 33.4983 1.12495L31.4791 2.2318L31.4679 2.23791L31.4569 2.24431L29.8126 3.20083L28.3627 4.04427L29.7942 4.91861L30.1987 5.16572L28.422 4.76378L27.9716 4.66189L27.8989 4.53226L26.9593 2.85835L26.5705 2.16582L25.808 2.38762L24.4661 2.77792L23.3549 2.40086L22.7266 2.18766C25.2847 1.41518 27.99 1 30.7852 1Z" stroke="white" stroke-width="2"/>
</svg>
