<svg width="77" height="78" viewBox="0 0 77 78" fill="none" xmlns="http://www.w3.org/2000/svg">
<g clip-path="url(#clip0)">
<mask id="path-1-inside-1" fill="white">
<path d="M59.8117 17.1859C61.3757 17.1859 62.9081 16.7698 64.2509 15.9536L77 8.32007V4.75134L62.6553 13.2171C61.5652 13.8572 60.333 14.1933 59.0849 14.1773L40.0956 13.9532C39.1477 13.6012 38.3894 13.3771 38.105 13.2651C32.165 11.9208 27.5203 12.4489 24.3607 13.3131C21.991 13.9532 19.4633 13.7132 17.2199 12.673L0 4.67133V36.6459L1.78519 37.6381C4.42347 39.0944 6.52462 41.3508 7.83586 44.0874L6.82478 44.9196C4.10751 46.92 3.52298 50.7928 5.30817 53.5293C6.30345 54.8576 7.70948 55.7058 9.32089 55.9939C9.51046 56.0099 9.79483 56.0259 10.0002 56.0259C10.5847 56.0579 11.1535 55.9939 11.6432 55.9138C11.6748 57.2901 11.9908 58.4744 12.7965 59.5946C13.8707 61.1149 15.5769 61.803 17.4095 61.8991C17.8835 61.9311 18.3732 61.9471 18.7524 61.9791C18.5786 63.4354 18.9893 64.9237 19.8898 66.1399C20.8851 67.4682 22.2911 68.3164 23.9025 68.6044C24.0921 68.6204 24.3765 68.6364 24.5819 68.6364C26.0195 68.7165 27.3939 68.3004 28.4998 67.4842L29.1001 67.0201C29.2423 67.9003 29.4951 68.7005 30.0322 69.4206C30.8379 70.5408 32.0544 71.293 33.492 71.565C33.6816 71.581 33.8712 71.5811 34.0765 71.5971C35.2298 71.6611 36.3989 71.325 37.4099 70.6049H37.5047L38.2156 71.6131C39.4637 73.4374 42.0546 73.8695 43.8556 72.6053C45.3564 71.517 45.9567 69.3886 45.2774 67.6922L45.4038 67.8843C46.5886 69.6607 48.832 70.4288 50.7909 69.6126C52.9553 68.7165 53.8242 66.348 53.2554 64.3156C54.7089 65.9639 57.205 66.284 59.006 65.0197L59.1007 64.9237C60.9017 63.6594 61.4231 61.2429 60.4594 59.3225C62.0234 60.7788 64.5195 61.0029 66.3205 59.7386C68.4216 58.1863 68.9746 55.1937 67.4421 53.0492L65.1988 49.8006L70.0804 44.0394C71.3601 42.5191 72.8925 41.2388 74.5987 40.2306L77 38.8223V35.0135L73.6824 36.9179C71.7866 38.0062 70.0804 39.4145 68.6586 41.0948L63.4136 47.2561C61.8496 45.7998 59.3535 45.5757 57.5525 46.84C55.4514 48.3923 54.8984 51.3849 56.4309 53.5293L56.5098 53.7374H56.4151C54.93 52.6812 52.9079 52.5691 51.3123 53.6574L51.2175 53.7534C49.8115 54.7456 49.1479 56.474 49.4481 58.1543L48.9426 58.5224C47.5365 57.7702 45.7987 57.7702 44.3927 58.7624C43.0973 59.6746 42.4337 61.2909 42.5443 62.7632L41.1541 63.6594C40.1114 63.4034 38.9423 63.6434 38.0419 64.2675C36.936 65.0837 36.2883 66.428 36.3199 67.6922L35.6247 68.1403C35.214 68.5084 34.5347 68.6685 33.9659 68.5404C33.3972 68.4124 32.8285 68.0923 32.4651 67.5802C32.1018 67.1641 31.9438 66.476 32.0702 65.8999C32.1966 65.3238 32.5125 64.7477 33.0181 64.3796L40.5538 58.6344C40.9487 58.3623 41.1699 57.9783 41.1857 57.4982C41.2331 56.618 40.4906 55.8658 39.6375 55.8658C39.3057 55.8658 39.0371 55.9458 38.7528 56.1059L26.7146 64.9397C26.0195 65.3878 25.2296 65.6438 24.3765 65.4998C23.5234 65.3558 22.7651 64.9237 22.3227 64.2195C21.3275 62.8913 21.6276 60.8588 23.0336 59.8666L37.3783 49.4965C37.6943 49.2085 37.9155 48.8084 37.9155 48.2803C37.9313 47.4481 37.2519 46.744 36.4305 46.712C35.9565 46.6959 35.5774 46.872 35.2614 47.2401L21.2169 57.5302C20.8219 57.7062 20.6165 57.9943 20.3164 58.2663C18.626 59.3545 16.1299 59.1145 15.2294 57.8982C14.3289 56.586 14.5185 54.8256 15.6401 53.7214L17.0462 52.7292L32.6547 41.943C33.0497 41.6709 33.2708 41.2868 33.2866 40.8067C33.3182 40.2786 33.0655 39.7825 32.6389 39.4785C32.086 39.0784 31.533 39.0624 30.9485 39.4145L14.2341 50.9208C14.1235 51.1129 13.9339 51.1929 13.8233 51.2889L12.2119 52.4731C10.9007 53.4813 8.89434 53.1773 7.91485 51.753C6.91957 50.4247 7.21974 48.3923 8.62577 47.4001L40.143 23.8913C42.6707 25.3956 44.5349 28.4202 44.5349 28.4202C47.6313 38.2462 51.486 38.3262 53.8242 37.142C55.0406 36.5339 55.5936 35.0776 55.167 33.7653C53.9348 29.9725 53.2238 22.627 53.2238 22.627C52.3549 20.7226 49.5745 18.7222 46.4781 17.0899L56.6046 17.2499L59.8117 17.1859Z"/>
</mask>
<path d="M59.8117 17.1859C61.3757 17.1859 62.9081 16.7698 64.2509 15.9536L77 8.32007V4.75134L62.6553 13.2171C61.5652 13.8572 60.333 14.1933 59.0849 14.1773L40.0956 13.9532C39.1477 13.6012 38.3894 13.3771 38.105 13.2651C32.165 11.9208 27.5203 12.4489 24.3607 13.3131C21.991 13.9532 19.4633 13.7132 17.2199 12.673L0 4.67133V36.6459L1.78519 37.6381C4.42347 39.0944 6.52462 41.3508 7.83586 44.0874L6.82478 44.9196C4.10751 46.92 3.52298 50.7928 5.30817 53.5293C6.30345 54.8576 7.70948 55.7058 9.32089 55.9939C9.51046 56.0099 9.79483 56.0259 10.0002 56.0259C10.5847 56.0579 11.1535 55.9939 11.6432 55.9138C11.6748 57.2901 11.9908 58.4744 12.7965 59.5946C13.8707 61.1149 15.5769 61.803 17.4095 61.8991C17.8835 61.9311 18.3732 61.9471 18.7524 61.9791C18.5786 63.4354 18.9893 64.9237 19.8898 66.1399C20.8851 67.4682 22.2911 68.3164 23.9025 68.6044C24.0921 68.6204 24.3765 68.6364 24.5819 68.6364C26.0195 68.7165 27.3939 68.3004 28.4998 67.4842L29.1001 67.0201C29.2423 67.9003 29.4951 68.7005 30.0322 69.4206C30.8379 70.5408 32.0544 71.293 33.492 71.565C33.6816 71.581 33.8712 71.5811 34.0765 71.5971C35.2298 71.6611 36.3989 71.325 37.4099 70.6049H37.5047L38.2156 71.6131C39.4637 73.4374 42.0546 73.8695 43.8556 72.6053C45.3564 71.517 45.9567 69.3886 45.2774 67.6922L45.4038 67.8843C46.5886 69.6607 48.832 70.4288 50.7909 69.6126C52.9553 68.7165 53.8242 66.348 53.2554 64.3156C54.7089 65.9639 57.205 66.284 59.006 65.0197L59.1007 64.9237C60.9017 63.6594 61.4231 61.2429 60.4594 59.3225C62.0234 60.7788 64.5195 61.0029 66.3205 59.7386C68.4216 58.1863 68.9746 55.1937 67.4421 53.0492L65.1988 49.8006L70.0804 44.0394C71.3601 42.5191 72.8925 41.2388 74.5987 40.2306L77 38.8223V35.0135L73.6824 36.9179C71.7866 38.0062 70.0804 39.4145 68.6586 41.0948L63.4136 47.2561C61.8496 45.7998 59.3535 45.5757 57.5525 46.84C55.4514 48.3923 54.8984 51.3849 56.4309 53.5293L56.5098 53.7374H56.4151C54.93 52.6812 52.9079 52.5691 51.3123 53.6574L51.2175 53.7534C49.8115 54.7456 49.1479 56.474 49.4481 58.1543L48.9426 58.5224C47.5365 57.7702 45.7987 57.7702 44.3927 58.7624C43.0973 59.6746 42.4337 61.2909 42.5443 62.7632L41.1541 63.6594C40.1114 63.4034 38.9423 63.6434 38.0419 64.2675C36.936 65.0837 36.2883 66.428 36.3199 67.6922L35.6247 68.1403C35.214 68.5084 34.5347 68.6685 33.9659 68.5404C33.3972 68.4124 32.8285 68.0923 32.4651 67.5802C32.1018 67.1641 31.9438 66.476 32.0702 65.8999C32.1966 65.3238 32.5125 64.7477 33.0181 64.3796L40.5538 58.6344C40.9487 58.3623 41.1699 57.9783 41.1857 57.4982C41.2331 56.618 40.4906 55.8658 39.6375 55.8658C39.3057 55.8658 39.0371 55.9458 38.7528 56.1059L26.7146 64.9397C26.0195 65.3878 25.2296 65.6438 24.3765 65.4998C23.5234 65.3558 22.7651 64.9237 22.3227 64.2195C21.3275 62.8913 21.6276 60.8588 23.0336 59.8666L37.3783 49.4965C37.6943 49.2085 37.9155 48.8084 37.9155 48.2803C37.9313 47.4481 37.2519 46.744 36.4305 46.712C35.9565 46.6959 35.5774 46.872 35.2614 47.2401L21.2169 57.5302C20.8219 57.7062 20.6165 57.9943 20.3164 58.2663C18.626 59.3545 16.1299 59.1145 15.2294 57.8982C14.3289 56.586 14.5185 54.8256 15.6401 53.7214L17.0462 52.7292L32.6547 41.943C33.0497 41.6709 33.2708 41.2868 33.2866 40.8067C33.3182 40.2786 33.0655 39.7825 32.6389 39.4785C32.086 39.0784 31.533 39.0624 30.9485 39.4145L14.2341 50.9208C14.1235 51.1129 13.9339 51.1929 13.8233 51.2889L12.2119 52.4731C10.9007 53.4813 8.89434 53.1773 7.91485 51.753C6.91957 50.4247 7.21974 48.3923 8.62577 47.4001L40.143 23.8913C42.6707 25.3956 44.5349 28.4202 44.5349 28.4202C47.6313 38.2462 51.486 38.3262 53.8242 37.142C55.0406 36.5339 55.5936 35.0776 55.167 33.7653C53.9348 29.9725 53.2238 22.627 53.2238 22.627C52.3549 20.7226 49.5745 18.7222 46.4781 17.0899L56.6046 17.2499L59.8117 17.1859Z" stroke="white" stroke-width="4" mask="url(#path-1-inside-1)"/>
</g>
<defs>
<clipPath id="clip0">
<rect width="77" height="78" fill="white"/>
</clipPath>
</defs>
</svg>
