<svg width="70" height="69" viewBox="0 0 70 69" fill="none" xmlns="http://www.w3.org/2000/svg">
<path d="M37.1665 17.4V1H57.2628L67.6614 17.4H37.1665Z" stroke="white" stroke-width="2"/>
<path d="M2.33864 17.4L12.7372 1H32.8335V17.4H2.33864Z" stroke="white" stroke-width="2"/>
<path d="M28.3432 44.0126L28.3427 44.0128C28.086 44.1177 27.8438 44.2721 27.6371 44.4775C27.6363 44.4782 27.6356 44.4789 27.6348 44.4797L24.1398 47.9247C23.2863 48.766 23.2863 50.1339 24.1398 50.9752C24.563 51.3923 25.1175 51.6 25.6667 51.6C26.1356 51.6 26.6084 51.4485 27 51.1446V56.35C27 57.5523 27.9846 58.5 29.1667 58.5C30.3487 58.5 31.3333 57.5524 31.3333 56.35V51.1446C31.7249 51.4485 32.1978 51.6 32.6667 51.6C33.2158 51.6 33.7704 51.3923 34.1935 50.9752C35.047 50.1339 35.047 48.766 34.1935 47.9247L30.6947 44.4759C30.4906 44.2747 30.2514 44.1194 29.9907 44.0128L29.9901 44.0126C29.4633 43.7977 28.87 43.7977 28.3432 44.0126ZM37.3333 51.6C37.8022 51.6 38.2751 51.4485 38.6667 51.1446V56.35C38.6667 57.5524 39.6513 58.5 40.8333 58.5C42.0153 58.5 43 57.5524 43 56.35V51.1446C43.3916 51.4485 43.8644 51.6 44.3333 51.6C44.8825 51.6 45.437 51.3923 45.8602 50.9752C46.7137 50.1339 46.7137 48.766 45.8602 47.9247L42.3613 44.4759L41.6593 45.1881L42.3613 44.4759C42.1572 44.2747 41.9181 44.1194 41.6573 44.0128L41.6568 44.0126C41.13 43.7977 40.5367 43.7977 40.0099 44.0126L40.0093 44.0128C39.7527 44.1177 39.5107 44.272 39.304 44.4772C39.3031 44.478 39.3023 44.4789 39.3015 44.4797L35.8065 47.9247C34.953 48.766 34.953 50.1339 35.8065 50.9752C36.2296 51.3923 36.7842 51.6 37.3333 51.6ZM1 68V21.7H69V68H1ZM25.6667 63.1H44.3333C45.5153 63.1 46.5 62.1524 46.5 60.95C46.5 59.7476 45.5153 58.8 44.3333 58.8H25.6667C24.4846 58.8 23.5 59.7476 23.5 60.95C23.5 62.1524 24.4847 63.1 25.6667 63.1ZM28 34.35H42C44.4683 34.35 46.5 32.3679 46.5 29.9C46.5 27.4321 44.4683 25.45 42 25.45H28C25.5317 25.45 23.5 27.4321 23.5 29.9C23.5 32.3679 25.5317 34.35 28 34.35Z" stroke="white" stroke-width="2"/>
</svg>
