<svg width="71" height="71" viewBox="0 0 71 71" fill="none" xmlns="http://www.w3.org/2000/svg">
<path d="M22.5956 25.754C22.5956 32.8288 28.3383 38.6411 35.5002 38.6411C42.7272 38.6411 48.4047 32.764 48.4047 25.754C48.4047 24.2752 48.4064 23.0495 48.4078 22.0216L48.4078 22.0007L48.4121 18.7634L46.5828 21.4342L45.4646 23.0668C45.2631 23.3608 44.9298 23.5365 44.5735 23.5365H26.4267C26.0702 23.5365 25.737 23.3607 25.5358 23.0669L25.5357 23.0668L24.4174 21.4342L22.5881 18.7634L22.5924 22.0007L22.5924 22.0169C22.5938 23.0459 22.5955 24.2729 22.5956 25.754ZM22.5956 25.754H23.5956H22.5956ZM66.078 68.6351L66.078 68.6352C66.2656 69.3212 65.7476 70 65.0365 70H38.5802V49.0182V48.4786L38.1293 48.1824L36.0493 46.8158L35.5002 46.455L34.9511 46.8158L32.871 48.1824L32.4201 48.4786V49.0182V70H5.96389C5.25271 70 4.73452 69.3215 4.92206 68.6353L10.5465 48.0578L9.58184 47.7941L10.5465 48.0577C10.6121 47.8175 10.7589 47.6072 10.9618 47.4626C15.7582 44.0469 16.7542 43.3375 17.7503 42.6282C18.7489 41.9171 19.7476 41.2059 24.5763 37.7674L25.5261 37.0911L24.7129 36.2555C21.9988 33.4663 20.4355 29.6965 20.4355 25.754C20.4355 24.2171 20.4337 22.9484 20.4323 21.8928C20.4259 17.1363 20.4253 16.7039 20.6129 15.5367L20.6247 15.463L20.6255 15.3884C20.7107 7.15687 26.9188 1 35.1767 1H35.8234C44.0814 1 50.2895 7.15688 50.3747 15.3882L50.3755 15.4628L50.3873 15.5365C50.5749 16.7038 50.5743 17.1365 50.5679 21.8929C50.5665 22.9485 50.5648 24.2171 50.5648 25.7539C50.5648 29.6967 49.0014 33.4665 46.2874 36.2553L45.4743 37.091L46.4241 37.7673C50.0145 40.3241 51.2649 41.2145 52.5153 42.1049C53.9192 43.1047 55.323 44.1044 60.0384 47.4625C60.2412 47.6069 60.3879 47.8172 60.4536 48.0576L66.078 68.6351ZM33.9693 44.8761L34.4202 44.5799V44.0404V41.6678V40.7883L33.5479 40.676C31.6434 40.4309 29.7087 39.8057 27.9187 38.7617L27.3609 38.4363L26.8348 38.8109L22.1613 42.139L20.9828 42.9783L22.1844 43.7841L28.2878 47.8772L28.8391 48.2469L29.3939 47.8824L33.9693 44.8761ZM36.5801 44.0404V44.5799L37.031 44.8761L41.6063 47.8823L42.1611 48.2468L42.7124 47.877L48.8158 43.784L50.0174 42.9782L48.8389 42.1389L44.1654 38.8108L43.6393 38.4361L43.0814 38.7616C41.3775 39.7556 39.4582 40.418 37.4526 40.6759L36.5801 40.7881V41.6677V44.0404ZM36.8585 5.73973H34.1417C32.4407 5.73973 31.0617 7.11877 31.0617 8.81981C31.0617 10.5209 32.4407 11.8999 34.1417 11.8999H36.8585C38.5595 11.8999 39.9385 10.5209 39.9385 8.81981C39.9385 7.11877 38.5595 5.73973 36.8585 5.73973ZM45.8769 63.1379H53.1707C54.8718 63.1379 56.2508 61.7589 56.2508 60.0578C56.2508 58.3568 54.8718 56.9777 53.1707 56.9777H45.8769C44.1758 56.9777 42.7968 58.3568 42.7968 60.0578C42.7968 61.7589 44.1758 63.1379 45.8769 63.1379Z" stroke="white" stroke-width="2"/>
</svg>
