<svg width="72" height="72" viewBox="0 0 72 72" fill="none" xmlns="http://www.w3.org/2000/svg">
<mask id="path-1-inside-1" fill="white">
<path d="M63.685 58.8493V47.7467C63.685 45.3612 61.7511 43.4272 59.3656 43.4272H58.2364V2.89392C58.2364 2.53133 58.0544 2.19298 57.7521 1.9931L55.0103 0.180861C54.2923 -0.293609 53.3351 0.221097 53.3351 1.08168V14.0996L52.5181 11.8956C51.4193 8.93133 48.5918 6.96404 45.4304 6.96404H26.5533C23.3733 6.96404 20.5334 8.95416 19.4481 11.9432L18.6651 14.0996V1.08168C18.6651 0.221214 17.7078 -0.293609 16.9898 0.180861L14.248 1.99298C13.9455 2.19286 13.7635 2.53121 13.7635 2.8938V43.4272H12.6344C10.2489 43.4272 8.31502 45.3611 8.31502 47.7467V58.8493H6.47478C5.87843 58.8493 5.39502 59.3328 5.39502 59.9292V65.899C5.39502 66.4953 5.87843 66.9789 6.47478 66.9789H11.1334V69.8403C11.1334 71.0331 12.1003 71.9999 13.2931 71.9999H19.0161C20.2089 71.9999 21.1758 71.033 21.1758 69.8403V66.9789H50.8245V69.8403C50.8245 71.0331 51.7916 71.9999 52.9842 71.9999H58.7072C59.9001 71.9999 60.8669 71.033 60.8669 69.8403V66.9789H65.5255C66.122 66.9789 66.6054 66.4953 66.6054 65.899V59.9293C66.6054 59.3329 66.122 58.8495 65.5255 58.8495L63.685 58.8493ZM20.0958 20.1147H51.9043V30.7547H20.0958V20.1147ZM19.3562 55.8275H15.6671C14.54 55.8275 13.6262 54.9136 13.6262 53.7864V53.7349C13.6262 52.6077 14.54 51.6939 15.6671 51.6939H19.3561C20.4833 51.6939 21.397 52.6077 21.397 53.7349V53.7864C21.3971 54.9136 20.4834 55.8275 19.3562 55.8275ZM43.341 56.4292H28.6591C27.4663 56.4292 26.4994 55.4622 26.4994 54.2696V40.5855C26.4994 39.3927 27.4663 38.4258 28.6591 38.4258H43.341C44.5337 38.4258 45.5007 39.3929 45.5007 40.5855V54.2695C45.5008 55.4622 44.5337 56.4292 43.341 56.4292ZM56.3329 55.8275H52.644C51.5169 55.8275 50.603 54.9136 50.603 53.7864V53.7349C50.603 52.6077 51.5169 51.6939 52.644 51.6939H56.3329C57.4601 51.6939 58.374 52.6077 58.374 53.7349V53.7864C58.374 54.9136 57.4601 55.8275 56.3329 55.8275ZM43.0127 46.3296H28.9529C28.3624 46.3296 27.8838 45.851 27.8838 45.2604V45.2387C27.8838 44.6483 28.3624 44.1698 28.9529 44.1698H43.0127C43.6031 44.1698 44.0817 44.6483 44.0817 45.2387V45.2604C44.0817 45.851 43.6031 46.3296 43.0127 46.3296ZM43.0127 42.01H28.9529C28.3624 42.01 27.8838 41.5315 27.8838 40.941V40.9193C27.8838 40.329 28.3624 39.8504 28.9529 39.8504H43.0127C43.6031 39.8504 44.0817 40.329 44.0817 40.9193V40.941C44.0817 41.5315 43.6031 42.01 43.0127 42.01ZM43.0127 54.9685H28.9529C28.3624 54.9685 27.8838 54.4899 27.8838 53.8995V53.8778C27.8838 53.2873 28.3624 52.8087 28.9529 52.8087H43.0127C43.6031 52.8087 44.0817 53.2873 44.0817 53.8778V53.8995C44.0817 54.4899 43.6031 54.9685 43.0127 54.9685ZM43.0127 50.649H28.9529C28.3624 50.649 27.8838 50.1704 27.8838 49.58V49.5584C27.8838 48.9679 28.3624 48.4893 28.9529 48.4893H43.0127C43.6031 48.4893 44.0817 48.9679 44.0817 49.5584V49.58C44.0817 50.1704 43.6031 50.649 43.0127 50.649Z"/>
</mask>
<path d="M63.685 58.8493V47.7467C63.685 45.3612 61.7511 43.4272 59.3656 43.4272H58.2364V2.89392C58.2364 2.53133 58.0544 2.19298 57.7521 1.9931L55.0103 0.180861C54.2923 -0.293609 53.3351 0.221097 53.3351 1.08168V14.0996L52.5181 11.8956C51.4193 8.93133 48.5918 6.96404 45.4304 6.96404H26.5533C23.3733 6.96404 20.5334 8.95416 19.4481 11.9432L18.6651 14.0996V1.08168C18.6651 0.221214 17.7078 -0.293609 16.9898 0.180861L14.248 1.99298C13.9455 2.19286 13.7635 2.53121 13.7635 2.8938V43.4272H12.6344C10.2489 43.4272 8.31502 45.3611 8.31502 47.7467V58.8493H6.47478C5.87843 58.8493 5.39502 59.3328 5.39502 59.9292V65.899C5.39502 66.4953 5.87843 66.9789 6.47478 66.9789H11.1334V69.8403C11.1334 71.0331 12.1003 71.9999 13.2931 71.9999H19.0161C20.2089 71.9999 21.1758 71.033 21.1758 69.8403V66.9789H50.8245V69.8403C50.8245 71.0331 51.7916 71.9999 52.9842 71.9999H58.7072C59.9001 71.9999 60.8669 71.033 60.8669 69.8403V66.9789H65.5255C66.122 66.9789 66.6054 66.4953 66.6054 65.899V59.9293C66.6054 59.3329 66.122 58.8495 65.5255 58.8495L63.685 58.8493ZM20.0958 20.1147H51.9043V30.7547H20.0958V20.1147ZM19.3562 55.8275H15.6671C14.54 55.8275 13.6262 54.9136 13.6262 53.7864V53.7349C13.6262 52.6077 14.54 51.6939 15.6671 51.6939H19.3561C20.4833 51.6939 21.397 52.6077 21.397 53.7349V53.7864C21.3971 54.9136 20.4834 55.8275 19.3562 55.8275ZM43.341 56.4292H28.6591C27.4663 56.4292 26.4994 55.4622 26.4994 54.2696V40.5855C26.4994 39.3927 27.4663 38.4258 28.6591 38.4258H43.341C44.5337 38.4258 45.5007 39.3929 45.5007 40.5855V54.2695C45.5008 55.4622 44.5337 56.4292 43.341 56.4292ZM56.3329 55.8275H52.644C51.5169 55.8275 50.603 54.9136 50.603 53.7864V53.7349C50.603 52.6077 51.5169 51.6939 52.644 51.6939H56.3329C57.4601 51.6939 58.374 52.6077 58.374 53.7349V53.7864C58.374 54.9136 57.4601 55.8275 56.3329 55.8275ZM43.0127 46.3296H28.9529C28.3624 46.3296 27.8838 45.851 27.8838 45.2604V45.2387C27.8838 44.6483 28.3624 44.1698 28.9529 44.1698H43.0127C43.6031 44.1698 44.0817 44.6483 44.0817 45.2387V45.2604C44.0817 45.851 43.6031 46.3296 43.0127 46.3296ZM43.0127 42.01H28.9529C28.3624 42.01 27.8838 41.5315 27.8838 40.941V40.9193C27.8838 40.329 28.3624 39.8504 28.9529 39.8504H43.0127C43.6031 39.8504 44.0817 40.329 44.0817 40.9193V40.941C44.0817 41.5315 43.6031 42.01 43.0127 42.01ZM43.0127 54.9685H28.9529C28.3624 54.9685 27.8838 54.4899 27.8838 53.8995V53.8778C27.8838 53.2873 28.3624 52.8087 28.9529 52.8087H43.0127C43.6031 52.8087 44.0817 53.2873 44.0817 53.8778V53.8995C44.0817 54.4899 43.6031 54.9685 43.0127 54.9685ZM43.0127 50.649H28.9529C28.3624 50.649 27.8838 50.1704 27.8838 49.58V49.5584C27.8838 48.9679 28.3624 48.4893 28.9529 48.4893H43.0127C43.6031 48.4893 44.0817 48.9679 44.0817 49.5584V49.58C44.0817 50.1704 43.6031 50.649 43.0127 50.649Z" stroke="white" stroke-width="4" mask="url(#path-1-inside-1)"/>
</svg>
